<svg xmlns="http://www.w3.org/2000/svg" width="39" height="41" viewBox="0 0 39 41">
  <defs>
    <style>
      .cls-1 {
        fill: #333;
        fill-rule: evenodd;
      }
    </style>
  </defs>
  <path id="Composite_Path" data-name="Composite Path" class="cls-1" d="M1026.74,2267h31.52a3.7,3.7,0,0,0,2.65-1.14,3.926,3.926,0,0,0,1.09-2.73v-20.71a1.123,1.123,0,0,0-.38-0.84l-5.22-4.56v-7.95a3.141,3.141,0,0,0-.86-2.17,2.924,2.924,0,0,0-2.1-.9h-21.67a2.907,2.907,0,0,0-2.1.9,3.15,3.15,0,0,0-.87,2.17v7.78l-5.42,4.73a1.123,1.123,0,0,0-.38.84v20.71a3.926,3.926,0,0,0,1.09,2.73,3.7,3.7,0,0,0,2.65,1.14h0Zm31.52-2.19h-31.52a1.6,1.6,0,0,1-1.15-.5,1.707,1.707,0,0,1-.47-1.18v-18.62l12.08,8.84-8.57,6.79a1.127,1.127,0,0,0-.22,1.54,1.04,1.04,0,0,0,1.49.21l9.12-7.21,2.96,2.19h0a1.035,1.035,0,0,0,1.23,0l2.97-2.19,9.12,7.2a1.03,1.03,0,0,0,1.48-.22,1.115,1.115,0,0,0-.21-1.53l-8.56-6.78,11.87-8.68v18.46h0a1.655,1.655,0,0,1-.48,1.18,1.561,1.561,0,0,1-1.14.5h0Zm1.03-22.4-2.89,2.11v-4.63Zm-27.52-14.21h21.67a0.839,0.839,0,0,1,.6.25,0.9,0.9,0,0,1,.25.62v16.99l-11.68,8.56-11.68-8.56v-16.99a0.858,0.858,0,0,1,.84-0.87h0Zm-2.97,16.32-3-2.19,3-2.63v4.82Zm13.7,4.47h0.27a1.1,1.1,0,0,0,0-2.2h-0.27a6.654,6.654,0,0,1-4.78-2.04,7.165,7.165,0,0,1,0-9.89,6.6,6.6,0,0,1,9.56,0,7.1,7.1,0,0,1,1.98,4.94v1.88a1.21,1.21,0,0,1-1.18,1.15,1.2,1.2,0,0,1-1.18-1.15v-1.88a4.627,4.627,0,0,0-1.64-3.57,4.3,4.3,0,0,0-3.72-.91,4.45,4.45,0,0,0-3.01,2.44,4.724,4.724,0,0,0-.03,3.96,4.437,4.437,0,0,0,2.97,2.49,4.3,4.3,0,0,0,3.73-.84,3.293,3.293,0,0,0,2.29,1.69,3.234,3.234,0,0,0,2.71-.74,3.523,3.523,0,0,0,1.18-2.64v-1.88a9.365,9.365,0,0,0-2.6-6.49,8.676,8.676,0,0,0-12.56,0,9.413,9.413,0,0,0,0,12.99,8.762,8.762,0,0,0,6.28,2.69h0Zm0-6.83a2.258,2.258,0,0,1-1.61-.69,2.4,2.4,0,0,1,0-3.33,2.223,2.223,0,0,1,3.22,0,2.4,2.4,0,0,1,0,3.33A2.258,2.258,0,0,1,1042.5,2242.16Z" transform="translate(-1023 -2226)"/>
</svg>
