<svg id="icon" xmlns="http://www.w3.org/2000/svg" width="60" height="60" viewBox="0 0 60 60">
  <defs>
    <style>
      .cls-1 {
        fill: #0090f1;
      }

      .cls-1, .cls-2 {
        fill-rule: evenodd;
      }

      .cls-2 {
        fill: #274d84;
      }
    </style>
  </defs>
  <path id="Composite_Path" data-name="Composite Path" class="cls-1" d="M578.051,3492.55a0.609,0.609,0,0,1-.65.52c-1.04,0-7.283-7.28-11.575-11.58l-21.461,23.29,2.992,2.73,18.469-19.9,15.477,15.73,6.633-6.24a4.581,4.581,0,0,1,1.3,1.04,0.127,0.127,0,0,0,.13-0.13c0.65-2.21,1.04-4.55,1.561-7.15,0,0,0-.13-0.261-0.13-0.39,0-4.682,1.04-7.023,1.69a5.377,5.377,0,0,1,1.171,1.56,20.8,20.8,0,0,1-3.382,3.38,0.521,0.521,0,0,1-.65-0.65c0-.39,1.56-1.82,2.471-2.73a6.9,6.9,0,0,1-1.691-2.08,0.807,0.807,0,0,1,.39-0.52,20.808,20.808,0,0,0,2.732-.65c2.211-.39,6.633-1.43,7.023-1.43a0.546,0.546,0,0,1,.65.65c0,0.39-1.3,6.76-2.081,10.01,0,0.13-.13.26-0.52,0.26a7.634,7.634,0,0,1-1.821-1.56c-2.211,2.08-5.072,5.33-6.633,6.24l-15.347-15.6a38.259,38.259,0,0,0-3.122,3.25c-3.642,4.03-14.7,16.52-15.477,16.52a22.7,22.7,0,0,1-4.552-4.29L565.7,3479.8ZM580,3494.5a0.835,0.835,0,0,1-.65.65,0.709,0.709,0,0,1-.65-0.78,0.6,0.6,0,0,1,.65-0.52A0.7,0.7,0,0,1,580,3494.5Z" transform="translate(-532.656 -3475.34)"/>
  <path id="Composite_Path-2" data-name="Composite Path" class="cls-2" d="M539.423,3475.9v52.68h5.2v-12.75h9.234a0.58,0.58,0,0,1,.39.52v11.06a2.045,2.045,0,0,0,1.171,1.17h5.722v-27.06l0.391-.39h8.844a0.81,0.81,0,0,1,.39.65v25.63a2.042,2.042,0,0,0,1.171,1.17h5.722v-19.77a0.58,0.58,0,0,1,.52-0.39h8.585a0.7,0.7,0,0,1,.52.65v18.34a2.043,2.043,0,0,0,1.17,1.17H592.1c0.781,0.52.52,2.86,0.52,3.25s0.13,3.51-.78,3.51H533.31a1.068,1.068,0,0,1-.65-0.65v-58.66c0.13-.13.13-0.39,0.26-0.52,1.041-.13,2.861-0.13,3.122-0.13C536.432,3475.38,538.773,3475.12,539.423,3475.9Zm-1.431.91v52.42a0.822,0.822,0,0,0,.651.65c1.04,0.13,2.991.13,3.381,0.13,0.261,0,2.211,0,3.382-.13a1.068,1.068,0,0,0,.65-0.65v-12.1h6.764v11.32h-4.032a1.07,1.07,0,0,0-.521.78,0.825,0.825,0,0,0,.651.78h12.876a1.517,1.517,0,0,0,.78-0.78v-26.8h6.763v26.02H565.3a1.153,1.153,0,0,0-.52.65,0.866,0.866,0,0,0,.65.91h12.746a1.194,1.194,0,0,0,.781-0.52v-19.64h6.893v18.6h-4.032a1.069,1.069,0,0,0-.52.78,0.824,0.824,0,0,0,.65.78h9.235v3.9h-57.1v-57.1h3.9Z" transform="translate(-532.656 -3475.34)"/>
</svg>
