<svg id="icon" xmlns="http://www.w3.org/2000/svg" width="65" height="60" viewBox="0 0 65 60">
  <defs>
    <style>
      .cls-1 {
        fill: #274d84;
      }

      .cls-1, .cls-2 {
        fill-rule: evenodd;
      }

      .cls-2 {
        fill: #0090f1;
      }
    </style>
  </defs>
  <path id="Composite_Path" data-name="Composite Path" class="cls-1" d="M1200.58,3306.04v-0.77c0.13-2.06,3.44-1.16,3.56-1.16,0.64,0,3.82-.38,3.82,1.03v9.38l8.27,9.89c-0.38,1.41-1.78.9-2.8,1.03v17.47h3.18a1.278,1.278,0,0,1,.89.9v15.29a1.619,1.619,0,0,1-.64.9h-63.72a1.231,1.231,0,0,1-.64-0.77v-15.55a1.17,1.17,0,0,1,.76-0.77h3.31v-17.47c-0.89-.13-2.67.26-2.67-1.03,0-.64,5.09-6.04,5.47-6.42,3.31-3.6,6.74-7.33,10.18-11.05h18.18c1.02-1.16,6.11-6.94,6.87-6.94C1195.62,3300,1198.55,3304.37,1200.58,3306.04Zm12.21,17.34h-4.07c-0.89-1.03-2.03-2.18-3.05-3.34-3.56-3.85-7-7.96-10.43-11.69a0.944,0.944,0,0,0-.64-0.13c-0.38,0-.51-0.13-0.63.13-4.58,4.88-9.03,10.02-13.49,15.03h-5.34l19.34-20.81Zm-6.87-17.21v6.04a31.906,31.906,0,0,1-3.43-3.99v-2.05h3.43Zm-20.22,2.69-13.74,14.52h-14.75l13.48-14.52h15.01Zm11.57,5.02c3.57,3.72,10.44,11.69,10.82,11.69h3.3v17.21h-15.77v-3.98a5.181,5.181,0,0,0-5.09-4.24c-2.54,0-5.21,2.18-5.21,4.5v3.72h-7.51v-17.21h2.93a0.891,0.891,0,0,0,.76-0.39c4.33-4.62,8.65-9.51,13.1-14.39Zm-21.49,11.69v17.21h-17.17v-17.21h17.17Zm17.81,13.87v9h-6.11v-9.51a3.3,3.3,0,0,1,2.93-2.31C1191.81,3336.62,1193.59,3338.03,1193.59,3339.44Zm-35.75,5.53v7.58h-3.3v-7.58h3.3Zm5.6,0v7.58H1160v-7.58h3.44Zm5.47,0v7.58h-3.44v-7.58h3.44Zm5.47,0v7.58h-3.44v-7.58h3.44Zm5.47,0v7.58h-3.44v-7.58h3.44Zm5.47,0v7.58h-3.31v-7.58h3.31Zm13.74,0v7.58h-3.44v-7.58h3.44Zm5.47,0v7.58h-3.44v-7.58h3.44Zm5.47,0v7.58h-3.44v-7.58H1210Zm5.46,0v7.58h-3.3v-7.58h3.3Zm-21.87,5.52v7.58h-6.11v-7.58h6.11Zm-8.27,4.11v3.47h-30.78v-3.47h30.78Zm30.14,0v3.47h-19.84v-3.47h19.84Z" transform="translate(-1152.5 -3300)"/>
  <path id="Composite_Path-2" data-name="Composite Path" class="cls-2" d="M1198.29,3320.71a3.768,3.768,0,0,1-3.69,3.6,3.457,3.457,0,0,1-3.69-3.6,3.6,3.6,0,0,1,3.57-3.72A3.732,3.732,0,0,1,1198.29,3320.71Zm-2.03,0a1.688,1.688,0,0,1-1.66,1.67,1.533,1.533,0,0,1-1.65-1.67,1.479,1.479,0,0,1,1.65-1.67A1.544,1.544,0,0,1,1196.26,3320.71Zm-25.19,7.33a1.214,1.214,0,0,1,1.15.77v8.61a3.015,3.015,0,0,1-.51.77h-7.63a1.806,1.806,0,0,1-.51-0.52v-8.99a0.826,0.826,0,0,1,1.01-.64h6.49Zm35.62,0a1.193,1.193,0,0,1,1.14.64v8.99c-0.12.13-.38,0.39-0.51,0.52h-7.63c-0.13-.13-0.38-0.39-0.51-0.52v-8.99a0.949,0.949,0,0,1,1.02-.64h6.49Zm-36.51,2.05v6.17h-4.71v-6.17h4.71Zm35.74,0v6.17h-4.83v-6.17h4.83Z" transform="translate(-1152.5 -3300)"/>
</svg>
