<svg id="logo" xmlns="http://www.w3.org/2000/svg" width="295" height="62.969" viewBox="0 0 295 62.969">
  <defs>
    <style>
      .cls-1 {
        fill: #284e84;
      }

      .cls-1, .cls-2 {
        fill-rule: evenodd;
      }

      .cls-2 {
        fill: #0090f1;
      }
    </style>
  </defs>
  <path id="Composite_Path" data-name="Composite Path" class="cls-1" d="M170.693,59.255l-7.319-6.478V36.613a2.974,2.974,0,0,0-2.994-2.954H148.4a2.975,2.975,0,0,0-2.994,2.954v0.263l-6.666-5.906a5.042,5.042,0,0,0-6.628,0L100.174,59.255a1.951,1.951,0,0,0-.17,2.779l1.33,1.469a2.015,2.015,0,0,0,2.818.164h0l3.337-2.953V87.8a4.957,4.957,0,0,0,4.99,4.922h45.91a4.956,4.956,0,0,0,4.99-4.922h0V60.713l3.339,2.954a2.015,2.015,0,0,0,2.817-.164h0l1.331-1.468a1.949,1.949,0,0,0-.172-2.779h0ZM157.386,86.82H113.472V55.408l21.957-19.443,21.957,19.443V86.82Zm0-39.347-5.988-5.3V39.565h5.988v7.908Z" transform="translate(-99.5 -29.75)"/>
  <path id="Path" class="cls-2" d="M129.7,53.349h11.477a2.231,2.231,0,0,1,2.245,2.216V66.884a2.231,2.231,0,0,1-2.245,2.217H129.7a2.231,2.231,0,0,1-2.246-2.217V55.565A2.231,2.231,0,0,1,129.7,53.349Z" transform="translate(-99.5 -29.75)"/>
  <path id="Path-2" data-name="Path" class="cls-1" d="M195.044,81.1a13.716,13.716,0,0,1-5.56-5.88,21.631,21.631,0,0,1,0-17.9,13.77,13.77,0,0,1,5.56-5.855,16.84,16.84,0,0,1,8.447-2.053,18.566,18.566,0,0,1,5.866.908,15.323,15.323,0,0,1,4.873,2.639,2.7,2.7,0,0,1,.854.981,3.009,3.009,0,0,1,.235,1.26,2.648,2.648,0,0,1-.566,1.726,1.715,1.715,0,0,1-1.374.7,3.516,3.516,0,0,1-1.939-.656,14.189,14.189,0,0,0-3.784-2.077,12.268,12.268,0,0,0-3.881-.582,9.156,9.156,0,0,0-7.453,3.035q-2.528,3.034-2.527,8.913,0,5.928,2.527,8.962a9.158,9.158,0,0,0,7.453,3.036,11.261,11.261,0,0,0,3.763-.609,18.116,18.116,0,0,0,3.9-2.053,6.592,6.592,0,0,1,.946-0.466,2.69,2.69,0,0,1,.993-0.185,1.714,1.714,0,0,1,1.374.7,2.649,2.649,0,0,1,.566,1.726,3.045,3.045,0,0,1-.235,1.236,2.632,2.632,0,0,1-.854,1,15.343,15.343,0,0,1-4.872,2.638,18.563,18.563,0,0,1-5.867.909A16.811,16.811,0,0,1,195.044,81.1Z" transform="translate(-99.5 -29.75)"/>
  <path id="Composite_Path-2" data-name="Composite Path" class="cls-1" d="M236.871,61.707q2.34,2.364,2.341,7.164V80.258a2.62,2.62,0,0,1-.756,1.986,2.9,2.9,0,0,1-2.082.723,2.779,2.779,0,0,1-2.01-.749,2.593,2.593,0,0,1-.783-1.96V79.231a6.117,6.117,0,0,1-2.527,2.849,7.675,7.675,0,0,1-3.992,1.026,9.381,9.381,0,0,1-4.211-.934,7.431,7.431,0,0,1-2.981-2.566,6.428,6.428,0,0,1-1.088-3.641,5.71,5.71,0,0,1,1.3-3.967,7.862,7.862,0,0,1,4.233-2.1,39.286,39.286,0,0,1,8.091-.656h1.184V68.166a4.729,4.729,0,0,0-.994-3.334,4.26,4.26,0,0,0-3.218-1.051,10.3,10.3,0,0,0-2.795.394q-1.422.395-3.36,1.145a4.784,4.784,0,0,1-1.8.605,1.785,1.785,0,0,1-1.394-.605,2.286,2.286,0,0,1-.545-1.588,2.364,2.364,0,0,1,.4-1.376,3.823,3.823,0,0,1,1.349-1.1,15.578,15.578,0,0,1,3.95-1.4,20.612,20.612,0,0,1,4.525-.515Q234.529,59.353,236.871,61.707Zm-4.783,15.63a5.6,5.6,0,0,0,1.491-4.037v-0.98h-0.851a33.065,33.065,0,0,0-4.924.28,4.794,4.794,0,0,0-2.508.98,2.478,2.478,0,0,0-.758,1.913,3.149,3.149,0,0,0,1.065,2.452,3.784,3.784,0,0,0,2.626.956A5.089,5.089,0,0,0,232.088,77.336Z" transform="translate(-99.5 -29.75)"/>
  <path id="Path-3" data-name="Path" class="cls-1" d="M245.267,81.1a2.776,2.776,0,0,1-1.513-2.518,2.2,2.2,0,0,1,.52-1.517,1.643,1.643,0,0,1,1.277-.584,5.277,5.277,0,0,1,2.224.747,21.013,21.013,0,0,0,2.767,1.074,11.438,11.438,0,0,0,3.194.373,6.133,6.133,0,0,0,3.1-.657,2.021,2.021,0,0,0,1.113-1.819,1.746,1.746,0,0,0-.449-1.26,4.148,4.148,0,0,0-1.61-.864,34.156,34.156,0,0,0-3.526-.911,13.626,13.626,0,0,1-6.032-2.379,5.264,5.264,0,0,1-1.822-4.246,6.074,6.074,0,0,1,1.231-3.712,7.941,7.941,0,0,1,3.383-2.566,12.444,12.444,0,0,1,4.9-.911,14.882,14.882,0,0,1,3.833.489,11.808,11.808,0,0,1,3.312,1.423,2.816,2.816,0,0,1,1.514,2.473,2.373,2.373,0,0,1-.52,1.564,1.6,1.6,0,0,1-1.277.63,2.626,2.626,0,0,1-1.018-.211,13.386,13.386,0,0,1-1.252-.629,20.207,20.207,0,0,0-2.367-1.051,7.466,7.466,0,0,0-2.46-.352,4.8,4.8,0,0,0-2.768.7A2.2,2.2,0,0,0,250,66.3a1.943,1.943,0,0,0,1.041,1.775,15.1,15.1,0,0,0,4.023,1.214,23.088,23.088,0,0,1,4.967,1.492,5.805,5.805,0,0,1,2.58,2.1,6.047,6.047,0,0,1,.781,3.221,5.962,5.962,0,0,1-2.673,5.087,11.984,11.984,0,0,1-7.122,1.925A15.359,15.359,0,0,1,245.267,81.1Z" transform="translate(-99.5 -29.75)"/>
  <path id="Path-4" data-name="Path" class="cls-1" d="M289.837,68.73V80.212a2.7,2.7,0,0,1-.781,2.054,2.987,2.987,0,0,1-2.152.747,3.064,3.064,0,0,1-2.177-.747,2.673,2.673,0,0,1-.8-2.054V68.73a5.342,5.342,0,0,0-1.016-3.616,4.071,4.071,0,0,0-3.194-1.145,5.438,5.438,0,0,0-4.093,1.588,5.836,5.836,0,0,0-1.538,4.247V80.212a2.669,2.669,0,0,1-.8,2.054,3.07,3.07,0,0,1-2.178.747,2.984,2.984,0,0,1-2.153-.747,2.714,2.714,0,0,1-.782-2.054V52.3A2.516,2.516,0,0,1,269,50.344a3.085,3.085,0,0,1,2.154-.748,3.129,3.129,0,0,1,2.13.7,2.407,2.407,0,0,1,.8,1.913V63.085a7.715,7.715,0,0,1,3.147-2.778,10.065,10.065,0,0,1,4.47-.958Q289.837,59.349,289.837,68.73Z" transform="translate(-99.5 -29.75)"/>
  <path id="Composite_Path-3" data-name="Composite Path" class="cls-2" d="M302.756,81.077a13.2,13.2,0,0,1-5.158-5.833,23.219,23.219,0,0,1,0-17.924,13.266,13.266,0,0,1,5.133-5.833,16.538,16.538,0,0,1,15.874,0,13.244,13.244,0,0,1,5.158,5.812,23.306,23.306,0,0,1,0,17.944,13.226,13.226,0,0,1-5.158,5.833,16.484,16.484,0,0,1-15.849,0h0Zm16.653-4.271q3.125-3.732,3.126-10.549t-3.1-10.524a12.155,12.155,0,0,0-17.017-.461q-0.252.235-.49,0.484-3.1,3.733-3.1,10.5t3.1,10.526a12.073,12.073,0,0,0,16.9.595c0.2-.185.393-0.374,0.58-0.572h0Z" transform="translate(-99.5 -29.75)"/>
  <path id="Path-5" data-name="Path" class="cls-2" d="M337.767,53.866a6.4,6.4,0,0,0-1.373,4.505V60.1h5.722a1.3,1.3,0,0,1,.946.327,1.133,1.133,0,0,1,.33.84,1.051,1.051,0,0,1-.33.815,1.347,1.347,0,0,1-.946.3h-5.722V81.519a1.367,1.367,0,0,1-.425,1.05,1.476,1.476,0,0,1-1.041.395,1.305,1.305,0,0,1-1.417-1.449V62.39h-3.594a1.282,1.282,0,0,1-.9-0.3,1.045,1.045,0,0,1-.331-0.816,1.127,1.127,0,0,1,.331-0.84,1.223,1.223,0,0,1,.9-0.327h3.594V58.935a9.535,9.535,0,0,1,2.01-6.439,8.127,8.127,0,0,1,5.843-2.615l1.229-.092q1.846-.141,1.847,1.073a1.251,1.251,0,0,1-1.373,1.26l-1.229.094A5.893,5.893,0,0,0,337.767,53.866Z" transform="translate(-99.5 -29.75)"/>
  <path id="Path-6" data-name="Path" class="cls-2" d="M352.862,53.866a6.415,6.415,0,0,0-1.373,4.505V60.1h5.723a1.3,1.3,0,0,1,.946.327,1.128,1.128,0,0,1,.329.84,1.051,1.051,0,0,1-.329.815,1.347,1.347,0,0,1-.946.3h-5.723V81.519a1.364,1.364,0,0,1-.425,1.05,1.472,1.472,0,0,1-1.04.395,1.308,1.308,0,0,1-1.418-1.449V62.39h-3.593a1.278,1.278,0,0,1-.9-0.3,1.048,1.048,0,0,1-.331-0.816,1.126,1.126,0,0,1,.331-0.84,1.223,1.223,0,0,1,.9-0.327h3.593V58.935a9.536,9.536,0,0,1,2.011-6.439,8.124,8.124,0,0,1,5.84-2.615l1.231-.092q1.846-.141,1.847,1.073a1.252,1.252,0,0,1-1.372,1.26l-1.229.094A5.894,5.894,0,0,0,352.862,53.866Z" transform="translate(-99.5 -29.75)"/>
  <path id="Path-7" data-name="Path" class="cls-2" d="M374.339,59.863a1.084,1.084,0,0,1,.378.933,1.3,1.3,0,0,1-1.418,1.312l-1.421.141a6.9,6.9,0,0,0-4.992,2.38,7.493,7.493,0,0,0-1.633,4.805V81.524a1.438,1.438,0,0,1-.378,1.073,1.422,1.422,0,0,1-1.04.375,1.516,1.516,0,0,1-1.066-.375,1.4,1.4,0,0,1-.4-1.073V61.078a1.4,1.4,0,0,1,.4-1.076,1.512,1.512,0,0,1,1.066-.372,1.358,1.358,0,0,1,.993.372,1.388,1.388,0,0,1,.378,1.028v3.032q1.942-4.013,7.187-4.385l0.665-.048A2.027,2.027,0,0,1,374.339,59.863Z" transform="translate(-99.5 -29.75)"/>
  <path id="Path-8" data-name="Path" class="cls-2" d="M381.7,82.523a12.52,12.52,0,0,1-3.382-1.472A5.856,5.856,0,0,1,377.059,80a1.556,1.556,0,0,1-.353-1,1.108,1.108,0,0,1,.305-0.787,0.97,0.97,0,0,1,.733-0.328,3.387,3.387,0,0,1,1.465.7,15.294,15.294,0,0,0,2.816,1.445,10.087,10.087,0,0,0,3.618.561,8.021,8.021,0,0,0,4.353-1,3.213,3.213,0,0,0,1.561-2.872,2.9,2.9,0,0,0-.568-1.838,4.544,4.544,0,0,0-1.892-1.259,23.349,23.349,0,0,0-3.785-1.051,14.573,14.573,0,0,1-5.987-2.4,4.856,4.856,0,0,1-1.774-3.939,5.83,5.83,0,0,1,2.366-4.828,9.718,9.718,0,0,1,6.151-1.838,13.142,13.142,0,0,1,3.525.466,9.143,9.143,0,0,1,2.911,1.354q1.656,1.121,1.656,2.193a1.2,1.2,0,0,1-.307.816,0.943,0.943,0,0,1-.734.351,3.044,3.044,0,0,1-1.465-.746,14.362,14.362,0,0,0-2.527-1.423,8.153,8.153,0,0,0-3.195-.537,6.412,6.412,0,0,0-3.925,1.1,3.5,3.5,0,0,0-1.464,2.963,2.992,2.992,0,0,0,.5,1.774,4.034,4.034,0,0,0,1.7,1.236,19.711,19.711,0,0,0,3.477,1.05,25.126,25.126,0,0,1,5.017,1.586,5.978,5.978,0,0,1,2.507,2.009,5.792,5.792,0,0,1-1.679,7.584,10.84,10.84,0,0,1-6.459,1.748A14.442,14.442,0,0,1,381.7,82.523Z" transform="translate(-99.5 -29.75)"/>
</svg>
