<svg id="icon" xmlns="http://www.w3.org/2000/svg" width="60" height="60" viewBox="0 0 60 60">
  <defs>
    <style>
      .cls-1 {
        fill: #274d84;
      }

      .cls-1, .cls-2 {
        fill-rule: evenodd;
      }

      .cls-2 {
        fill: #0090f1;
      }
    </style>
  </defs>
  <path id="Composite_Path" data-name="Composite Path" class="cls-1" d="M1147.97,3125.12a12.354,12.354,0,0,1,6.55,3.03c0.96,0.85,1.69,2.06,2.66,2.79a6.629,6.629,0,0,0,1.58.85c0.97,0.48,2.42,3.27,2.42,4.12v11.76a5.058,5.058,0,0,1-2.42,3.63,8.907,8.907,0,0,0-1.7.61,2,2,0,0,0-.61,1.21,11.817,11.817,0,0,1-3.75,4.73c-0.37.12-.25,0.97-0.25,1.21v1.09c3.64,1.21,7.4,2.43,11.03,3.76,1.7,0.6,3.52,3.64,3.52,5.33V3185h-40.73v-2.91a12.667,12.667,0,0,1-7.75,2.91,11.575,11.575,0,0,1,0-23.15,11.362,11.362,0,0,1,8.96,4.24,6.857,6.857,0,0,1,2.43-2.18c3.51-1.46,7.27-2.43,10.91-3.76a3.036,3.036,0,0,0,.12-1.09,2.005,2.005,0,0,0-.24-1.21,11.75,11.75,0,0,1-4.37-5.94c-1.81,0-4.12-2.3-4.12-4v-10.55a13.454,13.454,0,0,1,13.46-12.36A17.339,17.339,0,0,1,1147.97,3125.12Zm6.06,5.21a6.769,6.769,0,0,0,3.88,3.28,5.074,5.074,0,0,1,1.33,2.42v7.27c-0.6-.36-1.45-0.72-1.94-0.97-0.24-.12-0.24-0.48-0.48-0.6a4.053,4.053,0,0,0-1.94-1.34h-3.03c-1.82,0-4.49-2.91-4.12-4.85h-2.06c0.24,1.82-2.06,4.85-4.25,4.85h-3.03a3.369,3.369,0,0,0-1.94,1.34c-0.12.12-.24,0.48-0.36,0.6a15.953,15.953,0,0,0-1.94.97v-5.94A11.71,11.71,0,0,1,1154.03,3130.33Zm-2.3,12.12h2.91a0.8,0.8,0,0,1,.72.61v7.03c-0.97,5.33-4.97,7.76-8.72,7.76a8.828,8.828,0,0,1-8.25-5.94,15.148,15.148,0,0,1-.36-1.7v-7.15a0.781,0.781,0,0,1,.61-0.61h2.91a8.617,8.617,0,0,0,5.09-3.15C1147.36,3140.51,1150.15,3142.45,1151.73,3142.45Zm-8.97,2.79a1.139,1.139,0,0,1-.97.97,0.9,0.9,0,0,1-.85-0.97,0.723,0.723,0,0,1,.85-0.85A1.049,1.049,0,0,1,1142.76,3145.24Zm9.69,0a1.13,1.13,0,0,1-.97.97,0.9,0.9,0,0,1-.84-0.97,0.72,0.72,0,0,1,.84-0.85A1.038,1.038,0,0,1,1152.45,3145.24Zm-16.48,4.61a2.816,2.816,0,0,1-1.82-2.67,2.44,2.44,0,0,1,1.82-2.54v5.21Zm23.27-2.67a3.023,3.023,0,0,1-1.82,2.67v-5.21A2.825,2.825,0,0,1,1159.24,3147.18Zm-12.6,5.94a2.094,2.094,0,0,0,2.06-1.94h1.82v0.36a4.1,4.1,0,0,1-3.88,3.4,3.854,3.854,0,0,1-3.76-3.76h1.82A1.99,1.99,0,0,0,1146.64,3153.12Zm0,6.79a20.325,20.325,0,0,0,3.88-.73v1.58a4.286,4.286,0,0,1-3.88,2.91,1.319,1.319,0,0,1-.73-0.12,3.945,3.945,0,0,1-1.58-.73,4.863,4.863,0,0,1-1.45-1.94v-1.7A18.825,18.825,0,0,0,1146.64,3159.91Zm11.63,4.12c1.21,0.48,2.67.97,4.12,1.45,0.97,0.37,2.67,2.55,2.67,3.64v13.94h-5.7v-9.7h-2.06v9.7h-28.97v-3.27a15.326,15.326,0,0,0,1.22-2.43h8.36v3.88h5.94v-3.88h1.82v3.88h5.94v-3.88h3.87v-7.88h-25.93c-0.13-.48-0.73-1.45-0.73-1.69,0-.61,1.82-2.18,2.18-2.31,3.27-1.21,6.79-2.3,10.06-3.39,2.67,4.73,8.36,4.97,11.15,0C1154.15,3162.7,1156.21,3163.42,1158.27,3164.03Zm-30.42,6.91c0,0.12,0,.6.36,0.6h25.21v3.76h-3.87v3.88h-1.82v-3.88h-5.94v3.88h-1.82v-3.88h-11.76c-1.82,5.34-5.94,7.76-9.69,7.76a9.7,9.7,0,0,1-8.97-6.06,16.512,16.512,0,0,1-.61-2.42v-2.31a9.456,9.456,0,0,1,9.58-8.48A9.642,9.642,0,0,1,1127.85,3170.94Zm-7.4,2.42a4.858,4.858,0,0,1-4.84,4.85,4.757,4.757,0,0,1-4.73-4.85,4.655,4.655,0,0,1,4.73-4.72A4.756,4.756,0,0,1,1120.45,3173.36Zm-1.93,0a2.8,2.8,0,0,1-2.91,2.91,2.846,2.846,0,1,1,.12-5.69A2.821,2.821,0,0,1,1118.52,3173.36Z" transform="translate(-1107 -3125)"/>
  <path id="Composite_Path-2" data-name="Composite Path" class="cls-2" d="M1130.15,3142.82v15.03H1107v-15.03l11.64-7.28Zm-4.48-.49h-14.31l7.16-4.48Zm2.54,2.06v11.52h-5.69v-7.76h-7.88v7.76h-5.7v-11.52h19.27Zm-7.76,5.82v5.7h-3.75v-5.7h3.75Z" transform="translate(-1107 -3125)"/>
</svg>
