<svg id="icon" xmlns="http://www.w3.org/2000/svg" width="18.82" height="18.781" viewBox="0 0 18.82 18.781">
  <defs>
    <style>
      .cls-1 {
        fill: #fff;
        fill-rule: evenodd;
      }
    </style>
  </defs>
  <path id="Composite_Path" data-name="Composite Path" class="cls-1" d="M1179.98,50.718a17.2,17.2,0,0,1,3.02,2.9,1.414,1.414,0,0,1,.33.919,2.133,2.133,0,0,1-.85,1.544l-4.67-4.631a1.808,1.808,0,0,1,1.51-.846A1.628,1.628,0,0,1,1179.98,50.718Zm1.69,6.212a1.085,1.085,0,0,0-.25.772,1.392,1.392,0,0,0,.58,1.1c1.47,1.47,2.98,3.014,4.53,4.485a1,1,0,0,0,.73.294,2.113,2.113,0,0,0,.77-0.257l4.67,4.631a6.162,6.162,0,0,1-3.86,1.433,6.378,6.378,0,0,1-2.61-.625,3.829,3.829,0,0,1-1.14-.735c-2.83-2.646-5.7-5.514-8.31-8.307a6.218,6.218,0,0,1-1.17-3.124V55.718a6.189,6.189,0,0,1,1.4-3.419Zm9.45,4.889a17.877,17.877,0,0,1,2.94,2.867,1.441,1.441,0,0,1,.33.955,2.091,2.091,0,0,1-.84,1.544l-4.67-4.668a1.953,1.953,0,0,1,1.54-.845A1.459,1.459,0,0,1,1191.12,61.819Z" transform="translate(-1175.59 -50.594)"/>
</svg>
