<svg id="icon" xmlns="http://www.w3.org/2000/svg" width="66" height="59.97" viewBox="0 0 66 59.97">
  <defs>
    <style>
      .cls-1 {
        fill: #0090f1;
      }

      .cls-1, .cls-2 {
        fill-rule: evenodd;
      }

      .cls-2 {
        fill: #274d84;
      }
    </style>
  </defs>
  <path id="Composite_Path" data-name="Composite Path" class="cls-1" d="M496.853,3331.95c0,4.06.517,4.71-3.875,4.71-0.387,0-3.616.39-3.616-1.18v-6.79c0.129-1.31,2.583-1.18,3.746-1.18C497.5,3327.51,496.853,3328.03,496.853,3331.95Zm43.914,0.13c0,3.93.387,4.58-3.875,4.58-0.9,0-3.745.52-3.745-1.57v-6.01c0.258-.52.387-1.31,0.9-1.44a11.244,11.244,0,0,1,2.841-.13C541.154,3327.51,540.767,3328.03,540.767,3332.08Zm-45.722-2.74v5.49H491.17v-5.49h3.875Zm43.785,0v5.49h-3.746v-5.49h3.746Zm-41.977,16.86c0,4.31.388,4.57-3.875,4.57-0.387,0-3.616.39-3.616-1.17v-6.8c0.258-1.44,2.841-1.18,3.746-1.18C497.757,3341.62,496.853,3342.8,496.853,3346.2Zm43.914,0c0,4.31.258,4.57-3.875,4.57-0.9,0-3.745.53-3.745-1.57v-6.01c0.129-1.83,2.841-1.57,3.745-1.57C541.413,3341.62,540.767,3342.54,540.767,3346.2Zm-45.722-2.62v5.36H491.17v-5.36h3.875Zm43.785,0v5.36h-3.746v-5.36h3.746Z" transform="translate(-482 -3300.47)"/>
  <path id="Composite_Path-2" data-name="Composite Path" class="cls-2" d="M503.053,3304.51l0.258,0.26h5.554a1.381,1.381,0,0,1,.517.78,0.974,0.974,0,0,1-.775.92h-5.554v4.18h23.894v-4.18H512.094a1.13,1.13,0,0,1-.517-0.92,0.927,0.927,0,0,1,.388-0.78h14.724a1.959,1.959,0,0,0,.258-1.18c0.517-3.52,2.2-3.13,4-3.13,1.421,0,4.262,0,4.262,2.87v8.11a4.009,4.009,0,0,1-.646,1.56c-1.549,1.57-4,1.57-5.941,2.88,0.259,4.18.129,4.31,0,4.44h2.713a10.853,10.853,0,0,1,.129-2.87,0.844,0.844,0,0,1,.646-0.66h4.391c0.129,0.13.387,0.4,0.516,0.53v2.74a2.116,2.116,0,0,0,1.292.26,2.319,2.319,0,0,0,1.292-.26v-2.74c0.129-.13.387-0.4,0.516-0.53h4.263a0.847,0.847,0,0,1,.774.66v19.34a1.3,1.3,0,0,1-.9.52,1.371,1.371,0,0,1-.775-0.52v-18.3h-2.2v2.62c-0.517,1.04-2.2.91-2.971,0.91-0.258,0-2.971.26-2.971-.78v-2.75h-2.195v2.62a1.28,1.28,0,0,1-.9.91h-3.617v3.27c1.55,0.26,1.421,2.22,1.421,3.4,0,0.65.129,3.26-1.421,3.39v26.66h14.853v-18.68a0.928,0.928,0,0,1,.775-0.53,1.3,1.3,0,0,1,.9.53v18.68c0.388,0,2.842-.65,2.842.79a1.316,1.316,0,0,1-.517.91H482.517a1.316,1.316,0,0,1-.517-0.91c0-1.44,2.325-.79,2.842-0.79v-9.54a0.971,0.971,0,0,1,.9-0.65,0.866,0.866,0,0,1,.9.78v9.41h14.724v-26.66c-0.388-.26-1.421-0.91-1.421-1.3v-4.18a3.4,3.4,0,0,1,1.421-1.31v-3.27h-3.617a1.551,1.551,0,0,1-.9-0.91v-2.62h-2.2v2.88c-0.258.65-2.066,0.65-2.97,0.65-0.646,0-2.712.13-2.842-.91a9.206,9.206,0,0,1-.129-2.62H486.65v26.92a1.829,1.829,0,0,1-1.034.92,1,1,0,0,1-.774-0.65v-28.1a3.706,3.706,0,0,1,.645-0.79h4.392a1.019,1.019,0,0,1,.645.79v2.48a1.911,1.911,0,0,0,1.163.26,2.314,2.314,0,0,0,1.291-.26v-2.48a1.022,1.022,0,0,1,.646-0.79h4.392a1.843,1.843,0,0,1,.645,1.05v2.48h2.584a24.8,24.8,0,0,1,.129-4.44c-1.938-1.18-4.779-1.57-6.071-2.88a3.876,3.876,0,0,1-.516-1.43v-8.24c0.775-3.26,2.325-2.87,4.133-2.87C501.761,3300.46,502.794,3300.72,503.053,3304.51Zm-1.808-1.18v1.18h-4.521v-1.44c0.258-.91,1.808-0.78,2.2-0.78C499.565,3302.29,501.245,3302.03,501.245,3303.33Zm32.031-.26v1.44h-4.521v-1.18c0.13-1.3,1.55-1.04,2.2-1.04C531.209,3302.29,533.276,3301.9,533.276,3303.07Zm-32.031,3.4v7.19c-0.646-.26-4.521-1.57-4.521-2.22v-4.97h4.521Zm32.031,0v5.23a35.321,35.321,0,0,1-4.521,1.96v-7.19h4.521Zm-6.458,6.01v12.81h-2.454v-7.06a4.254,4.254,0,0,0-4.133-3.53c-1.421,0-3.875,1.44-3.875,3.14v7.45h-2.712v-7.58c-0.388-1.96-2.713-3.01-4-3.01-1.679,0-4,1.57-4,3.66v6.93h-2.454v-12.81h23.636Zm-15.112,5.75v7.06h-4v-7.19a1.809,1.809,0,0,1,1.937-1.31C510.286,3316.79,511.706,3317.32,511.706,3318.23Zm10.591-.13v7.19h-4v-7.06c0.645-1.31,1.162-1.44,1.937-1.44C520.877,3316.79,522.3,3317.19,522.3,3318.1Zm5.942,9.15v2.87H501.761v-2.87h26.478Zm-1.421,4.83v26.53h-4.391v-14.89a7.7,7.7,0,0,0-7.492-6.15,7.512,7.512,0,0,0-7.1,5.23,5.843,5.843,0,0,0-.259,1.05v14.76h-4.391v-26.53h23.636Zm-6.716,11.11a9.231,9.231,0,0,1,.387,1.05v8.49H509.511v-8.49c0.775-3.53,3.1-4.58,5.424-4.58A4.946,4.946,0,0,1,520.1,3343.19Zm-4.133,5.36a1.077,1.077,0,0,1-.905.92,0.737,0.737,0,0,1-.774-0.92,0.635,0.635,0,0,1,.774-0.78A0.866,0.866,0,0,1,515.969,3348.55Zm4.52,6.14v3.92H509.511v-3.92h10.978Z" transform="translate(-482 -3300.47)"/>
</svg>
