<svg xmlns="http://www.w3.org/2000/svg" width="43" height="48" viewBox="0 0 43 48">
  <defs>
    <style>
      .cls-1 {
        fill: #333;
        fill-rule: evenodd;
      }
    </style>
  </defs>
  <path id="Composite_Path" data-name="Composite Path" class="cls-1" d="M1032.8,2399.97l2.54,3.14-0.2,4.04a0.677,0.677,0,0,0,.5.69l3.9,1.05,2.2,3.38a0.7,0.7,0,0,0,.82.27l3.77-1.44,3.77,1.44a0.7,0.7,0,0,0,.82-0.27l2.2-3.38,3.9-1.05a0.677,0.677,0,0,0,.5-0.69l-0.2-4.04,2.54-3.14a0.677,0.677,0,0,0,0-.85l-2.54-3.15,0.2-4.03a0.67,0.67,0,0,0-.5-0.69l-3.9-1.06-2.2-3.38a0.7,0.7,0,0,0-.82-0.27l-3.77,1.44-3.77-1.44a0.7,0.7,0,0,0-.82.27l-2.2,3.38-3.9,1.05a0.689,0.689,0,0,0-.5.7l0.2,4.03-2.54,3.14A0.691,0.691,0,0,0,1032.8,2399.97Zm3.76-3.35a0.689,0.689,0,0,0,.15-0.46l-0.19-3.75,3.62-.97a0.712,0.712,0,0,0,.39-0.29l2.05-3.14,3.51,1.34a0.787,0.787,0,0,0,.48,0l3.51-1.34,2.05,3.14a0.712,0.712,0,0,0,.39.29l3.62,0.98-0.19,3.74a0.689,0.689,0,0,0,.15.46l2.35,2.92-2.35,2.92a0.707,0.707,0,0,0-.15.46l0.19,3.75-3.62.98a0.652,0.652,0,0,0-.39.28l-2.05,3.14-3.51-1.33a0.662,0.662,0,0,0-.48,0l-3.51,1.33-2.05-3.14a0.652,0.652,0,0,0-.39-0.28l-3.62-.98,0.19-3.75a0.655,0.655,0,0,0-.15-0.46l-2.35-2.92Zm5.38,9.65a0.676,0.676,0,0,0,.94-0.19l8.04-12.33a0.71,0.71,0,0,0,.1-0.51,0.683,0.683,0,0,0-.3-0.44,0.7,0.7,0,0,0-.51-0.09,0.663,0.663,0,0,0-.43.3l-8.04,12.32a0.659,0.659,0,0,0-.09.51A0.627,0.627,0,0,0,1041.94,2406.27Zm4.93-3.08a2.458,2.458,0,1,0,.72-1.75A2.468,2.468,0,0,0,1046.87,2403.19Zm3.57,0a1.108,1.108,0,1,1-1.11-1.11A1.106,1.106,0,0,1,1050.44,2403.19Zm-7.25-4.68a2.436,2.436,0,0,0,1.74-.73,2.462,2.462,0,0,0,0-3.48,2.451,2.451,0,0,0-3.49,0A2.47,2.47,0,0,0,1043.19,2398.51Zm0-3.58a1.106,1.106,0,0,1,1.02.69,1.092,1.092,0,0,1-.24,1.2A1.107,1.107,0,1,1,1043.19,2394.93Zm-11.55,22.62-1.23,1.1a4.057,4.057,0,0,1-1.45.84l-0.66-2.18a0.675,0.675,0,0,0-.65-0.48h-5.97a0.687,0.687,0,0,0-.68.76l1.99,16.31a0.7,0.7,0,0,0,.68.6h8.95a0.682,0.682,0,0,0,.55-0.28,0.7,0.7,0,0,0,.1-0.6l-1.15-3.77,3.58-2.26a2.086,2.086,0,0,1,1.51-.19l0.05,0.01,7.44,1.37a9.837,9.837,0,0,0,6.04-.85l0.08-.05,12.88-8.85a0.67,0.67,0,0,0,.2-0.91,3.658,3.658,0,0,0-4.88-1.34l-0.13.07a3.15,3.15,0,0,0-3.68-.85l-0.02.01-0.44.24a4.037,4.037,0,0,0-4.58-.37l-2.77,1.5h-3.68a5.274,5.274,0,0,1-2.27-.52l-0.51-.24a8.862,8.862,0,0,0-9.25.9Zm-7.37,15.59-1.82-14.95h4.69l4.56,14.95h-7.43Zm31.56-15.93a1.719,1.719,0,0,1,1.8.32l-4.73,2.55-0.16.09a4.236,4.236,0,0,0-.55-1Zm-5.01-.14,0.02-.01a2.71,2.71,0,0,1,2.55-.08l-2.21,1.19a4.59,4.59,0,0,0-1.26-.61Zm-10.47.77,0.51,0.25a6.578,6.578,0,0,0,2.86.65h4.96a2.994,2.994,0,0,1,2.91,2.29l-3.43-.15a21.523,21.523,0,0,0-3.93.18,0.638,0.638,0,0,0-.45.26,0.662,0.662,0,0,0-.13.51,0.674,0.674,0,0,0,.26.45,0.666,0.666,0,0,0,.51.12,21.557,21.557,0,0,1,3.68-.17l4.23,0.2h0.03a0.687,0.687,0,0,0,.68-0.68l-0.01-.2,0.51-.27,6.13-3.3a2.307,2.307,0,0,1,1.39-.26,2.282,2.282,0,0,1,1.27.6l-12.24,8.41a8.425,8.425,0,0,1-5.14.71l-7.43-1.37a3.411,3.411,0,0,0-2.5.34l-0.03.02-3.28,2.07-2.35-7.71a5.43,5.43,0,0,0,1.95-1.12l1.22-1.08A7.56,7.56,0,0,1,1040.35,2417.84Zm-14.55,13.12a1.878,1.878,0,1,0,.55-1.32A1.885,1.885,0,0,0,1025.8,2430.96Zm1.88-.51a0.522,0.522,0,0,1,.47.32,0.514,0.514,0,1,1-.99.19A0.514,0.514,0,0,1,1027.68,2430.45Z" transform="translate(-1021 -2386.5)"/>
</svg>
