<svg xmlns="http://www.w3.org/2000/svg" width="61" height="60" viewBox="0 0 61 60">
  <defs>
    <style>
      .cls-1 {
        fill: #fff;
        fill-rule: evenodd;
      }
    </style>
  </defs>
  <path id="Composite_Path" data-name="Composite Path" class="cls-1" d="M576.019,3135.23l0.122-3.99c0.122-.13.245-0.38,0.489-0.63h7.824a0.886,0.886,0,0,1,.489.63v11.35c1.467,1.25,8.557,6.61,8.557,7.48a1.019,1.019,0,0,1-.978.88c-0.733,0-3.912-3-4.156-3.12l-0.123,36.42a1.037,1.037,0,0,1-.489.75H538.245a1.04,1.04,0,0,1-.489-0.75l-0.122-36.42c-0.244.12-3.545,3.12-4.278,3.12a0.724,0.724,0,0,1-.856-0.88c0-1.12,4.278-4.11,4.645-4.36,1.223-1,2.812-2.25,4.279-3.5,6.845-5.48,13.691-11.35,20.659-16.84a1.187,1.187,0,0,1,.978-0.37C563.794,3125,573.33,3133.11,576.019,3135.23Zm10.391,11.1v36.8H539.59v-36.8l23.471-19.09Zm-3.423-13.85v8.36c-0.856-.87-4.89-4.24-4.89-4.49v-3.87h4.89Zm-6.357,21.08a2.22,2.22,0,0,1,.122,1,0.7,0.7,0,0,0,.612.25c0.244,0,.733-0.25,1.1-0.25,0.733,0,1.956,2.25,2.2,2.62a2.669,2.669,0,0,1,.489,1.25c0,1.87-3.789,4.99-5.256,6.24a2.9,2.9,0,0,1-1.467.62c-1.1,0-3.423-2.37-3.423-3.12,0-.25.489-1.12,0.489-1.49,0-.88-1.956-1.38-2.078-1.38-0.367,0-1.345,1.25-2.078,2,0.122,0.5,2.078,1.87,2.078,2.62a2.136,2.136,0,0,1-.367.75c2.567,2.62,5.257,5.36,7.824,7.86,0,0.12,2.811,1.87,2.811,2.74v3.37a2.154,2.154,0,0,1-1.589.5,6.227,6.227,0,0,1-2.445-.25c-1.1-.38-1.589-2-2.445-2.75-2.444-2.74-7.334-7.86-7.7-7.86-0.245,0-.489.25-0.733,0.25-0.734,0-2.2-1.99-2.445-1.99-0.367,0-8.313,8.36-12.469,12.47a2.3,2.3,0,0,1-1.1.38c-1.589,0-3.789-2.75-4.034-3.37a2.5,2.5,0,0,1-.122-1c0-1,.367-1.25,1.467-2.25,3.545-3.86,11.124-11.22,11.124-11.47,0-.38-7.212-7.36-10.635-10.98a2.449,2.449,0,0,1-.367-1.49c0-1.75.612-1.88,2.812-3.75a2.161,2.161,0,0,1,1.222-.25,2.309,2.309,0,0,1,1.467.38c3.545,3.49,7.091,7.23,10.636,10.85,1.956-1.87,3.056-2.87,3.056-4.49,0-3.12-5.624-3.74-6.479-3.99a0.678,0.678,0,0,1-.611-0.88c0-1.87,6.112-2.24,6.723-2.24C569.784,3144.46,574.308,3147.2,576.63,3153.56Zm-1.956.13a2.974,2.974,0,0,1,.245,1.5,2.378,2.378,0,0,0,1.711,1.49,4.642,4.642,0,0,0,1.345,0,6.552,6.552,0,0,1,1.589,1.63l-4.767,4.86a4.017,4.017,0,0,1-1.467-1.37c0-.38.244-1,0.244-1.25,0-2.49-2.811-2.74-3.912-3.49a10.783,10.783,0,0,1-2.934-3c0-.37.489-1.37,0.612-2.12v-0.5q0-3.36-4.4-4.86a20.013,20.013,0,0,1,2.078-.25C568.684,3146.33,572.841,3148.83,574.674,3153.69Zm-13.813,3.74a13.568,13.568,0,0,1-2.323,2.37c-0.367,0-1.467-1.49-2.2-2.12-1.712-1.74-8.313-8.23-8.313-8.85a5.689,5.689,0,0,1,2.078-2.13Zm6.845,0.75-18.825,19.21c-0.734-.62-1.589-1.37-2.445-2.24l18.825-19.34C566,3156.43,566.851,3157.31,567.706,3158.18Zm-0.489,5.61-2.322,2.37c-0.367-.37-0.734-0.62-1.1-0.99,0.612-.75,1.956-2.37,2.323-2.37A3.69,3.69,0,0,1,567.217,3163.79Zm7.213,9.11a3.3,3.3,0,0,1-.611.75l-6.724-6.74,0.734-.75Zm3.545,2.74v1.5h-1.467a7.141,7.141,0,0,1-1.345-1.99,1.5,1.5,0,0,1,.856-0.88A7.158,7.158,0,0,1,577.975,3175.64Z" transform="translate(-532.5 -3125)"/>
</svg>
