<?xml version="1.0" standalone="no"?>
<!DOCTYPE svg PUBLIC "-//W3C//DTD SVG 1.1//EN" "http://www.w3.org/Graphics/SVG/1.1/DTD/svg11.dtd" >
<svg xmlns="http://www.w3.org/2000/svg" xmlns:xlink="http://www.w3.org/1999/xlink" version="1.1">
<metadata>
Created by FontForge 20200427 at Wed Oct 28 21:50:48 2015
 By www
Latinotype
</metadata>
<defs>
<font id="CorporativeSansW00-Bold" horiz-adv-x="0" >
  <font-face 
    font-family="CorporativeSansW00-Bold"
    font-weight="800"
    font-stretch="normal"
    units-per-em="1000"
    panose-1="1 0 0 0 0 0 0 0 0 0"
    ascent="800"
    descent="-200"
    x-height="480"
    cap-height="710"
    bbox="-488 -220 1353 895"
    underline-thickness="50"
    underline-position="-125"
    unicode-range="U+0020-FB02"
  />
<missing-glyph horiz-adv-x="542" 
d="M88 710h366v-710h-366v710zM143 675l128 -278l128 278h-256zM252 355l-130 284v-568zM290 355l130 -283v566zM271 313l-128 -278h256z" />
    <glyph glyph-name="uniFB01" unicode="fi" horiz-adv-x="588" 
d="M510 480v-480h-133v371h-151v-371h-133v371h-81v109h81v62q0 178 200 178q36 0 77.5 -6t73.5 -18l-8 -113q-51 21 -114 21q-96 0 -96 -74v-50h284z" />
    <glyph glyph-name="uniFB02" unicode="fl" horiz-adv-x="597" 
d="M386 710h133v-710h-133v371h-160v-371h-133v371h-84v109h84v66q0 89 39.5 131.5t110.5 42.5q53 0 104 -19l-4 -111q-34 14 -63 14q-54 0 -54 -69v-55h160v230z" />
    <glyph glyph-name=".notdef" horiz-adv-x="542" 
d="M88 710h366v-710h-366v710zM143 675l128 -278l128 278h-256zM252 355l-130 284v-568zM290 355l130 -283v566zM271 313l-128 -278h256z" />
    <glyph glyph-name=".null" 
 />
    <glyph glyph-name="nonmarkingreturn" horiz-adv-x="333" 
 />
    <glyph glyph-name="space" unicode=" " horiz-adv-x="230" 
 />
    <glyph glyph-name="exclam" unicode="!" horiz-adv-x="257" 
d="M68 237l-8 473h137l-8 -473h-121zM128 -12q-34 0 -57 23.5t-23 58.5t23 59t57 24t57 -24t23 -59t-23 -58.5t-57 -23.5z" />
    <glyph glyph-name="quotedbl" unicode="&#x22;" horiz-adv-x="429" 
d="M54 485l10 236l123 -13l-32 -223h-101zM237 485l10 236l122 -13l-31 -223h-101z" />
    <glyph glyph-name="numbersign" unicode="#" horiz-adv-x="720" 
d="M624 379h-102l-24 -108h103l-20 -92h-104l-27 -119h-100l27 119h-97l-27 -119h-100l27 119h-106l21 92h106l24 108h-108l22 92h107l27 119h100l-27 -119h97l27 119h100l-27 -119h103zM398 271l24 108h-97l-24 -108h97z" />
    <glyph glyph-name="dollar" unicode="$" horiz-adv-x="633" 
d="M575 200q0 -55 -22 -96t-67 -68t-119 -35l-3 -103h-125l3 104q-46 5 -95 19.5t-79 34.5l11 126q47 -28 111 -45t120 -17q66 0 96.5 17t30.5 58q0 23 -14 37.5t-36 25.5t-108 35.5t-125.5 48.5t-58.5 49t-28 53.5t-9 62.5q0 53 20 94t63.5 69.5t115.5 36.5l2 103h125
l-3 -105q80 -11 122 -50.5t53 -100.5l-132 -26q-13 65 -117 65q-54 0 -83 -22t-29 -62q0 -31 26.5 -54t111.5 -46t122 -39t63 -37.5t41.5 -55t15.5 -77.5z" />
    <glyph glyph-name="percent" unicode="%" horiz-adv-x="972" 
d="M258 327q-175 0 -175 196q0 197 175 197q174 0 174 -196q0 -93 -42 -145t-132 -52zM297 -12l-114 5l512 727l115 -5zM258 410q74 0 74 114q0 57 -18 84.5t-56 27.5q-75 0 -75 -113t75 -113zM734 -12q-174 0 -174 196q0 93 42 145t132 52q174 0 174 -195q0 -93 -42 -145.5
t-132 -52.5zM734 72q75 0 75 114q0 111 -75 111q-39 0 -57 -28t-18 -85q0 -56 18 -84t57 -28z" />
    <glyph glyph-name="ampersand" unicode="&#x26;" horiz-adv-x="813" 
d="M765 411q-44 -209 -144 -313l117 -110l-139 -16l-64 60q-97 -54 -231 -54q-126 0 -190 44.5t-64 129.5q0 66 37 112.5t111 86.5q-40 40 -60 80.5t-20 95.5q0 39 13 74t39.5 62t67.5 42t94 15q64 0 109 -19t70.5 -56t25.5 -92q0 -139 -161 -223l156 -147q38 41 65.5 101
t40.5 135zM331 611q-43 0 -66 -24t-23 -63q0 -25 10 -53.5t49 -68.5q66 34 88.5 65.5t22.5 65.5q0 36 -21.5 57t-59.5 21zM315 95q69 0 127 25l-170 160q-41 -23 -60.5 -47t-19.5 -60t31 -57t92 -21z" />
    <glyph glyph-name="quotesingle" unicode="'" horiz-adv-x="240" 
d="M54 485l10 236l123 -13l-32 -223h-101z" />
    <glyph glyph-name="parenleft" unicode="(" horiz-adv-x="443" 
d="M374 -190q-48 20 -97.5 61.5t-91 105t-67 150t-25.5 188.5t25.5 188.5t67 150t91 105t97.5 61.5l21 -102q-83 -54 -131 -157.5t-48 -245.5t48 -245.5t131 -157.5z" />
    <glyph glyph-name="parenright" unicode=")" horiz-adv-x="443" 
d="M69 -190l-21 102q83 54 131 157.5t48 245.5t-48 245.5t-131 157.5l21 102q48 -20 97.5 -61.5t91 -105t67 -150t25.5 -188.5t-25.5 -188.5t-67 -150t-91 -105t-97.5 -61.5z" />
    <glyph glyph-name="asterisk" unicode="*" horiz-adv-x="467" 
d="M190 434l6 88l-80 -56l-42 77l99 42l-99 43l42 76l80 -56l-6 88h87l-6 -88l80 56l42 -76l-100 -43l100 -42l-42 -77l-80 56l6 -88h-87z" />
    <glyph glyph-name="plus" unicode="+" horiz-adv-x="545" 
d="M471 372v-110h-139v-147h-120v147h-138v110h138v147h120v-147h139z" />
    <glyph glyph-name="comma" unicode="," horiz-adv-x="255" 
d="M90 -146l-36 58q26 15 38.5 29.5t15.5 31.5t3 24q0 26 -17.5 40t-45.5 14q0 41 19 65t55 24q38 0 61.5 -29t23.5 -83q0 -55 -28.5 -100.5t-88.5 -73.5z" />
    <glyph glyph-name="hyphen" unicode="-" horiz-adv-x="405" 
d="M58 233v108h289v-108h-289z" />
    <glyph glyph-name="period" unicode="." horiz-adv-x="256" 
d="M128 -12q-34 0 -57 23.5t-23 58.5t23 59t57 24t57 -24t23 -59t-23 -58.5t-57 -23.5z" />
    <glyph glyph-name="slash" unicode="/" horiz-adv-x="452" 
d="M3 -180l319 990h127l-319 -990h-127z" />
    <glyph glyph-name="zero" unicode="0" horiz-adv-x="652" 
d="M326 -12q-88 0 -147 39.5t-92 119.5t-33 207t33 207t92 119.5t147 39.5t147 -39.5t92 -119.5t33 -207t-33 -207t-92 -119.5t-147 -39.5zM326 105q72 0 104 61.5t32 187.5t-32 187.5t-104 61.5q-70 0 -103 -62t-33 -187q0 -126 32 -187.5t104 -61.5z" />
    <glyph glyph-name="one" unicode="1" horiz-adv-x="448" 
d="M328 110h91v-110h-362v110h133v464q-26 -19 -79.5 -44.5t-93.5 -38.5l-24 115q51 18 107 47t91 57h137v-600z" />
    <glyph glyph-name="two" unicode="2" horiz-adv-x="598" 
d="M205 111h339v-111h-484v63q0 34 9.5 68t31.5 65t52.5 57.5t97 70.5t87.5 61.5t34.5 34t23 36.5t9.5 47q0 50 -27.5 76.5t-81.5 26.5q-95 0 -109 -82l-133 23q14 86 77 129.5t167 43.5q116 0 179.5 -56t63.5 -161q0 -66 -38.5 -123.5t-134 -121t-119.5 -85t-32.5 -37
t-11.5 -25.5z" />
    <glyph glyph-name="three" unicode="3" horiz-adv-x="602" 
d="M433 374q56 -20 85.5 -61.5t29.5 -110.5q0 -46 -17 -85t-49.5 -68t-81 -45t-107.5 -16q-192 0 -239 149l123 41q20 -76 118 -76q55 0 87.5 27.5t32.5 80.5q0 54 -33 81.5t-93 27.5h-57v101h55q49 0 77.5 25.5t28.5 68.5q0 40 -26.5 66t-75.5 26q-48 0 -72 -18.5
t-32 -53.5l-129 27q10 51 38 85.5t76 54t120 19.5q108 0 170.5 -52.5t62.5 -142.5q0 -36 -12.5 -68t-35 -52t-44.5 -31z" />
    <glyph glyph-name="four" unicode="4" horiz-adv-x="597" 
d="M477 305h107v-112h-107v-193h-137v193h-301l-36 100l341 417h133v-405zM150 305h190v238z" />
    <glyph glyph-name="five" unicode="5" horiz-adv-x="588" 
d="M283 445q126 0 188.5 -59t62.5 -165q0 -107 -66.5 -170t-184.5 -63q-94 0 -151 34.5t-81 108.5l114 41q21 -70 118 -70q57 0 87.5 32t30.5 89q0 56 -35.5 88t-110.5 32q-17 0 -46 -2.5t-120 -18.5l17 388h398v-116h-285l-7 -154q38 5 71 5z" />
    <glyph glyph-name="six" unicode="6" horiz-adv-x="618" 
d="M336 444q50 0 92.5 -15.5t72.5 -44t46.5 -69.5t16.5 -90q0 -50 -16 -94t-47 -76t-77.5 -49.5t-104.5 -17.5q-62 0 -111.5 23.5t-83.5 68t-52 110.5t-18 147q0 85 16 155t49 121t86 79t124 28q91 0 145.5 -41.5t69.5 -114.5l-125 -21q-20 65 -97 65q-64 0 -96.5 -48
t-37.5 -157q58 41 148 41zM323 102q51 0 81.5 30.5t30.5 87.5q0 56 -30.5 88.5t-81.5 32.5q-75 0 -135 -46q6 -97 36.5 -145t98.5 -48z" />
    <glyph glyph-name="seven" unicode="7" horiz-adv-x="445" 
d="M-14 710h466v-114q-99 -140 -167.5 -284t-113.5 -312h-138q23 80 64 183t100 211t123 200h-334v116z" />
    <glyph glyph-name="eight" unicode="8" horiz-adv-x="617" 
d="M430 373q72 -36 102.5 -79.5t30.5 -104.5q0 -44 -15 -80.5t-46 -63.5t-80 -42t-114 -15q-49 0 -95.5 9t-81.5 30.5t-56 58t-21 90.5q0 60 31 105t92 81q-52 29 -76.5 71t-24.5 102q0 40 15 74t44.5 59t73 38.5t98.5 13.5q69 0 118.5 -20t79.5 -60t30 -99q0 -55 -26 -96
t-79 -72zM309 611q-47 0 -74.5 -19.5t-27.5 -58.5q0 -40 25.5 -65t91.5 -51q42 25 61 51.5t19 63.5q0 39 -24.5 59t-70.5 20zM307 97q60 0 92 25t32 70q0 40 -31.5 69.5t-115.5 57.5q-100 -50 -100 -128q0 -34 18.5 -56.5t48 -30t56.5 -7.5z" />
    <glyph glyph-name="nine" unicode="9" horiz-adv-x="619" 
d="M302 720q123 0 193 -89t70 -258q0 -84 -15.5 -154t-49 -122t-87.5 -80.5t-127 -28.5q-188 0 -214 160l121 29q10 -41 34.5 -58.5t65.5 -17.5q61 0 95 49t42 162q-70 -44 -152 -44q-104 0 -164 57.5t-60 157.5q0 51 16 94.5t47 75.5t78 49.5t107 17.5zM184 486
q0 -58 31.5 -87t85.5 -29q79 0 131 48q-4 91 -36 140t-98 49q-39 0 -66.5 -18t-37.5 -46.5t-10 -56.5z" />
    <glyph glyph-name="colon" unicode=":" horiz-adv-x="257" 
d="M128 329q-34 0 -57 24t-23 59t23 58.5t57 23.5t57 -23.5t23 -58.5t-23 -59t-57 -24zM128 -12q-34 0 -57 23.5t-23 58.5t23 59t57 24t57 -24t23 -59t-23 -58.5t-57 -23.5z" />
    <glyph glyph-name="semicolon" unicode=";" horiz-adv-x="259" 
d="M128 330q-34 0 -57 23.5t-23 58.5t23 58.5t57 23.5t57 -23.5t23 -58.5t-23 -58.5t-57 -23.5zM90 -146l-36 58q26 15 38.5 29.5t15.5 31.5t3 24q0 26 -17.5 40t-45.5 14q0 41 19 65t55 24q38 0 61.5 -29t23.5 -83q0 -55 -28.5 -100.5t-88.5 -73.5z" />
    <glyph glyph-name="less" unicode="&#x3c;" horiz-adv-x="520" 
d="M446 446l-261 -129l261 -129l-2 -120l-370 192v114l370 192z" />
    <glyph glyph-name="equal" unicode="=" horiz-adv-x="566" 
d="M74 359v97h418v-97h-418zM74 178v97h418v-97h-418z" />
    <glyph glyph-name="greater" unicode="&#x3e;" horiz-adv-x="519" 
d="M75 566l370 -192v-114l-370 -192l-2 120l260 129l-260 129z" />
    <glyph glyph-name="question" unicode="?" horiz-adv-x="510" 
d="M157 221l-14 110q56 34 92.5 64.5t56.5 63.5t20 70q0 28 -12.5 50.5t-34 31t-42.5 8.5q-36 0 -57.5 -16.5t-27.5 -43.5l-104 31q18 67 65 98.5t130 31.5q101 0 154 -47t53 -133q0 -76 -40.5 -133t-133.5 -109l-5 -77h-100zM212 -12q-33 0 -56 23.5t-23 58.5t23 59t56 24
q16 0 35 -8t32 -28.5t13 -46.5q0 -16 -7.5 -35.5t-27.5 -33t-45 -13.5z" />
    <glyph glyph-name="at" unicode="@" horiz-adv-x="1099" 
d="M554 725q102 0 189 -27.5t149.5 -82.5t98 -138.5t35.5 -196.5q0 -77 -16.5 -132t-45 -87.5t-66 -46.5t-80.5 -14q-45 0 -81.5 17t-58.5 49q-27 -30 -68.5 -48t-91.5 -18q-101 0 -157.5 62.5t-56.5 169.5q0 51 15.5 97t45 79.5t70.5 52.5t90 19q75 0 137 -39l7 29h111
v-281q0 -42 14 -61t42 -19q43 0 62 44t19 127q0 80 -26.5 144.5t-75.5 108t-117 66t-148 22.5q-85 0 -153 -26t-114 -74.5t-69.5 -117t-23.5 -151.5q0 -96 24 -165.5t67 -111t100.5 -60t125.5 -18.5q53 0 104.5 11.5t106.5 37.5l11 -101q-89 -50 -232 -50q-92 0 -169.5 27.5
t-133.5 83t-88 141.5t-32 205q0 114 37 202t101 148t152.5 91.5t189.5 31.5zM540 110q49 0 78 26t29 76v125q-16 11 -40 19.5t-54 8.5q-54 0 -84 -35.5t-30 -97.5q0 -60 26 -91t75 -31z" />
    <glyph glyph-name="A" unicode="A" horiz-adv-x="688" 
d="M545 0l-59 165h-284l-59 -165h-143l269 710h149l270 -710h-143zM242 277h204l-102 285z" />
    <glyph glyph-name="B" unicode="B" horiz-adv-x="680" 
d="M528 385q38 -17 66.5 -46t39.5 -63t11 -64q0 -212 -270 -212h-288v710h268q121 0 185.5 -48t64.5 -136q0 -92 -77 -141zM333 590h-109v-179l155 1q92 10 92 88q0 46 -33 68t-105 22zM392 117q55 0 85 25t30 72q0 43 -31 67.5t-83 24.5h-169v-189h168z" />
    <glyph glyph-name="C" unicode="C" horiz-adv-x="671" 
d="M395 -12q-83 0 -150 24.5t-112.5 71t-69.5 115t-24 153.5q0 88 23.5 157.5t66.5 116.5t105 70.5t136 23.5q135 0 208.5 -63.5t73.5 -171.5l-139 -19q-7 131 -148 131q-84 0 -133.5 -59.5t-49.5 -177.5q0 -121 59.5 -183.5t167.5 -62.5q109 0 204 56l30 -120
q-40 -27 -103.5 -44.5t-144.5 -17.5z" />
    <glyph glyph-name="D" unicode="D" horiz-adv-x="731" 
d="M306 710q91 0 163.5 -23.5t122 -68.5t75 -111t25.5 -148q0 -84 -26.5 -151.5t-76.5 -113.5t-122 -70t-159 -24h-221v710h219zM309 123q119 0 181.5 60.5t62.5 174.5q0 108 -63 168.5t-181 60.5h-85v-464h85z" />
    <glyph glyph-name="E" unicode="E" horiz-adv-x="601" 
d="M556 588h-332v-174h296v-114h-296v-178h332v-122h-469v710h469v-122z" />
    <glyph glyph-name="F" unicode="F" horiz-adv-x="566" 
d="M536 592h-312v-195h282v-114h-282v-283h-137v710h449v-118z" />
    <glyph glyph-name="G" unicode="G" horiz-adv-x="756" 
d="M394 387h310v-387h-105l-6 77q-39 -41 -95.5 -65t-123.5 -24q-75 0 -137.5 25t-106.5 72.5t-67.5 116t-23.5 152.5q0 88 24.5 157.5t70 115.5t111 69.5t145.5 23.5q130 0 204.5 -54.5t91.5 -150.5l-142 -28q-8 40 -32 66.5t-57.5 36t-64.5 9.5q-99 0 -153 -62.5
t-54 -182.5q0 -116 55 -180t154 -64q62 0 104 21t63 55t21 81v19h-186v101z" />
    <glyph glyph-name="H" unicode="H" horiz-adv-x="779" 
d="M555 710h137v-710h-137v282h-331v-282h-137v710h137v-303h331v303z" />
    <glyph glyph-name="I" unicode="I" horiz-adv-x="311" 
d="M87 0v710h137v-710h-137z" />
    <glyph glyph-name="J" unicode="J" horiz-adv-x="484" 
d="M169 -12q-53 0 -93.5 8.5t-62.5 19.5l12 120q23 -10 59 -19t73 -9q64 0 89 24t25 87v491h138v-486q0 -115 -56.5 -175.5t-183.5 -60.5z" />
    <glyph glyph-name="K" unicode="K" horiz-adv-x="666" 
d="M414 354l268 -354h-163l-208 284h-87v-284h-137v710h137v-294h87l197 294h163z" />
    <glyph glyph-name="L" unicode="L" horiz-adv-x="570" 
d="M224 125h336v-125h-473v710h137v-585z" />
    <glyph glyph-name="M" unicode="M" horiz-adv-x="928" 
d="M856 0h-140l-12 499l-185 -405h-108l-187 407l-12 -501h-140l22 710h175l197 -436l200 436h168z" />
    <glyph glyph-name="N" unicode="N" horiz-adv-x="792" 
d="M569 710h136v-710h-131l-351 492v-492h-136v710h139l343 -482v482z" />
    <glyph glyph-name="O" unicode="O" horiz-adv-x="765" 
d="M382 -12q-79 0 -143.5 25t-109 72.5t-67.5 116t-23 152.5t23 152.5t67.5 116t109 72.5t143.5 25t143.5 -25t109 -72.5t67.5 -116t23 -152.5t-23 -152.5t-67.5 -116t-109 -72.5t-143.5 -25zM382 111q99 0 151.5 64.5t52.5 178.5t-52.5 178.5t-151.5 64.5q-97 0 -150 -65
t-53 -178t52.5 -178t150.5 -65z" />
    <glyph glyph-name="P" unicode="P" horiz-adv-x="641" 
d="M330 710q134 0 207.5 -62t73.5 -176q0 -113 -74.5 -175.5t-207.5 -62.5h-105v-234h-137v710h243zM329 353q72 0 108.5 28.5t36.5 90.5t-36 89t-108 27h-106v-235h105z" />
    <glyph glyph-name="Q" unicode="Q" horiz-adv-x="766" 
d="M664 -70q40 0 75 11l-9 -109q-45 -12 -95 -12q-74 0 -120.5 29t-88.5 110l-15 30l-29 -1q-79 0 -143.5 25t-109 72.5t-67.5 116t-23 152.5t23 152.5t67.5 116t109 72.5t143.5 25t143.5 -25t109 -72.5t67.5 -116t23 -152.5q0 -124 -48 -210.5t-137 -125.5l9 -19
q21 -39 46.5 -54t68.5 -15zM179 354q0 -113 52.5 -178t150.5 -65q99 0 151.5 64.5t52.5 178.5t-52.5 178.5t-151.5 64.5q-97 0 -150 -65t-53 -178z" />
    <glyph glyph-name="R" unicode="R" horiz-adv-x="672" 
d="M492 0l-152 253h-116v-253h-137v710h263q132 0 201 -58t69 -165q0 -80 -38.5 -137t-106.5 -81l173 -269h-156zM224 590v-218h115q71 0 107 25.5t36 80.5t-35 83.5t-112 28.5h-111z" />
    <glyph glyph-name="S" unicode="S" horiz-adv-x="619" 
d="M302 -12q-143 0 -246 58l17 125q113 -63 227 -63q70 0 107 22t37 62q0 22 -11 41t-39.5 34.5t-106 33t-116 31.5t-66.5 36.5t-44.5 57t-16.5 82.5q0 102 68 157t195 55q119 0 181.5 -46t69.5 -132l-135 -22q-3 23 -15 44t-38.5 32t-65.5 11q-59 0 -91.5 -23.5
t-32.5 -65.5q0 -30 16 -50t45 -32.5t100.5 -28t109.5 -29t66 -36t45 -58.5t17 -86q1 -108 -70 -159t-207 -51z" />
    <glyph glyph-name="T" unicode="T" horiz-adv-x="542" 
d="M547 710v-121h-207v-589h-137v589h-208v121h552z" />
    <glyph glyph-name="U" unicode="U" horiz-adv-x="736" 
d="M366 -12q-290 0 -290 288v434h136v-426q0 -91 38.5 -133.5t115.5 -42.5q158 0 158 173v429h136v-434q0 -136 -76.5 -212t-217.5 -76z" />
    <glyph glyph-name="V" unicode="V" horiz-adv-x="678" 
d="M535 710h153l-276 -710h-146l-276 710h154l195 -528z" />
    <glyph glyph-name="W" unicode="W" horiz-adv-x="972" 
d="M816 710h154l-211 -710h-137l-136 493l-135 -493h-138l-211 710h154l129 -500l134 500h134l134 -500z" />
    <glyph glyph-name="X" unicode="X" horiz-adv-x="619" 
d="M629 710l-236 -347l236 -363h-155l-165 270l-164 -270h-155l236 363l-236 347h155l164 -256l165 256h155z" />
    <glyph glyph-name="Y" unicode="Y" horiz-adv-x="624" 
d="M492 710h148l-260 -437v-273h-135v273l-260 437h152l177 -312z" />
    <glyph glyph-name="Z" unicode="Z" horiz-adv-x="603" 
d="M575 710v-100l-371 -490h368v-120h-544v102l370 488h-356v120h533z" />
    <glyph glyph-name="bracketleft" unicode="[" horiz-adv-x="403" 
d="M355 703h-141v-776h141v-107h-262v990h262v-107z" />
    <glyph glyph-name="backslash" unicode="\" horiz-adv-x="453" 
d="M450 -180h-127l-319 990h127z" />
    <glyph glyph-name="bracketright" unicode="]" horiz-adv-x="404" 
d="M310 810v-990h-261v107h141v776h-141v107h261z" />
    <glyph glyph-name="underscore" unicode="_" horiz-adv-x="465" 
d="M48 -107v107h369v-107h-369z" />
    <glyph glyph-name="a" unicode="a" horiz-adv-x="548" 
d="M268 490q220 0 220 -189v-301h-104l-14 68q-27 -37 -69.5 -58.5t-97.5 -21.5q-75 0 -119.5 39.5t-44.5 106.5q0 72 55 112.5t162 40.5q53 0 103 -9v24q0 43 -23.5 65t-68.5 22q-79 0 -90 -61l-121 21q17 77 69 109t143 32zM239 83q22 0 49.5 9t48 32.5t22.5 51.5v25
q-43 8 -88 8q-105 0 -105 -67q0 -59 73 -59z" />
    <glyph glyph-name="b" unicode="b" horiz-adv-x="592" 
d="M340 490q97 0 154.5 -63.5t57.5 -182.5q0 -57 -16 -104.5t-49.5 -81t-86.5 -52t-123 -18.5q-125 0 -210 50v672h133v-273q50 53 140 53zM288 99q64 0 97 36.5t33 106.5q0 65 -29.5 101t-80.5 36t-79.5 -29.5t-28.5 -73.5v-155q33 -22 88 -22z" />
    <glyph glyph-name="c" unicode="c" horiz-adv-x="515" 
d="M294 -12q-123 0 -188.5 63.5t-65.5 190.5q0 115 62.5 181.5t179.5 66.5q68 0 112.5 -23t68 -64t24.5 -98l-122 -15q-2 41 -23.5 65t-60.5 24q-23 0 -49 -11t-41.5 -42.5t-15.5 -83.5q0 -142 124 -142q37 0 79.5 12.5t82.5 40.5l31 -107q-73 -58 -198 -58z" />
    <glyph glyph-name="d" unicode="d" horiz-adv-x="591" 
d="M391 710h133v-710h-107l-14 63q-26 -34 -66.5 -54.5t-93.5 -20.5q-21 0 -47 5t-52 19t-50 41t-39 73t-15 105q0 121 63.5 190t174.5 69q62 0 113 -21v241zM274 99q22 0 49.5 11t47.5 41t20 69v129q-43 30 -100 30q-33 0 -61.5 -15.5t-42.5 -50t-14 -79.5q0 -71 28.5 -103
t72.5 -32z" />
    <glyph glyph-name="e" unicode="e" horiz-adv-x="533" 
d="M175 208q14 -110 130 -110q48 0 90 15.5t63 32.5l34 -102q-14 -13 -48 -27.5t-74.5 -21.5t-73.5 -7q-125 0 -190.5 68.5t-65.5 189.5q0 109 65.5 176.5t173.5 67.5q39 0 79 -12t71.5 -40.5t51.5 -75t20 -109.5v-45h-326zM278 386q-88 0 -102 -100h192q-4 51 -27.5 75.5
t-62.5 24.5z" />
    <glyph glyph-name="f" unicode="f" horiz-adv-x="359" 
d="M286 604q-66 0 -66 -71v-53h135v-109h-135v-371h-133v371h-85v109h85v66q0 174 161 174q65 0 121 -21l-6 -111q-23 8 -39.5 12t-37.5 4z" />
    <glyph glyph-name="g" unicode="g" horiz-adv-x="534" 
d="M372 116q76 0 114 -36.5t38 -99.5q0 -54 -32.5 -92t-88.5 -58t-136 -20q-240 0 -240 130q0 63 54 103q-15 13 -23.5 32.5t-8.5 41.5t12 48.5t53 57.5q-25 18 -38.5 46.5t-13.5 63.5q0 70 54 113t150 43q47 0 78 -8q33 99 153 102l14 -108q-63 -3 -87 -33q46 -41 46 -106
q0 -72 -53.5 -112.5t-150.5 -40.5q-43 0 -81 8q-23 -16 -23 -38q0 -37 48 -37h162zM266 405q-36 0 -56.5 -19.5t-20.5 -54.5t20 -53t57 -18q76 0 76 71q0 35 -20 54.5t-56 19.5zM270 -95q62 0 95 16.5t33 45.5q0 48 -62 48h-164h-5q-22 -19 -22 -48q0 -62 125 -62z" />
    <glyph glyph-name="h" unicode="h" horiz-adv-x="597" 
d="M358 490q90 0 134.5 -49.5t44.5 -142.5v-298h-133v274q0 52 -23 76t-68 24q-24 0 -51 -10.5t-44.5 -37.5t-17.5 -61v-265h-133v710h133v-284q27 30 67 47t91 17z" />
    <glyph glyph-name="i" unicode="i" horiz-adv-x="289" 
d="M145 550q-36 0 -60 23.5t-24 59.5t24 59t60 23q37 0 60.5 -23t23.5 -59q0 -37 -23.5 -60t-60.5 -23zM78 0v480h133v-480h-133z" />
    <glyph glyph-name="j" unicode="j" horiz-adv-x="262" 
d="M134 550q-36 0 -60 23.5t-24 59.5t24 59t60 23q37 0 60.5 -23t23.5 -59q0 -37 -23.5 -60t-60.5 -23zM44 -190q-53 0 -82 13l3 115q26 -12 51 -12q26 0 38.5 12.5t12.5 42.5v499h133v-508q0 -45 -12 -80.5t-45 -58.5t-99 -23z" />
    <glyph glyph-name="k" unicode="k" horiz-adv-x="528" 
d="M389 0l-137 200l-52 -51v-149h-133v710h133v-410l175 180h159l-195 -193l197 -287h-147z" />
    <glyph glyph-name="l" unicode="l" horiz-adv-x="267" 
d="M67 0v710h133v-710h-133z" />
    <glyph glyph-name="m" unicode="m" horiz-adv-x="877" 
d="M648 490q81 0 125 -50t44 -140v-300h-133v270q0 104 -78 104q-21 0 -44 -9.5t-38.5 -35t-15.5 -57.5v-272h-132v273q0 101 -78 101q-32 0 -56 -17t-33 -41t-9 -44v-272h-133v480h103l15 -69q25 36 65 57.5t90 21.5q55 0 93 -22.5t56 -63.5q25 39 66.5 62.5t92.5 23.5z
" />
    <glyph glyph-name="n" unicode="n" horiz-adv-x="597" 
d="M356 490q91 0 136 -49t45 -140v-301h-133v276q0 98 -94 98q-34 0 -61.5 -18.5t-38 -44t-10.5 -46.5v-265h-133v480h103l17 -70q27 37 70 58.5t99 21.5z" />
    <glyph glyph-name="o" unicode="o" horiz-adv-x="584" 
d="M292 -12q-117 0 -184.5 65t-67.5 186q0 122 67.5 186.5t184.5 64.5t184.5 -65.5t67.5 -186.5q0 -60 -17.5 -107t-50.5 -79t-80 -48t-104 -16zM292 99q56 0 86 36t30 103t-30 104t-86 37q-57 0 -86.5 -37t-29.5 -104t29.5 -103t86.5 -36z" />
    <glyph glyph-name="p" unicode="p" horiz-adv-x="592" 
d="M339 490q99 0 156 -60.5t57 -179.5q0 -128 -69 -195t-195 -67q-49 0 -88 11v-179h-133v660h106l12 -63q23 34 62 53.5t92 19.5zM280 99q138 0 138 144q0 70 -29 103t-81 33q-33 0 -60 -16t-37.5 -40.5t-10.5 -47.5v-162q40 -14 80 -14z" />
    <glyph glyph-name="q" unicode="q" horiz-adv-x="582" 
d="M300 490q121 0 222 -60v-610h-133v221q-56 -53 -142 -53q-44 0 -82 14.5t-66 44t-43.5 76t-15.5 106.5q0 127 68 194t192 67zM276 99q36 0 64 19.5t38.5 44t10.5 41.5v155q-40 20 -93 20q-23 0 -43.5 -6.5t-37 -20t-29.5 -42.5t-13 -78q0 -69 29 -101t74 -32z" />
    <glyph glyph-name="r" unicode="r" horiz-adv-x="363" 
d="M301 490q33 0 49 -8l-8 -125q-19 7 -44 7q-40 0 -69 -36.5t-29 -100.5v-227h-133v480h107l11 -72q20 38 50 60t66 22z" />
    <glyph glyph-name="s" unicode="s" horiz-adv-x="480" 
d="M237 -12q-119 0 -201 50l13 105q23 -14 55 -26.5t66.5 -18.5t62.5 -6q46 0 70.5 12t24.5 33q0 11 -8 21t-26 17t-82 21t-89.5 25.5t-43.5 26t-30 38.5t-12 57q0 67 50 107t148 40q93 0 149.5 -36t59.5 -97l-128 -19q-5 29 -25 42.5t-58 13.5q-35 0 -53.5 -11.5
t-18.5 -32.5q0 -22 20 -36t95.5 -29t109 -32.5t51.5 -45t18 -69.5q0 -70 -53.5 -110t-164.5 -40z" />
    <glyph glyph-name="t" unicode="t" horiz-adv-x="372" 
d="M359 371h-134v-214q0 -29 11.5 -41t37.5 -12q36 0 67 12l9 -112q-53 -16 -120 -16q-46 0 -75 12t-46 43.5t-17 96.5v231h-90v109h90v140h133v-140h134v-109z" />
    <glyph glyph-name="u" unicode="u" horiz-adv-x="588" 
d="M391 480h132v-480h-107l-14 68q-53 -80 -165 -80q-65 0 -101 21.5t-53.5 64.5t-17.5 114v292h133v-275q0 -55 20 -78t65 -23q51 0 79.5 35t28.5 96v245z" />
    <glyph glyph-name="v" unicode="v" horiz-adv-x="503" 
d="M378 480h136l-206 -480h-113l-205 480h136l125 -329z" />
    <glyph glyph-name="w" unicode="w" horiz-adv-x="734" 
d="M602 480h134l-167 -480h-107l-95 303l-96 -303h-107l-167 480h135l92 -304l91 304h104l90 -306z" />
    <glyph glyph-name="x" unicode="x" horiz-adv-x="494" 
d="M497 480l-169 -241l166 -239h-142l-105 161l-105 -161h-141l167 235l-171 245h142l108 -170l108 170h142z" />
    <glyph glyph-name="y" unicode="y" horiz-adv-x="509" 
d="M382 480h138l-234 -546q-30 -70 -77 -97t-113 -27q-47 0 -72 9l-11 113q48 -11 73 -11q75 0 99 59l11 27l-206 473h138l129 -317z" />
    <glyph glyph-name="z" unicode="z" horiz-adv-x="463" 
d="M438 378l-250 -273h250v-105h-403l-8 102l250 273h-233v105h386z" />
    <glyph glyph-name="braceleft" unicode="{" horiz-adv-x="438" 
d="M315 710q-64 0 -64 -60q0 -29 27.5 -91t34.5 -90t7 -50q0 -27 -9.5 -48t-28.5 -34.5t-40 -21.5q21 -8 40 -21.5t28.5 -34.5t9.5 -48q0 -46 -30 -113.5t-34.5 -87t-4.5 -30.5q0 -57 64 -57h75v-103h-128q-63 0 -95 33.5t-32 87.5q0 46 30 121.5t35 99t5 36.5
q0 29 -20.5 46t-55.5 17h-36v108h36q35 0 55.5 17t20.5 46q0 5 -1.5 19.5t-8.5 36.5t-29 77t-26.5 82t-4.5 42q0 54 32 87.5t95 33.5h128v-100h-75z" />
    <glyph glyph-name="bar" unicode="|" horiz-adv-x="319" 
d="M93 -180v990h133v-990h-133z" />
    <glyph glyph-name="braceright" unicode="}" horiz-adv-x="439" 
d="M311 369h35v-108h-35q-35 0 -56 -17t-21 -46q0 -5 1.5 -19.5t8.5 -36.5t29 -77t26.5 -82t4.5 -42q0 -54 -31.5 -87.5t-95.5 -33.5h-128v103h75q64 0 64 57q0 29 -27.5 91t-34.5 90t-7 50q0 37 17.5 62t60.5 42q-43 17 -60.5 42t-17.5 62q0 46 30 113.5t34.5 87t4.5 30.5
q0 60 -64 60h-75v100h128q64 0 95.5 -33.5t31.5 -87.5q0 -46 -30 -121.5t-35 -99t-5 -36.5q0 -29 21 -46t56 -17z" />
    <glyph glyph-name="asciitilde" unicode="~" horiz-adv-x="581" 
d="M165 226l-91 14q4 74 34 109.5t79 35.5q38 0 100 -15t84 -15q20 0 30.5 11.5t14.5 41.5l92 -14q-4 -74 -34 -109.5t-79 -35.5q-38 0 -100 15t-84 15q-37 0 -46 -53z" />
    <glyph glyph-name="exclamdown" unicode="&#xa1;" horiz-adv-x="257" 
d="M128 351q-34 0 -57 23.5t-23 58.5t23 58.5t57 23.5t57 -23.5t23 -58.5t-23 -58.5t-57 -23.5zM60 -180l8 441h120l9 -441h-137z" />
    <glyph glyph-name="cent" unicode="&#xa2;" horiz-adv-x="570" 
d="M512 162q-63 -48 -165 -56l-2 -106h-106l2 109q-88 17 -135.5 81t-47.5 175q0 75 25.5 127.5t68 82.5t100.5 39l3 106h106l-2 -107q38 -7 73.5 -29t54 -63.5t19.5 -87.5l-122 -15q-2 41 -23 65t-62 24q-23 0 -48.5 -11.5t-41.5 -44.5t-16 -86q0 -77 31.5 -112.5
t93.5 -35.5q85 0 162 52z" />
    <glyph glyph-name="sterling" unicode="&#xa3;" horiz-adv-x="583" 
d="M265 251v-137h249v-114h-456v114h71v137h-71v114h71v130q0 105 60 165t174 60q43 0 86.5 -10.5t75.5 -33.5l-33 -118q-28 19 -55.5 29t-63.5 10q-50 0 -79 -31t-29 -88v-113h171v-114h-171z" />
    <glyph glyph-name="currency" unicode="&#xa4;" horiz-adv-x="714" 
d="M598 358q0 -86 -40 -146l98 -107l-74 -74l-101 110q-25 -14 -58.5 -22t-65.5 -8t-65.5 8t-58.5 22l-101 -110l-74 74l98 107q-40 62 -40 146t40 148l-98 107l74 74l101 -110q25 14 58.5 22t65.5 8t65.5 -8t58.5 -22l101 110l74 -74l-98 -108q40 -60 40 -147zM231 358
q0 -50 19.5 -82.5t50 -44t56.5 -11.5q27 0 57 11.5t50 44t20 82.5q0 25 -6 50.5t-23.5 48t-44.5 32t-53 9.5q-42 0 -72.5 -20t-42 -53t-11.5 -67z" />
    <glyph glyph-name="yen" unicode="&#xa5;" horiz-adv-x="717" 
d="M643 710l-210 -354h148v-88h-154v-51h154v-87h-154v-130h-137v130h-153v87h153v51h-153v88h147l-210 354h138l146 -261l148 261h137z" />
    <glyph glyph-name="brokenbar" unicode="&#xa6;" horiz-adv-x="319" 
d="M93 410v400h133v-400h-133zM93 -180v400h133v-400h-133z" />
    <glyph glyph-name="section" unicode="&#xa7;" horiz-adv-x="654" 
d="M479 135q85 -42 85 -136q0 -56 -25 -93.5t-76.5 -57.5t-137.5 -20q-39 0 -85.5 7.5t-85 23.5t-58.5 31l11 117q23 -17 62 -35t80 -26.5t73 -8.5q114 0 114 61q0 14 -9.5 27t-32.5 23.5t-102 31t-119.5 43t-62.5 57t-22 83.5q0 50 25.5 87.5t69.5 60.5q-91 47 -91 148
q0 59 28.5 99t80 61t126.5 21q104 0 161.5 -36t70.5 -113l-123 -26q-9 36 -34.5 52.5t-69.5 16.5q-50 0 -78.5 -18.5t-28.5 -53.5q0 -18 9 -34.5t28 -28.5t36 -19t84.5 -30t94.5 -39.5t43.5 -33t28.5 -42t12 -63.5q0 -47 -22.5 -81.5t-59.5 -55.5zM218 277q0 -35 22.5 -55
t52.5 -30t60 -17q82 27 82 88q0 34 -27 58t-112 49q-78 -25 -78 -93z" />
    <glyph glyph-name="copyright" unicode="&#xa9;" horiz-adv-x="1064" 
d="M532 -151q-102 0 -189.5 32.5t-151 94.5t-98.5 152t-35 200t34.5 200.5t98 152t151.5 94t190 32.5t189.5 -32.5t151.5 -94.5t98.5 -152t34.5 -200t-35 -200t-98.5 -152t-151 -94.5t-189.5 -32.5zM532 -53q81 0 148.5 24.5t116 72.5t75 120t26.5 164t-26.5 164t-75 120
t-116 72.5t-148.5 24.5t-148.5 -24.5t-116 -72.5t-75 -120t-26.5 -164t26.5 -164t75 -120t116 -72.5t148.5 -24.5zM548 77q-122 0 -187.5 63.5t-65.5 190.5q0 115 62.5 181.5t179.5 66.5q67 0 112 -23t68.5 -64t24.5 -98l-122 -15q-2 41 -23.5 65t-60.5 24q-23 0 -49 -11
t-41.5 -42.5t-15.5 -83.5q0 -142 124 -142q37 0 80 13t81 40l32 -107q-73 -58 -199 -58z" />
    <glyph glyph-name="ordfeminine" unicode="&#xaa;" horiz-adv-x="423" 
d="M204 720q151 0 151 -133v-214h-65l-10 47q-42 -51 -120 -51q-53 0 -82.5 27.5t-29.5 74.5q0 51 36 80t111 29q40 0 74 -8v17q0 30 -17 46t-49 16q-22 0 -41 -8.5t-25 -37.5l-82 14q17 101 149 101zM185 431q34 0 59 21.5t25 58.5v8q-31 7 -62 7q-37 0 -56 -13t-19 -36
q0 -22 14 -34t39 -12z" />
    <glyph glyph-name="guillemotleft" unicode="&#xab;" horiz-adv-x="530" 
d="M267 397l-113 -113l113 -110l-67 -69l-164 168v20l165 172zM461 397l-113 -113l113 -110l-67 -69l-164 168v20l165 172z" />
    <glyph glyph-name="registered" unicode="&#xae;" horiz-adv-x="562" 
d="M282 728q93 0 150 -54.5t57 -149.5t-57 -149.5t-150 -54.5q-94 0 -151.5 54.5t-57.5 149.5t57.5 149.5t151.5 54.5zM282 354q76 0 122.5 43t46.5 127t-46.5 127t-122.5 43q-77 0 -123.5 -43t-46.5 -127t46.5 -127t123.5 -43zM382 567q0 -52 -45 -69l52 -87h-65l-44 81
h-26v-81h-64v231h101q44 0 67.5 -19t23.5 -56zM254 594v-55h28q34 0 34 28q0 27 -34 27h-28z" />
    <glyph glyph-name="degree" unicode="&#xb0;" horiz-adv-x="400" 
d="M200 470q-58 0 -95 36t-37 92t37 92t95 36q59 0 95.5 -36t36.5 -92t-36.5 -92t-95.5 -36zM200 544q24 0 38.5 15t14.5 39t-14.5 39t-38.5 15q-23 0 -38 -15t-15 -39t15 -39t38 -15z" />
    <glyph glyph-name="plusminus" unicode="&#xb1;" horiz-adv-x="568" 
d="M212 150v148h-138v110h138v147h120v-147h139v-110h-139v-148h-120zM74 112h420v-112h-420v112z" />
    <glyph glyph-name="paragraph" unicode="&#xb6;" horiz-adv-x="657" 
d="M323 266q-117 0 -181 57.5t-64 164.5t64 164.5t181 57.5h44v-444h-44zM432 -100v810h137v-810h-137z" />
    <glyph glyph-name="periodcentered" unicode="&#xb7;" horiz-adv-x="256" 
d="M128 226q-34 0 -57 23.5t-23 58.5t23 59t57 24t57 -24t23 -59t-23 -58.5t-57 -23.5z" />
    <glyph glyph-name="ordmasculine" unicode="&#xba;" horiz-adv-x="447" 
d="M229 369q-39 0 -72.5 12t-57.5 34.5t-37 55.5t-13 73q0 83 49.5 129.5t130.5 46.5t130 -46.5t49 -129.5q0 -30 -8.5 -61t-30 -56t-56.5 -41.5t-84 -16.5zM229 449q37 0 58.5 25.5t21.5 69.5t-21.5 70t-58.5 26q-38 0 -59 -26t-21 -70t21 -69.5t59 -25.5z" />
    <glyph glyph-name="guillemotright" unicode="&#xbb;" horiz-adv-x="530" 
d="M267 293v-20l-164 -168l-67 69l113 110l-113 113l66 68zM296 465l166 -172v-20l-165 -168l-67 69l113 110l-113 113z" />
    <glyph glyph-name="onequarter" unicode="&#xbc;" horiz-adv-x="974" 
d="M710 720l114 -5l-512 -727l-114 5zM128 411h87v209q-11 -6 -42.5 -17t-73.5 -23l-16 80q30 9 69 25t63 31h92v-305h69v-77h-248v77zM844 172h67v-75h-67v-97h-91v97h-170l-19 66l191 219h89v-210zM656 172h97v109z" />
    <glyph glyph-name="onehalf" unicode="&#xbd;" horiz-adv-x="1001" 
d="M710 720l114 -5l-512 -727l-114 5zM128 411h87v209q-11 -6 -42.5 -17t-73.5 -23l-16 80q30 9 69 25t63 31h92v-305h69v-77h-248v77zM725 78h207v-78h-307v52q0 11 3.5 26.5t14.5 31.5t27 28.5t29 20.5t70 37.5t57 62.5q0 24 -14 36.5t-41 12.5q-20 0 -36 -6.5t-23 -31.5
l-93 17q13 52 49.5 76.5t104.5 24.5q77 0 115.5 -30t38.5 -97q0 -41 -26.5 -72.5t-85 -59t-71.5 -35.5t-19 -16z" />
    <glyph glyph-name="threequarters" unicode="&#xbe;" horiz-adv-x="969" 
d="M375 442q0 -23 -13 -51t-48.5 -46.5t-87.5 -18.5q-40 0 -72 11.5t-48.5 32t-22.5 40.5l76 25q13 -36 66 -36q30 0 48.5 12.5t18.5 36.5q0 50 -70 50h-34v67h33q28 0 42.5 11.5t14.5 31.5q0 18 -13.5 30t-40.5 12q-47 0 -59 -32l-79 17q19 85 138 85q66 0 101 -27t35 -77
q0 -58 -57 -81q72 -25 72 -93zM706 720l115 -5l-513 -727l-114 5zM839 172h66v-75h-66v-97h-90v97h-171l-20 66l191 219h90v-210zM651 172h98v109z" />
    <glyph glyph-name="questiondown" unicode="&#xbf;" horiz-adv-x="526" 
d="M293 351q-34 0 -57 23.5t-23 58.5t23 58.5t57 23.5t57 -23.5t23 -58.5t-23 -58.5t-57 -23.5zM282 -190q-98 0 -153 45t-55 128q0 64 35.5 118t120.5 103l7 73h113l12 -109q-95 -50 -128.5 -89t-33.5 -82q0 -39 25 -62t67 -23q40 0 67 19t37 49l97 -34q-12 -45 -40.5 -75
t-72.5 -45.5t-98 -15.5z" />
    <glyph glyph-name="Agrave" unicode="&#xc0;" horiz-adv-x="688" 
d="M406 742l-121 -7l-95 109l150 20zM545 0l-59 165h-284l-59 -165h-143l269 710h149l270 -710h-143zM242 277h204l-102 285z" />
    <glyph glyph-name="Aacute" unicode="&#xc1;" horiz-adv-x="688" 
d="M493 844l-95 -109l-121 7l66 122zM545 0l-59 165h-284l-59 -165h-143l269 710h149l270 -710h-143zM242 277h204l-102 285z" />
    <glyph glyph-name="Acircumflex" unicode="&#xc2;" horiz-adv-x="688" 
d="M344 796l-50 -61l-101 14l90 104h123l89 -104l-101 -14zM545 0l-59 165h-284l-59 -165h-143l269 710h149l270 -710h-143zM242 277h204l-102 285z" />
    <glyph glyph-name="Atilde" unicode="&#xc3;" horiz-adv-x="688" 
d="M296 770q-27 0 -30 -39l-73 8q4 57 26.5 85t61.5 28q26 0 62 -13.5t49 -13.5q28 0 31 39l72 -9q-7 -113 -87 -113q-26 0 -62.5 14t-49.5 14zM545 0l-59 165h-284l-59 -165h-143l269 710h149l270 -710h-143zM242 277h204l-102 285z" />
    <glyph glyph-name="Adieresis" unicode="&#xc4;" horiz-adv-x="688" 
d="M241 736q-29 0 -48 19t-19 48t19 47.5t48 18.5t47.5 -18.5t18.5 -47.5t-18.5 -48t-47.5 -19zM446 736q-29 0 -47.5 19t-18.5 48t18.5 47.5t47.5 18.5t48 -18.5t19 -47.5t-19 -48t-48 -19zM545 0l-59 165h-284l-59 -165h-143l269 710h149l270 -710h-143zM242 277h204
l-102 285z" />
    <glyph glyph-name="Aring" unicode="&#xc5;" horiz-adv-x="688" 
d="M344 724q-45 0 -70.5 23t-25.5 62t25.5 62.5t70.5 23.5t70.5 -23t25.5 -63q0 -39 -25.5 -62t-70.5 -23zM344 840q-12 0 -20.5 -8.5t-8.5 -22.5q0 -13 8.5 -21.5t20.5 -8.5q13 0 21.5 8.5t8.5 21.5q0 14 -8.5 22.5t-21.5 8.5zM545 0l-59 165h-284l-59 -165h-143l269 710
h149l270 -710h-143zM242 277h204l-102 285z" />
    <glyph glyph-name="AE" unicode="&#xc6;" horiz-adv-x="1000" 
d="M662 292v-170h289v-122h-426v292h-231l-131 -292h-143l329 710h605l-8 -122h-284v-182h256v-114h-256zM345 406h180v182h-99z" />
    <glyph glyph-name="Ccedilla" unicode="&#xc7;" horiz-adv-x="671" 
d="M643 50q-39 -27 -102 -44.5t-144 -17.5l-4 -25q79 0 79 -62q0 -53 -49.5 -74t-140.5 -21l11 66q79 0 79 26q0 11 -16 16.5t-55 5.5l14 74q-133 21 -204.5 113.5t-71.5 244.5q0 88 23.5 157.5t66.5 116.5t105 70.5t136 23.5q135 0 208.5 -63.5t73.5 -171.5l-139 -19
q-7 131 -148 131q-84 0 -133.5 -59.5t-49.5 -177.5q0 -121 59.5 -183.5t167.5 -62.5q109 0 204 56z" />
    <glyph glyph-name="Egrave" unicode="&#xc8;" horiz-adv-x="601" 
d="M383 742l-121 -7l-95 109l150 20zM556 588h-332v-174h296v-114h-296v-178h332v-122h-469v710h469v-122z" />
    <glyph glyph-name="Eacute" unicode="&#xc9;" horiz-adv-x="601" 
d="M470 844l-95 -109l-121 7l66 122zM556 588h-332v-174h296v-114h-296v-178h332v-122h-469v710h469v-122z" />
    <glyph glyph-name="Ecircumflex" unicode="&#xca;" horiz-adv-x="601" 
d="M321 796l-50 -61l-101 14l90 104h123l89 -104l-101 -14zM556 588h-332v-174h296v-114h-296v-178h332v-122h-469v710h469v-122z" />
    <glyph glyph-name="Edieresis" unicode="&#xcb;" horiz-adv-x="601" 
d="M218 736q-29 0 -48 19t-19 48t19 47.5t48 18.5t47.5 -18.5t18.5 -47.5t-18.5 -48t-47.5 -19zM423 736q-29 0 -47.5 19t-18.5 48t18.5 47.5t47.5 18.5t48 -18.5t19 -47.5t-19 -48t-48 -19zM556 588h-332v-174h296v-114h-296v-178h332v-122h-469v710h469v-122z" />
    <glyph glyph-name="Igrave" unicode="&#xcc;" horiz-adv-x="311" 
d="M217 742l-121 -7l-95 109l150 20zM87 0v710h137v-710h-137z" />
    <glyph glyph-name="Iacute" unicode="&#xcd;" horiz-adv-x="311" 
d="M89 742l66 122l150 -20l-95 -109zM87 0v710h137v-710h-137z" />
    <glyph glyph-name="Icircumflex" unicode="&#xce;" horiz-adv-x="311" 
d="M155 796l-50 -61l-101 14l90 104h123l89 -104l-101 -14zM87 0v710h137v-710h-137z" />
    <glyph glyph-name="Idieresis" unicode="&#xcf;" horiz-adv-x="311" 
d="M53 736q-29 0 -48 19t-19 48t19 47.5t48 18.5t47.5 -18.5t18.5 -47.5t-18.5 -48t-47.5 -19zM258 736q-29 0 -47.5 19t-18.5 48t18.5 47.5t47.5 18.5t48 -18.5t19 -47.5t-19 -48t-48 -19zM87 0v710h137v-710h-137z" />
    <glyph glyph-name="Eth" unicode="&#xd0;" horiz-adv-x="751" 
d="M306 710q91 0 163.5 -23.5t122 -68.5t75 -111t25.5 -148q0 -84 -26.5 -151.5t-76.5 -113.5t-122 -70t-159 -24h-221v296h-77v108h77v306h219zM309 123q119 0 181.5 60.5t62.5 174.5q0 108 -63 168.5t-181 60.5h-85v-183h113v-108h-113v-173h85z" />
    <glyph glyph-name="Ntilde" unicode="&#xd1;" horiz-adv-x="792" 
d="M358 770q-27 0 -30 -39l-73 8q4 57 26.5 85t61.5 28q26 0 62 -13.5t49 -13.5q28 0 31 39l72 -9q-7 -113 -87 -113q-26 0 -62.5 14t-49.5 14zM569 710h136v-710h-131l-351 492v-492h-136v710h139l343 -482v482z" />
    <glyph glyph-name="Ograve" unicode="&#xd2;" horiz-adv-x="765" 
d="M443 742l-121 -7l-95 109l150 20zM382 -12q-79 0 -143.5 25t-109 72.5t-67.5 116t-23 152.5t23 152.5t67.5 116t109 72.5t143.5 25t143.5 -25t109 -72.5t67.5 -116t23 -152.5t-23 -152.5t-67.5 -116t-109 -72.5t-143.5 -25zM382 111q99 0 151.5 64.5t52.5 178.5
t-52.5 178.5t-151.5 64.5q-97 0 -150 -65t-53 -178t52.5 -178t150.5 -65z" />
    <glyph glyph-name="Oacute" unicode="&#xd3;" horiz-adv-x="765" 
d="M315 742l66 122l150 -20l-95 -109zM382 -12q-79 0 -143.5 25t-109 72.5t-67.5 116t-23 152.5t23 152.5t67.5 116t109 72.5t143.5 25t143.5 -25t109 -72.5t67.5 -116t23 -152.5t-23 -152.5t-67.5 -116t-109 -72.5t-143.5 -25zM382 111q99 0 151.5 64.5t52.5 178.5
t-52.5 178.5t-151.5 64.5q-97 0 -150 -65t-53 -178t52.5 -178t150.5 -65z" />
    <glyph glyph-name="Ocircumflex" unicode="&#xd4;" horiz-adv-x="765" 
d="M382 796l-50 -61l-101 14l90 104h123l89 -104l-101 -14zM382 720q79 0 143.5 -25t109 -72.5t67.5 -116t23 -152.5t-23 -152.5t-67.5 -116t-109 -72.5t-143.5 -25t-143.5 25t-109 72.5t-67.5 116t-23 152.5t23 152.5t67.5 116t109 72.5t143.5 25zM382 111q99 0 151.5 64.5
t52.5 178.5t-52.5 178.5t-151.5 64.5q-97 0 -150 -65t-53 -178t52.5 -178t150.5 -65z" />
    <glyph glyph-name="Otilde" unicode="&#xd5;" horiz-adv-x="765" 
d="M304 731l-73 8q4 57 26.5 85t61.5 28q26 0 62 -13.5t49 -13.5q28 0 31 39l72 -9q-7 -113 -87 -113q-26 0 -62.5 14t-49.5 14q-27 0 -30 -39zM382 -12q-79 0 -143.5 25t-109 72.5t-67.5 116t-23 152.5t23 152.5t67.5 116t109 72.5t143.5 25t143.5 -25t109 -72.5t67.5 -116
t23 -152.5t-23 -152.5t-67.5 -116t-109 -72.5t-143.5 -25zM382 111q99 0 151.5 64.5t52.5 178.5t-52.5 178.5t-151.5 64.5q-97 0 -150 -65t-53 -178t52.5 -178t150.5 -65z" />
    <glyph glyph-name="Odieresis" unicode="&#xd6;" horiz-adv-x="765" 
d="M279 736q-29 0 -48 19t-19 48t19 47.5t48 18.5t47.5 -18.5t18.5 -47.5t-18.5 -48t-47.5 -19zM484 736q-29 0 -47.5 19t-18.5 48t18.5 47.5t47.5 18.5t48 -18.5t19 -47.5t-19 -48t-48 -19zM382 -12q-79 0 -143.5 25t-109 72.5t-67.5 116t-23 152.5t23 152.5t67.5 116
t109 72.5t143.5 25t143.5 -25t109 -72.5t67.5 -116t23 -152.5t-23 -152.5t-67.5 -116t-109 -72.5t-143.5 -25zM382 111q99 0 151.5 64.5t52.5 178.5t-52.5 178.5t-151.5 64.5q-97 0 -150 -65t-53 -178t52.5 -178t150.5 -65z" />
    <glyph glyph-name="multiply" unicode="&#xd7;" horiz-adv-x="526" 
d="M453 439l-122 -122l122 -122l-68 -69l-122 123l-122 -123l-67 69l122 122l-122 122l67 69l122 -123l122 123z" />
    <glyph glyph-name="Oslash" unicode="&#xd8;" horiz-adv-x="804" 
d="M642 615q40 -46 61.5 -113t21.5 -148q0 -84 -23 -152.5t-67.5 -116t-109 -72.5t-143.5 -25q-86 0 -155 29l-29 -42l-114 10l59 86q-50 47 -77 120t-27 163q0 84 23 152.5t67.5 116t109 72.5t143.5 25q107 0 182 -42l46 67l115 -10zM179 354q0 -106 44 -168l267 385
q-46 26 -108 26q-97 0 -150 -65t-53 -178zM382 111q99 0 151.5 64.5t52.5 178.5q0 39 -7.5 76t-20.5 64l-256 -370q33 -13 80 -13z" />
    <glyph glyph-name="Ugrave" unicode="&#xd9;" horiz-adv-x="736" 
d="M421 742l-121 -7l-95 109l150 20zM366 -12q-290 0 -290 288v434h136v-426q0 -91 38.5 -133.5t115.5 -42.5q158 0 158 173v429h136v-434q0 -136 -76.5 -212t-217.5 -76z" />
    <glyph glyph-name="Uacute" unicode="&#xda;" horiz-adv-x="736" 
d="M292 742l66 122l150 -20l-95 -109zM366 -12q-290 0 -290 288v434h136v-426q0 -91 38.5 -133.5t115.5 -42.5q158 0 158 173v429h136v-434q0 -136 -76.5 -212t-217.5 -76z" />
    <glyph glyph-name="Ucircumflex" unicode="&#xdb;" horiz-adv-x="736" 
d="M359 796l-50 -61l-101 14l90 104h123l89 -104l-101 -14zM524 710h136v-434q0 -136 -76.5 -212t-217.5 -76q-290 0 -290 288v434h136v-426q0 -91 38.5 -133.5t115.5 -42.5q158 0 158 173v429z" />
    <glyph glyph-name="Udieresis" unicode="&#xdc;" horiz-adv-x="736" 
d="M256 736q-29 0 -48 19t-19 48t19 47.5t48 18.5t47.5 -18.5t18.5 -47.5t-18.5 -48t-47.5 -19zM461 736q-29 0 -47.5 19t-18.5 48t18.5 47.5t47.5 18.5t48 -18.5t19 -47.5t-19 -48t-48 -19zM366 -12q-290 0 -290 288v434h136v-426q0 -91 38.5 -133.5t115.5 -42.5
q158 0 158 173v429h136v-434q0 -136 -76.5 -212t-217.5 -76z" />
    <glyph glyph-name="Yacute" unicode="&#xdd;" horiz-adv-x="624" 
d="M462 844l-95 -109l-121 7l66 122zM492 710h148l-260 -437v-273h-135v273l-260 437h152l177 -312z" />
    <glyph glyph-name="Thorn" unicode="&#xde;" horiz-adv-x="635" 
d="M302 605q130 0 202.5 -63t72.5 -176q0 -114 -72.5 -176.5t-202.5 -62.5h-77v-127h-137v710h137v-105h77zM298 246q142 0 142 120q0 59 -36.5 89.5t-105.5 30.5h-73v-240h73z" />
    <glyph glyph-name="germandbls" unicode="&#xdf;" horiz-adv-x="643" 
d="M426 -12q-58 0 -96.5 10.5t-57.5 23.5l5 114q63 -42 129 -42q71 0 71 53q0 2 -1 8.5t-10.5 21t-53 38.5t-58 33t-24.5 18t-19 21.5t-9 31.5q0 12 5 31t30 64.5t32 70.5t7 46q0 37 -20 57t-58 20q-87 0 -87 -108v-500h-133v495q0 116 56.5 170.5t159.5 54.5q104 0 159 -43
t55 -116q0 -20 -4.5 -43.5t-16 -47.5t-35.5 -58.5t-28.5 -46.5t-4.5 -21q0 -8 8.5 -16.5t37.5 -21.5t46.5 -21.5t34 -21t29.5 -27t23.5 -39t10.5 -59.5q0 -72 -49 -111t-134 -39z" />
    <glyph glyph-name="agrave" unicode="&#xe0;" horiz-adv-x="548" 
d="M329 550h-117l-106 154l133 11zM268 490q220 0 220 -189v-301h-104l-14 68q-27 -37 -69.5 -58.5t-97.5 -21.5q-75 0 -119.5 39.5t-44.5 106.5q0 72 55 112.5t162 40.5q53 0 103 -9v24q0 43 -23.5 65t-68.5 22q-79 0 -90 -61l-121 21q17 77 69 109t143 32zM239 83
q22 0 49.5 9t48 32.5t22.5 51.5v25q-43 8 -88 8q-105 0 -105 -67q0 -59 73 -59z" />
    <glyph glyph-name="aacute" unicode="&#xe1;" horiz-adv-x="548" 
d="M423 704l-106 -154h-117l90 165zM268 490q220 0 220 -189v-301h-104l-14 68q-27 -37 -69.5 -58.5t-97.5 -21.5q-75 0 -119.5 39.5t-44.5 106.5q0 72 55 112.5t162 40.5q53 0 103 -9v24q0 43 -23.5 65t-68.5 22q-79 0 -90 -61l-121 21q17 77 69 109t143 32zM239 83
q22 0 49.5 9t48 32.5t22.5 51.5v25q-43 8 -88 8q-105 0 -105 -67q0 -59 73 -59z" />
    <glyph glyph-name="acircumflex" unicode="&#xe2;" horiz-adv-x="548" 
d="M269 644l-64 -82l-107 2l121 158h99l121 -158l-106 -2zM268 490q220 0 220 -189v-301h-104l-14 68q-27 -37 -69.5 -58.5t-97.5 -21.5q-75 0 -119.5 39.5t-44.5 106.5q0 72 55 112.5t162 40.5q53 0 103 -9v24q0 43 -23.5 65t-68.5 22q-79 0 -90 -61l-121 21q17 77 69 109
t143 32zM239 83q22 0 49.5 9t48 32.5t22.5 51.5v25q-43 8 -88 8q-105 0 -105 -67q0 -59 73 -59z" />
    <glyph glyph-name="atilde" unicode="&#xe3;" horiz-adv-x="548" 
d="M202 617q-32 0 -38 -51l-79 10q4 60 32 96.5t75 36.5q36 0 81 -18.5t62 -18.5q34 0 40 50l78 -9q-2 -58 -30 -95.5t-76 -37.5q-21 0 -40.5 5t-53 18.5t-51.5 13.5zM268 490q220 0 220 -189v-301h-104l-14 68q-27 -37 -69.5 -58.5t-97.5 -21.5q-75 0 -119.5 39.5
t-44.5 106.5q0 72 55 112.5t162 40.5q53 0 103 -9v24q0 43 -23.5 65t-68.5 22q-79 0 -90 -61l-121 21q17 77 69 109t143 32zM239 83q22 0 49.5 9t48 32.5t22.5 51.5v25q-43 8 -88 8q-105 0 -105 -67q0 -59 73 -59z" />
    <glyph glyph-name="adieresis" unicode="&#xe4;" horiz-adv-x="548" 
d="M164 552q-33 0 -55 22t-22 56t22 56t55 22q34 0 56 -22t22 -56t-22 -56t-56 -22zM374 552q-34 0 -55.5 22t-21.5 56t21.5 56t55.5 22q33 0 55 -22t22 -56t-22 -56t-55 -22zM268 490q220 0 220 -189v-301h-104l-14 68q-27 -37 -69.5 -58.5t-97.5 -21.5q-75 0 -119.5 39.5
t-44.5 106.5q0 72 55 112.5t162 40.5q53 0 103 -9v24q0 43 -23.5 65t-68.5 22q-79 0 -90 -61l-121 21q17 77 69 109t143 32zM239 83q22 0 49.5 9t48 32.5t22.5 51.5v25q-43 8 -88 8q-105 0 -105 -67q0 -59 73 -59z" />
    <glyph glyph-name="aring" unicode="&#xe5;" horiz-adv-x="548" 
d="M269 533q-34 0 -61 16t-37.5 40.5t-10.5 46.5t10.5 46.5t37.5 40.5t61 16q47 0 77.5 -28.5t30.5 -74.5q0 -34 -17.5 -59t-43 -34.5t-47.5 -9.5zM269 680q-20 0 -32.5 -12t-12.5 -32t12.5 -32t32.5 -12t32.5 12t12.5 32t-12.5 32t-32.5 12zM268 490q220 0 220 -189v-301
h-104l-14 68q-27 -37 -69.5 -58.5t-97.5 -21.5q-75 0 -119.5 39.5t-44.5 106.5q0 72 55 112.5t162 40.5q53 0 103 -9v24q0 43 -23.5 65t-68.5 22q-79 0 -90 -61l-121 21q17 77 69 109t143 32zM239 83q22 0 49.5 9t48 32.5t22.5 51.5v25q-43 8 -88 8q-105 0 -105 -67
q0 -59 73 -59z" />
    <glyph glyph-name="ae" unicode="&#xe6;" horiz-adv-x="864" 
d="M507 208q14 -110 129 -110q48 0 90 15.5t63 32.5l34 -102q-14 -13 -48 -27.5t-74.5 -21.5t-73.5 -7q-72 0 -126 24.5t-85 69.5q-30 -45 -80 -69.5t-113 -24.5q-80 0 -124.5 39.5t-44.5 107.5q0 70 54.5 111t160.5 41q52 0 102 -9v24q0 43 -24 65t-69 22q-79 0 -89 -61
l-121 21q16 76 68.5 108.5t142.5 32.5q117 0 172 -53q64 53 159 53q39 0 79 -12t71.5 -40.5t51.5 -75t20 -109.5v-45h-325zM609 386q-87 0 -101 -100h191q-4 51 -27.5 75.5t-62.5 24.5zM252 83q50 0 84.5 30t34.5 81v7q-45 8 -92 8q-99 0 -99 -67q0 -59 72 -59z" />
    <glyph glyph-name="ccedilla" unicode="&#xe7;" horiz-adv-x="515" 
d="M310 -37q79 0 79 -62q0 -53 -49.5 -74t-140.5 -21l11 66q79 0 79 26q0 11 -16 16.5t-55 5.5l14 73q-93 14 -142.5 76.5t-49.5 172.5q0 115 62.5 181.5t179.5 66.5q68 0 112.5 -23t68 -64t24.5 -98l-122 -15q-2 41 -23.5 65t-60.5 24q-23 0 -49 -11t-41.5 -42.5
t-15.5 -83.5q0 -142 124 -142q37 0 79.5 12.5t82.5 40.5l31 -107q-66 -53 -178 -58z" />
    <glyph glyph-name="egrave" unicode="&#xe8;" horiz-adv-x="533" 
d="M339 550h-117l-106 154l133 11zM175 208q14 -110 130 -110q48 0 90 15.5t63 32.5l34 -102q-14 -13 -48 -27.5t-74.5 -21.5t-73.5 -7q-125 0 -190.5 68.5t-65.5 189.5q0 109 65.5 176.5t173.5 67.5q39 0 79 -12t71.5 -40.5t51.5 -75t20 -109.5v-45h-326zM278 386
q-88 0 -102 -100h192q-4 51 -27.5 75.5t-62.5 24.5z" />
    <glyph glyph-name="eacute" unicode="&#xe9;" horiz-adv-x="533" 
d="M433 704l-106 -154h-117l90 165zM175 208q14 -110 130 -110q48 0 90 15.5t63 32.5l34 -102q-14 -13 -48 -27.5t-74.5 -21.5t-73.5 -7q-125 0 -190.5 68.5t-65.5 189.5q0 109 65.5 176.5t173.5 67.5q39 0 79 -12t71.5 -40.5t51.5 -75t20 -109.5v-45h-326zM278 386
q-88 0 -102 -100h192q-4 51 -27.5 75.5t-62.5 24.5z" />
    <glyph glyph-name="ecircumflex" unicode="&#xea;" horiz-adv-x="533" 
d="M279 644l-64 -82l-107 2l121 158h99l121 -158l-106 -2zM175 208q14 -110 130 -110q48 0 90 15.5t63 32.5l34 -102q-14 -13 -48 -27.5t-74.5 -21.5t-73.5 -7q-125 0 -190.5 68.5t-65.5 189.5q0 109 65.5 176.5t173.5 67.5q39 0 79 -12t71.5 -40.5t51.5 -75t20 -109.5v-45
h-326zM278 386q-88 0 -102 -100h192q-4 51 -27.5 75.5t-62.5 24.5z" />
    <glyph glyph-name="edieresis" unicode="&#xeb;" horiz-adv-x="533" 
d="M175 552q-33 0 -55 22t-22 56t22 56t55 22q34 0 56 -22t22 -56t-22 -56t-56 -22zM385 552q-34 0 -55.5 22t-21.5 56t21.5 56t55.5 22q33 0 55 -22t22 -56t-22 -56t-55 -22zM175 208q14 -110 130 -110q48 0 90 15.5t63 32.5l34 -102q-14 -13 -48 -27.5t-74.5 -21.5
t-73.5 -7q-125 0 -190.5 68.5t-65.5 189.5q0 109 65.5 176.5t173.5 67.5q39 0 79 -12t71.5 -40.5t51.5 -75t20 -109.5v-45h-326zM278 386q-88 0 -102 -100h192q-4 51 -27.5 75.5t-62.5 24.5z" />
    <glyph glyph-name="igrave" unicode="&#xec;" horiz-adv-x="289" 
d="M204 550h-117l-106 154l133 11zM78 0v480h133v-480h-133z" />
    <glyph glyph-name="iacute" unicode="&#xed;" horiz-adv-x="289" 
d="M75 550l90 165l133 -11l-106 -154h-117zM78 0v480h133v-480h-133z" />
    <glyph glyph-name="icircumflex" unicode="&#xee;" horiz-adv-x="289" 
d="M144 644l-64 -82l-107 2l121 158h99l121 -158l-106 -2zM78 0v480h133v-480h-133z" />
    <glyph glyph-name="idieresis" unicode="&#xef;" horiz-adv-x="289" 
d="M40 552q-33 0 -55 22t-22 56t22 56t55 22q34 0 56 -22t22 -56t-22 -56t-56 -22zM250 552q-34 0 -55.5 22t-21.5 56t21.5 56t55.5 22q33 0 55 -22t22 -56t-22 -56t-55 -22zM78 0v480h133v-480h-133z" />
    <glyph glyph-name="eth" unicode="&#xf0;" horiz-adv-x="609" 
d="M443 606q57 -60 85 -153t28 -209q0 -84 -29.5 -139.5t-85 -86t-137.5 -30.5q-114 0 -182 63.5t-68 176.5q0 57 18 102.5t51 76.5t78 47t97 16q53 0 105 -25q-26 71 -72 113l-161 -69l-14 79l95 41q-56 22 -131 22l15 89q146 0 239 -58l125 53l14 -79zM304 99
q58 0 87 34.5t29 94.5t-29 95.5t-87 35.5q-55 0 -85 -35t-30 -96t30 -95t85 -34z" />
    <glyph glyph-name="ntilde" unicode="&#xf1;" horiz-adv-x="597" 
d="M238 617q-32 0 -38 -51l-79 10q4 60 32 96.5t75 36.5q36 0 81 -18.5t62 -18.5q34 0 40 50l78 -9q-2 -58 -30 -95.5t-76 -37.5q-21 0 -40.5 5t-53 18.5t-51.5 13.5zM356 490q91 0 136 -49t45 -140v-301h-133v276q0 98 -94 98q-34 0 -61.5 -18.5t-38 -44t-10.5 -46.5v-265
h-133v480h103l17 -70q27 37 70 58.5t99 21.5z" />
    <glyph glyph-name="ograve" unicode="&#xf2;" horiz-adv-x="584" 
d="M352 550h-117l-106 154l133 11zM292 -12q-117 0 -184.5 65t-67.5 186q0 122 67.5 186.5t184.5 64.5t184.5 -65.5t67.5 -186.5q0 -60 -17.5 -107t-50.5 -79t-80 -48t-104 -16zM292 99q56 0 86 36t30 103t-30 104t-86 37q-57 0 -86.5 -37t-29.5 -104t29.5 -103t86.5 -36z
" />
    <glyph glyph-name="oacute" unicode="&#xf3;" horiz-adv-x="584" 
d="M223 550l90 165l133 -11l-106 -154h-117zM292 -12q-117 0 -184.5 65t-67.5 186q0 122 67.5 186.5t184.5 64.5t184.5 -65.5t67.5 -186.5q0 -60 -17.5 -107t-50.5 -79t-80 -48t-104 -16zM292 99q56 0 86 36t30 103t-30 104t-86 37q-57 0 -86.5 -37t-29.5 -104t29.5 -103
t86.5 -36z" />
    <glyph glyph-name="ocircumflex" unicode="&#xf4;" horiz-adv-x="584" 
d="M292 644l-64 -82l-107 2l121 158h99l121 -158l-106 -2zM292 490q117 0 184.5 -65.5t67.5 -186.5q0 -60 -17.5 -107t-50.5 -79t-80 -48t-104 -16q-117 0 -184.5 65t-67.5 186q0 122 67.5 186.5t184.5 64.5zM292 99q56 0 86 36t30 103t-30 104t-86 37q-57 0 -86.5 -37
t-29.5 -104t29.5 -103t86.5 -36z" />
    <glyph glyph-name="otilde" unicode="&#xf5;" horiz-adv-x="584" 
d="M187 566l-79 10q4 60 32 96.5t75 36.5q36 0 81 -18.5t62 -18.5q34 0 40 50l78 -9q-2 -58 -30 -95.5t-76 -37.5q-21 0 -40.5 5t-53 18.5t-51.5 13.5q-32 0 -38 -51zM292 -12q-117 0 -184.5 65t-67.5 186q0 122 67.5 186.5t184.5 64.5t184.5 -65.5t67.5 -186.5
q0 -60 -17.5 -107t-50.5 -79t-80 -48t-104 -16zM292 99q56 0 86 36t30 103t-30 104t-86 37q-57 0 -86.5 -37t-29.5 -104t29.5 -103t86.5 -36z" />
    <glyph glyph-name="odieresis" unicode="&#xf6;" horiz-adv-x="584" 
d="M187 552q-33 0 -55 22t-22 56t22 56t55 22q34 0 56 -22t22 -56t-22 -56t-56 -22zM397 552q-34 0 -55.5 22t-21.5 56t21.5 56t55.5 22q33 0 55 -22t22 -56t-22 -56t-55 -22zM292 -12q-117 0 -184.5 65t-67.5 186q0 122 67.5 186.5t184.5 64.5t184.5 -65.5t67.5 -186.5
q0 -60 -17.5 -107t-50.5 -79t-80 -48t-104 -16zM292 99q56 0 86 36t30 103t-30 104t-86 37q-57 0 -86.5 -37t-29.5 -104t29.5 -103t86.5 -36z" />
    <glyph glyph-name="divide" unicode="&#xf7;" horiz-adv-x="591" 
d="M296 409q-33 0 -55.5 22t-22.5 56t22.5 56.5t55.5 22.5t55.5 -22.5t22.5 -56.5t-22.5 -56t-55.5 -22zM74 267v100h444v-100h-444zM296 68q-33 0 -55.5 22.5t-22.5 56.5t22.5 56t55.5 22t55.5 -22t22.5 -56t-22.5 -56.5t-55.5 -22.5z" />
    <glyph glyph-name="oslash" unicode="&#xf8;" horiz-adv-x="585" 
d="M448 449q46 -31 71.5 -85t25.5 -126q0 -120 -67.5 -185t-184.5 -65q-39 0 -77 8l-34 -63l-118 15l53 96q-37 32 -57 81.5t-20 113.5q0 60 17.5 108t51 79.5t80.5 47.5t104 16q30 0 51 -4l30 57l119 -14zM293 99q56 0 85.5 36t29.5 103t-29.5 104t-85.5 37
q-57 0 -86.5 -37t-29.5 -104t29.5 -103t86.5 -36z" />
    <glyph glyph-name="ugrave" unicode="&#xf9;" horiz-adv-x="588" 
d="M357 550h-117l-106 154l133 11zM391 480h132v-480h-107l-14 68q-53 -80 -165 -80q-65 0 -101 21.5t-53.5 64.5t-17.5 114v292h133v-275q0 -55 20 -78t65 -23q51 0 79.5 35t28.5 96v245z" />
    <glyph glyph-name="uacute" unicode="&#xfa;" horiz-adv-x="588" 
d="M451 704l-106 -154h-117l90 165zM391 480h132v-480h-107l-14 68q-53 -80 -165 -80q-65 0 -101 21.5t-53.5 64.5t-17.5 114v292h133v-275q0 -55 20 -78t65 -23q51 0 79.5 35t28.5 96v245z" />
    <glyph glyph-name="ucircumflex" unicode="&#xfb;" horiz-adv-x="588" 
d="M297 644l-64 -82l-107 2l121 158h99l121 -158l-106 -2zM391 480h132v-480h-107l-14 68q-53 -80 -165 -80q-65 0 -101 21.5t-53.5 64.5t-17.5 114v292h133v-275q0 -55 20 -78t65 -23q51 0 79.5 35t28.5 96v245z" />
    <glyph glyph-name="udieresis" unicode="&#xfc;" horiz-adv-x="588" 
d="M193 552q-33 0 -55 22t-22 56t22 56t55 22q34 0 56 -22t22 -56t-22 -56t-56 -22zM403 552q-34 0 -55.5 22t-21.5 56t21.5 56t55.5 22q33 0 55 -22t22 -56t-22 -56t-55 -22zM391 480h132v-480h-107l-14 68q-53 -80 -165 -80q-65 0 -101 21.5t-53.5 64.5t-17.5 114v292h133
v-275q0 -55 20 -78t65 -23q51 0 79.5 35t28.5 96v245z" />
    <glyph glyph-name="yacute" unicode="&#xfd;" horiz-adv-x="509" 
d="M410 704l-106 -154h-117l90 165zM382 480h138l-234 -546q-30 -70 -77 -97t-113 -27q-47 0 -72 9l-11 113q48 -11 73 -11q75 0 99 59l11 27l-206 473h138l129 -317z" />
    <glyph glyph-name="thorn" unicode="&#xfe;" horiz-adv-x="617" 
d="M351 490q97 0 153.5 -64t56.5 -178q0 -126 -69.5 -193t-192.5 -67q-49 0 -88 11v-179h-133v890h133v-273q51 53 140 53zM291 99q65 0 100 34t35 112q0 64 -29.5 99t-79.5 35q-21 0 -46 -9t-42.5 -33.5t-17.5 -58.5v-165q40 -14 80 -14z" />
    <glyph glyph-name="ydieresis" unicode="&#xff;" horiz-adv-x="509" 
d="M151 552q-33 0 -55 22t-22 56t22 56t55 22q34 0 56 -22t22 -56t-22 -56t-56 -22zM361 552q-34 0 -55.5 22t-21.5 56t21.5 56t55.5 22q33 0 55 -22t22 -56t-22 -56t-55 -22zM382 480h138l-234 -546q-30 -70 -77 -97t-113 -27q-47 0 -72 9l-11 113q48 -11 73 -11
q75 0 99 59l11 27l-206 473h138l129 -317z" />
    <glyph glyph-name="Amacron" unicode="&#x100;" horiz-adv-x="688" 
d="M489 842v-93h-291v93h291zM545 0l-59 165h-284l-59 -165h-143l269 710h149l270 -710h-143zM242 277h204l-102 285z" />
    <glyph glyph-name="amacron" unicode="&#x101;" horiz-adv-x="548" 
d="M423 680v-104h-309v104h309zM268 490q220 0 220 -189v-301h-104l-14 68q-27 -37 -69.5 -58.5t-97.5 -21.5q-75 0 -119.5 39.5t-44.5 106.5q0 72 55 112.5t162 40.5q53 0 103 -9v24q0 43 -23.5 65t-68.5 22q-79 0 -90 -61l-121 21q17 77 69 109t143 32zM239 83
q22 0 49.5 9t48 32.5t22.5 51.5v25q-43 8 -88 8q-105 0 -105 -67q0 -59 73 -59z" />
    <glyph glyph-name="Abreve" unicode="&#x102;" horiz-adv-x="688" 
d="M344 733q-59 0 -96.5 29t-41.5 91l81 7q4 -30 17.5 -43t39.5 -13q20 0 36.5 9.5t21.5 46.5l80 -7q-4 -62 -41.5 -91t-96.5 -29zM545 0l-59 165h-284l-59 -165h-143l269 710h149l270 -710h-143zM242 277h204l-102 285z" />
    <glyph glyph-name="abreve" unicode="&#x103;" horiz-adv-x="548" 
d="M268 549q-143 0 -150 153l85 6q5 -73 65 -73q61 0 66 73l84 -6q-4 -153 -150 -153zM268 490q220 0 220 -189v-301h-104l-14 68q-27 -37 -69.5 -58.5t-97.5 -21.5q-75 0 -119.5 39.5t-44.5 106.5q0 72 55 112.5t162 40.5q53 0 103 -9v24q0 43 -23.5 65t-68.5 22
q-79 0 -90 -61l-121 21q17 77 69 109t143 32zM239 83q22 0 49.5 9t48 32.5t22.5 51.5v25q-43 8 -88 8q-105 0 -105 -67q0 -59 73 -59z" />
    <glyph glyph-name="Aogonek" unicode="&#x104;" horiz-adv-x="688" 
d="M628 -118q18 0 48 10l6 -77q-39 -13 -91 -13q-97 0 -97 75q0 30 20.5 63.5t69.5 59.5h-39l-59 165h-284l-59 -165h-143l269 710h149l270 -710q-90 -54 -90 -94q0 -24 30 -24zM242 277h204l-102 285z" />
    <glyph glyph-name="aogonek" unicode="&#x105;" horiz-adv-x="548" 
d="M428 -118q18 0 48 10l6 -77q-39 -13 -91 -13q-97 0 -97 75q0 30 20.5 63.5t69.5 59.5l-14 68q-27 -37 -69.5 -58.5t-97.5 -21.5q-75 0 -119.5 39.5t-44.5 106.5q0 72 55 112.5t162 40.5q53 0 103 -9v24q0 43 -23.5 65t-68.5 22q-79 0 -90 -61l-121 21q17 77 69 109
t143 32q220 0 220 -189v-301q-90 -54 -90 -94q0 -24 30 -24zM239 83q22 0 49.5 9t48 32.5t22.5 51.5v25q-43 8 -88 8q-105 0 -105 -67q0 -59 73 -59z" />
    <glyph glyph-name="Cacute" unicode="&#x106;" horiz-adv-x="660" 
d="M296 742l66 122l150 -20l-95 -109zM395 -12q-83 0 -150 24.5t-112.5 71t-69.5 115t-24 153.5q0 88 23.5 157.5t66.5 116.5t105 70.5t136 23.5q135 0 208.5 -63.5t73.5 -171.5l-139 -19q-7 131 -148 131q-84 0 -133.5 -59.5t-49.5 -177.5q0 -121 59.5 -183.5t167.5 -62.5
q109 0 204 56l30 -120q-40 -27 -103.5 -44.5t-144.5 -17.5z" />
    <glyph glyph-name="cacute" unicode="&#x107;" horiz-adv-x="515" 
d="M212 550l90 165l133 -11l-106 -154h-117zM294 -12q-123 0 -188.5 63.5t-65.5 190.5q0 115 62.5 181.5t179.5 66.5q68 0 112.5 -23t68 -64t24.5 -98l-122 -15q-2 41 -23.5 65t-60.5 24q-23 0 -49 -11t-41.5 -42.5t-15.5 -83.5q0 -142 124 -142q37 0 79.5 12.5t82.5 40.5
l31 -107q-73 -58 -198 -58z" />
    <glyph glyph-name="Cdotaccent" unicode="&#x10a;" horiz-adv-x="671" 
d="M363 747q-34 0 -54.5 19.5t-20.5 50.5q0 32 20.5 51t54.5 19t54.5 -19t20.5 -51q0 -31 -20.5 -50.5t-54.5 -19.5zM395 -12q-83 0 -150 24.5t-112.5 71t-69.5 115t-24 153.5q0 88 23.5 157.5t66.5 116.5t105 70.5t136 23.5q135 0 208.5 -63.5t73.5 -171.5l-139 -19
q-7 131 -148 131q-84 0 -133.5 -59.5t-49.5 -177.5q0 -121 59.5 -183.5t167.5 -62.5q109 0 204 56l30 -120q-40 -27 -103.5 -44.5t-144.5 -17.5z" />
    <glyph glyph-name="cdotaccent" unicode="&#x10b;" horiz-adv-x="515" 
d="M282 550q-36 0 -60 23.5t-24 59.5t24 59t60 23q37 0 60.5 -23t23.5 -59q0 -37 -23.5 -60t-60.5 -23zM294 -12q-123 0 -188.5 63.5t-65.5 190.5q0 115 62.5 181.5t179.5 66.5q68 0 112.5 -23t68 -64t24.5 -98l-122 -15q-2 41 -23.5 65t-60.5 24q-23 0 -49 -11t-41.5 -42.5
t-15.5 -83.5q0 -142 124 -142q37 0 79.5 12.5t82.5 40.5l31 -107q-73 -58 -198 -58z" />
    <glyph glyph-name="Ccaron" unicode="&#x10c;" horiz-adv-x="671" 
d="M425 739h-123l-90 104l101 14l50 -61l50 61l101 -14zM409 114q109 0 204 56l30 -120q-40 -27 -103.5 -44.5t-144.5 -17.5q-83 0 -150 24.5t-112.5 71t-69.5 115t-24 153.5q0 88 23.5 157.5t66.5 116.5t105 70.5t136 23.5q135 0 208.5 -63.5t73.5 -171.5l-139 -19
q-7 131 -148 131q-84 0 -133.5 -59.5t-49.5 -177.5q0 -121 59.5 -183.5t167.5 -62.5z" />
    <glyph glyph-name="ccaron" unicode="&#x10d;" horiz-adv-x="515" 
d="M331 552h-99l-121 158l107 2l64 -82l64 82l106 -2zM461 153l31 -107q-73 -58 -198 -58q-123 0 -188.5 63.5t-65.5 190.5q0 115 62.5 181.5t179.5 66.5q68 0 112.5 -23t68 -64t24.5 -98l-122 -15q-2 41 -23.5 65t-60.5 24q-23 0 -49 -11t-41.5 -42.5t-15.5 -83.5
q0 -142 124 -142q37 0 79.5 12.5t82.5 40.5z" />
    <glyph glyph-name="Dcaron" unicode="&#x10e;" horiz-adv-x="731" 
d="M405 739h-123l-90 104l101 14l50 -61l50 61l101 -14zM306 710q91 0 163.5 -23.5t122 -68.5t75 -111t25.5 -148q0 -84 -26.5 -151.5t-76.5 -113.5t-122 -70t-159 -24h-221v710h219zM309 123q119 0 181.5 60.5t62.5 174.5q0 108 -63 168.5t-181 60.5h-85v-464h85z" />
    <glyph glyph-name="dcaron" unicode="&#x10f;" horiz-adv-x="658" 
d="M596 718l109 -8l-36 -196l-101 8zM391 469v241h133v-710h-107l-14 63q-26 -34 -66.5 -54.5t-93.5 -20.5q-21 0 -47 5t-52 19t-50 41t-39 73t-15 105q0 121 63.5 190t174.5 69q62 0 113 -21zM274 99q22 0 49.5 11t47.5 41t20 69v129q-43 30 -100 30q-33 0 -61.5 -15.5
t-42.5 -50t-14 -79.5q0 -71 28.5 -103t72.5 -32z" />
    <glyph glyph-name="Dcroat" unicode="&#x110;" horiz-adv-x="751" 
d="M306 710q91 0 163.5 -23.5t122 -68.5t75 -111t25.5 -148q0 -84 -26.5 -151.5t-76.5 -113.5t-122 -70t-159 -24h-221v296h-77v108h77v306h219zM309 123q119 0 181.5 60.5t62.5 174.5q0 108 -63 168.5t-181 60.5h-85v-183h113v-108h-113v-173h85z" />
    <glyph glyph-name="dcroat" unicode="&#x111;" horiz-adv-x="605" 
d="M594 631v-92h-75v-539h-107l-14 63q-26 -34 -66.5 -54.5t-93.5 -20.5q-21 0 -47 5t-52 19t-50 41t-39 73t-15 105q0 121 63.5 190t174.5 69q62 0 113 -21v70h-122v92h122v79h133v-79h75zM269 99q22 0 49.5 11t47.5 41t20 69v129q-16 12 -42 21t-58 9q-33 0 -58.5 -14
t-42.5 -45.5t-17 -85.5q0 -35 9.5 -66.5t34 -50t57.5 -18.5z" />
    <glyph glyph-name="Emacron" unicode="&#x112;" horiz-adv-x="601" 
d="M466 842v-93h-291v93h291zM556 588h-332v-174h296v-114h-296v-178h332v-122h-469v710h469v-122z" />
    <glyph glyph-name="emacron" unicode="&#x113;" horiz-adv-x="533" 
d="M434 680v-104h-309v104h309zM175 208q14 -110 130 -110q48 0 90 15.5t63 32.5l34 -102q-14 -13 -48 -27.5t-74.5 -21.5t-73.5 -7q-125 0 -190.5 68.5t-65.5 189.5q0 109 65.5 176.5t173.5 67.5q39 0 79 -12t71.5 -40.5t51.5 -75t20 -109.5v-45h-326zM278 386
q-88 0 -102 -100h192q-4 51 -27.5 75.5t-62.5 24.5z" />
    <glyph glyph-name="Edotaccent" unicode="&#x116;" horiz-adv-x="601" 
d="M321 747q-34 0 -54.5 19.5t-20.5 50.5q0 32 20.5 51t54.5 19t54.5 -19t20.5 -51q0 -31 -20.5 -50.5t-54.5 -19.5zM556 588h-332v-174h296v-114h-296v-178h332v-122h-469v710h469v-122z" />
    <glyph glyph-name="edotaccent" unicode="&#x117;" horiz-adv-x="533" 
d="M280 550q-36 0 -60 23.5t-24 59.5t24 59t60 23q37 0 60.5 -23t23.5 -59q0 -37 -23.5 -60t-60.5 -23zM175 208q14 -110 130 -110q48 0 90 15.5t63 32.5l34 -102q-14 -13 -48 -27.5t-74.5 -21.5t-73.5 -7q-125 0 -190.5 68.5t-65.5 189.5q0 109 65.5 176.5t173.5 67.5
q39 0 79 -12t71.5 -40.5t51.5 -75t20 -109.5v-45h-326zM278 386q-88 0 -102 -100h192q-4 51 -27.5 75.5t-62.5 24.5z" />
    <glyph glyph-name="Eogonek" unicode="&#x118;" horiz-adv-x="601" 
d="M496 -118q18 0 48 10l6 -77q-39 -13 -91 -13q-97 0 -97 75q0 30 20.5 63.5t69.5 59.5h-365v710h469v-122h-332v-174h296v-114h-296v-178h332v-122q-90 -54 -90 -94q0 -24 30 -24z" />
    <glyph glyph-name="eogonek" unicode="&#x119;" horiz-adv-x="533" 
d="M175 208q14 -110 130 -110q48 0 90 15.5t63 32.5l34 -102q-19 -17 -49 -28q-84 -52 -84 -91q0 -24 30 -24q18 0 48 10l6 -77q-39 -13 -91 -13q-97 0 -97 75q0 52 45 92h-4q-125 0 -190.5 68.5t-65.5 189.5q0 109 65.5 176.5t173.5 67.5q39 0 79 -12t71.5 -40.5t51.5 -75
t20 -109.5v-45h-326zM278 386q-88 0 -102 -100h192q-4 51 -27.5 75.5t-62.5 24.5z" />
    <glyph glyph-name="Ecaron" unicode="&#x11a;" horiz-adv-x="601" 
d="M383 739h-123l-90 104l101 14l50 -61l50 61l101 -14zM556 588h-332v-174h296v-114h-296v-178h332v-122h-469v710h469v-122z" />
    <glyph glyph-name="ecaron" unicode="&#x11b;" horiz-adv-x="533" 
d="M329 552h-99l-121 158l107 2l64 -82l64 82l106 -2zM175 208q14 -110 130 -110q48 0 90 15.5t63 32.5l34 -102q-14 -13 -48 -27.5t-74.5 -21.5t-73.5 -7q-125 0 -190.5 68.5t-65.5 189.5q0 109 65.5 176.5t173.5 67.5q39 0 79 -12t71.5 -40.5t51.5 -75t20 -109.5v-45h-326
zM278 386q-88 0 -102 -100h192q-4 51 -27.5 75.5t-62.5 24.5z" />
    <glyph glyph-name="Gbreve" unicode="&#x11e;" horiz-adv-x="756" 
d="M375 733q-59 0 -96.5 29t-41.5 91l81 7q4 -30 17.5 -43t39.5 -13q20 0 36.5 9.5t21.5 46.5l80 -7q-4 -62 -41.5 -91t-96.5 -29zM394 387h310v-387h-105l-6 77q-39 -41 -95.5 -65t-123.5 -24q-75 0 -137.5 25t-106.5 72.5t-67.5 116t-23.5 152.5q0 88 24.5 157.5t70 115.5
t111 69.5t145.5 23.5q130 0 204.5 -54.5t91.5 -150.5l-142 -28q-8 40 -32 66.5t-57.5 36t-64.5 9.5q-99 0 -153 -62.5t-54 -182.5q0 -116 55 -180t154 -64q62 0 104 21t63 55t21 81v19h-186v101z" />
    <glyph glyph-name="gbreve" unicode="&#x11f;" horiz-adv-x="534" 
d="M263 549q-143 0 -150 153l85 6q5 -73 65 -73q61 0 66 73l84 -6q-4 -153 -150 -153zM372 116q76 0 114 -36.5t38 -99.5q0 -54 -32.5 -92t-88.5 -58t-136 -20q-240 0 -240 130q0 63 54 103q-15 13 -23.5 32.5t-8.5 41.5t12 48.5t53 57.5q-25 18 -38.5 46.5t-13.5 63.5
q0 70 54 113t150 43q47 0 78 -8q33 99 153 102l14 -108q-63 -3 -87 -33q46 -41 46 -106q0 -72 -53.5 -112.5t-150.5 -40.5q-43 0 -81 8q-23 -16 -23 -38q0 -37 48 -37h162zM266 405q-36 0 -56.5 -19.5t-20.5 -54.5t20 -53t57 -18q76 0 76 71q0 35 -20 54.5t-56 19.5z
M270 -95q62 0 95 16.5t33 45.5q0 48 -62 48h-164h-5q-22 -19 -22 -48q0 -62 125 -62z" />
    <glyph glyph-name="Gdotaccent" unicode="&#x120;" horiz-adv-x="756" 
d="M375 747q-34 0 -54.5 19.5t-20.5 50.5q0 32 20.5 51t54.5 19t54.5 -19t20.5 -51q0 -31 -20.5 -50.5t-54.5 -19.5zM394 387h310v-387h-105l-6 77q-39 -41 -95.5 -65t-123.5 -24q-75 0 -137.5 25t-106.5 72.5t-67.5 116t-23.5 152.5q0 88 24.5 157.5t70 115.5t111 69.5
t145.5 23.5q130 0 204.5 -54.5t91.5 -150.5l-142 -28q-8 40 -32 66.5t-57.5 36t-64.5 9.5q-99 0 -153 -62.5t-54 -182.5q0 -116 55 -180t154 -64q62 0 104 21t63 55t21 81v19h-186v101z" />
    <glyph glyph-name="gdotaccent" unicode="&#x121;" horiz-adv-x="534" 
d="M264 550q-36 0 -60 23.5t-24 59.5t24 59t60 23q37 0 60.5 -23t23.5 -59q0 -37 -23.5 -60t-60.5 -23zM372 116q76 0 114 -36.5t38 -99.5q0 -54 -32.5 -92t-88.5 -58t-136 -20q-240 0 -240 130q0 63 54 103q-15 13 -23.5 32.5t-8.5 41.5t12 48.5t53 57.5q-25 18 -38.5 46.5
t-13.5 63.5q0 70 54 113t150 43q47 0 78 -8q33 99 153 102l14 -108q-63 -3 -87 -33q46 -41 46 -106q0 -72 -53.5 -112.5t-150.5 -40.5q-43 0 -81 8q-23 -16 -23 -38q0 -37 48 -37h162zM266 405q-36 0 -56.5 -19.5t-20.5 -54.5t20 -53t57 -18q76 0 76 71q0 35 -20 54.5
t-56 19.5zM270 -95q62 0 95 16.5t33 45.5q0 48 -62 48h-164h-5q-22 -19 -22 -48q0 -62 125 -62z" />
    <glyph glyph-name="Gcommaaccent" unicode="&#x122;" horiz-adv-x="756" 
d="M394 387h310v-387h-105l-6 77q-39 -41 -95.5 -65t-123.5 -24q-75 0 -137.5 25t-106.5 72.5t-67.5 116t-23.5 152.5q0 88 24.5 157.5t70 115.5t111 69.5t145.5 23.5q130 0 204.5 -54.5t91.5 -150.5l-142 -28q-8 40 -32 66.5t-57.5 36t-64.5 9.5q-99 0 -153 -62.5
t-54 -182.5q0 -116 55 -180t154 -64q62 0 104 21t63 55t21 81v19h-186v101zM379 -26q38 0 57.5 -21.5t19.5 -57.5q0 -52 -34 -81t-84 -34l-12 52q30 6 42.5 17.5t12.5 28.5q-67 0 -67 47q0 23 18 36t47 13z" />
    <glyph glyph-name="gcommaaccent" unicode="&#x123;" horiz-adv-x="567" 
d="M273 568q-38 0 -57.5 21.5t-19.5 57.5q0 52 34 81t84 34l12 -52q-30 -6 -42.5 -17.5t-12.5 -28.5q67 0 67 -47q0 -23 -18 -36t-47 -13zM372 116q76 0 114 -36.5t38 -99.5q0 -54 -32.5 -92t-88.5 -58t-136 -20q-240 0 -240 130q0 63 54 103q-15 13 -23.5 32.5t-8.5 41.5
t12 48.5t53 57.5q-25 18 -38.5 46.5t-13.5 63.5q0 70 54 113t150 43q47 0 78 -8q33 99 153 102l14 -108q-63 -3 -87 -33q46 -41 46 -106q0 -72 -53.5 -112.5t-150.5 -40.5q-43 0 -81 8q-23 -16 -23 -38q0 -37 48 -37h162zM266 405q-36 0 -56.5 -19.5t-20.5 -54.5t20 -53
t57 -18q76 0 76 71q0 35 -20 54.5t-56 19.5zM270 -95q62 0 95 16.5t33 45.5q0 48 -62 48h-164h-5q-22 -19 -22 -48q0 -62 125 -62z" />
    <glyph glyph-name="Hbar" unicode="&#x126;" horiz-adv-x="792" 
d="M773 631v-92h-81v-539h-137v282h-331v-282h-137v539h-78v92h78v79h137v-79h331v79h137v-79h81zM555 407v132h-331v-132h331z" />
    <glyph glyph-name="hbar" unicode="&#x127;" horiz-adv-x="621" 
d="M358 490q90 0 134.5 -49.5t44.5 -142.5v-298h-133v274q0 52 -23 76t-68 24q-24 0 -51 -10.5t-44.5 -37.5t-17.5 -61v-265h-133v539h-54v92h54v79h133v-79h144v-92h-144v-113q27 30 67 47t91 17z" />
    <glyph glyph-name="Itilde" unicode="&#x128;" horiz-adv-x="311" 
d="M77 731l-73 8q4 57 26.5 85t61.5 28q26 0 62 -13.5t49 -13.5q28 0 31 39l72 -9q-7 -113 -87 -113q-26 0 -62.5 14t-49.5 14q-27 0 -30 -39zM87 0v710h137v-710h-137z" />
    <glyph glyph-name="itilde" unicode="&#x129;" horiz-adv-x="289" 
d="M39 566l-79 10q4 60 32 96.5t75 36.5q36 0 81 -18.5t62 -18.5q34 0 40 50l78 -9q-2 -58 -30 -95.5t-76 -37.5q-21 0 -40.5 5t-53 18.5t-51.5 13.5q-32 0 -38 -51zM78 0v480h133v-480h-133z" />
    <glyph glyph-name="Imacron" unicode="&#x12a;" horiz-adv-x="311" 
d="M10 749v93h291v-93h-291zM87 0v710h137v-710h-137z" />
    <glyph glyph-name="imacron" unicode="&#x12b;" horiz-adv-x="289" 
d="M13 576v104h263v-104h-263zM78 0v480h133v-480h-133z" />
    <glyph glyph-name="Iogonek" unicode="&#x12e;" horiz-adv-x="311" 
d="M87 710h137v-710h-1q-90 -54 -90 -94q0 -24 30 -24q18 0 48 10l6 -77q-39 -13 -91 -13q-97 0 -97 75q0 30 20.5 63.5t69.5 59.5h-32v710z" />
    <glyph glyph-name="iogonek" unicode="&#x12f;" horiz-adv-x="289" 
d="M145 550q-36 0 -60 23.5t-24 59.5t24 59t60 23q37 0 60.5 -23t23.5 -59q0 -37 -23.5 -60t-60.5 -23zM78 0v480h133v-480q-90 -54 -90 -94q0 -24 30 -24q18 0 48 10l6 -77q-39 -13 -91 -13q-97 0 -97 75q0 30 20.5 63.5t69.5 59.5h-29z" />
    <glyph glyph-name="Idotaccent" unicode="&#x130;" horiz-adv-x="311" 
d="M156 747q-34 0 -54.5 19.5t-20.5 50.5q0 32 20.5 51t54.5 19t54.5 -19t20.5 -51q0 -31 -20.5 -50.5t-54.5 -19.5zM87 0v710h137v-710h-137z" />
    <glyph glyph-name="dotlessi" unicode="&#x131;" horiz-adv-x="289" 
d="M78 0v480h133v-480h-133z" />
    <glyph glyph-name="IJ" unicode="&#x132;" horiz-adv-x="683" 
d="M87 0v710h137v-710h-137zM443 -12q-53 0 -93.5 8.5t-62.5 19.5l12 120q23 -10 59 -19t73 -9q64 0 89 24t25 87v491h138v-486q0 -115 -56.5 -175.5t-183.5 -60.5z" />
    <glyph glyph-name="ij" unicode="&#x133;" horiz-adv-x="537" 
d="M145 550q-36 0 -60 23.5t-24 59.5t24 59t60 23q37 0 60.5 -23t23.5 -59q0 -37 -23.5 -60t-60.5 -23zM409 550q-36 0 -60 23.5t-24 59.5t24 59t60 23q37 0 60.5 -23t23.5 -59q0 -37 -23.5 -60t-60.5 -23zM78 0v480h133v-480h-133zM318 -190q-52 0 -81 13l3 115
q26 -12 51 -12t38 12.5t13 42.5v499h133v-508q0 -78 -35.5 -120t-121.5 -42z" />
    <glyph glyph-name="Kcommaaccent" unicode="&#x136;" horiz-adv-x="666" 
d="M414 354l268 -354h-163l-208 284h-87v-284h-137v710h137v-294h87l197 294h163zM350 -26q38 0 57.5 -21.5t19.5 -57.5q0 -52 -34 -81t-84 -34l-12 52q30 6 42.5 17.5t12.5 28.5q-67 0 -67 47q0 23 18 36t47 13z" />
    <glyph glyph-name="kcommaaccent" unicode="&#x137;" horiz-adv-x="528" 
d="M339 287l197 -287h-147l-137 200l-52 -51v-149h-133v710h133v-410l175 180h159zM266 -26q38 0 57.5 -21.5t19.5 -57.5q0 -52 -34 -81t-84 -34l-12 52q30 6 42.5 17.5t12.5 28.5q-67 0 -67 47q0 23 18 36t47 13z" />
    <glyph glyph-name="kgreenlandic" unicode="&#x138;" horiz-adv-x="592" 
d="M550 480l-199 -192l194 -288h-148l-134 202l-52 -50v-152h-133v480h133v-183l184 183h155z" />
    <glyph glyph-name="Lacute" unicode="&#x139;" horiz-adv-x="570" 
d="M304 844l-95 -109l-121 7l66 122zM224 125h336v-125h-473v710h137v-585z" />
    <glyph glyph-name="lacute" unicode="&#x13a;" horiz-adv-x="253" 
d="M67 742l66 122l150 -20l-95 -109zM67 0v710h133v-710h-133z" />
    <glyph glyph-name="Lcommaaccent" unicode="&#x13b;" horiz-adv-x="570" 
d="M224 125h336v-125h-473v710h137v-585zM318 -26q38 0 57.5 -21.5t19.5 -57.5q0 -52 -34 -81t-84 -34l-12 52q30 6 42.5 17.5t12.5 28.5q-67 0 -67 47q0 23 18 36t47 13z" />
    <glyph glyph-name="lcommaaccent" unicode="&#x13c;" horiz-adv-x="253" 
d="M67 0v710h133v-710h-133zM86 -220l-12 52q30 6 42.5 17.5t12.5 28.5q-67 0 -67 47q0 23 18 36t47 13q38 0 57.5 -21.5t19.5 -57.5q0 -52 -34 -81t-84 -34z" />
    <glyph glyph-name="Lcaron" unicode="&#x13d;" horiz-adv-x="487" 
d="M493 710l-36 -196l-101 8l28 196zM224 125h336v-125h-473v710h137v-585z" />
    <glyph glyph-name="lcaron" unicode="&#x13e;" horiz-adv-x="330" 
d="M378 710l-109 8l-28 -196l101 -8zM67 0v710h133v-710h-133z" />
    <glyph glyph-name="Ldot" unicode="&#x13f;" horiz-adv-x="570" 
d="M224 125h336v-125h-473v710h137v-585zM402 273q-34 0 -57 23.5t-23 58.5t23 59t57 24t57 -24t23 -59t-23 -58.5t-57 -23.5z" />
    <glyph glyph-name="ldot" unicode="&#x140;" horiz-adv-x="374" 
d="M67 0v710h133v-710h-133zM317 215q-34 0 -57 23.5t-23 58.5t23 59t57 24t57 -24t23 -59t-23 -58.5t-57 -23.5z" />
    <glyph glyph-name="Lslash" unicode="&#x141;" horiz-adv-x="496" 
d="M209 125h280v-125h-417v279l-61 -22v102l61 22v329h137v-279l115 43v-102l-115 -42v-205z" />
    <glyph glyph-name="lslash" unicode="&#x142;" horiz-adv-x="295" 
d="M280 470v-102l-72 -30v-338h-133v281l-60 -26v102l60 26v327h133v-271z" />
    <glyph glyph-name="Nacute" unicode="&#x143;" horiz-adv-x="792" 
d="M556 844l-95 -109l-121 7l66 122zM569 710h136v-710h-131l-351 492v-492h-136v710h139l343 -482v482z" />
    <glyph glyph-name="nacute" unicode="&#x144;" horiz-adv-x="597" 
d="M459 704l-106 -154h-117l90 165zM356 490q91 0 136 -49t45 -140v-301h-133v276q0 98 -94 98q-34 0 -61.5 -18.5t-38 -44t-10.5 -46.5v-265h-133v480h103l17 -70q27 37 70 58.5t99 21.5z" />
    <glyph glyph-name="Ncommaaccent" unicode="&#x145;" horiz-adv-x="792" 
d="M569 710h136v-710h-131l-351 492v-492h-136v710h139l343 -482v482zM396 -26q38 0 57.5 -21.5t19.5 -57.5q0 -52 -34 -81t-84 -34l-12 52q30 6 42.5 17.5t12.5 28.5q-67 0 -67 47q0 23 18 36t47 13z" />
    <glyph glyph-name="ncommaaccent" unicode="&#x146;" horiz-adv-x="597" 
d="M356 490q91 0 136 -49t45 -140v-301h-133v276q0 98 -94 98q-34 0 -61.5 -18.5t-38 -44t-10.5 -46.5v-265h-133v480h103l17 -70q27 37 70 58.5t99 21.5zM309 -26q38 0 57.5 -21.5t19.5 -57.5q0 -52 -34 -81t-84 -34l-12 52q30 6 42.5 17.5t12.5 28.5q-67 0 -67 47
q0 23 18 36t47 13z" />
    <glyph glyph-name="Ncaron" unicode="&#x147;" horiz-adv-x="792" 
d="M468 739h-123l-90 104l101 14l50 -61l50 61l101 -14zM569 710h136v-710h-131l-351 492v-492h-136v710h139l343 -482v482z" />
    <glyph glyph-name="ncaron" unicode="&#x148;" horiz-adv-x="597" 
d="M354 552h-99l-121 158l107 2l64 -82l64 82l106 -2zM356 490q91 0 136 -49t45 -140v-301h-133v276q0 98 -94 98q-34 0 -61.5 -18.5t-38 -44t-10.5 -46.5v-265h-133v480h103l17 -70q27 37 70 58.5t99 21.5z" />
    <glyph glyph-name="Eng" unicode="&#x14a;" horiz-adv-x="794" 
d="M569 710h136v-738q0 -79 -34.5 -120.5t-114.5 -41.5q-54 0 -90 13l4 115q26 -12 51 -12q26 0 38.5 13.5t12.5 49.5v14l-349 489v-492h-136v710h139l343 -482v482z" />
    <glyph glyph-name="eng" unicode="&#x14b;" horiz-adv-x="626" 
d="M356 490q91 0 136 -49t45 -140v-309q0 -37 -7 -71.5t-24.5 -59t-45.5 -38t-70 -13.5q-19 0 -40.5 3.5t-35.5 9.5l3 115q22 -12 45 -12q21 0 31.5 13.5t10.5 49.5v287q0 98 -94 98q-34 0 -61.5 -18.5t-38 -44t-10.5 -46.5v-265h-133v480h103l17 -70q27 37 70 58.5t99 21.5
z" />
    <glyph glyph-name="Omacron" unicode="&#x14c;" horiz-adv-x="765" 
d="M236 749v93h291v-93h-291zM382 -12q-79 0 -143.5 25t-109 72.5t-67.5 116t-23 152.5t23 152.5t67.5 116t109 72.5t143.5 25t143.5 -25t109 -72.5t67.5 -116t23 -152.5t-23 -152.5t-67.5 -116t-109 -72.5t-143.5 -25zM382 111q99 0 151.5 64.5t52.5 178.5t-52.5 178.5
t-151.5 64.5q-97 0 -150 -65t-53 -178t52.5 -178t150.5 -65z" />
    <glyph glyph-name="omacron" unicode="&#x14d;" horiz-adv-x="584" 
d="M137 576v104h309v-104h-309zM292 -12q-117 0 -184.5 65t-67.5 186q0 122 67.5 186.5t184.5 64.5t184.5 -65.5t67.5 -186.5q0 -60 -17.5 -107t-50.5 -79t-80 -48t-104 -16zM292 99q56 0 86 36t30 103t-30 104t-86 37q-57 0 -86.5 -37t-29.5 -104t29.5 -103t86.5 -36z" />
    <glyph glyph-name="Ohungarumlaut" unicode="&#x150;" horiz-adv-x="765" 
d="M209 742l66 122l150 -20l-95 -109zM392 742l66 122l150 -20l-95 -109zM382 -12q-79 0 -143.5 25t-109 72.5t-67.5 116t-23 152.5t23 152.5t67.5 116t109 72.5t143.5 25t143.5 -25t109 -72.5t67.5 -116t23 -152.5t-23 -152.5t-67.5 -116t-109 -72.5t-143.5 -25zM382 111
q99 0 151.5 64.5t52.5 178.5t-52.5 178.5t-151.5 64.5q-97 0 -150 -65t-53 -178t52.5 -178t150.5 -65z" />
    <glyph glyph-name="ohungarumlaut" unicode="&#x151;" horiz-adv-x="584" 
d="M118 550l90 165l133 -11l-106 -154h-117zM293 550l90 165l133 -11l-106 -154h-117zM292 -12q-117 0 -184.5 65t-67.5 186q0 122 67.5 186.5t184.5 64.5t184.5 -65.5t67.5 -186.5q0 -60 -17.5 -107t-50.5 -79t-80 -48t-104 -16zM292 99q56 0 86 36t30 103t-30 104t-86 37
q-57 0 -86.5 -37t-29.5 -104t29.5 -103t86.5 -36z" />
    <glyph glyph-name="OE" unicode="&#x152;" horiz-adv-x="1104" 
d="M1059 588h-333v-174h297v-114h-297v-178h333v-122h-469v46q-84 -58 -208 -58q-79 0 -143.5 25t-109 72.5t-67.5 116t-23 152.5t23 152.5t67.5 116t109 72.5t143.5 25q124 0 208 -58v48h469v-122zM382 111q99 0 151.5 64.5t52.5 178.5t-52.5 178.5t-151.5 64.5
q-97 0 -150 -65t-53 -178t52.5 -178t150.5 -65z" />
    <glyph glyph-name="oe" unicode="&#x153;" horiz-adv-x="902" 
d="M544 208q14 -110 129 -110q48 0 90 15.5t63 32.5l34 -102q-14 -13 -48 -27.5t-74.5 -21.5t-73.5 -7q-120 0 -187 65q-67 -65 -185 -65q-117 0 -184.5 65t-67.5 186q0 122 67.5 186.5t184.5 64.5t184 -64q31 31 75 47.5t96 16.5q39 0 79 -12t71.5 -40.5t51.5 -75
t20 -109.5v-45h-325zM646 386q-87 0 -101 -100h191q-4 51 -27.5 75.5t-62.5 24.5zM292 99q56 0 86 36t30 103t-30 104t-86 37q-57 0 -86.5 -37t-29.5 -104t29.5 -103t86.5 -36z" />
    <glyph glyph-name="Racute" unicode="&#x154;" horiz-adv-x="672" 
d="M488 844l-95 -109l-121 7l66 122zM492 0l-152 253h-116v-253h-137v710h263q132 0 201 -58t69 -165q0 -80 -38.5 -137t-106.5 -81l173 -269h-156zM224 590v-218h115q71 0 107 25.5t36 80.5t-35 83.5t-112 28.5h-111z" />
    <glyph glyph-name="racute" unicode="&#x155;" horiz-adv-x="363" 
d="M341 704l-106 -154h-117l90 165zM301 490q33 0 49 -8l-8 -125q-19 7 -44 7q-40 0 -69 -36.5t-29 -100.5v-227h-133v480h107l11 -72q20 38 50 60t66 22z" />
    <glyph glyph-name="Rcommaaccent" unicode="&#x156;" horiz-adv-x="672" 
d="M475 269l173 -269h-156l-152 253h-116v-253h-137v710h263q132 0 201 -58t69 -165q0 -80 -38.5 -137t-106.5 -81zM224 590v-218h115q71 0 107 25.5t36 80.5t-35 83.5t-112 28.5h-111zM345 -26q38 0 57.5 -21.5t19.5 -57.5q0 -52 -34 -81t-84 -34l-12 52q30 6 42.5 17.5
t12.5 28.5q-67 0 -67 47q0 23 18 36t47 13z" />
    <glyph glyph-name="rcommaaccent" unicode="&#x157;" horiz-adv-x="363" 
d="M301 490q33 0 49 -8l-8 -125q-19 7 -44 7q-40 0 -69 -36.5t-29 -100.5v-227h-133v480h107l11 -72q20 38 50 60t66 22zM133 -26q38 0 57.5 -21.5t19.5 -57.5q0 -52 -34 -81t-84 -34l-12 52q30 6 42.5 17.5t12.5 28.5q-67 0 -67 47q0 23 18 36t47 13z" />
    <glyph glyph-name="Rcaron" unicode="&#x158;" horiz-adv-x="672" 
d="M401 739h-123l-90 104l101 14l50 -61l50 61l101 -14zM492 0l-152 253h-116v-253h-137v710h263q132 0 201 -58t69 -165q0 -80 -38.5 -137t-106.5 -81l173 -269h-156zM224 590v-218h115q71 0 107 25.5t36 80.5t-35 83.5t-112 28.5h-111z" />
    <glyph glyph-name="rcaron" unicode="&#x159;" horiz-adv-x="363" 
d="M236 552h-99l-121 158l107 2l64 -82l64 82l106 -2zM185 408q20 38 50 60t66 22q33 0 49 -8l-8 -125q-19 7 -44 7q-40 0 -69 -36.5t-29 -100.5v-227h-133v480h107z" />
    <glyph glyph-name="Sacute" unicode="&#x15a;" horiz-adv-x="619" 
d="M233 742l66 122l150 -20l-95 -109zM302 -12q-143 0 -246 58l17 125q113 -63 227 -63q70 0 107 22t37 62q0 22 -11 41t-39.5 34.5t-106 33t-116 31.5t-66.5 36.5t-44.5 57t-16.5 82.5q0 102 68 157t195 55q119 0 181.5 -46t69.5 -132l-135 -22q-3 23 -15 44t-38.5 32
t-65.5 11q-59 0 -91.5 -23.5t-32.5 -65.5q0 -30 16 -50t45 -32.5t100.5 -28t109.5 -29t66 -36t45 -58.5t17 -86q1 -108 -70 -159t-207 -51z" />
    <glyph glyph-name="sacute" unicode="&#x15b;" horiz-adv-x="480" 
d="M168 550l90 165l133 -11l-106 -154h-117zM237 -12q-119 0 -201 50l13 105q23 -14 55 -26.5t66.5 -18.5t62.5 -6q46 0 70.5 12t24.5 33q0 11 -8 21t-26 17t-82 21t-89.5 25.5t-43.5 26t-30 38.5t-12 57q0 67 50 107t148 40q93 0 149.5 -36t59.5 -97l-128 -19
q-5 29 -25 42.5t-58 13.5q-35 0 -53.5 -11.5t-18.5 -32.5q0 -22 20 -36t95.5 -29t109 -32.5t51.5 -45t18 -69.5q0 -70 -53.5 -110t-164.5 -40z" />
    <glyph glyph-name="Scedilla" unicode="&#x15e;" horiz-adv-x="619" 
d="M579 198q1 -195 -237 -209l-5 -26q79 0 79 -62q0 -53 -49.5 -74t-140.5 -21l11 66q79 0 79 26q0 11 -16 16.5t-55 5.5l13 69q-117 8 -202 57l17 125q113 -63 227 -63q70 0 107 22t37 62q0 22 -11 41t-39.5 34.5t-106 33t-116 31.5t-66.5 36.5t-44.5 57t-16.5 82.5
q0 102 68 157t195 55q119 0 181.5 -46t69.5 -132l-135 -22q-3 23 -15 44t-38.5 32t-65.5 11q-59 0 -91.5 -23.5t-32.5 -65.5q0 -30 16 -50t45 -32.5t100.5 -28t109.5 -29t66 -36t45 -58.5t17 -86z" />
    <glyph glyph-name="scedilla" unicode="&#x15f;" horiz-adv-x="480" 
d="M455 138q0 -65 -45.5 -104t-138.5 -45l-4 -26q79 0 79 -62q0 -53 -49.5 -74t-140.5 -21l11 66q79 0 79 26q0 11 -16 16.5t-55 5.5l13 70q-89 9 -152 48l13 105q23 -14 55 -26.5t66.5 -18.5t62.5 -6q46 0 70.5 12t24.5 33q0 11 -8 21t-26 17t-82 21t-89.5 25.5t-43.5 26
t-30 38.5t-12 57q0 67 50 107t148 40q93 0 149.5 -36t59.5 -97l-128 -19q-5 29 -25 42.5t-58 13.5q-35 0 -53.5 -11.5t-18.5 -32.5q0 -22 20 -36t95.5 -29t109 -32.5t51.5 -45t18 -69.5z" />
    <glyph glyph-name="Scaron" unicode="&#x160;" horiz-adv-x="619" 
d="M362 739h-123l-90 104l101 14l50 -61l50 61l101 -14zM579 198q1 -108 -70 -159t-207 -51q-143 0 -246 58l17 125q113 -63 227 -63q70 0 107 22t37 62q0 22 -11 41t-39.5 34.5t-106 33t-116 31.5t-66.5 36.5t-44.5 57t-16.5 82.5q0 102 68 157t195 55q119 0 181.5 -46
t69.5 -132l-135 -22q-3 23 -15 44t-38.5 32t-65.5 11q-59 0 -91.5 -23.5t-32.5 -65.5q0 -30 16 -50t45 -32.5t100.5 -28t109.5 -29t66 -36t45 -58.5t17 -86z" />
    <glyph glyph-name="scaron" unicode="&#x161;" horiz-adv-x="480" 
d="M286 552h-99l-121 158l107 2l64 -82l64 82l106 -2zM161 350q0 -22 20 -36t95.5 -29t109 -32.5t51.5 -45t18 -69.5q0 -70 -53.5 -110t-164.5 -40q-119 0 -201 50l13 105q23 -14 55 -26.5t66.5 -18.5t62.5 -6q46 0 70.5 12t24.5 33q0 11 -8 21t-26 17t-82 21t-89.5 25.5
t-43.5 26t-30 38.5t-12 57q0 67 50 107t148 40q93 0 149.5 -36t59.5 -97l-128 -19q-5 29 -25 42.5t-58 13.5q-35 0 -53.5 -11.5t-18.5 -32.5z" />
    <glyph glyph-name="Tcommaaccent" unicode="&#x162;" horiz-adv-x="542" 
d="M340 0h-29l-6 -37q79 0 79 -62q0 -53 -49.5 -74t-140.5 -21l11 66q79 0 79 26q0 11 -16 16.5t-55 5.5l15 80h-25v589h-208v121h552v-121h-207v-589z" />
    <glyph glyph-name="tcommaaccent" unicode="&#x163;" horiz-adv-x="372" 
d="M359 371h-134v-214q0 -29 11.5 -41t37.5 -12q36 0 67 12l9 -112q-39 -11 -90 -15l-4 -26q79 0 79 -62q0 -53 -49.5 -74t-140.5 -21l11 66q79 0 79 26q0 11 -16 16.5t-55 5.5l14 73q-44 10 -65 44.5t-21 102.5v231h-90v109h90v140h133v-140h134v-109z" />
    <glyph glyph-name="Tcaron" unicode="&#x164;" horiz-adv-x="542" 
d="M333 739h-123l-90 104l101 14l50 -61l50 61l101 -14zM547 710v-121h-207v-589h-137v589h-208v121h552z" />
    <glyph glyph-name="tcaron" unicode="&#x165;" horiz-adv-x="382" 
d="M317 714l109 -8l-36 -196l-101 8zM225 620v-140h134v-109h-134v-214q0 -29 11.5 -41t37.5 -12q36 0 67 12l9 -112q-53 -16 -120 -16q-46 0 -75 12t-46 43.5t-17 96.5v231h-90v109h90v140h133z" />
    <glyph glyph-name="Tbar" unicode="&#x166;" horiz-adv-x="484" 
d="M547 589h-207v-185h103v-108h-103v-296h-137v296h-101v108h101v185h-208v121h552v-121z" />
    <glyph glyph-name="tbar" unicode="&#x167;" horiz-adv-x="344" 
d="M359 371h-134v-60h91v-98h-91v-56q0 -29 11.5 -41t37.5 -12q36 0 67 12l9 -112q-53 -16 -120 -16q-46 0 -75 12t-46 43.5t-17 96.5v73h-79v98h79v60h-90v109h90v140h133v-140h134v-109z" />
    <glyph glyph-name="Utilde" unicode="&#x168;" horiz-adv-x="736" 
d="M281 731l-73 8q4 57 26.5 85t61.5 28q26 0 62 -13.5t49 -13.5q28 0 31 39l72 -9q-7 -113 -87 -113q-26 0 -62.5 14t-49.5 14q-27 0 -30 -39zM366 -12q-290 0 -290 288v434h136v-426q0 -91 38.5 -133.5t115.5 -42.5q158 0 158 173v429h136v-434q0 -136 -76.5 -212
t-217.5 -76z" />
    <glyph glyph-name="utilde" unicode="&#x169;" horiz-adv-x="588" 
d="M230 617q-32 0 -38 -51l-79 10q4 60 32 96.5t75 36.5q36 0 81 -18.5t62 -18.5q34 0 40 50l78 -9q-2 -58 -30 -95.5t-76 -37.5q-21 0 -40.5 5t-53 18.5t-51.5 13.5zM391 480h132v-480h-107l-14 68q-53 -80 -165 -80q-65 0 -101 21.5t-53.5 64.5t-17.5 114v292h133v-275
q0 -55 20 -78t65 -23q51 0 79.5 35t28.5 96v245z" />
    <glyph glyph-name="Umacron" unicode="&#x16a;" horiz-adv-x="736" 
d="M213 749v93h291v-93h-291zM366 -12q-290 0 -290 288v434h136v-426q0 -91 38.5 -133.5t115.5 -42.5q158 0 158 173v429h136v-434q0 -136 -76.5 -212t-217.5 -76z" />
    <glyph glyph-name="umacron" unicode="&#x16b;" horiz-adv-x="588" 
d="M452 680v-104h-309v104h309zM391 480h132v-480h-107l-14 68q-53 -80 -165 -80q-65 0 -101 21.5t-53.5 64.5t-17.5 114v292h133v-275q0 -55 20 -78t65 -23q51 0 79.5 35t28.5 96v245z" />
    <glyph glyph-name="Uring" unicode="&#x16e;" horiz-adv-x="736" 
d="M359 724q-45 0 -70.5 23t-25.5 62t25.5 62.5t70.5 23.5t70.5 -23t25.5 -63q0 -39 -25.5 -62t-70.5 -23zM359 779q13 0 21.5 8.5t8.5 21.5q0 14 -8.5 22.5t-21.5 8.5q-12 0 -20.5 -8.5t-8.5 -22.5q0 -13 8.5 -21.5t20.5 -8.5zM366 -12q-290 0 -290 288v434h136v-426
q0 -91 38.5 -133.5t115.5 -42.5q158 0 158 173v429h136v-434q0 -136 -76.5 -212t-217.5 -76z" />
    <glyph glyph-name="uring" unicode="&#x16f;" horiz-adv-x="588" 
d="M298 533q-34 0 -61 16t-37.5 40.5t-10.5 46.5t10.5 46.5t37.5 40.5t61 16q47 0 77.5 -28.5t30.5 -74.5q0 -34 -17.5 -59t-43 -34.5t-47.5 -9.5zM298 680q-20 0 -32.5 -12t-12.5 -32t12.5 -32t32.5 -12t32.5 12t12.5 32t-12.5 32t-32.5 12zM391 480h132v-480h-107l-14 68
q-53 -80 -165 -80q-65 0 -101 21.5t-53.5 64.5t-17.5 114v292h133v-275q0 -55 20 -78t65 -23q51 0 79.5 35t28.5 96v245z" />
    <glyph glyph-name="Uhungarumlaut" unicode="&#x170;" horiz-adv-x="736" 
d="M186 742l66 122l150 -20l-95 -109zM369 742l66 122l150 -20l-95 -109zM366 -12q-290 0 -290 288v434h136v-426q0 -91 38.5 -133.5t115.5 -42.5q158 0 158 173v429h136v-434q0 -136 -76.5 -212t-217.5 -76z" />
    <glyph glyph-name="uhungarumlaut" unicode="&#x171;" horiz-adv-x="588" 
d="M347 704l-106 -154h-117l90 165zM416 550h-117l90 165l133 -11zM391 480h132v-480h-107l-14 68q-53 -80 -165 -80q-65 0 -101 21.5t-53.5 64.5t-17.5 114v292h133v-275q0 -55 20 -78t65 -23q51 0 79.5 35t28.5 96v245z" />
    <glyph glyph-name="Uogonek" unicode="&#x172;" horiz-adv-x="736" 
d="M524 710h136v-434q0 -103 -44 -172.5t-127 -97.5q-86 -50 -86 -91q0 -24 30 -24q18 0 48 10l6 -77q-39 -13 -91 -13q-97 0 -97 75q0 58 57 102q-280 4 -280 288v434h136v-426q0 -91 38.5 -133.5t115.5 -42.5q158 0 158 173v429z" />
    <glyph glyph-name="uogonek" unicode="&#x173;" horiz-adv-x="588" 
d="M391 480h132v-480q-90 -54 -90 -94q0 -24 30 -24q18 0 48 10l6 -77q-39 -13 -91 -13q-97 0 -97 75q0 30 20.5 63.5t69.5 59.5h-3l-14 68q-53 -80 -165 -80q-65 0 -101 21.5t-53.5 64.5t-17.5 114v292h133v-275q0 -55 20 -78t65 -23q51 0 79.5 35t28.5 96v245z" />
    <glyph glyph-name="Wcircumflex" unicode="&#x174;" horiz-adv-x="972" 
d="M486 796l-50 -61l-101 14l90 104h123l89 -104l-101 -14zM816 710h154l-211 -710h-137l-136 493l-135 -493h-138l-211 710h154l129 -500l134 500h134l134 -500z" />
    <glyph glyph-name="wcircumflex" unicode="&#x175;" horiz-adv-x="734" 
d="M367 644l-64 -82l-107 2l121 158h99l121 -158l-106 -2zM602 480h134l-167 -480h-107l-95 303l-96 -303h-107l-167 480h135l92 -304l91 304h104l90 -306z" />
    <glyph glyph-name="Ycircumflex" unicode="&#x176;" horiz-adv-x="624" 
d="M312 796l-50 -61l-101 14l90 104h123l89 -104l-101 -14zM492 710h148l-260 -437v-273h-135v273l-260 437h152l177 -312z" />
    <glyph glyph-name="ycircumflex" unicode="&#x177;" horiz-adv-x="509" 
d="M256 644l-64 -82l-107 2l121 158h99l121 -158l-106 -2zM382 480h138l-234 -546q-30 -70 -77 -97t-113 -27q-47 0 -72 9l-11 113q48 -11 73 -11q75 0 99 59l11 27l-206 473h138l129 -317z" />
    <glyph glyph-name="Ydieresis" unicode="&#x178;" horiz-adv-x="624" 
d="M210 736q-29 0 -48 19t-19 48t19 47.5t48 18.5t47.5 -18.5t18.5 -47.5t-18.5 -48t-47.5 -19zM415 736q-29 0 -47.5 19t-18.5 48t18.5 47.5t47.5 18.5t48 -18.5t19 -47.5t-19 -48t-48 -19zM492 710h148l-260 -437v-273h-135v273l-260 437h152l177 -312z" />
    <glyph glyph-name="Zacute" unicode="&#x179;" horiz-adv-x="603" 
d="M462 844l-95 -109l-121 7l66 122zM575 710v-100l-371 -490h368v-120h-544v102l370 488h-356v120h533z" />
    <glyph glyph-name="zacute" unicode="&#x17a;" horiz-adv-x="463" 
d="M390 704l-106 -154h-117l90 165zM438 378l-250 -273h250v-105h-403l-8 102l250 273h-233v105h386z" />
    <glyph glyph-name="Zdotaccent" unicode="&#x17b;" horiz-adv-x="603" 
d="M313 747q-34 0 -54.5 19.5t-20.5 50.5q0 32 20.5 51t54.5 19t54.5 -19t20.5 -51q0 -31 -20.5 -50.5t-54.5 -19.5zM575 710v-100l-371 -490h368v-120h-544v102l370 488h-356v120h533z" />
    <glyph glyph-name="zdotaccent" unicode="&#x17c;" horiz-adv-x="463" 
d="M237 550q-36 0 -60 23.5t-24 59.5t24 59t60 23q37 0 60.5 -23t23.5 -59q0 -37 -23.5 -60t-60.5 -23zM438 378l-250 -273h250v-105h-403l-8 102l250 273h-233v105h386z" />
    <glyph glyph-name="Zcaron" unicode="&#x17d;" horiz-adv-x="603" 
d="M375 739h-123l-90 104l101 14l50 -61l50 61l101 -14zM575 710v-100l-371 -490h368v-120h-544v102l370 488h-356v120h533z" />
    <glyph glyph-name="zcaron" unicode="&#x17e;" horiz-adv-x="463" 
d="M286 552h-99l-121 158l107 2l64 -82l64 82l106 -2zM438 378l-250 -273h250v-105h-403l-8 102l250 273h-233v105h386z" />
    <glyph glyph-name="uni01EA" unicode="&#x1ea;" horiz-adv-x="765" 
d="M503 5q-81 -52 -81 -89q0 -24 30 -24q18 0 48 10l6 -77q-39 -13 -91 -13q-97 0 -97 75q0 58 56 101q-78 1 -140.5 26.5t-106 73t-66 115.5t-22.5 151q0 84 23 152.5t67.5 116t109 72.5t143.5 25t143.5 -25t109 -72.5t67.5 -116t23 -152.5q0 -136 -58 -226.5t-164 -122.5z
M179 354q0 -113 52.5 -178t150.5 -65q99 0 151.5 64.5t52.5 178.5t-52.5 178.5t-151.5 64.5q-97 0 -150 -65t-53 -178z" />
    <glyph glyph-name="uni01EB" unicode="&#x1eb;" horiz-adv-x="584" 
d="M402 6q-80 -49 -80 -88q0 -24 30 -24q18 0 48 10l6 -77q-39 -13 -91 -13q-97 0 -97 75q0 57 54 100q-108 5 -170 69.5t-62 180.5q0 122 67.5 186.5t184.5 64.5t184.5 -65.5t67.5 -186.5q0 -88 -37 -147.5t-105 -84.5zM176 238q0 -67 29.5 -103t86.5 -36q56 0 86 36
t30 103t-30 104t-86 37q-57 0 -86.5 -37t-29.5 -104z" />
    <glyph glyph-name="AEacute" unicode="&#x1fc;" horiz-adv-x="1000" 
d="M763 844l-95 -109l-121 7l66 122zM662 292v-170h289v-122h-426v292h-231l-131 -292h-143l329 710h605l-8 -122h-284v-182h256v-114h-256zM345 406h180v182h-99z" />
    <glyph glyph-name="aeacute" unicode="&#x1fd;" horiz-adv-x="864" 
d="M607 704l-106 -154h-117l90 165zM507 208q14 -110 129 -110q48 0 90 15.5t63 32.5l34 -102q-14 -13 -48 -27.5t-74.5 -21.5t-73.5 -7q-72 0 -126 24.5t-85 69.5q-30 -45 -80 -69.5t-113 -24.5q-80 0 -124.5 39.5t-44.5 107.5q0 70 54.5 111t160.5 41q52 0 102 -9v24
q0 43 -24 65t-69 22q-79 0 -89 -61l-121 21q16 76 68.5 108.5t142.5 32.5q117 0 172 -53q64 53 159 53q39 0 79 -12t71.5 -40.5t51.5 -75t20 -109.5v-45h-325zM609 386q-87 0 -101 -100h191q-4 51 -27.5 75.5t-62.5 24.5zM252 83q50 0 84.5 30t34.5 81v7q-45 8 -92 8
q-99 0 -99 -67q0 -59 72 -59z" />
    <glyph glyph-name="Oslashacute" unicode="&#x1fe;" horiz-adv-x="804" 
d="M531 844l-95 -109l-121 7l66 122zM642 615q40 -46 61.5 -113t21.5 -148q0 -84 -23 -152.5t-67.5 -116t-109 -72.5t-143.5 -25q-86 0 -155 29l-29 -42l-114 10l59 86q-50 47 -77 120t-27 163q0 84 23 152.5t67.5 116t109 72.5t143.5 25q107 0 182 -42l46 67l115 -10z
M179 354q0 -106 44 -168l267 385q-46 26 -108 26q-97 0 -150 -65t-53 -178zM382 111q99 0 151.5 64.5t52.5 178.5q0 39 -7.5 76t-20.5 64l-256 -370q33 -13 80 -13z" />
    <glyph glyph-name="oslashacute" unicode="&#x1ff;" horiz-adv-x="585" 
d="M446 704l-106 -154h-117l90 165zM448 449q46 -31 71.5 -85t25.5 -126q0 -120 -67.5 -185t-184.5 -65q-39 0 -77 8l-34 -63l-118 15l53 96q-37 32 -57 81.5t-20 113.5q0 60 17.5 108t51 79.5t80.5 47.5t104 16q30 0 51 -4l30 57l119 -14zM293 99q56 0 85.5 36t29.5 103
t-29.5 104t-85.5 37q-57 0 -86.5 -37t-29.5 -104t29.5 -103t86.5 -36z" />
    <glyph glyph-name="Scommaaccent" unicode="&#x218;" horiz-adv-x="619" 
d="M302 -12q-143 0 -246 58l17 125q113 -63 227 -63q70 0 107 22t37 62q0 22 -11 41t-39.5 34.5t-106 33t-116 31.5t-66.5 36.5t-44.5 57t-16.5 82.5q0 102 68 157t195 55q119 0 181.5 -46t69.5 -132l-135 -22q-3 23 -15 44t-38.5 32t-65.5 11q-59 0 -91.5 -23.5
t-32.5 -65.5q0 -30 16 -50t45 -32.5t100.5 -28t109.5 -29t66 -36t45 -58.5t17 -86q1 -108 -70 -159t-207 -51zM262 -220l-12 52q30 6 42.5 17.5t12.5 28.5q-67 0 -67 47q0 23 18 36t47 13q38 0 57.5 -21.5t19.5 -57.5q0 -52 -34 -81t-84 -34z" />
    <glyph glyph-name="scommaaccent" unicode="&#x219;" horiz-adv-x="480" 
d="M237 -12q-119 0 -201 50l13 105q23 -14 55 -26.5t66.5 -18.5t62.5 -6q46 0 70.5 12t24.5 33q0 11 -8 21t-26 17t-82 21t-89.5 25.5t-43.5 26t-30 38.5t-12 57q0 67 50 107t148 40q93 0 149.5 -36t59.5 -97l-128 -19q-5 29 -25 42.5t-58 13.5q-35 0 -53.5 -11.5
t-18.5 -32.5q0 -22 20 -36t95.5 -29t109 -32.5t51.5 -45t18 -69.5q0 -70 -53.5 -110t-164.5 -40zM191 -220l-12 52q30 6 42.5 17.5t12.5 28.5q-67 0 -67 47q0 23 18 36t47 13q38 0 57.5 -21.5t19.5 -57.5q0 -52 -34 -81t-84 -34z" />
    <glyph glyph-name="uni021A" unicode="&#x21a;" horiz-adv-x="542" 
d="M547 710v-121h-207v-589h-137v589h-208v121h552zM270 -26q38 0 57.5 -21.5t19.5 -57.5q0 -52 -34 -81t-84 -34l-12 52q30 6 42.5 17.5t12.5 28.5q-67 0 -67 47q0 23 18 36t47 13z" />
    <glyph glyph-name="uni021B" unicode="&#x21b;" horiz-adv-x="372" 
d="M359 371h-134v-214q0 -29 11.5 -41t37.5 -12q36 0 67 12l9 -112q-53 -16 -120 -16q-46 0 -75 12t-46 43.5t-17 96.5v231h-90v109h90v140h133v-140h134v-109zM222 -26q38 0 57.5 -21.5t19.5 -57.5q0 -52 -34 -81t-84 -34l-12 52q30 6 42.5 17.5t12.5 28.5q-67 0 -67 47
q0 23 18 36t47 13z" />
    <glyph glyph-name="uni0237" unicode="&#x237;" horiz-adv-x="285" 
d="M50 -190q-52 0 -81 13l3 115q26 -12 51 -12t38 12.5t13 42.5v499h133v-508q0 -78 -35.5 -120t-121.5 -42z" />
    <glyph glyph-name="gravecomb" unicode="&#x300;" 
d="M-93 550h-117l-106 154l133 11z" />
    <glyph glyph-name="acutecomb" unicode="&#x301;" 
d="M-317 550l90 165l133 -11l-106 -154h-117z" />
    <glyph glyph-name="uni0302" unicode="&#x302;" 
d="M-94 564l-106 -2l-64 82l-64 -82l-107 2l121 158h99z" />
    <glyph glyph-name="tildecomb" unicode="&#x303;" 
d="M-383 566l-79 10q4 60 32 96.5t75 36.5q36 0 81 -18.5t62 -18.5q34 0 40 50l78 -9q-2 -58 -30 -95.5t-76 -37.5q-21 0 -40.5 5t-53 18.5t-51.5 13.5q-32 0 -38 -51z" />
    <glyph glyph-name="uni0304" unicode="&#x304;" 
d="M-403 576v104h309v-104h-309z" />
    <glyph glyph-name="uni0306" unicode="&#x306;" 
d="M-244 549q-143 0 -150 153l85 6q5 -73 65 -73q61 0 66 73l84 -6q-4 -153 -150 -153z" />
    <glyph glyph-name="uni0307" unicode="&#x307;" 
d="M-177 550q-36 0 -60 23.5t-24 59.5t24 59t60 23q37 0 60.5 -23t23.5 -59q0 -37 -23.5 -60t-60.5 -23z" />
    <glyph glyph-name="uni0308" unicode="&#x308;" 
d="M-380 552q-33 0 -55 22t-22 56t22 56t55 22q34 0 56 -22t22 -56t-22 -56t-56 -22zM-170 552q-34 0 -55.5 22t-21.5 56t21.5 56t55.5 22q33 0 55 -22t22 -56t-22 -56t-55 -22z" />
    <glyph glyph-name="uni030A" unicode="&#x30a;" 
d="M-196 533q-34 0 -61 16t-37.5 40.5t-10.5 46.5t10.5 46.5t37.5 40.5t61 16q47 0 77.5 -28.5t30.5 -74.5q0 -34 -17.5 -59t-43 -34.5t-47.5 -9.5zM-196 592q20 0 32.5 12t12.5 32t-12.5 32t-32.5 12t-32.5 -12t-12.5 -32t12.5 -32t32.5 -12z" />
    <glyph glyph-name="uni030B" unicode="&#x30b;" 
d="M-488 550l90 165l133 -11l-106 -154h-117zM-313 550l90 165l133 -11l-106 -154h-117z" />
    <glyph glyph-name="uni030C" unicode="&#x30c;" 
d="M-200 712l106 -2l-121 -158h-99l-121 158l107 2l64 -83z" />
    <glyph glyph-name="uni0326" unicode="&#x326;" 
d="M-211 -220l-12 52q30 6 42.5 17.5t12.5 28.5q-67 0 -67 47q0 23 18 36t47 13q38 0 57.5 -21.5t19.5 -57.5q0 -52 -34 -81t-84 -34z" />
    <glyph glyph-name="uni0327" unicode="&#x327;" 
d="M-283 -194l11 66q79 0 79 26q0 11 -16 16.5t-55 5.5l19 101h83l-10 -58q79 0 79 -62q0 -53 -49.5 -74t-140.5 -21z" />
    <glyph glyph-name="uni0328" unicode="&#x328;" 
d="M-191 -198q-97 0 -97 75q0 26 14 53t43.5 49t60.5 33l76 -12q-90 -54 -90 -94q0 -24 30 -24q18 0 48 10l6 -77q-39 -13 -91 -13z" />
    <glyph glyph-name="Wgrave" unicode="&#x1e80;" horiz-adv-x="972" 
d="M548 742l-121 -7l-95 109l150 20zM816 710h154l-211 -710h-137l-136 493l-135 -493h-138l-211 710h154l129 -500l134 500h134l134 -500z" />
    <glyph glyph-name="wgrave" unicode="&#x1e81;" horiz-adv-x="734" 
d="M427 550h-117l-106 154l133 11zM602 480h134l-167 -480h-107l-95 303l-96 -303h-107l-167 480h135l92 -304l91 304h104l90 -306z" />
    <glyph glyph-name="Wacute" unicode="&#x1e82;" horiz-adv-x="972" 
d="M635 844l-95 -109l-121 7l66 122zM816 710h154l-211 -710h-137l-136 493l-135 -493h-138l-211 710h154l129 -500l134 500h134l134 -500z" />
    <glyph glyph-name="wacute" unicode="&#x1e83;" horiz-adv-x="734" 
d="M521 704l-106 -154h-117l90 165zM602 480h134l-167 -480h-107l-95 303l-96 -303h-107l-167 480h135l92 -304l91 304h104l90 -306z" />
    <glyph glyph-name="Wdieresis" unicode="&#x1e84;" horiz-adv-x="972" 
d="M383 736q-29 0 -48 19t-19 48t19 47.5t48 18.5t47.5 -18.5t18.5 -47.5t-18.5 -48t-47.5 -19zM588 736q-29 0 -47.5 19t-18.5 48t18.5 47.5t47.5 18.5t48 -18.5t19 -47.5t-19 -48t-48 -19zM816 710h154l-211 -710h-137l-136 493l-135 -493h-138l-211 710h154l129 -500
l134 500h134l134 -500z" />
    <glyph glyph-name="wdieresis" unicode="&#x1e85;" horiz-adv-x="734" 
d="M263 552q-33 0 -55 22t-22 56t22 56t55 22q34 0 56 -22t22 -56t-22 -56t-56 -22zM473 552q-34 0 -55.5 22t-21.5 56t21.5 56t55.5 22q33 0 55 -22t22 -56t-22 -56t-55 -22zM602 480h134l-167 -480h-107l-95 303l-96 -303h-107l-167 480h135l92 -304l91 304h104l90 -306z
" />
    <glyph glyph-name="Ygrave" unicode="&#x1ef2;" horiz-adv-x="624" 
d="M374 742l-121 -7l-95 109l150 20zM492 710h148l-260 -437v-273h-135v273l-260 437h152l177 -312z" />
    <glyph glyph-name="ygrave" unicode="&#x1ef3;" horiz-adv-x="509" 
d="M316 550h-117l-106 154l133 11zM382 480h138l-234 -546q-30 -70 -77 -97t-113 -27q-47 0 -72 9l-11 113q48 -11 73 -11q75 0 99 59l11 27l-206 473h138l129 -317z" />
    <glyph glyph-name="uni1EF8" unicode="&#x1ef8;" horiz-adv-x="624" 
d="M264 770q-27 0 -30 -39l-73 8q4 57 26.5 85t61.5 28q26 0 62 -13.5t49 -13.5q28 0 31 39l72 -9q-7 -113 -87 -113q-26 0 -62.5 14t-49.5 14zM492 710h148l-260 -437v-273h-135v273l-260 437h152l177 -312z" />
    <glyph glyph-name="uni1EF9" unicode="&#x1ef9;" horiz-adv-x="509" 
d="M189 617q-32 0 -38 -51l-79 10q4 60 32 96.5t75 36.5q36 0 81 -18.5t62 -18.5q34 0 40 50l78 -9q-2 -58 -30 -95.5t-76 -37.5q-21 0 -40.5 5t-53 18.5t-51.5 13.5zM382 480h138l-234 -546q-30 -70 -77 -97t-113 -27q-47 0 -72 9l-11 113q48 -11 73 -11q75 0 99 59l11 27
l-206 473h138l129 -317z" />
    <glyph glyph-name="endash" unicode="&#x2013;" horiz-adv-x="590" 
d="M58 233v108h474v-108h-474z" />
    <glyph glyph-name="emdash" unicode="&#x2014;" horiz-adv-x="879" 
d="M58 233v108h763v-108h-763z" />
    <glyph glyph-name="quoteleft" unicode="&#x2018;" horiz-adv-x="269" 
d="M179 752l36 -58q-34 -19 -45.5 -38.5t-11.5 -46.5q0 -26 17.5 -40t45.5 -14q0 -41 -19.5 -65t-54.5 -24q-39 0 -62 29t-23 83q0 30 11 64.5t39.5 63.5t66.5 46z" />
    <glyph glyph-name="quoteright" unicode="&#x2019;" horiz-adv-x="269" 
d="M102 437l-35 57q34 21 45 40t11 46q0 26 -17 39.5t-45 13.5q0 42 19 66t55 24q38 0 61.5 -29.5t23.5 -83.5q0 -30 -11 -64t-40 -63t-67 -46z" />
    <glyph glyph-name="quotesinglbase" unicode="&#x201a;" horiz-adv-x="255" 
d="M90 -146l-36 58q26 15 38.5 29.5t15.5 31.5t3 24q0 26 -17.5 40t-45.5 14q0 41 19 65t55 24q38 0 61.5 -29t23.5 -83q0 -55 -28.5 -100.5t-88.5 -73.5z" />
    <glyph glyph-name="quotedblleft" unicode="&#x201c;" horiz-adv-x="488" 
d="M179 752l36 -58q-34 -19 -45.5 -38.5t-11.5 -46.5q0 -26 17.5 -40t45.5 -14q0 -41 -19.5 -65t-54.5 -24q-39 0 -62 29t-23 83q0 30 11 64.5t39.5 63.5t66.5 46zM398 752l36 -58q-26 -15 -38.5 -29.5t-15.5 -31.5t-3 -24q0 -26 17.5 -40t45.5 -14q0 -41 -19 -65t-55 -24
q-38 0 -61.5 29t-23.5 83q0 55 28.5 100.5t88.5 73.5z" />
    <glyph glyph-name="quotedblright" unicode="&#x201d;" horiz-adv-x="488" 
d="M102 437l-35 57q34 21 45 40t11 46q0 26 -17 39.5t-45 13.5q0 42 19 66t55 24q38 0 61.5 -29.5t23.5 -83.5q0 -30 -11 -64t-40 -63t-67 -46zM322 437l-36 58q34 19 45.5 38.5t11.5 46.5q0 26 -17.5 40t-45.5 14q0 41 19.5 65t54.5 24q39 0 62 -29t23 -83q0 -30 -11 -64.5
t-39.5 -63.5t-66.5 -46z" />
    <glyph glyph-name="quotedblbase" unicode="&#x201e;" horiz-adv-x="475" 
d="M309 -146l-36 58q34 19 45.5 38.5t11.5 46.5q0 26 -17.5 40t-45.5 14q0 41 19.5 65t54.5 24q39 0 62 -29t23 -83q0 -30 -11 -64.5t-39.5 -63.5t-66.5 -46zM90 -146l-36 58q26 15 38.5 29.5t15.5 31.5t3 24q0 26 -17.5 40t-45.5 14q0 41 19 65t55 24q38 0 61.5 -29
t23.5 -83q0 -55 -28.5 -100.5t-88.5 -73.5z" />
    <glyph glyph-name="dagger" unicode="&#x2020;" horiz-adv-x="629" 
d="M541 525l-7 -125l-162 13l7 -413h-130l7 413l-161 -13l-7 125l166 -13l-12 198h145l-13 -198z" />
    <glyph glyph-name="daggerdbl" unicode="&#x2021;" horiz-adv-x="607" 
d="M511 312l8 -124l-156 11l7 -199h-134l7 199l-155 -11l7 124l149 -11v148l-149 -11l-7 124l153 -11l-10 159h144l-10 -159l154 11l-8 -124l-150 11v-148z" />
    <glyph glyph-name="bullet" unicode="&#x2022;" horiz-adv-x="370" 
d="M185 179q-38 0 -68 20t-41.5 49t-11.5 54t11.5 54t41.5 49t68 20q24 0 52.5 -11.5t48.5 -42.5t20 -69t-20 -69t-48.5 -42.5t-52.5 -11.5z" />
    <glyph glyph-name="ellipsis" unicode="&#x2026;" horiz-adv-x="743" 
d="M371 -12q-34 0 -57 23.5t-23 58.5t23 59t57 24t57 -24t23 -59t-23 -58.5t-57 -23.5zM615 -12q-33 0 -56 23.5t-23 58.5t23 59t56 24q16 0 35 -8t32 -28.5t13 -46.5q0 -16 -7.5 -35.5t-27.5 -33t-45 -13.5zM128 -12q-34 0 -57 23.5t-23 58.5t23 59t57 24t57 -24t23 -59
t-23 -58.5t-57 -23.5z" />
    <glyph glyph-name="perthousand" unicode="&#x2030;" horiz-adv-x="1375" 
d="M258 327q-175 0 -175 196q0 197 175 197q174 0 174 -196q0 -93 -42 -145t-132 -52zM297 -12l-114 5l512 727l115 -5zM258 410q74 0 74 114q0 57 -18 84.5t-56 27.5q-75 0 -75 -113t75 -113zM734 -12q-174 0 -174 196q0 93 42 145t132 52q174 0 174 -195q0 -93 -42 -145.5
t-132 -52.5zM1137 -12q-174 0 -174 196q0 93 42 145t132 52q175 0 175 -195q0 -69 -21 -112t-59 -64.5t-95 -21.5zM734 72q75 0 75 114q0 111 -75 111q-39 0 -57 -28t-18 -85q0 -56 18 -84t57 -28zM1137 72q75 0 75 114q0 111 -75 111t-75 -113q0 -112 75 -112z" />
    <glyph glyph-name="guilsinglleft" unicode="&#x2039;" horiz-adv-x="335" 
d="M267 397l-113 -113l113 -110l-67 -69l-164 168v20l165 172z" />
    <glyph glyph-name="guilsinglright" unicode="&#x203a;" horiz-adv-x="336" 
d="M103 465l165 -172v-20l-165 -168l-67 69l113 110l-113 113z" />
    <glyph glyph-name="fraction" unicode="&#x2044;" horiz-adv-x="435" 
d="M18 -12l-114 5l512 727l115 -5z" />
    <glyph glyph-name="Euro" unicode="&#x20ac;" horiz-adv-x="700" 
d="M545 454l-12 -86h-489l11 86h73q13 86 49.5 144t96.5 90t147 32q77 0 129 -16.5t78 -37.5l-22 -122q-78 51 -172 51q-65 0 -107 -34t-58 -107h276zM621 166l21 -125q-16 -12 -51 -25.5t-79 -20.5t-83 -7q-89 0 -149.5 30t-97 84t-51.5 134h-100l11 86h487l-11 -86h-245
q36 -123 164 -123q50 0 95.5 11.5t88.5 41.5z" />
    <glyph glyph-name="trademark" unicode="&#x2122;" horiz-adv-x="708" 
d="M660 426h-80l-6 174l-71 -151h-52l-71 152l-5 -175h-81l7 208h-85v-208h-82v208h-86v66h356l73 -159l73 159h102z" />
    <glyph glyph-name="minus" unicode="&#x2212;" horiz-adv-x="568" 
d="M74 258v113h420v-113h-420z" />
    <glyph glyph-name="approxequal" unicode="&#x2248;" horiz-adv-x="581" 
d="M165 322l-91 14q4 74 34 109.5t79 35.5q38 0 100 -15t84 -15q20 0 30.5 11.5t14.5 41.5l92 -14q-4 -74 -34 -109.5t-79 -35.5q-38 0 -100 15t-84 15q-37 0 -46 -53zM165 130l-91 14q4 74 34 109.5t79 35.5q38 0 100 -15t84 -15q20 0 30.5 11.5t14.5 41.5l92 -14
q-4 -74 -34 -109.5t-79 -35.5q-38 0 -100 15t-84 15q-37 0 -46 -53z" />
    <glyph glyph-name="notequal" unicode="&#x2260;" horiz-adv-x="566" 
d="M492 359h-132l-26 -84h158v-97h-188l-28 -89h-108l28 89h-122v97h152l27 84h-179v97h209l27 89h108l-28 -89h102v-97z" />
    <glyph glyph-name="uniF8FF" unicode="&#xf8ff;" horiz-adv-x="1456" 
d="M754 522q-25 0 -43 18t-18 43q0 26 18 44t43 18q26 0 44 -18t18 -44q0 -25 -18 -43t-44 -18zM102 270q0 134 9 314h100q0 -4 2 -34.5t3 -62t3 -88t2 -129.5h-119zM606 264q-40 0 -61 17t-21 49l4 87h-22v79l119 30l1 -17h178q10 -64 10 -239h-118q0 92 3 147h-61l3 -65
q4 -4 15 -4q13 0 18 5v-74q-14 -15 -68 -15zM330 265q-43 0 -67.5 29t-24.5 85q0 65 33.5 100t100.5 35q64 0 94 -31.5t30 -85.5v-127h-83l-8 61q-6 -32 -23.5 -49t-51.5 -17zM836 270q0 175 10 239h80q6 -44 6 -76q4 37 26 59t54 22q21 0 39.5 -8.5t27.5 -32.5t10 -65
l3 -138h-114l2 93q0 6 -1.5 17.5t-13.5 11.5q-8 0 -13 -5.5t-5 -23.5q0 -7 1.5 -37t1.5 -56h-114zM1230 265q-63 0 -92.5 33.5t-29.5 90.5q0 37 13 65.5t40.5 44t70.5 15.5q121 0 121 -123q0 -61 -30.5 -93.5t-92.5 -32.5zM368 345q11 0 17.5 8.5t6.5 21.5q0 26 -24 26
q-22 0 -22 -26q0 -14 6 -22t16 -8zM1230 345q10 0 16.5 8.5t6.5 21.5q0 26 -23 26q-21 0 -21 -26q0 -14 5.5 -22t15.5 -8zM392 -50q-61 0 -88 17v83q24 -16 70 -16q29 0 41.5 10t12.5 18q-16 -11 -49 -11q-90 0 -90 83v13h-55l3 -65q6 -4 15 -4q13 0 18 5v-73
q-19 -15 -68 -15q-44 0 -62.5 17.5t-18.5 53.5l3 81h-18v80l117 29l-1 -18h177v-119q0 -15 3.5 -21t11.5 -6q16 0 16 27v119h104q3 -18 6.5 -60t3.5 -78q0 -81 -34 -115.5t-118 -34.5zM560 -44q0 142 10 282h78q2 -11 4.5 -38t2.5 -38q8 38 28.5 59.5t51.5 21.5
q37 0 58.5 -29.5t21.5 -83.5q0 -135 -137 -135l1 -39h-119zM972 -5q-70 0 -105.5 31t-35.5 91q0 27 10.5 56.5t39.5 49.5t75 20q54 0 85 -30.5t31 -85.5q0 -21 -3 -35h-124q4 -6 16 -12t34 -6q34 0 55 12v-75q-23 -16 -78 -16zM940 109h40q1 13 -3.5 20t-13.5 7
q-10 0 -16.5 -7.5t-6.5 -19.5zM672 72q15 0 26 11t11 26q0 11 -5.5 17t-14.5 6q-22 0 -22 -31q0 -14 5 -29zM1100 -10q-10 0 -17 6.5t-7 16.5t7 16.5t17 6.5t17 -6.5t7 -16.5t-7 -16.5t-17 -6.5zM1100 -5q8 0 13 5t5 13t-5 13t-13 5t-13 -5t-5 -13t5 -13t13 -5zM1090 2v23
h11q10 0 10 -7q0 -1 -1.5 -4t-5.5 -3l6 -9h-6l-4 9h-5v-9h-5zM1095 15h7q3 0 4 3q-1 3 -4 3h-7v-6z" />
    <glyph glyph-name="i.aalt" horiz-adv-x="289" 
d="M145 550q-36 0 -60 23.5t-24 59.5t24 59t60 23q37 0 60.5 -23t23.5 -59q0 -37 -23.5 -60t-60.5 -23zM78 0v480h133v-480h-133z" />
    <glyph glyph-name="f_t.dlig" horiz-adv-x="674" 
d="M640 371h-134v-214q0 -29 12 -41t38 -12q32 0 68 12l7 -112q-53 -16 -120 -16q-46 0 -75 12t-46 43.5t-17 96.5v231h-147v-371h-133v371h-84v109h84v66q0 86 39 130t108 44q51 0 93 -14l-6 -112q-26 10 -52 10q-49 0 -49 -62v-62h147v140h133v-140h134v-109z" />
    <glyph glyph-name="glyph348" 
d="M-180 710l-109 8l-28 -196l101 -8z" />
    <glyph glyph-name="acutecomb.aalt" 
d="M-305 742l66 122l150 -20l-95 -109z" />
    <glyph glyph-name="uni0306.aalt" 
d="M-228 733q-59 0 -96.5 29t-41.5 91l81 7q4 -30 17.5 -43t39.5 -13q20 0 36.5 9.5t21.5 46.5l80 -7q-4 -62 -41.5 -91t-96.5 -29z" />
    <glyph glyph-name="uni030C.aalt" 
d="M-191 857l101 -14l-89 -104h-123l-90 104l101 14l50 -61z" />
    <glyph glyph-name="uni0302.aalt" 
d="M-90 749l-101 -14l-50 61l-50 -61l-101 14l90 104h123z" />
    <glyph glyph-name="uni0308.aalt" 
d="M-361 736q-29 0 -48 19t-19 48t19 47.5t48 18.5t47.5 -18.5t18.5 -47.5t-18.5 -48t-47.5 -19zM-156 736q-29 0 -47.5 19t-18.5 48t18.5 47.5t47.5 18.5t48 -18.5t19 -47.5t-19 -48t-48 -19z" />
    <glyph glyph-name="uni0307.aalt" 
d="M-164 747q-34 0 -54.5 19.5t-20.5 50.5q0 32 20.5 51t54.5 19t54.5 -19t20.5 -51q0 -31 -20.5 -50.5t-54.5 -19.5z" />
    <glyph glyph-name="gravecomb.aalt" 
d="M-89 742l-121 -7l-95 109l150 20z" />
    <glyph glyph-name="uni030B.aalt" 
d="M-305 742l66 122l150 -20l-95 -109zM-488 742l66 122l150 -20l-95 -109z" />
    <glyph glyph-name="uni0304.aalt" 
d="M-380 749v93h291v-93h-291z" />
    <glyph glyph-name="uni030A.aalt" 
d="M-186 724q-45 0 -70.5 23t-25.5 62t25.5 62.5t70.5 23.5t70.5 -23t25.5 -63q0 -39 -25.5 -62t-70.5 -23zM-186 779q13 0 21.5 8.5t8.5 21.5q0 14 -8.5 22.5t-21.5 8.5q-12 0 -20.5 -8.5t-8.5 -22.5q0 -13 8.5 -21.5t20.5 -8.5z" />
    <glyph glyph-name="tildecomb.aalt" 
d="M-319 731l-73 8q4 57 26.5 85t61.5 28q26 0 62 -13.5t49 -13.5q28 0 31 39l72 -9q-7 -113 -87 -113q-26 0 -62.5 14t-49.5 14q-27 0 -30 -39z" />
    <glyph glyph-name="glyph360" horiz-adv-x="770" 
d="M559 742l66 122l150 -20l-95 -109zM89 742l66 122l150 -20l-95 -109zM87 0v710h137v-710h-137zM455 -12q-53 0 -93.5 8.5t-62.5 19.5l12 120q23 -10 59 -19t73 -9q64 0 89 24t25 87v491h138v-486q0 -115 -56.5 -175.5t-183.5 -60.5z" />
    <glyph glyph-name="glyph361" horiz-adv-x="560" 
d="M75 550l90 165l133 -11l-106 -154h-117zM328 550l90 165l133 -11l-106 -154h-117zM78 0v480h133v-480h-133zM325 -190q-52 0 -81 13l3 115q26 -12 51 -12t38 12.5t13 42.5v499h133v-508q0 -78 -35.5 -120t-121.5 -42z" />
    </font>
</defs>
</svg>
