<?xml version="1.0" standalone="no"?>
<!DOCTYPE svg PUBLIC "-//W3C//DTD SVG 1.1//EN" "http://www.w3.org/Graphics/SVG/1.1/DTD/svg11.dtd" >
<svg xmlns="http://www.w3.org/2000/svg" xmlns:xlink="http://www.w3.org/1999/xlink" version="1.1">
<metadata>
Created by FontForge 20200427 at Wed Oct 28 21:55:51 2015
 By www
Latinotype
</metadata>
<defs>
<font id="CorporativeSansAltW00-Rg" horiz-adv-x="0" >
  <font-face 
    font-family="CorporativeSansAltW00-Rg"
    font-weight="400"
    font-stretch="normal"
    units-per-em="1000"
    panose-1="1 0 0 0 0 0 0 0 0 0"
    ascent="800"
    descent="-200"
    x-height="480"
    cap-height="710"
    bbox="-434 -199 1356 879"
    underline-thickness="50"
    underline-position="-125"
    unicode-range="U+0020-FB02"
  />
<missing-glyph horiz-adv-x="514" 
d="M85 710h344v-710h-344v710zM137 675l120 -278l120 278h-240zM239 355l-122 284v-568zM275 355l122 -284v568zM257 313l-120 -278h240z" />
    <glyph glyph-name="uniFB01" unicode="fi" horiz-adv-x="529" 
d="M443 480v-480h-72v419h-191v-419h-72v419h-80v61h80v87q0 153 169 153q75 0 127 -21l-6 -65q-17 8 -46 14.5t-62 6.5q-110 0 -110 -87v-88h263z" />
    <glyph glyph-name="uniFB02" unicode="fl" horiz-adv-x="535" 
d="M376 710h72v-710h-72v419h-195v-419h-72v419h-91v61h91v89q0 76 34 113.5t94 37.5q49 0 92 -18l-4 -63q-36 16 -72 16q-33 0 -52.5 -20t-19.5 -63v-92h195v230z" />
    <glyph glyph-name=".notdef" horiz-adv-x="514" 
d="M85 710h344v-710h-344v710zM137 675l120 -278l120 278h-240zM239 355l-122 284v-568zM275 355l122 -284v568zM257 313l-120 -278h240z" />
    <glyph glyph-name=".null" 
 />
    <glyph glyph-name="nonmarkingreturn" horiz-adv-x="333" 
 />
    <glyph glyph-name="space" unicode=" " horiz-adv-x="226" 
 />
    <glyph glyph-name="exclam" unicode="!" horiz-adv-x="231" 
d="M81 211l-6 499h81l-7 -499h-68zM114 -12q-24 0 -40.5 18t-16.5 44t16.5 44t40.5 18q25 0 41.5 -18t16.5 -44t-16.5 -44t-41.5 -18z" />
    <glyph glyph-name="quotedbl" unicode="&#x22;" horiz-adv-x="366" 
d="M200 491l12 229l73 -10l-29 -219h-56zM70 491l12 229l73 -10l-29 -219h-56z" />
    <glyph glyph-name="numbersign" unicode="#" horiz-adv-x="726" 
d="M623 398h-119l-33 -146h120l-12 -54h-120l-31 -138h-60l31 138h-130l-31 -138h-60l31 138h-118l11 54h119l33 146h-120l13 54h119l31 138h60l-31 -138h130l31 138h60l-31 -138h119zM411 252l33 146h-130l-33 -146h130z" />
    <glyph glyph-name="dollar" unicode="$" horiz-adv-x="617" 
d="M549 186q0 -84 -57 -132t-158 -55l-3 -101h-65l3 101q-52 3 -106 18t-90 39l8 71q43 -26 92 -42t97 -19l6 261q-87 26 -129 52.5t-61 63t-19 81.5q0 38 12 67t33 53t64 43.5t108 22.5l2 100h65l-2 -102q81 -8 125.5 -44t57.5 -94l-70 -15q-7 35 -34.5 59.5t-79.5 31.5
l-6 -270q86 -25 127.5 -50.5t60.5 -61t19 -78.5zM139 522q0 -40 28 -70.5t110 -56.5l6 253q-53 -3 -86.5 -23t-45.5 -49t-12 -54zM335 66q70 4 106 31t36 83q0 32 -15.5 55t-44.5 40t-77 32z" />
    <glyph glyph-name="percent" unicode="%" horiz-adv-x="911" 
d="M253 326q-54 0 -93.5 23.5t-56.5 70.5t-17 103t17 103t56.5 70.5t93.5 23.5q85 0 125.5 -52t40.5 -145t-40.5 -145t-125.5 -52zM244 -12l-67 4l510 728l67 -4zM253 377q106 0 106 146q0 145 -106 145q-107 0 -107 -145q0 -71 26.5 -108.5t80.5 -37.5zM678 -12
q-85 0 -125.5 52.5t-40.5 144.5t40.5 144.5t125.5 52.5q54 0 93.5 -23.5t56.5 -70.5t17 -103t-17 -103t-56.5 -70.5t-93.5 -23.5zM678 40q107 0 107 145q0 146 -107 146q-106 0 -106 -146q0 -145 106 -145z" />
    <glyph glyph-name="ampersand" unicode="&#x26;" horiz-adv-x="539" 
d="M645 387v-62h-80v-102q0 -79 -28.5 -130t-86.5 -78t-154 -27q-113 0 -175.5 51t-62.5 144q0 128 134 173q-35 13 -59.5 40t-33.5 61t-9 65q0 91 59 144.5t165 53.5q176 0 208 -123l-71 -16q-19 72 -137 72q-70 0 -110 -36t-40 -95q0 -64 35 -99.5t105 -35.5h189v62h72
v-62h80zM493 216v109h-193q-75 0 -121.5 -35.5t-46.5 -101.5q0 -64 43 -98.5t123 -34.5q72 0 113.5 17t61.5 52t20 92z" />
    <glyph glyph-name="quotesingle" unicode="'" horiz-adv-x="226" 
d="M70 491l12 229l73 -10l-29 -219h-56z" />
    <glyph glyph-name="parenleft" unicode="(" horiz-adv-x="447" 
d="M376 -190q-44 20 -90.5 62.5t-86.5 106.5t-64.5 150t-24.5 186t24.5 186t64.5 150t86.5 106.5t90.5 62.5l13 -63q-33 -18 -69 -54t-67.5 -91t-51.5 -131t-20 -166q0 -68 13.5 -138t43 -130t69 -105t82.5 -69z" />
    <glyph glyph-name="parenright" unicode=")" horiz-adv-x="447" 
d="M71 -190l-14 63q34 18 69.5 54t67 91t51.5 131t20 166q0 68 -13.5 138t-43 130t-68.5 105t-83 69l14 63q44 -20 90.5 -62.5t86.5 -106.5t64.5 -150t24.5 -186t-24.5 -186t-64.5 -150t-86.5 -106.5t-90.5 -62.5z" />
    <glyph glyph-name="asterisk" unicode="*" horiz-adv-x="454" 
d="M200 454l4 94l-87 -57l-26 47l99 51l-99 50l26 48l87 -58l-4 94h54l-4 -94l87 58l27 -48l-100 -50l100 -51l-27 -47l-87 57l4 -94h-54z" />
    <glyph glyph-name="plus" unicode="+" horiz-adv-x="555" 
d="M464 349v-64h-153v-162h-68v162h-152v64h152v162h68v-162h153z" />
    <glyph glyph-name="comma" unicode="," horiz-adv-x="226" 
d="M87 -122l-24 41q26 18 35 34.5t9 39.5q0 21 -14 32.5t-36 11.5q0 28 13.5 45t38.5 17q26 0 42.5 -23t16.5 -63q0 -83 -81 -135z" />
    <glyph glyph-name="hyphen" unicode="-" horiz-adv-x="409" 
d="M67 255v64h274v-64h-274z" />
    <glyph glyph-name="period" unicode="." horiz-adv-x="229" 
d="M114 -12q-24 0 -40.5 18t-16.5 44t16.5 44t40.5 18q25 0 41.5 -18t16.5 -44t-16.5 -44t-41.5 -18z" />
    <glyph glyph-name="slash" unicode="/" horiz-adv-x="401" 
d="M6 -180l317 990h72l-319 -990h-70z" />
    <glyph glyph-name="zero" unicode="0" horiz-adv-x="637" 
d="M319 -12q-47 0 -93 17.5t-80.5 60t-55 113t-20.5 175.5q0 83 14.5 150.5t45 115.5t78 74t111.5 26t111.5 -26t77.5 -74t44.5 -115.5t14.5 -150.5t-14.5 -150.5t-44.5 -115.5t-77.5 -74t-111.5 -26zM319 56q172 0 172 298t-172 298q-33 0 -65 -14t-56 -48.5t-38 -92
t-14 -143.5q0 -298 173 -298z" />
    <glyph glyph-name="one" unicode="1" horiz-adv-x="408" 
d="M272 63h105v-63h-317v63h136v568q-26 -19 -86.5 -49t-100.5 -45l-13 65q50 19 107.5 49.5t92.5 58.5h76v-647z" />
    <glyph glyph-name="two" unicode="2" horiz-adv-x="591" 
d="M156 63h364v-63h-441v28q0 64 35 121.5t135 128.5t126.5 98t40 50t18.5 45t5 40q0 67 -38.5 106.5t-113.5 39.5q-61 0 -96 -25.5t-49 -76.5l-72 13q16 72 70.5 112t147.5 40q26 0 57.5 -5t60.5 -18.5t53.5 -37t39 -62.5t14.5 -85q0 -61 -33.5 -117t-121.5 -118.5
t-108 -77.5t-40 -36t-35 -45t-19 -55z" />
    <glyph glyph-name="three" unicode="3" horiz-adv-x="594" 
d="M390 372q44 -14 73.5 -39.5t44.5 -59.5t15 -80q0 -44 -15 -81.5t-45 -65.5t-75 -43t-101 -15q-84 0 -139.5 33t-77.5 101l66 20q13 -41 51 -66t103 -25q74 0 117 36t43 107q0 43 -20.5 77t-59.5 50t-84 16h-59v64h58q61 0 101.5 33.5t40.5 96.5q0 26 -11 56t-43.5 50
t-84.5 20q-63 0 -96.5 -23t-45.5 -69l-70 14q35 141 212 141q64 0 109.5 -21.5t73 -63.5t27.5 -104q0 -56 -29 -97.5t-79 -61.5z" />
    <glyph glyph-name="four" unicode="4" horiz-adv-x="556" 
d="M424 280h116v-63h-116v-217h-76v217h-326l-16 53l347 440h71v-430zM93 280h255v332z" />
    <glyph glyph-name="five" unicode="5" horiz-adv-x="582" 
d="M277 428q113 0 174 -57.5t61 -160.5q0 -48 -14.5 -89t-43 -71t-72 -46t-99.5 -16q-169 0 -213 134l64 22q12 -42 49.5 -67.5t101.5 -25.5q75 0 115 41t40 118q0 72 -44.5 114.5t-134.5 42.5q-20 0 -47 -3t-63.5 -11t-37.5 -8l14 365h355v-67h-289l-9 -223q42 8 93 8z" />
    <glyph glyph-name="six" unicode="6" horiz-adv-x="606" 
d="M322 432q50 0 90.5 -16.5t68 -46t41.5 -70t14 -86.5q0 -48 -14.5 -89.5t-42.5 -72t-69.5 -47t-93.5 -16.5q-56 0 -102 21.5t-78 64.5t-49 108t-17 149q0 87 15.5 159t46.5 123.5t80 79t113 27.5q50 0 89 -16.5t64 -48.5t35 -73l-68 -13q-10 43 -42.5 65.5t-82.5 22.5
q-83 0 -128 -72.5t-49 -219.5q30 28 76.5 47.5t102.5 19.5zM316 51q40 0 76 17.5t55.5 56.5t19.5 88q0 74 -40.5 117.5t-109.5 43.5q-54 0 -99 -22t-75 -53q5 -121 46 -184.5t127 -63.5z" />
    <glyph glyph-name="seven" unicode="7" horiz-adv-x="418" 
d="M-15 710h437v-65q-97 -139 -172.5 -305.5t-121.5 -339.5h-77q24 83 65.5 192.5t103 229t129.5 221.5h-364v67z" />
    <glyph glyph-name="eight" unicode="8" horiz-adv-x="613" 
d="M394 366q54 -23 86.5 -50.5t47.5 -59.5t15 -72q0 -43 -14.5 -79t-43.5 -62t-74 -40.5t-104 -14.5q-115 0 -176 49t-61 138q0 34 12.5 69.5t46.5 68t80 56.5q-109 56 -109 171q0 80 53 130t153 50q51 0 85.5 -11.5t59.5 -30.5t42.5 -53t17.5 -81q0 -119 -117 -178z
M170 542q0 -55 32 -89t126 -63l3 -1q109 52 109 149q0 55 -34.5 85t-97.5 30t-100.5 -27t-37.5 -84zM308 55q76 0 119 33.5t43 98.5q0 36 -19 62.5t-57.5 47.5t-109.5 43l-18 6q-54 -27 -81.5 -59.5t-35 -58t-7.5 -46.5q0 -64 45 -95.5t121 -31.5z" />
    <glyph glyph-name="nine" unicode="9" horiz-adv-x="609" 
d="M291 720q55 0 100.5 -20.5t78.5 -63t51 -110.5t18 -159q0 -85 -15 -155t-46.5 -120t-81 -77t-115.5 -27q-83 0 -132.5 38.5t-60.5 109.5l64 16q12 -54 45 -76.5t87 -22.5q85 0 131 73.5t50 220.5q-33 -28 -80.5 -46t-102.5 -18q-98 0 -155 54.5t-57 153.5q0 48 14 90
t42 73t70 48.5t95 17.5zM290 341q54 0 98.5 19.5t75.5 52.5q-13 242 -174 242q-70 0 -109.5 -42t-39.5 -120t39.5 -115t109.5 -37z" />
    <glyph glyph-name="colon" unicode=":" horiz-adv-x="230" 
d="M114 370q-24 0 -40.5 18t-16.5 44t16.5 44t40.5 18q25 0 41.5 -18t16.5 -44t-16.5 -44t-41.5 -18zM114 -12q-24 0 -40.5 18t-16.5 44t16.5 44t40.5 18q25 0 41.5 -18t16.5 -44t-16.5 -44t-41.5 -18z" />
    <glyph glyph-name="semicolon" unicode=";" horiz-adv-x="232" 
d="M114 370q-24 0 -40.5 18t-16.5 44t16.5 44t40.5 18q25 0 41.5 -18t16.5 -44t-16.5 -44t-41.5 -18zM87 -122l-24 41q26 18 35 34.5t9 39.5q0 21 -14 32.5t-36 11.5q0 28 13.5 45t38.5 17q26 0 42.5 -23t16.5 -63q0 -83 -81 -135z" />
    <glyph glyph-name="less" unicode="&#x3c;" horiz-adv-x="549" 
d="M459 483l-308 -166l308 -166l-2 -66l-366 199v66l366 199z" />
    <glyph glyph-name="equal" unicode="=" horiz-adv-x="598" 
d="M91 377v60h417v-60h-417zM91 197v60h417v-60h-417z" />
    <glyph glyph-name="greater" unicode="&#x3e;" horiz-adv-x="547" 
d="M91 549l366 -199v-66l-366 -199l-2 66l308 166l-308 166z" />
    <glyph glyph-name="question" unicode="?" horiz-adv-x="503" 
d="M175 207l-9 104q4 3 42 27.5t67.5 50t48.5 60.5t19 81q0 56 -29.5 92.5t-92.5 36.5q-90 0 -111 -75l-59 16q18 62 59.5 91t113.5 29q94 0 141.5 -47t47.5 -131q0 -40 -10.5 -74t-27.5 -59.5t-40.5 -48t-57 -45t-38.5 -26.5l-6 -82h-58zM204 -12q-23 0 -39.5 18t-16.5 44
t16.5 44t39.5 18q25 0 41.5 -18t16.5 -44t-16.5 -44t-41.5 -18z" />
    <glyph glyph-name="at" unicode="@" horiz-adv-x="1087" 
d="M553 719q99 0 181.5 -29.5t141 -86t90 -139t31.5 -184.5q0 -77 -14 -132t-39 -87.5t-57.5 -46.5t-69.5 -14q-48 0 -82 21t-49 64q-24 -38 -69 -61.5t-103 -23.5q-92 0 -146.5 62.5t-54.5 169.5q0 52 15.5 98t44.5 79.5t70 52t89 18.5q86 0 147 -46l6 36h61v-305
q0 -105 79 -105q53 0 81.5 51.5t28.5 168.5q0 84 -27 155t-77 120.5t-121.5 76.5t-157.5 27q-87 0 -160.5 -28t-126 -81t-80.5 -129t-28 -169q0 -105 28 -182t76.5 -123.5t111 -67.5t132.5 -21q57 0 113 13t99 39l6 -59q-40 -26 -99.5 -38t-120.5 -12q-87 0 -162 26
t-131.5 81.5t-87.5 141.5t-31 202q0 109 35 197t97.5 148t147.5 91t182 31zM527 61q28 0 52.5 7t44 20.5t35 40.5t15.5 70v174q-52 46 -128 46q-54 0 -89.5 -24.5t-53 -65.5t-17.5 -97q0 -86 38 -128.5t103 -42.5z" />
    <glyph glyph-name="A" unicode="A" horiz-adv-x="639" 
d="M561 0l-75 199h-333l-76 -199h-77l276 710h86l277 -710h-78zM177 262h285l-143 374z" />
    <glyph glyph-name="B" unicode="B" horiz-adv-x="642" 
d="M468 380q59 -22 95.5 -67.5t36.5 -110.5q0 -202 -247 -202h-256v710h209q128 0 191.5 -46t63.5 -134q0 -54 -25 -92t-68 -58zM299 643h-127v-242h154q78 0 120 27.5t42 89.5t-44.5 93.5t-144.5 31.5zM356 67q169 0 169 138q0 60 -45 95.5t-121 35.5h-187v-269h184z" />
    <glyph glyph-name="C" unicode="C" horiz-adv-x="672" 
d="M393 -12q-76 0 -140 24t-109 70.5t-69 114.5t-24 153q0 88 23 158t65.5 117t101 71t128.5 24q49 0 98 -11t91.5 -41t62 -75.5t19.5 -92.5l-75 -9q-5 162 -195 162q-52 0 -96.5 -18.5t-77 -56t-50 -95t-17.5 -131.5q0 -69 19 -125t54.5 -94t86.5 -57.5t112 -19.5
q121 0 216 65l17 -69q-34 -25 -94 -44.5t-147 -19.5z" />
    <glyph glyph-name="D" unicode="D" horiz-adv-x="727" 
d="M304 710q87 0 157.5 -26t117.5 -73t71.5 -113t24.5 -144t-24.5 -143.5t-72 -112.5t-117 -72.5t-156.5 -25.5h-208v710h207zM306 68q72 0 128 21t92.5 59t54.5 91t18 115t-18 115t-54.5 91.5t-92.5 60t-128 21.5h-134v-574h134z" />
    <glyph glyph-name="E" unicode="E" horiz-adv-x="579" 
d="M539 643h-367v-254h336v-65h-336v-257h367v-67h-442v710h442v-67z" />
    <glyph glyph-name="F" unicode="F" horiz-adv-x="548" 
d="M518 647l-346 -2v-256h316v-65h-316v-324h-75v710h421v-63z" />
    <glyph glyph-name="G" unicode="G" horiz-adv-x="784" 
d="M418 373h289v-92q0 -56 -15 -110t-51 -94.5t-94 -64.5t-140 -24q-79 0 -142.5 25t-107.5 72t-67 116.5t-23 154.5q0 88 24.5 157t69.5 114.5t108.5 69t140.5 23.5q116 0 188 -52t84 -145l-76 -13q-8 66 -60.5 104.5t-137.5 38.5q-60 0 -109.5 -19.5t-83.5 -57.5
t-52 -94.5t-18 -127.5q0 -143 69.5 -221t195.5 -78q76 0 125.5 25.5t75.5 74.5t26 125v32h-219v61z" />
    <glyph glyph-name="H" unicode="H" horiz-adv-x="751" 
d="M578 710h76v-710h-76v312h-406v-312h-75v710h75v-328h406v328z" />
    <glyph glyph-name="I" unicode="I" horiz-adv-x="329" 
d="M281 643h-79v-576h79v-67h-234v67h79v576h-79v67h234v-67z" />
    <glyph glyph-name="J" unicode="J" horiz-adv-x="439" 
d="M155 -12q-85 0 -146 28l7 67q69 -28 135 -28q68 0 98 30.5t30 103.5v521h76v-525q0 -105 -51 -151t-149 -46z" />
    <glyph glyph-name="K" unicode="K" horiz-adv-x="599" 
d="M332 352l276 -352h-90l-243 312h-103v-312h-75v710h75v-328h103l240 328h89z" />
    <glyph glyph-name="L" unicode="L" horiz-adv-x="541" 
d="M172 70h361v-70h-436v710h75v-640z" />
    <glyph glyph-name="M" unicode="M" horiz-adv-x="890" 
d="M808 0h-75l-16 604l-237 -510h-68l-239 513l-15 -607h-76l18 710h102l245 -525l245 525h99z" />
    <glyph glyph-name="N" unicode="N" horiz-adv-x="758" 
d="M587 710h74v-710h-69l-421 587v-587h-74v710h76l414 -582v582z" />
    <glyph glyph-name="O" unicode="O" horiz-adv-x="771" 
d="M385 -12q-77 0 -139.5 23.5t-105.5 70t-66 115.5t-23 157t23 157t66 115.5t105.5 70t139.5 23.5t139.5 -23.5t105.5 -70t66 -115.5t23 -157t-23 -157t-66 -115.5t-105.5 -70t-139.5 -23.5zM385 56q122 0 189.5 78t67.5 220t-67.5 220t-189.5 78q-121 0 -189 -78t-68 -221
q0 -141 68 -219t189 -78z" />
    <glyph glyph-name="P" unicode="P" horiz-adv-x="598" 
d="M297 710q129 0 197 -57.5t68 -166.5q0 -106 -69.5 -163.5t-197.5 -57.5h-123v-265h-75v710h200zM296 330q99 0 145.5 38t46.5 118q0 81 -46 119t-145 38h-125v-313h124z" />
    <glyph glyph-name="Q" unicode="Q" horiz-adv-x="764" 
d="M659 -115q39 0 66 9l-5 -65q-38 -9 -77 -9q-44 0 -74.5 14t-54.5 40.5t-51 72.5l-26 44q-25 -3 -52 -3q-77 0 -139.5 23.5t-105.5 70t-66 115.5t-23 157t23 157t66 115.5t105.5 70t139.5 23.5t139.5 -23.5t105.5 -70t66 -115.5t23 -157q0 -138 -54 -226.5t-155 -121.5
l18 -30q31 -53 59 -72t72 -19zM128 353q0 -141 68 -219t189 -78q122 0 189.5 78t67.5 220t-67.5 220t-189.5 78q-121 0 -189 -78t-68 -221z" />
    <glyph glyph-name="R" unicode="R" horiz-adv-x="630" 
d="M501 0l-181 292h-148v-292h-75v710h217q132 0 199.5 -53.5t67.5 -155.5q0 -89 -48.5 -141t-134.5 -64l188 -296h-85zM172 642v-285h158q50 0 92 14t63 47.5t21 79.5q0 71 -47.5 107.5t-149.5 36.5h-137z" />
    <glyph glyph-name="S" unicode="S" horiz-adv-x="574" 
d="M285 -12q-140 0 -234 60l10 72q103 -65 222 -65q87 0 134 32.5t47 92.5q0 28 -10 49.5t-28 36t-45.5 26.5t-121 34.5t-131.5 45t-55.5 48.5t-23.5 52.5t-6 49.5q0 96 61.5 147t176.5 51q209 0 230 -161l-72 -14q-16 112 -159 112q-77 0 -119.5 -33t-42.5 -94
q0 -29 11.5 -54.5t43 -46.5t115.5 -40.5t114 -30t54.5 -24.5t42.5 -34.5t28.5 -50t10.5 -66.5q1 -195 -253 -195z" />
    <glyph glyph-name="T" unicode="T" horiz-adv-x="516" 
d="M526 710v-70h-230v-640h-76v640h-230v70h536z" />
    <glyph glyph-name="U" unicode="U" horiz-adv-x="718" 
d="M356 -12q-138 0 -205 69t-67 209v444h75v-444q0 -110 47.5 -160t149.5 -50t152 49.5t50 158.5v446h76v-446q0 -276 -278 -276z" />
    <glyph glyph-name="V" unicode="V" horiz-adv-x="620" 
d="M545 710h84l-277 -710h-84l-277 710h83l236 -621z" />
    <glyph glyph-name="W" unicode="W" horiz-adv-x="922" 
d="M835 710h83l-216 -710h-81l-160 591l-160 -591h-80l-217 710h84l172 -598l162 598h79l161 -598z" />
    <glyph glyph-name="X" unicode="X" horiz-adv-x="566" 
d="M568 710l-238 -348l238 -362h-84l-201 313l-199 -313h-85l239 362l-239 348h85l199 -301l201 301h84z" />
    <glyph glyph-name="Y" unicode="Y" horiz-adv-x="563" 
d="M492 710h82l-255 -420v-290h-75v290l-255 420h83l210 -356z" />
    <glyph glyph-name="Z" unicode="Z" horiz-adv-x="580" 
d="M556 710v-59l-437 -584h432v-67h-527v62l437 581h-422v67h517z" />
    <glyph glyph-name="bracketleft" unicode="[" horiz-adv-x="379" 
d="M321 747h-142v-864h142v-63h-211v990h211v-63z" />
    <glyph glyph-name="backslash" unicode="\" horiz-adv-x="401" 
d="M395 -180h-71l-318 990h71z" />
    <glyph glyph-name="bracketright" unicode="]" horiz-adv-x="379" 
d="M270 810v-990h-212v63h142v864h-142v63h212z" />
    <glyph glyph-name="underscore" unicode="_" horiz-adv-x="468" 
d="M57 -63v63h353v-63h-353z" />
    <glyph glyph-name="a" unicode="a" horiz-adv-x="556" 
d="M428 480h60v-480h-60l-8 69q-25 -37 -66.5 -59t-94.5 -22q-97 0 -154 65t-57 178q0 59 16 107.5t45.5 82t70.5 51.5t89 18q52 0 91 -18.5t61 -50.5zM269 51q67 0 107 38.5t40 97.5v86q0 40 -15.5 76t-47 57t-77.5 21q-73 0 -114.5 -52.5t-41.5 -143.5q0 -87 38.5 -133.5
t110.5 -46.5z" />
    <glyph glyph-name="b" unicode="b" horiz-adv-x="565" 
d="M303 490q99 0 156.5 -65t57.5 -184q0 -57 -15 -103.5t-46.5 -80t-80.5 -51.5t-114 -18q-44 0 -93.5 11t-89.5 40v671h72v-294q23 34 62 54t91 20zM267 51q86 0 131.5 48.5t45.5 141.5q0 88 -39 137t-112 49q-33 0 -66 -13.5t-55 -47t-22 -70.5v-215q44 -30 117 -30z" />
    <glyph glyph-name="c" unicode="c" horiz-adv-x="500" 
d="M285 -12q-112 0 -174.5 63t-62.5 187q0 119 58.5 185.5t168.5 66.5q47 0 82.5 -12.5t58 -35.5t34 -53t12.5 -65l-68 -9q-4 54 -33.5 83t-84.5 29q-74 0 -114 -48.5t-40 -140.5q0 -94 43.5 -140.5t122.5 -46.5q89 0 164 65l17 -65q-68 -63 -184 -63z" />
    <glyph glyph-name="d" unicode="d" horiz-adv-x="560" 
d="M411 710h72v-710h-61l-7 74q-25 -38 -68 -62t-99 -24q-42 0 -79 15.5t-64 46.5t-42 78t-15 105q0 119 62.5 188t165.5 69q80 0 135 -34v254zM261 51q31 0 64.5 13.5t59.5 48.5t26 78v195q-20 17 -53.5 29t-75.5 12q-74 0 -117.5 -51.5t-43.5 -142.5q0 -59 17 -99
t48 -61.5t75 -21.5z" />
    <glyph glyph-name="e" unicode="e" horiz-adv-x="550" 
d="M474 103l14 -65q-23 -19 -72.5 -34.5t-115.5 -15.5q-113 0 -172 65t-59 183q0 55 14.5 102t44 81t75 52.5t103.5 18.5q34 0 67 -7.5t58 -25t40 -44t15 -61.5q0 -45 -22.5 -80t-90 -59t-228.5 -31q21 -131 161 -131q28 0 61.5 6.5t63 20.5t43.5 25zM304 427
q-53 0 -88.5 -22t-54.5 -62.5t-20 -102.5q99 4 156.5 13.5t87 30t29.5 63.5q0 32 -27 56t-83 24z" />
    <glyph glyph-name="f" unicode="f" horiz-adv-x="326" 
d="M251 655q-41 0 -61.5 -20.5t-20.5 -64.5v-90h155v-61h-155v-419h-72v419h-91v61h91v89q0 77 35.5 114t101.5 37q58 0 103 -18l-6 -63q-36 16 -80 16z" />
    <glyph glyph-name="g" unicode="g" horiz-adv-x="556" 
d="M428 480h60v-462q0 -109 -56.5 -158.5t-167.5 -49.5q-36 0 -80.5 6.5t-79.5 23.5l3 68q83 -33 156 -33q75 0 114 31.5t39 103.5v80q-52 -75 -159 -75q-97 0 -153 61t-56 167q0 56 16 102t46 78.5t71 49.5t89 17t87.5 -18t63.5 -51zM269 78q68 0 107.5 38.5t39.5 97.5v57
q0 69 -36.5 112.5t-102.5 43.5q-70 0 -113.5 -49t-43.5 -134q0 -80 39.5 -123t109.5 -43z" />
    <glyph glyph-name="h" unicode="h" horiz-adv-x="574" 
d="M328 490q88 0 133 -48.5t45 -139.5v-302h-72v293q0 132 -125 132q-45 0 -80 -17.5t-57 -50.5t-22 -75v-282h-72v710h72v-309q26 41 71.5 65t106.5 24z" />
    <glyph glyph-name="i" unicode="i" horiz-adv-x="213" 
d="M105 584q-21 0 -36 16t-15 38q0 21 15 37t36 16q22 0 37 -15.5t15 -37.5t-15 -38t-37 -16zM69 0v480h72v-480h-72z" />
    <glyph glyph-name="j" unicode="j" horiz-adv-x="234" 
d="M117 584q-21 0 -36 16t-15 38q0 21 15 37t36 16q22 0 37 -15.5t15 -37.5t-15 -38t-37 -16zM42 -190q-39 0 -66 12l3 63q28 -10 50 -10q27 0 39.5 12.5t12.5 42.5v550h72v-556q0 -62 -28.5 -88t-82.5 -26z" />
    <glyph glyph-name="k" unicode="k" horiz-adv-x="536" 
d="M470 348q0 -118 -126 -157l126 -191h-79l-113 175q-54 -7 -126 -9v-166h-72v710h72v-306q25 40 66.5 63t94.5 23q38 0 75 -13.5t59.5 -48t22.5 -80.5zM152 270v-43q132 2 189 29t57 80q0 29 -12.5 50.5t-35.5 31t-50 9.5q-63 0 -105.5 -44t-42.5 -113z" />
    <glyph glyph-name="l" unicode="l" horiz-adv-x="227" 
d="M78 0v710h72v-710h-72z" />
    <glyph glyph-name="m" unicode="m" horiz-adv-x="856" 
d="M626 490q79 0 121 -48.5t42 -142.5v-299h-72v288q0 63 -26.5 100t-82.5 37q-24 0 -48.5 -8t-47 -27.5t-33.5 -47.5t-11 -51v-291h-71v293q0 63 -27.5 97.5t-80.5 34.5q-32 0 -64 -14.5t-53.5 -49t-21.5 -71.5v-290h-72v480h56l10 -82q23 41 65 66.5t99 25.5
q55 0 93.5 -26t54.5 -74q16 33 44.5 57t62.5 33.5t63 9.5z" />
    <glyph glyph-name="n" unicode="n" horiz-adv-x="574" 
d="M325 490q91 0 136 -49t45 -140v-301h-72v292q0 66 -31 99.5t-100 33.5q-40 0 -74.5 -18.5t-56.5 -52.5t-22 -72v-282h-72v480h56l15 -81q27 41 72 66t104 25z" />
    <glyph glyph-name="o" unicode="o" horiz-adv-x="568" 
d="M284 -12q-109 0 -172.5 63.5t-63.5 186.5q0 125 63 188.5t173 63.5q53 0 96.5 -15.5t75 -47t48 -79.5t16.5 -110q0 -123 -63.5 -186.5t-172.5 -63.5zM284 51q76 0 119 48t43 139t-43 140t-119 49t-119 -49t-43 -140t43 -139t119 -48z" />
    <glyph glyph-name="p" unicode="p" horiz-adv-x="565" 
d="M304 490q101 0 157 -62t56 -183q0 -123 -64 -190t-184 -67q-66 0 -119 23v-191h-72v660h60l9 -71q23 37 63 59t94 22zM267 51q83 0 130 47.5t47 143.5q0 92 -39.5 138.5t-111.5 46.5q-31 0 -64 -13.5t-56 -47.5t-23 -72v-215q56 -28 117 -28z" />
    <glyph glyph-name="q" unicode="q" horiz-adv-x="554" 
d="M290 490q47 0 100.5 -12t94.5 -41v-617h-72v245q-26 -35 -68 -56t-96 -21q-43 0 -80 15t-64 45t-42 76.5t-15 105.5q0 122 65 191t177 69zM265 51q33 0 67 14t57.5 48.5t23.5 69.5v220q-52 24 -122 24q-77 0 -123.5 -50t-46.5 -145q0 -91 39.5 -136t104.5 -45z" />
    <glyph glyph-name="r" unicode="r" horiz-adv-x="319" 
d="M267 490q24 0 43 -7l-5 -71q-12 4 -37 4q-19 0 -39.5 -9.5t-39.5 -33.5t-29 -58t-10 -62v-253h-72v480h63l5 -92q21 46 52.5 74t68.5 28z" />
    <glyph glyph-name="s" unicode="s" horiz-adv-x="462" 
d="M228 -12q-114 0 -187 47l9 64q80 -50 175 -50q64 0 98 19.5t34 54.5q0 9 -2.5 19t-11.5 20.5t-28.5 21t-103 29t-112.5 38.5t-41.5 43.5t-12.5 57.5q0 22 7 45t26.5 43.5t55 35t91.5 14.5q35 0 69.5 -7t60.5 -23t42.5 -40.5t18.5 -54.5l-70 -11q-12 75 -120 75
q-55 0 -83 -19.5t-28 -53.5q0 -30 19 -47t45.5 -25t86.5 -20t92.5 -26.5t51.5 -40.5t19 -67q0 -40 -20 -73.5t-68 -51t-113 -17.5z" />
    <glyph glyph-name="t" unicode="t" horiz-adv-x="323" 
d="M319 419h-152v-300q0 -38 16 -53t46 -15q12 0 28 2.5t45 13.5l6 -63q-45 -16 -97 -16q-67 0 -91.5 32.5t-24.5 97.5v301h-89v61h89v140h72v-140h152v-61z" />
    <glyph glyph-name="u" unicode="u" horiz-adv-x="557" 
d="M412 480h72v-480h-62l-7 84q-27 -46 -71.5 -71t-102.5 -25q-90 0 -129.5 43t-39.5 150v299h72v-288q0 -77 26 -108t91 -31q37 0 66 13.5t48 37t28 53.5t9 59v264z" />
    <glyph glyph-name="v" unicode="v" horiz-adv-x="459" 
d="M388 480h74l-201 -480h-63l-202 480h74l159 -393z" />
    <glyph glyph-name="w" unicode="w" horiz-adv-x="697" 
d="M622 480h74l-166 -480h-63l-119 387l-118 -387h-63l-166 480h74l125 -387l114 387h68l115 -392z" />
    <glyph glyph-name="x" unicode="x" horiz-adv-x="444" 
d="M439 0h-79l-138 200l-138 -200h-78l169 240l-170 240h80l137 -199l138 199h79l-169 -239z" />
    <glyph glyph-name="y" unicode="y" horiz-adv-x="557" 
d="M411 480h72v-460q0 -109 -56 -159.5t-165 -50.5q-100 0 -162 30l3 67q68 -32 157 -32q45 0 80.5 13t53 45t17.5 78v89q-28 -44 -73.5 -68.5t-102.5 -24.5q-30 0 -58.5 6.5t-51.5 25t-38 56t-15 104.5v281h72v-273q0 -74 26 -104.5t87 -30.5q44 0 81 23t55 62.5t18 77.5
v245z" />
    <glyph glyph-name="z" unicode="z" horiz-adv-x="499" 
d="M162 215q59 -3 115.5 -15.5t97.5 -37.5t65 -64t24 -94q0 -86 -59 -140t-161 -54q-91 0 -146.5 43t-55.5 119q0 110 126 181l-81 2l-14 61l267 204h-296v60h389l6 -60zM250 -127q66 0 105 35t39 98q0 53 -33 87t-112 50q-77 -34 -107.5 -72.5t-30.5 -81.5q0 -20 7 -40.5
t25.5 -39t48.5 -27.5t58 -9z" />
    <glyph glyph-name="braceleft" unicode="{" horiz-adv-x="429" 
d="M290 750q-74 0 -74 -66q0 -37 28 -114.5t33 -105t5 -43.5q0 -38 -17 -64t-54 -42q37 -16 54 -42t17 -64q0 -44 -28.5 -121.5t-33 -102.5t-4.5 -39q0 -66 74 -66h82v-60h-105q-58 0 -87.5 30t-29.5 84q0 46 29 124.5t34 104t5 40.5q0 36 -21 59t-59 23h-28v60h28
q38 0 59 23t21 59q0 39 -29 117t-34 107t-5 45q0 54 29.5 84t87.5 30h105v-60h-82z" />
    <glyph glyph-name="bar" unicode="|" horiz-adv-x="291" 
d="M110 -180v990h72v-990h-72z" />
    <glyph glyph-name="braceright" unicode="}" horiz-adv-x="430" 
d="M292 345h28v-60h-28q-37 0 -58 -22.5t-21 -59.5q0 -39 29 -117t34 -107t5 -45q0 -54 -30 -84t-88 -30h-105v60h83q73 0 73 66q0 37 -28 114.5t-33 105t-5 43.5q0 38 17 64t54 42q-37 16 -54 42t-17 64q0 44 28.5 121.5t33 102.5t4.5 39q0 66 -73 66h-83v60h105
q58 0 88 -30t30 -84q0 -46 -29 -124.5t-34 -104t-5 -40.5q0 -37 21 -59.5t58 -22.5z" />
    <glyph glyph-name="asciitilde" unicode="~" horiz-adv-x="567" 
d="M141 249l-50 8q5 48 29 76t66 28q35 0 100 -15t92 -15q22 0 33 12t15 42l50 -8q-4 -48 -28.5 -76t-66.5 -28q-35 0 -100 15t-91 15q-41 0 -49 -54z" />
    <glyph glyph-name="exclamdown" unicode="&#xa1;" horiz-adv-x="231" 
d="M114 385q-24 0 -40.5 18t-16.5 44t16.5 44t40.5 18q25 0 41.5 -18t16.5 -44t-16.5 -44t-41.5 -18zM75 -180l6 467h68l7 -467h-81z" />
    <glyph glyph-name="cent" unicode="&#xa2;" horiz-adv-x="558" 
d="M490 167q-65 -58 -173 -63l-3 -104h-59l3 107q-90 12 -140.5 76t-50.5 178q0 107 53 177t149 79l2 103h59l-2 -104q38 -4 67 -18t48.5 -36.5t29 -51.5t10.5 -58l-68 -9q-3 45 -25.5 73.5t-62.5 35.5l-9 -384q85 4 155 64zM141 362q0 -51 12.5 -89t38.5 -64.5t67 -36.5
l9 381q-60 -10 -93.5 -60t-33.5 -131z" />
    <glyph glyph-name="sterling" unicode="&#xa3;" horiz-adv-x="574" 
d="M215 274v-207h286v-67h-434v67h73v207h-73v67h73v170q0 70 26.5 116.5t72 69.5t109.5 23q94 0 158 -44l-19 -67q-40 25 -72.5 34t-64.5 9q-64 0 -99.5 -38t-35.5 -117v-156h204v-67h-204z" />
    <glyph glyph-name="currency" unicode="&#xa4;" horiz-adv-x="696" 
d="M580 358q0 -96 -52 -159l100 -112l-39 -38l-102 112q-58 -42 -140 -42q-78 0 -139 42l-102 -112l-39 38l101 112q-52 63 -52 159q0 98 52 161l-101 112l39 38l102 -112q61 42 139 42q79 0 140 -42l102 112l39 -38l-101 -112q53 -66 53 -161zM183 358q0 -82 45.5 -129
t118.5 -47q74 0 119.5 46.5t45.5 129.5q0 85 -45.5 131.5t-119.5 46.5q-73 0 -118.5 -47t-45.5 -131z" />
    <glyph glyph-name="yen" unicode="&#xa5;" horiz-adv-x="692" 
d="M602 710l-218 -371h172v-56h-172v-74h172v-56h-172v-153h-75v153h-172v56h172v74h-172v56h172l-218 371h77l178 -312l179 312h77z" />
    <glyph glyph-name="brokenbar" unicode="&#xa6;" horiz-adv-x="291" 
d="M110 410v400h72v-400h-72zM110 -180v400h72v-400h-72z" />
    <glyph glyph-name="section" unicode="&#xa7;" horiz-adv-x="632" 
d="M413 127q54 -19 86 -52.5t32 -89.5q0 -77 -54.5 -117t-156.5 -40q-56 0 -113.5 15.5t-100.5 46.5l8 71q23 -17 58.5 -34t75 -24.5t71.5 -7.5q72 0 106.5 24.5t34.5 70.5q0 31 -26 54.5t-119 48t-128.5 42.5t-56.5 41t-27 48t-6 43q0 53 32 90t84 57q-112 47 -112 154
q0 37 13 68.5t40 54.5t68.5 36t96.5 13q187 0 211 -148l-69 -14q-10 52 -44 76.5t-97 24.5q-69 0 -108 -27t-39 -82q0 -23 10 -44.5t37.5 -41.5t122.5 -49t126 -51.5t43.5 -45.5t14.5 -41.5t2 -25.5q0 -40 -19.5 -70.5t-46.5 -47.5t-50 -26zM168 273q0 -28 13.5 -48.5
t42.5 -36.5t110 -38q43 13 71.5 29.5t41 39t12.5 47.5q0 28 -14 48.5t-41.5 35t-115.5 39.5q-38 -8 -66.5 -24.5t-41 -40.5t-12.5 -51z" />
    <glyph glyph-name="copyright" unicode="&#xa9;" horiz-adv-x="1055" 
d="M528 -145q-137 0 -244 61t-162 169t-55 243q0 108 34 197t96.5 150.5t147.5 93.5t183 32q124 0 229 -53t168 -162t63 -258q0 -135 -55 -243t-162 -169t-243 -61zM528 -83q85 0 158 27.5t126 80.5t82 130.5t29 172.5t-29 172.5t-82 130.5t-126 80.5t-158 27.5
q-41 0 -92 -9t-102 -34t-90.5 -64.5t-65.5 -92.5t-35.5 -109t-9.5 -102t9.5 -102t35.5 -109t65.5 -92.5t90.5 -64.5t102 -34t92 -9zM514 77q-112 0 -174.5 63t-62.5 187q0 119 59 185.5t169 66.5q35 0 64 -7.5t50.5 -21t36.5 -31.5t24.5 -44.5t11.5 -61.5l-69 -9
q-4 54 -33.5 83t-84.5 29q-74 0 -114 -48.5t-40 -140.5q0 -94 43.5 -140.5t122.5 -46.5q89 0 164 65l17 -65q-68 -63 -184 -63z" />
    <glyph glyph-name="ordfeminine" unicode="&#xaa;" horiz-adv-x="425" 
d="M205 720q69 0 104.5 -33.5t35.5 -97.5v-216h-45l-6 61q-20 -31 -52.5 -48t-75.5 -17q-50 0 -79.5 27.5t-29.5 72.5q0 22 11 47.5t44.5 42t86.5 16.5q45 0 91 -11v26q0 39 -22 61t-63 22q-75 0 -86 -62l-53 10q19 99 139 99zM181 413q45 0 77 30t32 71v13q-42 10 -84 10
q-48 0 -71 -17.5t-23 -47.5q0 -29 18 -44t51 -15z" />
    <glyph glyph-name="guillemotleft" unicode="&#xab;" horiz-adv-x="477" 
d="M400 419l-135 -135l135 -125l-39 -40l-165 158v12l166 170zM245 419l-135 -135l135 -125l-39 -40l-164 158v12l165 170z" />
    <glyph glyph-name="registered" unicode="&#xae;" horiz-adv-x="563" 
d="M282 728q91 0 148 -55t57 -149t-57 -149t-148 -55t-148.5 55t-57.5 149t57.5 149t148.5 55zM282 348q57 0 96 23t59 61t20 92t-20 92t-59 61t-96 23t-96 -23t-59 -61t-20 -92t20 -92t59 -61t96 -23zM376 570q0 -54 -52 -67l53 -92h-44l-48 88h-39v-88h-42v231h84
q42 0 65 -18t23 -54zM246 607v-74h39q49 0 49 37t-49 37h-39z" />
    <glyph glyph-name="degree" unicode="&#xb0;" horiz-adv-x="401" 
d="M201 477q-26 0 -55 11.5t-49 41t-20 68.5q0 25 11.5 53.5t42 48t70.5 19.5q39 0 69.5 -19.5t42 -48t11.5 -53.5t-11.5 -53.5t-42 -48t-69.5 -19.5zM201 525q32 0 52 20.5t20 52.5t-20 52.5t-52 20.5t-52.5 -20.5t-20.5 -52.5t20.5 -52.5t52.5 -20.5z" />
    <glyph glyph-name="plusminus" unicode="&#xb1;" horiz-adv-x="576" 
d="M243 132v162h-152v63h152v163h68v-163h153v-63h-153v-162h-68zM91 63h395v-63h-395v63z" />
    <glyph glyph-name="paragraph" unicode="&#xb6;" horiz-adv-x="575" 
d="M305 315q-104 0 -161 51t-57 146q0 96 57 147t161 51h39v-395h-39zM402 -100v810h76v-810h-76z" />
    <glyph glyph-name="periodcentered" unicode="&#xb7;" horiz-adv-x="229" 
d="M114 242q-24 0 -40.5 18t-16.5 44t16.5 44t40.5 18q25 0 41.5 -18t16.5 -44t-16.5 -44t-41.5 -18z" />
    <glyph glyph-name="ordmasculine" unicode="&#xba;" horiz-adv-x="446" 
d="M224 369q-75 0 -120.5 46t-45.5 129t45.5 129.5t120.5 46.5t120.5 -46.5t45.5 -129.5t-45.5 -129t-120.5 -46zM224 422q50 0 78.5 32t28.5 90q0 28 -9.5 57t-35 47.5t-62.5 18.5q-49 0 -77 -32.5t-28 -90.5t28 -90t77 -32z" />
    <glyph glyph-name="guillemotright" unicode="&#xbb;" horiz-adv-x="477" 
d="M245 289v-12l-165 -158l-39 40l135 125l-135 135l38 40zM234 459l166 -170v-12l-165 -158l-39 40l135 125l-135 135z" />
    <glyph glyph-name="onequarter" unicode="&#xbc;" horiz-adv-x="890" 
d="M694 720l67 -4l-511 -728l-67 4zM129 383h90v273q-11 -7 -45.5 -20.5t-77.5 -26.5l-10 52q31 9 70 24.5t63 30.5h58v-333h69v-49h-217v49zM757 158h67v-49h-67v-109h-56v109h-180l-12 45l194 228h54v-224zM567 158h134v151z" />
    <glyph glyph-name="onehalf" unicode="&#xbd;" horiz-adv-x="921" 
d="M694 720l67 -4l-511 -728l-67 4zM129 383h90v273q-11 -7 -45.5 -20.5t-77.5 -26.5l-10 52q31 9 70 24.5t63 30.5h58v-333h69v-49h-217v49zM635 50h219v-50h-279v35q0 28 13 50.5t35 39.5t72 44t64 39.5t22 25t8 29.5q0 36 -21 54.5t-62 18.5q-33 0 -51.5 -12t-25.5 -38
l-56 10q23 92 135 92q140 0 140 -123q0 -33 -17 -58.5t-41 -42.5t-86 -49.5t-69 -64.5z" />
    <glyph glyph-name="threequarters" unicode="&#xbe;" horiz-adv-x="878" 
d="M355 439q0 -49 -37 -81t-102 -32q-104 0 -130 77l49 17q13 -44 81 -44q38 0 62 17t24 49q0 33 -24 50.5t-64 17.5h-34v43h34q31 0 52.5 16.5t21.5 43.5q0 26 -18 42t-55 16q-64 0 -76 -45l-50 12q9 40 42 61t84 21q60 0 93 -27.5t33 -74.5q0 -29 -16.5 -51t-45.5 -33
q76 -24 76 -95zM686 720l67 -4l-510 -728l-67 4zM745 158h67v-49h-67v-109h-55v109h-181l-13 45l195 228h54v-224zM554 158h136v151z" />
    <glyph glyph-name="questiondown" unicode="&#xbf;" horiz-adv-x="508" 
d="M283 385q-24 0 -40.5 18t-16.5 44t16.5 44t40.5 18t40.5 -18t16.5 -44t-16.5 -44t-40.5 -18zM278 -190q-88 0 -137.5 44.5t-49.5 127.5q0 24 5.5 51t19.5 53t33 46.5t37.5 36t38.5 29.5t23 17l6 78h62l7 -100q-90 -58 -117 -90.5t-36 -60t-9 -53.5q0 -40 18 -68.5
t46.5 -39t55.5 -10.5q51 0 80 21t43 59l53 -21q-14 -44 -43 -72.5t-66 -38t-70 -9.5z" />
    <glyph glyph-name="Agrave" unicode="&#xc0;" horiz-adv-x="639" 
d="M354 742l-66 -4l-82 104l78 11zM561 0l-75 199h-333l-76 -199h-77l276 710h86l277 -710h-78zM177 262h285l-143 374z" />
    <glyph glyph-name="Aacute" unicode="&#xc1;" horiz-adv-x="639" 
d="M431 842l-82 -104l-66 4l70 111zM561 0l-75 199h-333l-76 -199h-77l276 710h86l277 -710h-78zM177 262h285l-143 374z" />
    <glyph glyph-name="Acircumflex" unicode="&#xc2;" horiz-adv-x="639" 
d="M321 814l-69 -74l-63 9l99 103h66l99 -103l-63 -9zM561 0l-75 199h-333l-76 -199h-77l276 710h86l277 -710h-78zM177 262h285l-143 374z" />
    <glyph glyph-name="Atilde" unicode="&#xc3;" horiz-adv-x="639" 
d="M270 779q-32 0 -35 -43l-45 5q6 91 73 91q22 0 58.5 -11.5t50.5 -11.5q32 0 35 44l46 -6q-3 -45 -20.5 -67.5t-53.5 -22.5q-22 0 -58 11t-51 11zM561 0l-75 199h-333l-76 -199h-77l276 710h86l277 -710h-78zM177 262h285l-143 374z" />
    <glyph glyph-name="Adieresis" unicode="&#xc4;" horiz-adv-x="639" 
d="M238 745q-19 0 -32 13t-13 32t13 32t32 13t31.5 -13t12.5 -32t-12.5 -32t-31.5 -13zM403 745q-19 0 -32 13t-13 32t13 32t32 13t32 -13t13 -32t-13 -32t-32 -13zM561 0l-75 199h-333l-76 -199h-77l276 710h86l277 -710h-78zM177 262h285l-143 374z" />
    <glyph glyph-name="Aring" unicode="&#xc5;" horiz-adv-x="639" 
d="M321 729q-37 0 -58 20.5t-21 54.5t21.5 54.5t57.5 20.5t57.5 -21t21.5 -54q0 -34 -21.5 -54.5t-57.5 -20.5zM321 846q-19 0 -31 -11t-12 -31t12 -31t31 -11t30.5 11t11.5 31t-11.5 31t-30.5 11zM561 0l-75 199h-333l-76 -199h-77l276 710h86l277 -710h-78zM177 262h285
l-143 374z" />
    <glyph glyph-name="AE" unicode="&#xc6;" horiz-adv-x="956" 
d="M899 643h-321v-254h295v-65h-295v-257h315v-67h-390v324h-253l-148 -324h-78l332 710h549zM280 389h223v254h-106z" />
    <glyph glyph-name="Ccedilla" unicode="&#xc7;" horiz-adv-x="672" 
d="M393 -12h-5l-4 -22q38 0 59.5 -16t21.5 -48q0 -49 -36 -71.5t-116 -22.5l6 49q46 0 68.5 10t22.5 33q0 18 -18 25.5t-60 7.5l11 58q-66 7 -120 34.5t-87.5 67t-52.5 84t-25.5 90.5t-6.5 83q0 88 23 158t65.5 117t101 71t128.5 24q49 0 98 -11t91.5 -41t62 -75.5
t19.5 -92.5l-75 -9q-5 162 -195 162q-52 0 -96.5 -18.5t-77 -56t-50 -95t-17.5 -131.5q0 -69 19 -125t54.5 -94t86.5 -57.5t112 -19.5q121 0 216 65l17 -69q-34 -25 -94 -44.5t-147 -19.5z" />
    <glyph glyph-name="Egrave" unicode="&#xc8;" horiz-adv-x="579" 
d="M354 742l-66 -4l-82 104l78 11zM539 643h-367v-254h336v-65h-336v-257h367v-67h-442v710h442v-67z" />
    <glyph glyph-name="Eacute" unicode="&#xc9;" horiz-adv-x="579" 
d="M430 842l-82 -104l-66 4l70 111zM539 643h-367v-254h336v-65h-336v-257h367v-67h-442v710h442v-67z" />
    <glyph glyph-name="Ecircumflex" unicode="&#xca;" horiz-adv-x="579" 
d="M320 814l-69 -74l-63 9l99 103h66l99 -103l-63 -9zM539 643h-367v-254h336v-65h-336v-257h367v-67h-442v710h442v-67z" />
    <glyph glyph-name="Edieresis" unicode="&#xcb;" horiz-adv-x="579" 
d="M237 745q-19 0 -32 13t-13 32t13 32t32 13t31.5 -13t12.5 -32t-12.5 -32t-31.5 -13zM402 745q-19 0 -32 13t-13 32t13 32t32 13t32 -13t13 -32t-13 -32t-32 -13zM539 643h-367v-254h336v-65h-336v-257h367v-67h-442v710h442v-67z" />
    <glyph glyph-name="Igrave" unicode="&#xcc;" horiz-adv-x="329" 
d="M199 742l-66 -4l-82 104l78 11zM281 643h-79v-576h79v-67h-234v67h79v576h-79v67h234v-67z" />
    <glyph glyph-name="Iacute" unicode="&#xcd;" horiz-adv-x="329" 
d="M276 842l-82 -104l-66 4l70 111zM281 643h-79v-576h79v-67h-234v67h79v576h-79v67h234v-67z" />
    <glyph glyph-name="Icircumflex" unicode="&#xce;" horiz-adv-x="329" 
d="M165 814l-69 -74l-63 9l99 103h66l99 -103l-63 -9zM281 710v-67h-79v-576h79v-67h-234v67h79v576h-79v67h234z" />
    <glyph glyph-name="Idieresis" unicode="&#xcf;" horiz-adv-x="329" 
d="M83 745q-19 0 -32 13t-13 32t13 32t32 13t31.5 -13t12.5 -32t-12.5 -32t-31.5 -13zM248 745q-19 0 -32 13t-13 32t13 32t32 13t32 -13t13 -32t-13 -32t-32 -13zM281 710v-67h-79v-576h79v-67h-234v67h79v576h-79v67h234z" />
    <glyph glyph-name="Eth" unicode="&#xd0;" horiz-adv-x="743" 
d="M304 710q87 0 157.5 -26t117.5 -73t71.5 -113t24.5 -144t-24.5 -143.5t-72 -112.5t-117 -72.5t-156.5 -25.5h-208v318h-83v64h83v328h207zM306 68q72 0 128 21t92.5 59t54.5 91t18 115t-18 115t-54.5 91.5t-92.5 60t-128 21.5h-134v-260h127v-64h-127v-250h134z" />
    <glyph glyph-name="Ntilde" unicode="&#xd1;" horiz-adv-x="758" 
d="M338 779q-32 0 -35 -43l-45 5q6 91 73 91q22 0 58.5 -11.5t50.5 -11.5q32 0 35 44l46 -6q-3 -45 -20.5 -67.5t-53.5 -22.5q-22 0 -58 11t-51 11zM587 710h74v-710h-69l-421 587v-587h-74v710h76l414 -582v582z" />
    <glyph glyph-name="Ograve" unicode="&#xd2;" horiz-adv-x="771" 
d="M418 742l-66 -4l-82 104l78 11zM385 -12q-77 0 -139.5 23.5t-105.5 70t-66 115.5t-23 157t23 157t66 115.5t105.5 70t139.5 23.5t139.5 -23.5t105.5 -70t66 -115.5t23 -157t-23 -157t-66 -115.5t-105.5 -70t-139.5 -23.5zM385 56q122 0 189.5 78t67.5 220t-67.5 220
t-189.5 78q-121 0 -189 -78t-68 -221q0 -141 68 -219t189 -78z" />
    <glyph glyph-name="Oacute" unicode="&#xd3;" horiz-adv-x="771" 
d="M347 742l70 111l78 -11l-82 -104zM385 -12q-77 0 -139.5 23.5t-105.5 70t-66 115.5t-23 157t23 157t66 115.5t105.5 70t139.5 23.5t139.5 -23.5t105.5 -70t66 -115.5t23 -157t-23 -157t-66 -115.5t-105.5 -70t-139.5 -23.5zM385 56q122 0 189.5 78t67.5 220t-67.5 220
t-189.5 78q-121 0 -189 -78t-68 -221q0 -141 68 -219t189 -78z" />
    <glyph glyph-name="Ocircumflex" unicode="&#xd4;" horiz-adv-x="771" 
d="M385 814l-69 -74l-63 9l99 103h66l99 -103l-63 -9zM385 720q77 0 139.5 -23.5t105.5 -70t66 -115.5t23 -157t-23 -157t-66 -115.5t-105.5 -70t-139.5 -23.5t-139.5 23.5t-105.5 70t-66 115.5t-23 157t23 157t66 115.5t105.5 70t139.5 23.5zM385 56q122 0 189.5 78
t67.5 220t-67.5 220t-189.5 78q-121 0 -189 -78t-68 -221q0 -141 68 -219t189 -78z" />
    <glyph glyph-name="Otilde" unicode="&#xd5;" horiz-adv-x="771" 
d="M298 736l-45 5q6 91 73 91q22 0 58.5 -11.5t50.5 -11.5q32 0 35 44l46 -6q-3 -45 -20.5 -67.5t-53.5 -22.5q-22 0 -58 11t-51 11q-32 0 -35 -43zM385 -12q-77 0 -139.5 23.5t-105.5 70t-66 115.5t-23 157t23 157t66 115.5t105.5 70t139.5 23.5t139.5 -23.5t105.5 -70
t66 -115.5t23 -157t-23 -157t-66 -115.5t-105.5 -70t-139.5 -23.5zM385 56q122 0 189.5 78t67.5 220t-67.5 220t-189.5 78q-121 0 -189 -78t-68 -221q0 -141 68 -219t189 -78z" />
    <glyph glyph-name="Odieresis" unicode="&#xd6;" horiz-adv-x="771" 
d="M302 745q-19 0 -32 13t-13 32t13 32t32 13t31.5 -13t12.5 -32t-12.5 -32t-31.5 -13zM467 745q-19 0 -32 13t-13 32t13 32t32 13t32 -13t13 -32t-13 -32t-32 -13zM385 -12q-77 0 -139.5 23.5t-105.5 70t-66 115.5t-23 157t23 157t66 115.5t105.5 70t139.5 23.5
t139.5 -23.5t105.5 -70t66 -115.5t23 -157t-23 -157t-66 -115.5t-105.5 -70t-139.5 -23.5zM385 56q122 0 189.5 78t67.5 220t-67.5 220t-189.5 78q-121 0 -189 -78t-68 -221q0 -141 68 -219t189 -78z" />
    <glyph glyph-name="multiply" unicode="&#xd7;" horiz-adv-x="532" 
d="M442 452l-134 -135l134 -135l-41 -43l-135 136l-135 -136l-40 43l134 135l-134 135l40 43l135 -136l135 136z" />
    <glyph glyph-name="Oslash" unicode="&#xd8;" horiz-adv-x="804" 
d="M630 627q43 -45 66 -115t23 -158t-23 -157t-66 -115.5t-105.5 -70t-139.5 -23.5q-102 0 -174 39l-39 -56l-67 8l57 81q-53 46 -82 121t-29 173q0 88 23 157t66 115.5t105.5 70t139.5 23.5q121 0 200 -55l58 84l66 -8zM128 353q0 -75 20 -134t58 -96l336 481
q-63 48 -157 48q-121 0 -189 -78t-68 -221zM385 56q122 0 189.5 78t67.5 220q0 132 -58 208l-331 -475q26 -14 61.5 -22.5t70.5 -8.5z" />
    <glyph glyph-name="Ugrave" unicode="&#xd9;" horiz-adv-x="718" 
d="M393 742l-66 -4l-82 104l78 11zM356 -12q-138 0 -205 69t-67 209v444h75v-444q0 -110 47.5 -160t149.5 -50t152 49.5t50 158.5v446h76v-446q0 -276 -278 -276z" />
    <glyph glyph-name="Uacute" unicode="&#xda;" horiz-adv-x="718" 
d="M322 742l70 111l78 -11l-82 -104zM356 -12q-138 0 -205 69t-67 209v444h75v-444q0 -110 47.5 -160t149.5 -50t152 49.5t50 158.5v446h76v-446q0 -276 -278 -276z" />
    <glyph glyph-name="Ucircumflex" unicode="&#xdb;" horiz-adv-x="718" 
d="M359 814l-69 -74l-63 9l99 103h66l99 -103l-63 -9zM558 710h76v-446q0 -276 -278 -276q-138 0 -205 69t-67 209v444h75v-444q0 -110 47.5 -160t149.5 -50t152 49.5t50 158.5v446z" />
    <glyph glyph-name="Udieresis" unicode="&#xdc;" horiz-adv-x="718" 
d="M277 745q-19 0 -32 13t-13 32t13 32t32 13t31.5 -13t12.5 -32t-12.5 -32t-31.5 -13zM442 745q-19 0 -32 13t-13 32t13 32t32 13t32 -13t13 -32t-13 -32t-32 -13zM356 -12q-138 0 -205 69t-67 209v444h75v-444q0 -110 47.5 -160t149.5 -50t152 49.5t50 158.5v446h76v-446
q0 -276 -278 -276z" />
    <glyph glyph-name="Yacute" unicode="&#xdd;" horiz-adv-x="563" 
d="M391 842l-82 -104l-66 4l70 111zM492 710h82l-255 -420v-290h-75v290l-255 420h83l210 -356z" />
    <glyph glyph-name="Thorn" unicode="&#xde;" horiz-adv-x="600" 
d="M275 586q119 0 188.5 -57.5t69.5 -163.5q0 -39 -12 -78t-46 -74t-88 -51t-112 -16h-103v-146h-75v710h75v-124h103zM275 211q184 0 184 154q0 156 -184 156h-103v-310h103z" />
    <glyph glyph-name="germandbls" unicode="&#xdf;" horiz-adv-x="596" 
d="M389 -12q-51 0 -87 11t-55 25l4 65q41 -24 70.5 -33t61.5 -9q49 0 73.5 19.5t24.5 61.5q0 27 -19 50t-72 50.5t-66.5 37t-21.5 18.5t-13 19.5t-5 21.5q0 12 5 29.5t34.5 69.5t36.5 76.5t8.5 37t1.5 20.5q0 47 -25 73t-77 26q-109 0 -109 -127v-530h-72v525
q0 62 19.5 104.5t59 66.5t103.5 24q55 0 92.5 -17.5t59 -50t21.5 -78.5q0 -65 -40 -130t-46 -78.5t-6 -27.5q0 -11 10 -22.5t46.5 -30t53.5 -28t32.5 -22.5t28 -28t20.5 -37t8 -49q0 -64 -42 -98.5t-118 -34.5z" />
    <glyph glyph-name="agrave" unicode="&#xe0;" horiz-adv-x="556" 
d="M308 550h-64l-106 157l78 7zM428 480h60v-480h-60l-8 69q-25 -37 -66.5 -59t-94.5 -22q-97 0 -154 65t-57 178q0 59 16 107.5t45.5 82t70.5 51.5t89 18q52 0 91 -18.5t61 -50.5zM269 51q67 0 107 38.5t40 97.5v86q0 40 -15.5 76t-47 57t-77.5 21q-73 0 -114.5 -52.5
t-41.5 -143.5q0 -87 38.5 -133.5t110.5 -46.5z" />
    <glyph glyph-name="aacute" unicode="&#xe1;" horiz-adv-x="556" 
d="M404 707l-106 -157h-64l92 164zM428 480h60v-480h-60l-8 69q-25 -37 -66.5 -59t-94.5 -22q-97 0 -154 65t-57 178q0 59 16 107.5t45.5 82t70.5 51.5t89 18q52 0 91 -18.5t61 -50.5zM269 51q67 0 107 38.5t40 97.5v86q0 40 -15.5 76t-47 57t-77.5 21q-73 0 -114.5 -52.5
t-41.5 -143.5q0 -87 38.5 -133.5t110.5 -46.5z" />
    <glyph glyph-name="acircumflex" unicode="&#xe2;" horiz-adv-x="556" 
d="M271 674l-87 -112l-62 2l118 155h62l118 -155l-62 -2zM428 480h60v-480h-60l-8 69q-25 -37 -66.5 -59t-94.5 -22q-97 0 -154 65t-57 178q0 59 16 107.5t45.5 82t70.5 51.5t89 18q52 0 91 -18.5t61 -50.5zM269 51q67 0 107 38.5t40 97.5v86q0 40 -15.5 76t-47 57t-77.5 21
q-73 0 -114.5 -52.5t-41.5 -143.5q0 -87 38.5 -133.5t110.5 -46.5z" />
    <glyph glyph-name="atilde" unicode="&#xe3;" horiz-adv-x="556" 
d="M201 639q-40 0 -46 -61l-46 5q4 52 27.5 81.5t61.5 29.5q33 0 71.5 -18.5t52 -21.5t19.5 -3q21 0 32 14t15 48l46 -6q-3 -53 -26.5 -82t-63.5 -29q-30 0 -75 21.5t-68 21.5zM428 480h60v-480h-60l-8 69q-25 -37 -66.5 -59t-94.5 -22q-97 0 -154 65t-57 178q0 59 16 107.5
t45.5 82t70.5 51.5t89 18q52 0 91 -18.5t61 -50.5zM269 51q67 0 107 38.5t40 97.5v86q0 40 -15.5 76t-47 57t-77.5 21q-73 0 -114.5 -52.5t-41.5 -143.5q0 -87 38.5 -133.5t110.5 -46.5z" />
    <glyph glyph-name="adieresis" unicode="&#xe4;" horiz-adv-x="556" 
d="M192 585q-20 0 -33.5 14t-13.5 35q0 20 13.5 34t33.5 14t33.5 -14t13.5 -34q0 -21 -13.5 -35t-33.5 -14zM351 585q-19 0 -32.5 14t-13.5 35q0 20 13.5 34t32.5 14q20 0 33.5 -14t13.5 -34q0 -21 -13.5 -35t-33.5 -14zM428 480h60v-480h-60l-8 69q-25 -37 -66.5 -59
t-94.5 -22q-97 0 -154 65t-57 178q0 59 16 107.5t45.5 82t70.5 51.5t89 18q52 0 91 -18.5t61 -50.5zM269 51q67 0 107 38.5t40 97.5v86q0 40 -15.5 76t-47 57t-77.5 21q-73 0 -114.5 -52.5t-41.5 -143.5q0 -87 38.5 -133.5t110.5 -46.5z" />
    <glyph glyph-name="aring" unicode="&#xe5;" horiz-adv-x="556" 
d="M272 545q-43 0 -69 25t-26 66t26 66t69 25q42 0 68.5 -25t26.5 -66t-26.5 -66t-68.5 -25zM272 690q-25 0 -40 -15t-15 -39t15 -39t40 -15t40 15t15 39t-15 39t-40 15zM428 480h60v-480h-60l-8 69q-25 -37 -66.5 -59t-94.5 -22q-97 0 -154 65t-57 178q0 59 16 107.5
t45.5 82t70.5 51.5t89 18q52 0 91 -18.5t61 -50.5zM269 51q67 0 107 38.5t40 97.5v86q0 40 -15.5 76t-47 57t-77.5 21q-73 0 -114.5 -52.5t-41.5 -143.5q0 -87 38.5 -133.5t110.5 -46.5z" />
    <glyph glyph-name="ae" unicode="&#xe6;" horiz-adv-x="845" 
d="M791 103l14 -65q-23 -19 -72.5 -34.5t-115.5 -15.5q-64 0 -112 22t-76 62q-19 -26 -48 -46.5t-64.5 -29t-66.5 -8.5q-93 0 -147.5 63.5t-54.5 182.5q0 59 16 107t46.5 81t72.5 50.5t92 17.5q30 0 64 -8t62 -24.5t46 -35.5q62 68 176 68q56 0 99 -18.5t62 -51.5t19 -68
q0 -45 -22.5 -80t-90 -59t-228.5 -31q20 -131 161 -131q28 0 61.5 6.5t63 20.5t43.5 25zM621 427q-34 0 -63.5 -10t-51.5 -32.5t-35 -59t-13 -85.5q100 4 157 13.5t86.5 30t29.5 63.5q0 32 -27 56t-83 24zM266 51q85 0 137 74q-17 49 -17 111q0 37 7.5 73.5t20.5 63.5
q-52 54 -134 54q-74 0 -117 -50.5t-43 -142.5t38.5 -137.5t107.5 -45.5z" />
    <glyph glyph-name="ccedilla" unicode="&#xe7;" horiz-adv-x="500" 
d="M290 -34q38 0 59.5 -16t21.5 -48q0 -49 -36 -71.5t-116 -22.5l6 49q46 0 68.5 10t22.5 33q0 18 -18 25.5t-60 7.5l11 57q-96 9 -148.5 71.5t-52.5 176.5q0 119 58.5 185.5t168.5 66.5q47 0 82.5 -12.5t58 -35.5t34 -53t12.5 -65l-68 -9q-4 54 -33.5 83t-84.5 29
q-74 0 -114 -48.5t-40 -140.5q0 -94 43.5 -140.5t122.5 -46.5q89 0 164 65l17 -65q-65 -61 -175 -63z" />
    <glyph glyph-name="egrave" unicode="&#xe8;" horiz-adv-x="550" 
d="M338 550h-64l-106 157l78 7zM474 103l14 -65q-23 -19 -72.5 -34.5t-115.5 -15.5q-113 0 -172 65t-59 183q0 55 14.5 102t44 81t75 52.5t103.5 18.5q34 0 67 -7.5t58 -25t40 -44t15 -61.5q0 -45 -22.5 -80t-90 -59t-228.5 -31q21 -131 161 -131q28 0 61.5 6.5t63 20.5
t43.5 25zM304 427q-53 0 -88.5 -22t-54.5 -62.5t-20 -102.5q99 4 156.5 13.5t87 30t29.5 63.5q0 32 -27 56t-83 24z" />
    <glyph glyph-name="eacute" unicode="&#xe9;" horiz-adv-x="550" 
d="M434 707l-106 -157h-64l92 164zM474 103l14 -65q-23 -19 -72.5 -34.5t-115.5 -15.5q-113 0 -172 65t-59 183q0 55 14.5 102t44 81t75 52.5t103.5 18.5q34 0 67 -7.5t58 -25t40 -44t15 -61.5q0 -45 -22.5 -80t-90 -59t-228.5 -31q21 -131 161 -131q28 0 61.5 6.5t63 20.5
t43.5 25zM304 427q-53 0 -88.5 -22t-54.5 -62.5t-20 -102.5q99 4 156.5 13.5t87 30t29.5 63.5q0 32 -27 56t-83 24z" />
    <glyph glyph-name="ecircumflex" unicode="&#xea;" horiz-adv-x="550" 
d="M301 674l-87 -112l-62 2l118 155h62l118 -155l-62 -2zM474 103l14 -65q-23 -19 -72.5 -34.5t-115.5 -15.5q-113 0 -172 65t-59 183q0 55 14.5 102t44 81t75 52.5t103.5 18.5q34 0 67 -7.5t58 -25t40 -44t15 -61.5q0 -45 -22.5 -80t-90 -59t-228.5 -31q21 -131 161 -131
q28 0 61.5 6.5t63 20.5t43.5 25zM304 427q-53 0 -88.5 -22t-54.5 -62.5t-20 -102.5q99 4 156.5 13.5t87 30t29.5 63.5q0 32 -27 56t-83 24z" />
    <glyph glyph-name="edieresis" unicode="&#xeb;" horiz-adv-x="550" 
d="M222 585q-20 0 -33.5 14t-13.5 35q0 20 13.5 34t33.5 14t33.5 -14t13.5 -34q0 -21 -13.5 -35t-33.5 -14zM381 585q-19 0 -32.5 14t-13.5 35q0 20 13.5 34t32.5 14q20 0 33.5 -14t13.5 -34q0 -21 -13.5 -35t-33.5 -14zM474 103l14 -65q-23 -19 -72.5 -34.5t-115.5 -15.5
q-113 0 -172 65t-59 183q0 55 14.5 102t44 81t75 52.5t103.5 18.5q34 0 67 -7.5t58 -25t40 -44t15 -61.5q0 -45 -22.5 -80t-90 -59t-228.5 -31q21 -131 161 -131q28 0 61.5 6.5t63 20.5t43.5 25zM304 427q-53 0 -88.5 -22t-54.5 -62.5t-20 -102.5q99 4 156.5 13.5t87 30
t29.5 63.5q0 32 -27 56t-83 24z" />
    <glyph glyph-name="igrave" unicode="&#xec;" horiz-adv-x="209" 
d="M160 550h-64l-106 157l78 7zM87 0v480h72v-480h-72z" />
    <glyph glyph-name="iacute" unicode="&#xed;" horiz-adv-x="210" 
d="M86 550l92 164l78 -7l-106 -157h-64zM87 0v480h72v-480h-72z" />
    <glyph glyph-name="icircumflex" unicode="&#xee;" horiz-adv-x="209" 
d="M154 719l118 -155l-62 -2l-87 112l-87 -112l-62 2l118 155h62zM87 0v480h72v-480h-72z" />
    <glyph glyph-name="idieresis" unicode="&#xef;" horiz-adv-x="209" 
d="M44 585q-20 0 -33.5 14t-13.5 35q0 20 13.5 34t33.5 14t33.5 -14t13.5 -34q0 -21 -13.5 -35t-33.5 -14zM203 585q-19 0 -32.5 14t-13.5 35q0 20 13.5 34t32.5 14q20 0 33.5 -14t13.5 -34q0 -21 -13.5 -35t-33.5 -14zM87 0v480h72v-480h-72z" />
    <glyph glyph-name="eth" unicode="&#xf0;" horiz-adv-x="612" 
d="M422 616q61 -64 90.5 -161.5t29.5 -215.5q0 -63 -17.5 -111t-49.5 -79t-75.5 -46t-93.5 -15q-24 0 -55 5t-61 19t-57.5 41t-45 72.5t-17.5 102.5q0 44 11.5 87.5t39.5 77.5t73.5 55.5t109.5 21.5q82 0 146 -54q-29 109 -96 170l-177 -78l-9 55l136 60q-72 39 -167 39
l10 58q138 0 230 -66l124 55l9 -55zM306 51q77 0 119.5 44.5t42.5 132.5t-43 133.5t-119 45.5t-119 -45.5t-43 -133.5t43 -132.5t119 -44.5z" />
    <glyph glyph-name="ntilde" unicode="&#xf1;" horiz-adv-x="574" 
d="M227 639q-40 0 -46 -61l-46 5q4 52 27.5 81.5t61.5 29.5q33 0 71.5 -18.5t52 -21.5t19.5 -3q21 0 32 14t15 48l46 -6q-3 -53 -26.5 -82t-63.5 -29q-30 0 -75 21.5t-68 21.5zM325 490q91 0 136 -49t45 -140v-301h-72v292q0 66 -31 99.5t-100 33.5q-40 0 -74.5 -18.5
t-56.5 -52.5t-22 -72v-282h-72v480h56l15 -81q27 41 72 66t104 25z" />
    <glyph glyph-name="ograve" unicode="&#xf2;" horiz-adv-x="568" 
d="M321 550h-64l-106 157l78 7zM284 -12q-109 0 -172.5 63.5t-63.5 186.5q0 125 63 188.5t173 63.5q53 0 96.5 -15.5t75 -47t48 -79.5t16.5 -110q0 -123 -63.5 -186.5t-172.5 -63.5zM284 51q76 0 119 48t43 139t-43 140t-119 49t-119 -49t-43 -140t43 -139t119 -48z" />
    <glyph glyph-name="oacute" unicode="&#xf3;" horiz-adv-x="568" 
d="M246 550l92 164l78 -7l-106 -157h-64zM284 -12q-109 0 -172.5 63.5t-63.5 186.5q0 125 63 188.5t173 63.5q53 0 96.5 -15.5t75 -47t48 -79.5t16.5 -110q0 -123 -63.5 -186.5t-172.5 -63.5zM284 51q76 0 119 48t43 139t-43 140t-119 49t-119 -49t-43 -140t43 -139t119 -48
z" />
    <glyph glyph-name="ocircumflex" unicode="&#xf4;" horiz-adv-x="568" 
d="M284 674l-87 -112l-62 2l118 155h62l118 -155l-62 -2zM284 490q53 0 96.5 -15.5t75 -47t48 -79.5t16.5 -110q0 -123 -63.5 -186.5t-172.5 -63.5t-172.5 63.5t-63.5 186.5q0 125 63 188.5t173 63.5zM284 51q76 0 119 48t43 139t-43 140t-119 49t-119 -49t-43 -140t43 -139
t119 -48z" />
    <glyph glyph-name="otilde" unicode="&#xf5;" horiz-adv-x="568" 
d="M168 578l-46 5q4 52 27.5 81.5t61.5 29.5q33 0 71.5 -18.5t52 -21.5t19.5 -3q21 0 32 14t15 48l46 -6q-3 -53 -26.5 -82t-63.5 -29q-30 0 -75 21.5t-68 21.5q-40 0 -46 -61zM284 -12q-109 0 -172.5 63.5t-63.5 186.5q0 125 63 188.5t173 63.5q53 0 96.5 -15.5t75 -47
t48 -79.5t16.5 -110q0 -123 -63.5 -186.5t-172.5 -63.5zM284 51q76 0 119 48t43 139t-43 140t-119 49t-119 -49t-43 -140t43 -139t119 -48z" />
    <glyph glyph-name="odieresis" unicode="&#xf6;" horiz-adv-x="568" 
d="M204 585q-20 0 -33.5 14t-13.5 35q0 20 13.5 34t33.5 14t33.5 -14t13.5 -34q0 -21 -13.5 -35t-33.5 -14zM363 585q-19 0 -32.5 14t-13.5 35q0 20 13.5 34t32.5 14q20 0 33.5 -14t13.5 -34q0 -21 -13.5 -35t-33.5 -14zM284 -12q-109 0 -172.5 63.5t-63.5 186.5
q0 125 63 188.5t173 63.5q53 0 96.5 -15.5t75 -47t48 -79.5t16.5 -110q0 -123 -63.5 -186.5t-172.5 -63.5zM284 51q76 0 119 48t43 139t-43 140t-119 49t-119 -49t-43 -140t43 -139t119 -48z" />
    <glyph glyph-name="divide" unicode="&#xf7;" horiz-adv-x="600" 
d="M301 420q-23 0 -39 17.5t-16 41.5t16 41t39 17q22 0 38 -17t16 -41t-16 -41.5t-38 -17.5zM91 287v60h419v-60h-419zM301 97q-23 0 -39 17t-16 41t16 41.5t39 17.5q22 0 38 -17.5t16 -41.5t-16 -41t-38 -17z" />
    <glyph glyph-name="oslash" unicode="&#xf8;" horiz-adv-x="609" 
d="M452 431q32 -32 50 -81t18 -112q0 -123 -63.5 -186.5t-172.5 -63.5q-52 0 -96 15l-28 -44l-53 7l36 59q-45 29 -70 83.5t-25 129.5q0 125 63 188.5t173 63.5q35 0 69.5 -8t58.5 -22l37 59l53 -7zM122 238q0 -105 58 -154l196 318q-39 25 -92 25q-76 0 -119 -49t-43 -140z
M284 51q76 0 119 48t43 139q0 80 -34 128l-189 -306q27 -9 61 -9z" />
    <glyph glyph-name="ugrave" unicode="&#xf9;" horiz-adv-x="557" 
d="M316 550h-64l-106 157l78 7zM412 480h72v-480h-62l-7 84q-27 -46 -71.5 -71t-102.5 -25q-90 0 -129.5 43t-39.5 150v299h72v-288q0 -77 26 -108t91 -31q37 0 66 13.5t48 37t28 53.5t9 59v264z" />
    <glyph glyph-name="uacute" unicode="&#xfa;" horiz-adv-x="557" 
d="M411 707l-106 -157h-64l92 164zM412 480h72v-480h-62l-7 84q-27 -46 -71.5 -71t-102.5 -25q-90 0 -129.5 43t-39.5 150v299h72v-288q0 -77 26 -108t91 -31q37 0 66 13.5t48 37t28 53.5t9 59v264z" />
    <glyph glyph-name="ucircumflex" unicode="&#xfb;" horiz-adv-x="557" 
d="M279 674l-87 -112l-62 2l118 155h62l118 -155l-62 -2zM412 480h72v-480h-62l-7 84q-27 -46 -71.5 -71t-102.5 -25q-90 0 -129.5 43t-39.5 150v299h72v-288q0 -77 26 -108t91 -31q37 0 66 13.5t48 37t28 53.5t9 59v264z" />
    <glyph glyph-name="udieresis" unicode="&#xfc;" horiz-adv-x="557" 
d="M199 585q-20 0 -33.5 14t-13.5 35q0 20 13.5 34t33.5 14t33.5 -14t13.5 -34q0 -21 -13.5 -35t-33.5 -14zM358 585q-19 0 -32.5 14t-13.5 35q0 20 13.5 34t32.5 14q20 0 33.5 -14t13.5 -34q0 -21 -13.5 -35t-33.5 -14zM412 480h72v-480h-62l-7 84q-27 -46 -71.5 -71
t-102.5 -25q-90 0 -129.5 43t-39.5 150v299h72v-288q0 -77 26 -108t91 -31q37 0 66 13.5t48 37t28 53.5t9 59v264z" />
    <glyph glyph-name="yacute" unicode="&#xfd;" horiz-adv-x="557" 
d="M403 707l-106 -157h-64l92 164zM411 480h72v-460q0 -109 -56 -159.5t-165 -50.5q-100 0 -162 30l3 67q68 -32 157 -32q45 0 80.5 13t53 45t17.5 78v89q-28 -44 -73.5 -68.5t-102.5 -24.5q-30 0 -58.5 6.5t-51.5 25t-38 56t-15 104.5v281h72v-273q0 -74 26 -104.5
t87 -30.5q44 0 81 23t55 62.5t18 77.5v245z" />
    <glyph glyph-name="thorn" unicode="&#xfe;" horiz-adv-x="596" 
d="M314 490q96 0 152.5 -64t56.5 -179q0 -124 -63.5 -191.5t-180.5 -67.5q-65 0 -120 23v-191h-72v890h72v-291q23 33 62 52t93 19zM277 51q81 0 127 47t46 145q0 91 -39 137.5t-109 46.5q-62 0 -102.5 -36.5t-40.5 -90.5v-221q54 -28 118 -28z" />
    <glyph glyph-name="ydieresis" unicode="&#xff;" horiz-adv-x="557" 
d="M191 585q-20 0 -33.5 14t-13.5 35q0 20 13.5 34t33.5 14t33.5 -14t13.5 -34q0 -21 -13.5 -35t-33.5 -14zM350 585q-19 0 -32.5 14t-13.5 35q0 20 13.5 34t32.5 14q20 0 33.5 -14t13.5 -34q0 -21 -13.5 -35t-33.5 -14zM411 480h72v-460q0 -109 -56 -159.5t-165 -50.5
q-100 0 -162 30l3 67q68 -32 157 -32q45 0 80.5 13t53 45t17.5 78v89q-28 -44 -73.5 -68.5t-102.5 -24.5q-30 0 -58.5 6.5t-51.5 25t-38 56t-15 104.5v281h72v-273q0 -74 26 -104.5t87 -30.5q44 0 81 23t55 62.5t18 77.5v245z" />
    <glyph glyph-name="Amacron" unicode="&#x100;" horiz-adv-x="639" 
d="M459 817v-58h-277v58h277zM561 0l-75 199h-333l-76 -199h-77l276 710h86l277 -710h-78zM177 262h285l-143 374z" />
    <glyph glyph-name="amacron" unicode="&#x101;" horiz-adv-x="556" 
d="M419 657v-58h-294v58h294zM428 480h60v-480h-60l-8 69q-25 -37 -66.5 -59t-94.5 -22q-97 0 -154 65t-57 178q0 59 16 107.5t45.5 82t70.5 51.5t89 18q52 0 91 -18.5t61 -50.5zM269 51q67 0 107 38.5t40 97.5v86q0 40 -15.5 76t-47 57t-77.5 21q-73 0 -114.5 -52.5
t-41.5 -143.5q0 -87 38.5 -133.5t110.5 -46.5z" />
    <glyph glyph-name="Abreve" unicode="&#x102;" horiz-adv-x="639" 
d="M321 737q-111 0 -119 114l47 5q4 -38 21.5 -55t50.5 -17t50.5 17t21.5 55l48 -5q-8 -114 -120 -114zM561 0l-75 199h-333l-76 -199h-77l276 710h86l277 -710h-78zM177 262h285l-143 374z" />
    <glyph glyph-name="abreve" unicode="&#x103;" horiz-adv-x="556" 
d="M271 555q-130 0 -137 147l51 4q9 -96 86 -96q28 0 47.5 12t28.5 35.5t11 48.5l51 -4q-6 -147 -138 -147zM428 480h60v-480h-60l-8 69q-25 -37 -66.5 -59t-94.5 -22q-97 0 -154 65t-57 178q0 59 16 107.5t45.5 82t70.5 51.5t89 18q52 0 91 -18.5t61 -50.5zM269 51
q67 0 107 38.5t40 97.5v86q0 40 -15.5 76t-47 57t-77.5 21q-73 0 -114.5 -52.5t-41.5 -143.5q0 -87 38.5 -133.5t110.5 -46.5z" />
    <glyph glyph-name="Aogonek" unicode="&#x104;" horiz-adv-x="639" 
d="M582 -139q20 0 50 10l3 -52q-26 -12 -70 -12q-87 0 -87 71q0 21 11 45t35.5 44.5t53.5 32.5h-17l-75 199h-333l-76 -199h-77l276 710h86l277 -710q-52 -27 -74.5 -54t-22.5 -50q0 -35 40 -35zM177 262h285l-143 374z" />
    <glyph glyph-name="aogonek" unicode="&#x105;" horiz-adv-x="556" 
d="M428 480h60v-480q-52 -27 -74.5 -54t-22.5 -50q0 -35 40 -35q20 0 50 10l3 -52q-26 -12 -70 -12q-87 0 -87 71q0 21 11 45t36 44.5t54 33.5l-8 68q-25 -37 -66.5 -59t-94.5 -22q-97 0 -154 65t-57 178q0 59 16 107.5t45.5 82t70.5 51.5t89 18q52 0 91 -18.5t61 -50.5z
M269 51q67 0 107 38.5t40 97.5v86q0 40 -15.5 76t-47 57t-77.5 21q-73 0 -114.5 -52.5t-41.5 -143.5q0 -87 38.5 -133.5t110.5 -46.5z" />
    <glyph glyph-name="Cacute" unicode="&#x106;" horiz-adv-x="672" 
d="M331 742l70 111l78 -11l-82 -104zM393 -12q-76 0 -140 24t-109 70.5t-69 114.5t-24 153q0 88 23 158t65.5 117t101 71t128.5 24q49 0 98 -11t91.5 -41t62 -75.5t19.5 -92.5l-75 -9q-5 162 -195 162q-52 0 -96.5 -18.5t-77 -56t-50 -95t-17.5 -131.5q0 -69 19 -125
t54.5 -94t86.5 -57.5t112 -19.5q121 0 216 65l17 -69q-34 -25 -94 -44.5t-147 -19.5z" />
    <glyph glyph-name="cacute" unicode="&#x107;" horiz-adv-x="500" 
d="M238 550l92 164l78 -7l-106 -157h-64zM285 -12q-112 0 -174.5 63t-62.5 187q0 119 58.5 185.5t168.5 66.5q47 0 82.5 -12.5t58 -35.5t34 -53t12.5 -65l-68 -9q-4 54 -33.5 83t-84.5 29q-74 0 -114 -48.5t-40 -140.5q0 -94 43.5 -140.5t122.5 -46.5q89 0 164 65l17 -65
q-68 -63 -184 -63z" />
    <glyph glyph-name="Cdotaccent" unicode="&#x10a;" horiz-adv-x="672" 
d="M369 759q-21 0 -35.5 14.5t-14.5 35.5t14.5 35.5t35.5 14.5t35.5 -14.5t14.5 -35.5t-14.5 -35.5t-35.5 -14.5zM393 -12q-76 0 -140 24t-109 70.5t-69 114.5t-24 153q0 88 23 158t65.5 117t101 71t128.5 24q49 0 98 -11t91.5 -41t62 -75.5t19.5 -92.5l-75 -9
q-5 162 -195 162q-52 0 -96.5 -18.5t-77 -56t-50 -95t-17.5 -131.5q0 -69 19 -125t54.5 -94t86.5 -57.5t112 -19.5q121 0 216 65l17 -69q-34 -25 -94 -44.5t-147 -19.5z" />
    <glyph glyph-name="cdotaccent" unicode="&#x10b;" horiz-adv-x="500" 
d="M276 584q-21 0 -36 16t-15 38q0 21 15 37t36 16q22 0 37 -15.5t15 -37.5t-15 -38t-37 -16zM285 -12q-112 0 -174.5 63t-62.5 187q0 119 58.5 185.5t168.5 66.5q47 0 82.5 -12.5t58 -35.5t34 -53t12.5 -65l-68 -9q-4 54 -33.5 83t-84.5 29q-74 0 -114 -48.5t-40 -140.5
q0 -94 43.5 -140.5t122.5 -46.5q89 0 164 65l17 -65q-68 -63 -184 -63z" />
    <glyph glyph-name="Ccaron" unicode="&#x10c;" horiz-adv-x="672" 
d="M402 740h-66l-99 103l63 9l69 -74l69 74l63 -9zM401 56q121 0 216 65l17 -69q-34 -25 -94 -44.5t-147 -19.5q-76 0 -140 24t-109 70.5t-69 114.5t-24 153q0 88 23 158t65.5 117t101 71t128.5 24q49 0 98 -11t91.5 -41t62 -75.5t19.5 -92.5l-75 -9q-5 162 -195 162
q-52 0 -96.5 -18.5t-77 -56t-50 -95t-17.5 -131.5q0 -69 19 -125t54.5 -94t86.5 -57.5t112 -19.5z" />
    <glyph glyph-name="ccaron" unicode="&#x10d;" horiz-adv-x="500" 
d="M306 555h-62l-118 155l62 2l87 -112l87 112l62 -2zM452 116l17 -65q-68 -63 -184 -63q-112 0 -174.5 63t-62.5 187q0 119 58.5 185.5t168.5 66.5q47 0 82.5 -12.5t58 -35.5t34 -53t12.5 -65l-68 -9q-4 54 -33.5 83t-84.5 29q-74 0 -114 -48.5t-40 -140.5
q0 -94 43.5 -140.5t122.5 -46.5q89 0 164 65z" />
    <glyph glyph-name="Dcaron" unicode="&#x10e;" horiz-adv-x="727" 
d="M344 740h-66l-99 103l63 9l69 -74l69 74l63 -9zM304 710q87 0 157.5 -26t117.5 -73t71.5 -113t24.5 -144t-24.5 -143.5t-72 -112.5t-117 -72.5t-156.5 -25.5h-208v710h207zM306 68q72 0 128 21t92.5 59t54.5 91t18 115t-18 115t-54.5 91.5t-92.5 60t-128 21.5h-134v-574
h134z" />
    <glyph glyph-name="dcaron" unicode="&#x10f;" horiz-adv-x="593" 
d="M561 715l67 -5l-34 -189l-60 6zM411 456v254h72v-710h-61l-7 74q-25 -38 -68 -62t-99 -24q-42 0 -79 15.5t-64 46.5t-42 78t-15 105q0 119 62.5 188t165.5 69q80 0 135 -34zM261 51q31 0 64.5 13.5t59.5 48.5t26 78v195q-20 17 -53.5 29t-75.5 12q-74 0 -117.5 -51.5
t-43.5 -142.5q0 -59 17 -99t48 -61.5t75 -21.5z" />
    <glyph glyph-name="Dcroat" unicode="&#x110;" horiz-adv-x="743" 
d="M304 710q87 0 157.5 -26t117.5 -73t71.5 -113t24.5 -144t-24.5 -143.5t-72 -112.5t-117 -72.5t-156.5 -25.5h-208v318h-83v64h83v328h207zM306 68q72 0 128 21t92.5 59t54.5 91t18 115t-18 115t-54.5 91.5t-92.5 60t-128 21.5h-134v-260h127v-64h-127v-250h134z" />
    <glyph glyph-name="dcroat" unicode="&#x111;" horiz-adv-x="580" 
d="M567 613v-54h-92v-559h-62l-7 74q-19 -28 -47 -49t-60 -29t-59 -8q-43 0 -79.5 15.5t-63.5 46.5t-42 77.5t-15 105.5q0 119 62 188t166 69q80 0 135 -34v103h-154v54h154v97h72v-97h92zM253 51q31 0 64.5 13.5t59.5 48.5t26 78v195q-52 41 -130 41q-74 0 -117 -51.5
t-43 -142.5q0 -36 7.5 -70t25 -58.5t44.5 -39t63 -14.5z" />
    <glyph glyph-name="Emacron" unicode="&#x112;" horiz-adv-x="579" 
d="M459 817v-58h-277v58h277zM539 643h-367v-254h336v-65h-336v-257h367v-67h-442v710h442v-67z" />
    <glyph glyph-name="emacron" unicode="&#x113;" horiz-adv-x="550" 
d="M448 657v-58h-294v58h294zM474 103l14 -65q-23 -19 -72.5 -34.5t-115.5 -15.5q-113 0 -172 65t-59 183q0 55 14.5 102t44 81t75 52.5t103.5 18.5q34 0 67 -7.5t58 -25t40 -44t15 -61.5q0 -45 -22.5 -80t-90 -59t-228.5 -31q21 -131 161 -131q28 0 61.5 6.5t63 20.5
t43.5 25zM304 427q-53 0 -88.5 -22t-54.5 -62.5t-20 -102.5q99 4 156.5 13.5t87 30t29.5 63.5q0 32 -27 56t-83 24z" />
    <glyph glyph-name="Edotaccent" unicode="&#x116;" horiz-adv-x="579" 
d="M320 759q-21 0 -35.5 14.5t-14.5 35.5t14.5 35.5t35.5 14.5t35.5 -14.5t14.5 -35.5t-14.5 -35.5t-35.5 -14.5zM539 643h-367v-254h336v-65h-336v-257h367v-67h-442v710h442v-67z" />
    <glyph glyph-name="edotaccent" unicode="&#x117;" horiz-adv-x="550" 
d="M301 584q-21 0 -36 16t-15 38q0 21 15 37t36 16q22 0 37 -15.5t15 -37.5t-15 -38t-37 -16zM474 103l14 -65q-23 -19 -72.5 -34.5t-115.5 -15.5q-113 0 -172 65t-59 183q0 55 14.5 102t44 81t75 52.5t103.5 18.5q34 0 67 -7.5t58 -25t40 -44t15 -61.5q0 -45 -22.5 -80
t-90 -59t-228.5 -31q21 -131 161 -131q28 0 61.5 6.5t63 20.5t43.5 25zM304 427q-53 0 -88.5 -22t-54.5 -62.5t-20 -102.5q99 4 156.5 13.5t87 30t29.5 63.5q0 32 -27 56t-83 24z" />
    <glyph glyph-name="Eogonek" unicode="&#x118;" horiz-adv-x="579" 
d="M539 643h-367v-254h336v-65h-336v-257h367v-67h-1q-52 -27 -74.5 -54t-22.5 -50q0 -35 40 -35q20 0 50 10l3 -52q-26 -12 -70 -12q-87 0 -87 71q0 21 11 45t35.5 44.5t53.5 32.5h-380v710h442v-67z" />
    <glyph glyph-name="eogonek" unicode="&#x119;" horiz-adv-x="550" 
d="M386 -125q20 0 50 10l3 -52q-26 -12 -70 -12q-87 0 -87 71q0 56 57 98l-39 -2q-113 0 -172 65t-59 183q0 55 14.5 102t44 81t75 52.5t103.5 18.5q34 0 67 -7.5t58 -25t40 -44t15 -61.5q0 -45 -22.5 -80t-90 -59t-228.5 -31q21 -131 161 -131q28 0 61.5 6.5t63 20.5
t43.5 25l14 -65q-19 -16 -52 -28q-26 -13 -48 -31t-32 -36.5t-10 -32.5q0 -35 40 -35zM304 427q-53 0 -88.5 -22t-54.5 -62.5t-20 -102.5q99 4 156.5 13.5t87 30t29.5 63.5q0 32 -27 56t-83 24z" />
    <glyph glyph-name="Ecaron" unicode="&#x11a;" horiz-adv-x="579" 
d="M353 740h-66l-99 103l63 9l69 -74l69 74l63 -9zM539 643h-367v-254h336v-65h-336v-257h367v-67h-442v710h442v-67z" />
    <glyph glyph-name="ecaron" unicode="&#x11b;" horiz-adv-x="550" 
d="M332 555h-62l-118 155l62 2l87 -112l87 112l62 -2zM474 103l14 -65q-23 -19 -72.5 -34.5t-115.5 -15.5q-113 0 -172 65t-59 183q0 55 14.5 102t44 81t75 52.5t103.5 18.5q34 0 67 -7.5t58 -25t40 -44t15 -61.5q0 -45 -22.5 -80t-90 -59t-228.5 -31q21 -131 161 -131
q28 0 61.5 6.5t63 20.5t43.5 25zM304 427q-53 0 -88.5 -22t-54.5 -62.5t-20 -102.5q99 4 156.5 13.5t87 30t29.5 63.5q0 32 -27 56t-83 24z" />
    <glyph glyph-name="Gbreve" unicode="&#x11e;" horiz-adv-x="784" 
d="M408 737q-111 0 -119 114l47 5q4 -38 21.5 -55t50.5 -17t50.5 17t21.5 55l48 -5q-8 -114 -120 -114zM418 373h289v-92q0 -56 -15 -110t-51 -94.5t-94 -64.5t-140 -24q-79 0 -142.5 25t-107.5 72t-67 116.5t-23 154.5q0 88 24.5 157t69.5 114.5t108.5 69t140.5 23.5
q116 0 188 -52t84 -145l-76 -13q-8 66 -60.5 104.5t-137.5 38.5q-60 0 -109.5 -19.5t-83.5 -57.5t-52 -94.5t-18 -127.5q0 -143 69.5 -221t195.5 -78q76 0 125.5 25.5t75.5 74.5t26 125v32h-219v61z" />
    <glyph glyph-name="gbreve" unicode="&#x11f;" horiz-adv-x="556" 
d="M283 555q-130 0 -137 147l51 4q9 -96 86 -96q28 0 47.5 12t28.5 35.5t11 48.5l51 -4q-6 -147 -138 -147zM428 480h60v-462q0 -109 -56.5 -158.5t-167.5 -49.5q-36 0 -80.5 6.5t-79.5 23.5l3 68q83 -33 156 -33q75 0 114 31.5t39 103.5v80q-52 -75 -159 -75q-97 0 -153 61
t-56 167q0 56 16 102t46 78.5t71 49.5t89 17t87.5 -18t63.5 -51zM269 78q68 0 107.5 38.5t39.5 97.5v57q0 69 -36.5 112.5t-102.5 43.5q-70 0 -113.5 -49t-43.5 -134q0 -80 39.5 -123t109.5 -43z" />
    <glyph glyph-name="Gdotaccent" unicode="&#x120;" horiz-adv-x="784" 
d="M408 759q-21 0 -35.5 14.5t-14.5 35.5t14.5 35.5t35.5 14.5t35.5 -14.5t14.5 -35.5t-14.5 -35.5t-35.5 -14.5zM418 373h289v-92q0 -56 -15 -110t-51 -94.5t-94 -64.5t-140 -24q-79 0 -142.5 25t-107.5 72t-67 116.5t-23 154.5q0 88 24.5 157t69.5 114.5t108.5 69
t140.5 23.5q116 0 188 -52t84 -145l-76 -13q-8 66 -60.5 104.5t-137.5 38.5q-60 0 -109.5 -19.5t-83.5 -57.5t-52 -94.5t-18 -127.5q0 -143 69.5 -221t195.5 -78q76 0 125.5 25.5t75.5 74.5t26 125v32h-219v61z" />
    <glyph glyph-name="gdotaccent" unicode="&#x121;" horiz-adv-x="556" 
d="M283 584q-21 0 -36 16t-15 38q0 21 15 37t36 16q22 0 37 -15.5t15 -37.5t-15 -38t-37 -16zM428 480h60v-462q0 -109 -56.5 -158.5t-167.5 -49.5q-36 0 -80.5 6.5t-79.5 23.5l3 68q83 -33 156 -33q75 0 114 31.5t39 103.5v80q-52 -75 -159 -75q-97 0 -153 61t-56 167
q0 56 16 102t46 78.5t71 49.5t89 17t87.5 -18t63.5 -51zM269 78q68 0 107.5 38.5t39.5 97.5v57q0 69 -36.5 112.5t-102.5 43.5q-70 0 -113.5 -49t-43.5 -134q0 -80 39.5 -123t109.5 -43z" />
    <glyph glyph-name="Gcommaaccent" unicode="&#x122;" horiz-adv-x="784" 
d="M418 373h289v-92q0 -56 -15 -110t-51 -94.5t-94 -64.5t-140 -24q-79 0 -142.5 25t-107.5 72t-67 116.5t-23 154.5q0 88 24.5 157t69.5 114.5t108.5 69t140.5 23.5q116 0 188 -52t84 -145l-76 -13q-8 66 -60.5 104.5t-137.5 38.5q-60 0 -109.5 -19.5t-83.5 -57.5
t-52 -94.5t-18 -127.5q0 -143 69.5 -221t195.5 -78q76 0 125.5 25.5t75.5 74.5t26 125v32h-219v61zM400 -35q28 0 42 -18.5t14 -47.5q0 -37 -21 -63t-67 -34l-6 35q44 11 44 48q-51 0 -51 38q0 18 12.5 30t32.5 12z" />
    <glyph glyph-name="gcommaaccent" unicode="&#x123;" horiz-adv-x="605" 
d="M298 577q-28 0 -42 18.5t-14 47.5q0 20 8 41.5t29 36t51 19.5l6 -35q-44 -11 -44 -48q51 0 51 -38q0 -18 -12.5 -30t-32.5 -12zM428 480h60v-462q0 -109 -56.5 -158.5t-167.5 -49.5q-36 0 -80.5 6.5t-79.5 23.5l3 68q83 -33 156 -33q75 0 114 31.5t39 103.5v80
q-52 -75 -159 -75q-97 0 -153 61t-56 167q0 56 16 102t46 78.5t71 49.5t89 17t87.5 -18t63.5 -51zM269 78q68 0 107.5 38.5t39.5 97.5v57q0 69 -36.5 112.5t-102.5 43.5q-70 0 -113.5 -49t-43.5 -134q0 -80 39.5 -123t109.5 -43z" />
    <glyph glyph-name="Hbar" unicode="&#x126;" horiz-adv-x="766" 
d="M735 613v-54h-81v-559h-76v312h-406v-312h-75v559h-79v54h79v97h75v-97h406v97h76v-97h81zM578 382v177h-406v-177h406z" />
    <glyph glyph-name="hbar" unicode="&#x127;" horiz-adv-x="598" 
d="M328 490q88 0 133 -48.5t45 -139.5v-302h-72v293q0 132 -125 132q-45 0 -80 -17.5t-57 -50.5t-22 -75v-282h-72v559h-70v54h70v97h72v-97h175v-54h-175v-158q26 41 71.5 65t106.5 24z" />
    <glyph glyph-name="Itilde" unicode="&#x128;" horiz-adv-x="329" 
d="M114 779q-32 0 -35 -43l-45 5q6 91 73 91q22 0 58.5 -11.5t50.5 -11.5q32 0 35 44l46 -6q-3 -45 -20.5 -67.5t-53.5 -22.5q-22 0 -58 11t-51 11zM281 710v-67h-79v-576h79v-67h-234v67h79v576h-79v67h234z" />
    <glyph glyph-name="itilde" unicode="&#x129;" horiz-adv-x="209" 
d="M7 578l-46 5q4 52 27.5 81.5t61.5 29.5q33 0 71.5 -18.5t52 -21.5t19.5 -3q21 0 32 14t15 48l46 -6q-3 -53 -26.5 -82t-63.5 -29q-30 0 -75 21.5t-68 21.5q-40 0 -46 -61zM87 0v480h72v-480h-72z" />
    <glyph glyph-name="Imacron" unicode="&#x12a;" horiz-adv-x="329" 
d="M27 817h277v-58h-277v58zM281 710v-67h-79v-576h79v-67h-234v67h79v576h-79v67h234z" />
    <glyph glyph-name="imacron" unicode="&#x12b;" horiz-adv-x="209" 
d="M7 599v58h231v-58h-231zM87 0v480h72v-480h-72z" />
    <glyph glyph-name="Iogonek" unicode="&#x12e;" horiz-adv-x="329" 
d="M281 643h-79v-576h79v-67h-79q-52 -27 -74.5 -54t-22.5 -50q0 -35 40 -35q20 0 50 10l3 -52q-26 -12 -70 -12q-87 0 -87 71q0 21 11 45t35.5 44.5t53.5 32.5h-94v67h79v576h-79v67h234v-67z" />
    <glyph glyph-name="iogonek" unicode="&#x12f;" horiz-adv-x="209" 
d="M123 691q22 0 37 -15.5t15 -37.5t-15 -38t-37 -16q-21 0 -36 16t-15 38q0 21 15 37t36 16zM87 0v480h72v-480q-52 -27 -74.5 -54t-22.5 -50q0 -35 40 -35q20 0 50 10l3 -52q-26 -12 -70 -12q-87 0 -87 71q0 21 11 45t35.5 44.5t53.5 32.5h-11z" />
    <glyph glyph-name="Idotaccent" unicode="&#x130;" horiz-adv-x="329" 
d="M165 759q-21 0 -35.5 14.5t-14.5 35.5t14.5 35.5t35.5 14.5t35.5 -14.5t14.5 -35.5t-14.5 -35.5t-35.5 -14.5zM281 643h-79v-576h79v-67h-234v67h79v576h-79v67h234v-67z" />
    <glyph glyph-name="dotlessi" unicode="&#x131;" horiz-adv-x="247" 
d="M87 0v480h72v-480h-72z" />
    <glyph glyph-name="IJ" unicode="&#x132;" horiz-adv-x="737" 
d="M281 710v-67h-79v-576h79v-67h-234v67h79v576h-79v67h234zM577 710h76v-525q0 -105 -51 -151t-149 -46q-85 0 -146 28l7 67q69 -28 135 -28q68 0 98 30.5t30 103.5v521z" />
    <glyph glyph-name="ij" unicode="&#x133;" horiz-adv-x="397" 
d="M105 584q-21 0 -36 16t-15 38q0 21 15 37t36 16q22 0 37 -15.5t15 -37.5t-15 -38t-37 -16zM342 584q-21 0 -36 16t-15 38q0 21 15 37t36 16q22 0 37 -15.5t15 -37.5t-15 -38t-37 -16zM69 0v480h72v-480h-72zM267 -190q-39 0 -66 12l3 63q28 -10 50 -10q27 0 39.5 12.5
t12.5 42.5v550h72v-556q0 -62 -28.5 -88t-82.5 -26z" />
    <glyph glyph-name="Kcommaaccent" unicode="&#x136;" horiz-adv-x="599" 
d="M332 352l276 -352h-90l-243 312h-103v-312h-75v710h75v-328h103l240 328h89zM308 -35q28 0 42 -18.5t14 -47.5q0 -37 -21 -63t-67 -34l-6 35q44 11 44 48q-51 0 -51 38q0 18 12.5 30t32.5 12z" />
    <glyph glyph-name="kcommaaccent" unicode="&#x137;" horiz-adv-x="536" 
d="M470 348q0 -118 -126 -157l126 -191h-79l-113 175q-54 -7 -126 -9v-166h-72v710h72v-306q25 40 66.5 63t94.5 23q38 0 75 -13.5t59.5 -48t22.5 -80.5zM152 270v-43q132 2 189 29t57 80q0 29 -12.5 50.5t-35.5 31t-50 9.5q-63 0 -105.5 -44t-42.5 -113zM256 -35
q28 0 42 -18.5t14 -47.5q0 -37 -21 -63t-67 -34l-6 35q44 11 44 48q-51 0 -51 38q0 18 12.5 30t32.5 12z" />
    <glyph glyph-name="kgreenlandic" unicode="&#x138;" horiz-adv-x="533" 
d="M486 480l-196 -197l184 -283h-82l-152 233l-81 -82v-151h-72v480h72v-241l239 241h88z" />
    <glyph glyph-name="Lacute" unicode="&#x139;" horiz-adv-x="541" 
d="M251 842l-82 -104l-66 4l70 111zM172 70h361v-70h-436v710h75v-640z" />
    <glyph glyph-name="lacute" unicode="&#x13a;" horiz-adv-x="227" 
d="M76 742l70 111l78 -11l-82 -104zM78 0v710h72v-710h-72z" />
    <glyph glyph-name="Lcommaaccent" unicode="&#x13b;" horiz-adv-x="541" 
d="M172 70h361v-70h-436v710h75v-640zM307 -35q28 0 42 -18.5t14 -47.5q0 -37 -21 -63t-67 -34l-6 35q44 11 44 48q-51 0 -51 38q0 18 12.5 30t32.5 12z" />
    <glyph glyph-name="lcommaaccent" unicode="&#x13c;" horiz-adv-x="227" 
d="M78 0v710h72v-710h-72zM78 -198l-6 35q44 11 44 48q-51 0 -51 38q0 18 12.5 30t32.5 12q28 0 42 -18.5t14 -47.5q0 -37 -21 -63t-67 -34z" />
    <glyph glyph-name="Lcaron" unicode="&#x13d;" horiz-adv-x="442" 
d="M425 710l-34 -189l-60 6l27 188zM172 70h361v-70h-436v710h75v-640z" />
    <glyph glyph-name="lcaron" unicode="&#x13e;" horiz-adv-x="220" 
d="M291 710l-66 5l-27 -188l60 -6zM78 0v710h72v-710h-72z" />
    <glyph glyph-name="Ldot" unicode="&#x13f;" horiz-adv-x="541" 
d="M172 70h361v-70h-436v710h75v-640zM364 293q-24 0 -40.5 18t-16.5 44t16.5 44t40.5 18q25 0 41.5 -18t16.5 -44t-16.5 -44t-41.5 -18z" />
    <glyph glyph-name="ldot" unicode="&#x140;" horiz-adv-x="267" 
d="M78 0v710h72v-710h-72zM214 234q-24 0 -40.5 18t-16.5 44t16.5 44t40.5 18q25 0 41.5 -18t16.5 -44t-16.5 -44t-41.5 -18z" />
    <glyph glyph-name="Lslash" unicode="&#x141;" horiz-adv-x="449" 
d="M151 70h286v-70h-362v306l-61 -24v63l61 24v341h76v-312l130 51v-63l-130 -51v-265z" />
    <glyph glyph-name="lslash" unicode="&#x142;" horiz-adv-x="251" 
d="M233 454v-63l-75 -35v-356h-72v322l-67 -31v63l67 31v325h72v-291z" />
    <glyph glyph-name="Nacute" unicode="&#x143;" horiz-adv-x="758" 
d="M499 842l-82 -104l-66 4l70 111zM587 710h74v-710h-69l-421 587v-587h-74v710h76l414 -582v582z" />
    <glyph glyph-name="nacute" unicode="&#x144;" horiz-adv-x="574" 
d="M430 707l-106 -157h-64l92 164zM325 490q91 0 136 -49t45 -140v-301h-72v292q0 66 -31 99.5t-100 33.5q-40 0 -74.5 -18.5t-56.5 -52.5t-22 -72v-282h-72v480h56l15 -81q27 41 72 66t104 25z" />
    <glyph glyph-name="Ncommaaccent" unicode="&#x145;" horiz-adv-x="758" 
d="M587 710h74v-710h-69l-421 587v-587h-74v710h76l414 -582v582zM376 -35q28 0 42 -18.5t14 -47.5q0 -37 -21 -63t-67 -34l-6 35q44 11 44 48q-51 0 -51 38q0 18 12.5 30t32.5 12z" />
    <glyph glyph-name="ncommaaccent" unicode="&#x146;" horiz-adv-x="574" 
d="M325 490q91 0 136 -49t45 -140v-301h-72v292q0 66 -31 99.5t-100 33.5q-40 0 -74.5 -18.5t-56.5 -52.5t-22 -72v-282h-72v480h56l15 -81q27 41 72 66t104 25zM297 -35q28 0 42 -18.5t14 -47.5q0 -37 -21 -63t-67 -34l-6 35q44 11 44 48q-51 0 -51 38q0 18 12.5 30
t32.5 12z" />
    <glyph glyph-name="Ncaron" unicode="&#x147;" horiz-adv-x="758" 
d="M422 740h-66l-99 103l63 9l69 -74l69 74l63 -9zM587 710h74v-710h-69l-421 587v-587h-74v710h76l414 -582v582z" />
    <glyph glyph-name="ncaron" unicode="&#x148;" horiz-adv-x="574" 
d="M328 555h-62l-118 155l62 2l87 -112l87 112l62 -2zM325 490q91 0 136 -49t45 -140v-301h-72v292q0 66 -31 99.5t-100 33.5q-40 0 -74.5 -18.5t-56.5 -52.5t-22 -72v-282h-72v480h56l15 -81q27 41 72 66t104 25z" />
    <glyph glyph-name="Eng" unicode="&#x14a;" horiz-adv-x="760" 
d="M661 128h1v-194q0 -67 -27 -95.5t-83 -28.5q-40 0 -67 12l3 63q23 -10 50 -10t39.5 14.5t12.5 50.5v62l-419 585v-587h-74v710h76l414 -582v582h74v-582z" />
    <glyph glyph-name="eng" unicode="&#x14b;" horiz-adv-x="603" 
d="M506 200h10v-249q0 -75 -26 -108t-78 -33q-32 0 -53 12l3 63q18 -10 40 -10t32 14.5t10 51.5v59h-10v292q0 66 -31 99.5t-100 33.5q-40 0 -74.5 -18.5t-56.5 -52.5t-22 -72v-282h-72v480h56l15 -81q27 41 72 66t104 25q91 0 136 -49t45 -140v-101z" />
    <glyph glyph-name="Omacron" unicode="&#x14c;" horiz-adv-x="771" 
d="M246 759v58h277v-58h-277zM385 -12q-77 0 -139.5 23.5t-105.5 70t-66 115.5t-23 157t23 157t66 115.5t105.5 70t139.5 23.5t139.5 -23.5t105.5 -70t66 -115.5t23 -157t-23 -157t-66 -115.5t-105.5 -70t-139.5 -23.5zM385 56q122 0 189.5 78t67.5 220t-67.5 220t-189.5 78
q-121 0 -189 -78t-68 -221q0 -141 68 -219t189 -78z" />
    <glyph glyph-name="omacron" unicode="&#x14d;" horiz-adv-x="568" 
d="M137 599v58h294v-58h-294zM284 -12q-109 0 -172.5 63.5t-63.5 186.5q0 125 63 188.5t173 63.5q53 0 96.5 -15.5t75 -47t48 -79.5t16.5 -110q0 -123 -63.5 -186.5t-172.5 -63.5zM284 51q76 0 119 48t43 139t-43 140t-119 49t-119 -49t-43 -140t43 -139t119 -48z" />
    <glyph glyph-name="Ohungarumlaut" unicode="&#x150;" horiz-adv-x="771" 
d="M272 742l70 111l78 -11l-82 -104zM397 742l70 111l78 -11l-82 -104zM385 -12q-77 0 -139.5 23.5t-105.5 70t-66 115.5t-23 157t23 157t66 115.5t105.5 70t139.5 23.5t139.5 -23.5t105.5 -70t66 -115.5t23 -157t-23 -157t-66 -115.5t-105.5 -70t-139.5 -23.5zM385 56
q122 0 189.5 78t67.5 220t-67.5 220t-189.5 78q-121 0 -189 -78t-68 -221q0 -141 68 -219t189 -78z" />
    <glyph glyph-name="ohungarumlaut" unicode="&#x151;" horiz-adv-x="568" 
d="M157 550l92 164l78 -7l-106 -157h-64zM293 550l92 164l78 -7l-106 -157h-64zM284 -12q-109 0 -172.5 63.5t-63.5 186.5q0 125 63 188.5t173 63.5q53 0 96.5 -15.5t75 -47t48 -79.5t16.5 -110q0 -123 -63.5 -186.5t-172.5 -63.5zM284 51q76 0 119 48t43 139t-43 140
t-119 49t-119 -49t-43 -140t43 -139t119 -48z" />
    <glyph glyph-name="OE" unicode="&#x152;" horiz-adv-x="1127" 
d="M1087 643h-367v-254h336v-65h-336v-257h367v-67h-441v99q-43 -54 -110 -82.5t-151 -28.5q-77 0 -139.5 23.5t-105.5 70t-66 115.5t-23 157t23 157t66 115.5t105.5 70t139.5 23.5q84 0 151 -28.5t110 -82.5v101h441v-67zM385 56q122 0 189.5 78t67.5 220t-67.5 220
t-189.5 78q-121 0 -189 -78t-68 -221q0 -141 68 -219t189 -78z" />
    <glyph glyph-name="oe" unicode="&#x153;" horiz-adv-x="929" 
d="M853 103l14 -65q-23 -19 -72.5 -34.5t-115.5 -15.5q-69 0 -119 25.5t-77 72.5q-29 -48 -80.5 -73t-118.5 -25q-109 0 -172.5 63.5t-63.5 186.5q0 125 63 188.5t173 63.5q50 0 92.5 -14.5t68.5 -39t40 -48.5q28 48 79.5 75t121.5 27q34 0 66.5 -7.5t57.5 -25t40 -44
t15 -61.5q0 -56 -31 -91t-101 -54t-208 -25q20 -131 160 -131q28 0 61.5 6.5t63 20.5t43.5 25zM684 427q-34 0 -63.5 -10t-52 -32.5t-35 -59t-12.5 -85.5q119 5 174 17t77 33t22 57q0 32 -27 56t-83 24zM284 51q76 0 119 48t43 139t-43 140t-119 49t-119 -49t-43 -140
t43 -139t119 -48z" />
    <glyph glyph-name="Racute" unicode="&#x154;" horiz-adv-x="630" 
d="M416 842l-82 -104l-66 4l70 111zM501 0l-181 292h-148v-292h-75v710h217q132 0 199.5 -53.5t67.5 -155.5q0 -89 -48.5 -141t-134.5 -64l188 -296h-85zM172 642v-285h158q50 0 92 14t63 47.5t21 79.5q0 71 -47.5 107.5t-149.5 36.5h-137z" />
    <glyph glyph-name="racute" unicode="&#x155;" horiz-adv-x="319" 
d="M301 707l-106 -157h-64l92 164zM267 490q24 0 43 -7l-5 -71q-12 4 -37 4q-19 0 -39.5 -9.5t-39.5 -33.5t-29 -58t-10 -62v-253h-72v480h63l5 -92q21 46 52.5 74t68.5 28z" />
    <glyph glyph-name="Rcommaaccent" unicode="&#x156;" horiz-adv-x="630" 
d="M398 296l188 -296h-85l-181 292h-148v-292h-75v710h217q132 0 199.5 -53.5t67.5 -155.5q0 -89 -48.5 -141t-134.5 -64zM172 642v-285h158q50 0 92 14t63 47.5t21 79.5q0 71 -47.5 107.5t-149.5 36.5h-137zM316 -35q28 0 42 -18.5t14 -47.5q0 -37 -21 -63t-67 -34l-6 35
q44 11 44 48q-51 0 -51 38q0 18 12.5 30t32.5 12z" />
    <glyph glyph-name="rcommaaccent" unicode="&#x157;" horiz-adv-x="319" 
d="M267 490q24 0 43 -7l-5 -71q-12 4 -37 4q-19 0 -39.5 -9.5t-39.5 -33.5t-29 -58t-10 -62v-253h-72v480h63l5 -92q21 46 52.5 74t68.5 28zM114 -35q28 0 42 -18.5t14 -47.5q0 -37 -21 -63t-67 -34l-6 35q44 11 44 48q-51 0 -51 38q0 18 12.5 30t32.5 12z" />
    <glyph glyph-name="Rcaron" unicode="&#x158;" horiz-adv-x="630" 
d="M339 740h-66l-99 103l63 9l69 -74l69 74l63 -9zM501 0l-181 292h-148v-292h-75v710h217q132 0 199.5 -53.5t67.5 -155.5q0 -89 -48.5 -141t-134.5 -64l188 -296h-85zM172 642v-285h158q50 0 92 14t63 47.5t21 79.5q0 71 -47.5 107.5t-149.5 36.5h-137z" />
    <glyph glyph-name="rcaron" unicode="&#x159;" horiz-adv-x="319" 
d="M199 555h-62l-118 155l62 2l87 -112l87 112l62 -2zM146 388q21 46 52.5 74t68.5 28q24 0 43 -7l-5 -71q-12 4 -37 4q-19 0 -39.5 -9.5t-39.5 -33.5t-29 -58t-10 -62v-253h-72v480h63z" />
    <glyph glyph-name="Sacute" unicode="&#x15a;" horiz-adv-x="574" 
d="M244 742l70 111l78 -11l-82 -104zM285 -12q-140 0 -234 60l10 72q103 -65 222 -65q87 0 134 32.5t47 92.5q0 28 -10 49.5t-28 36t-45.5 26.5t-121 34.5t-131.5 45t-55.5 48.5t-23.5 52.5t-6 49.5q0 96 61.5 147t176.5 51q209 0 230 -161l-72 -14q-16 112 -159 112
q-77 0 -119.5 -33t-42.5 -94q0 -29 11.5 -54.5t43 -46.5t115.5 -40.5t114 -30t54.5 -24.5t42.5 -34.5t28.5 -50t10.5 -66.5q1 -195 -253 -195z" />
    <glyph glyph-name="sacute" unicode="&#x15b;" horiz-adv-x="462" 
d="M190 550l92 164l78 -7l-106 -157h-64zM228 -12q-114 0 -187 47l9 64q80 -50 175 -50q64 0 98 19.5t34 54.5q0 9 -2.5 19t-11.5 20.5t-28.5 21t-103 29t-112.5 38.5t-41.5 43.5t-12.5 57.5q0 22 7 45t26.5 43.5t55 35t91.5 14.5q35 0 69.5 -7t60.5 -23t42.5 -40.5
t18.5 -54.5l-70 -11q-12 75 -120 75q-55 0 -83 -19.5t-28 -53.5q0 -30 19 -47t45.5 -25t86.5 -20t92.5 -26.5t51.5 -40.5t19 -67q0 -40 -20 -73.5t-68 -51t-113 -17.5z" />
    <glyph glyph-name="Scedilla" unicode="&#x15e;" horiz-adv-x="574" 
d="M538 183q1 -189 -238 -195l-4 -22q38 0 59.5 -16t21.5 -48q0 -49 -36 -71.5t-116 -22.5l6 49q46 0 68.5 10t22.5 33q0 18 -18 25.5t-60 7.5l11 56q-123 6 -204 59l10 72q103 -65 222 -65q87 0 134 32.5t47 92.5q0 28 -10 49.5t-28 36t-45.5 26.5t-121 34.5t-131.5 45
t-55.5 48.5t-23.5 52.5t-6 49.5q0 96 61.5 147t176.5 51q209 0 230 -161l-72 -14q-16 112 -159 112q-77 0 -119.5 -33t-42.5 -94q0 -29 11.5 -54.5t43 -46.5t115.5 -40.5t114 -30t54.5 -24.5t42.5 -34.5t28.5 -50t10.5 -66.5z" />
    <glyph glyph-name="scedilla" unicode="&#x15f;" horiz-adv-x="462" 
d="M429 130q0 -46 -21.5 -76t-60.5 -46.5t-97 -19.5l-4 -22q38 0 59.5 -16t21.5 -48q0 -49 -36 -71.5t-116 -22.5l6 49q46 0 68.5 10t22.5 33q0 18 -18 25.5t-60 7.5l11 56q-98 4 -164 46l9 64q80 -50 175 -50q64 0 98 19.5t34 54.5q0 9 -2.5 19t-11.5 20.5t-28.5 21
t-103 29t-112.5 38.5t-41.5 43.5t-12.5 57.5q0 22 7 45t26.5 43.5t55 35t91.5 14.5q35 0 69.5 -7t60.5 -23t42.5 -40.5t18.5 -54.5l-70 -11q-12 75 -120 75q-55 0 -83 -19.5t-28 -53.5q0 -30 19 -47t45.5 -25t86.5 -20t92.5 -26.5t51.5 -40.5t19 -67z" />
    <glyph glyph-name="Scaron" unicode="&#x160;" horiz-adv-x="574" 
d="M315 740h-66l-99 103l63 9l69 -74l69 74l63 -9zM538 183q1 -195 -253 -195q-140 0 -234 60l10 72q103 -65 222 -65q87 0 134 32.5t47 92.5q0 28 -10 49.5t-28 36t-45.5 26.5t-121 34.5t-131.5 45t-55.5 48.5t-23.5 52.5t-6 49.5q0 96 61.5 147t176.5 51q209 0 230 -161
l-72 -14q-16 112 -159 112q-77 0 -119.5 -33t-42.5 -94q0 -29 11.5 -54.5t43 -46.5t115.5 -40.5t114 -30t54.5 -24.5t42.5 -34.5t28.5 -50t10.5 -66.5z" />
    <glyph glyph-name="scaron" unicode="&#x161;" horiz-adv-x="462" 
d="M258 555h-62l-118 155l62 2l87 -112l87 112l62 -2zM115 356q0 -30 19 -47t45.5 -25t86.5 -20t92.5 -26.5t51.5 -40.5t19 -67q0 -40 -20 -73.5t-68 -51t-113 -17.5q-114 0 -187 47l9 64q80 -50 175 -50q64 0 98 19.5t34 54.5q0 9 -2.5 19t-11.5 20.5t-28.5 21t-103 29
t-112.5 38.5t-41.5 43.5t-12.5 57.5q0 22 7 45t26.5 43.5t55 35t91.5 14.5q35 0 69.5 -7t60.5 -23t42.5 -40.5t18.5 -54.5l-70 -11q-12 75 -120 75q-55 0 -83 -19.5t-28 -53.5z" />
    <glyph glyph-name="Tcommaaccent" unicode="&#x162;" horiz-adv-x="516" 
d="M296 0h-14l-6 -34q38 0 59.5 -16t21.5 -48q0 -49 -36 -71.5t-116 -22.5l6 49q46 0 68.5 10t22.5 33q0 18 -18 25.5t-60 7.5l13 67h-17v640h-230v70h536v-70h-230v-640z" />
    <glyph glyph-name="tcommaaccent" unicode="&#x163;" horiz-adv-x="323" 
d="M319 419h-152v-300q0 -38 16 -53t46 -15q12 0 28 2.5t45 13.5l6 -63q-42 -14 -84 -16l-4 -22q38 0 59.5 -16t21.5 -48q0 -49 -36 -71.5t-116 -22.5l6 49q46 0 68.5 10t22.5 33q0 18 -18 25.5t-60 7.5l11 57q-42 6 -63 36t-21 92v301h-89v61h89v140h72v-140h152v-61z" />
    <glyph glyph-name="Tcaron" unicode="&#x164;" horiz-adv-x="516" 
d="M291 740h-66l-99 103l63 9l69 -74l69 74l63 -9zM526 710v-70h-230v-640h-76v640h-230v70h536z" />
    <glyph glyph-name="tcaron" unicode="&#x165;" horiz-adv-x="309" 
d="M302 715l67 -5l-34 -189l-60 6zM167 620v-140h152v-61h-152v-300q0 -38 16 -53t46 -15q12 0 28 2.5t45 13.5l6 -63q-45 -16 -97 -16q-67 0 -91.5 32.5t-24.5 97.5v301h-89v61h89v140h72z" />
    <glyph glyph-name="Tbar" unicode="&#x166;" horiz-adv-x="454" 
d="M526 640h-230v-258h118v-64h-118v-318h-76v318h-119v64h119v258h-230v70h536v-70z" />
    <glyph glyph-name="tbar" unicode="&#x167;" horiz-adv-x="302" 
d="M319 419h-152v-115h96v-62h-96v-123q0 -38 16 -53t46 -15q12 0 28 2.5t45 13.5l6 -63q-45 -16 -97 -16q-67 0 -91.5 32.5t-24.5 97.5v124h-83v62h83v115h-89v61h89v140h72v-140h152v-61z" />
    <glyph glyph-name="Utilde" unicode="&#x168;" horiz-adv-x="718" 
d="M273 736l-45 5q6 91 73 91q22 0 58.5 -11.5t50.5 -11.5q32 0 35 44l46 -6q-3 -45 -20.5 -67.5t-53.5 -22.5q-22 0 -58 11t-51 11q-32 0 -35 -43zM356 -12q-138 0 -205 69t-67 209v444h75v-444q0 -110 47.5 -160t149.5 -50t152 49.5t50 158.5v446h76v-446
q0 -276 -278 -276z" />
    <glyph glyph-name="utilde" unicode="&#x169;" horiz-adv-x="557" 
d="M209 639q-40 0 -46 -61l-46 5q4 52 27.5 81.5t61.5 29.5q33 0 71.5 -18.5t52 -21.5t19.5 -3q21 0 32 14t15 48l46 -6q-3 -53 -26.5 -82t-63.5 -29q-30 0 -75 21.5t-68 21.5zM412 480h72v-480h-62l-7 84q-27 -46 -71.5 -71t-102.5 -25q-90 0 -129.5 43t-39.5 150v299h72
v-288q0 -77 26 -108t91 -31q37 0 66 13.5t48 37t28 53.5t9 59v264z" />
    <glyph glyph-name="Umacron" unicode="&#x16a;" horiz-adv-x="718" 
d="M221 759v58h277v-58h-277zM356 -12q-138 0 -205 69t-67 209v444h75v-444q0 -110 47.5 -160t149.5 -50t152 49.5t50 158.5v446h76v-446q0 -276 -278 -276z" />
    <glyph glyph-name="umacron" unicode="&#x16b;" horiz-adv-x="557" 
d="M426 657v-58h-294v58h294zM412 480h72v-480h-62l-7 84q-27 -46 -71.5 -71t-102.5 -25q-90 0 -129.5 43t-39.5 150v299h72v-288q0 -77 26 -108t91 -31q37 0 66 13.5t48 37t28 53.5t9 59v264z" />
    <glyph glyph-name="Uring" unicode="&#x16e;" horiz-adv-x="718" 
d="M360 729q-37 0 -58 20.5t-21 54.5t21.5 54.5t57.5 20.5t57.5 -21t21.5 -54q0 -34 -21.5 -54.5t-57.5 -20.5zM360 762q19 0 30.5 11t11.5 31t-11.5 31t-30.5 11t-31 -11t-12 -31t12 -31t31 -11zM356 -12q-138 0 -205 69t-67 209v444h75v-444q0 -110 47.5 -160t149.5 -50
t152 49.5t50 158.5v446h76v-446q0 -276 -278 -276z" />
    <glyph glyph-name="uring" unicode="&#x16f;" horiz-adv-x="557" 
d="M279 545q-43 0 -69 25t-26 66t26 66t69 25q42 0 68.5 -25t26.5 -66t-26.5 -66t-68.5 -25zM279 690q-25 0 -40 -15t-15 -39t15 -39t40 -15t40 15t15 39t-15 39t-40 15zM412 480h72v-480h-62l-7 84q-27 -46 -71.5 -71t-102.5 -25q-90 0 -129.5 43t-39.5 150v299h72v-288
q0 -77 26 -108t91 -31q37 0 66 13.5t48 37t28 53.5t9 59v264z" />
    <glyph glyph-name="Uhungarumlaut" unicode="&#x170;" horiz-adv-x="718" 
d="M247 742l70 111l78 -11l-82 -104zM372 742l70 111l78 -11l-82 -104zM356 -12q-138 0 -205 69t-67 209v444h75v-444q0 -110 47.5 -160t149.5 -50t152 49.5t50 158.5v446h76v-446q0 -276 -278 -276z" />
    <glyph glyph-name="uhungarumlaut" unicode="&#x171;" horiz-adv-x="557" 
d="M322 707l-106 -157h-64l92 164zM352 550h-64l92 164l78 -7zM412 480h72v-480h-62l-7 84q-27 -46 -71.5 -71t-102.5 -25q-90 0 -129.5 43t-39.5 150v299h72v-288q0 -77 26 -108t91 -31q37 0 66 13.5t48 37t28 53.5t9 59v264z" />
    <glyph glyph-name="Uogonek" unicode="&#x172;" horiz-adv-x="718" 
d="M558 710h76v-446q0 -208 -158 -259q-26 -15 -47.5 -32.5t-31.5 -35.5t-10 -32q0 -35 40 -35q20 0 50 10l3 -52q-26 -12 -70 -12q-87 0 -87 71q0 59 63 102l-30 -1q-138 0 -205 69t-67 209v444h75v-444q0 -110 47.5 -160t149.5 -50t152 49.5t50 158.5v446z" />
    <glyph glyph-name="uogonek" unicode="&#x173;" horiz-adv-x="557" 
d="M427 -139q20 0 50 10l3 -52q-26 -12 -70 -12q-87 0 -87 71q0 21 11 45t35.5 44.5t53.5 32.5h-1l-7 84q-27 -46 -71.5 -71t-102.5 -25q-90 0 -129.5 43t-39.5 150v299h72v-288q0 -77 26 -108t91 -31q37 0 66 13.5t48 37t28 53.5t9 59v264h72v-480q-52 -27 -74.5 -54
t-22.5 -50q0 -35 40 -35z" />
    <glyph glyph-name="Wcircumflex" unicode="&#x174;" horiz-adv-x="922" 
d="M462 814l-69 -74l-63 9l99 103h66l99 -103l-63 -9zM835 710h83l-216 -710h-81l-160 591l-160 -591h-80l-217 710h84l172 -598l162 598h79l161 -598z" />
    <glyph glyph-name="wcircumflex" unicode="&#x175;" horiz-adv-x="697" 
d="M349 674l-87 -112l-62 2l118 155h62l118 -155l-62 -2zM622 480h74l-166 -480h-63l-119 387l-118 -387h-63l-166 480h74l125 -387l114 387h68l115 -392z" />
    <glyph glyph-name="Ycircumflex" unicode="&#x176;" horiz-adv-x="563" 
d="M281 814l-69 -74l-63 9l99 103h66l99 -103l-63 -9zM492 710h82l-255 -420v-290h-75v290l-255 420h83l210 -356z" />
    <glyph glyph-name="ycircumflex" unicode="&#x177;" horiz-adv-x="557" 
d="M271 674l-87 -112l-62 2l118 155h62l118 -155l-62 -2zM411 480h72v-460q0 -109 -56 -159.5t-165 -50.5q-100 0 -162 30l3 67q68 -32 157 -32q45 0 80.5 13t53 45t17.5 78v89q-28 -44 -73.5 -68.5t-102.5 -24.5q-30 0 -58.5 6.5t-51.5 25t-38 56t-15 104.5v281h72v-273
q0 -74 26 -104.5t87 -30.5q44 0 81 23t55 62.5t18 77.5v245z" />
    <glyph glyph-name="Ydieresis" unicode="&#x178;" horiz-adv-x="563" 
d="M198 745q-19 0 -32 13t-13 32t13 32t32 13t31.5 -13t12.5 -32t-12.5 -32t-31.5 -13zM363 745q-19 0 -32 13t-13 32t13 32t32 13t32 -13t13 -32t-13 -32t-32 -13zM492 710h82l-255 -420v-290h-75v290l-255 420h83l210 -356z" />
    <glyph glyph-name="Zacute" unicode="&#x179;" horiz-adv-x="580" 
d="M409 842l-82 -104l-66 4l70 111zM556 710v-59l-437 -584h432v-67h-527v62l437 581h-422v67h517z" />
    <glyph glyph-name="zacute" unicode="&#x17a;" horiz-adv-x="499" 
d="M361 707l-106 -157h-64l92 164zM162 215q59 -3 115.5 -15.5t97.5 -37.5t65 -64t24 -94q0 -86 -59 -140t-161 -54q-91 0 -146.5 43t-55.5 119q0 110 126 181l-81 2l-14 61l267 204h-296v60h389l6 -60zM250 -127q66 0 105 35t39 98q0 53 -33 87t-112 50
q-77 -34 -107.5 -72.5t-30.5 -81.5q0 -20 7 -40.5t25.5 -39t48.5 -27.5t58 -9z" />
    <glyph glyph-name="Zdotaccent" unicode="&#x17b;" horiz-adv-x="580" 
d="M299 759q-21 0 -35.5 14.5t-14.5 35.5t14.5 35.5t35.5 14.5t35.5 -14.5t14.5 -35.5t-14.5 -35.5t-35.5 -14.5zM556 710v-59l-437 -584h432v-67h-527v62l437 581h-422v67h517z" />
    <glyph glyph-name="zdotaccent" unicode="&#x17c;" horiz-adv-x="499" 
d="M228 584q-21 0 -36 16t-15 38q0 21 15 37t36 16q22 0 37 -15.5t15 -37.5t-15 -38t-37 -16zM162 215q59 -3 115.5 -15.5t97.5 -37.5t65 -64t24 -94q0 -86 -59 -140t-161 -54q-91 0 -146.5 43t-55.5 119q0 110 126 181l-81 2l-14 61l267 204h-296v60h389l6 -60zM250 -127
q66 0 105 35t39 98q0 53 -33 87t-112 50q-77 -34 -107.5 -72.5t-30.5 -81.5q0 -20 7 -40.5t25.5 -39t48.5 -27.5t58 -9z" />
    <glyph glyph-name="Zcaron" unicode="&#x17d;" horiz-adv-x="580" 
d="M332 740h-66l-99 103l63 9l69 -74l69 74l63 -9zM556 710v-59l-437 -584h432v-67h-527v62l437 581h-422v67h517z" />
    <glyph glyph-name="zcaron" unicode="&#x17e;" horiz-adv-x="499" 
d="M259 555h-62l-118 155l62 2l87 -112l87 112l62 -2zM162 215q59 -3 115.5 -15.5t97.5 -37.5t65 -64t24 -94q0 -86 -59 -140t-161 -54q-91 0 -146.5 43t-55.5 119q0 110 126 181l-81 2l-14 61l267 204h-296v60h389l6 -60zM250 -127q66 0 105 35t39 98q0 53 -33 87t-112 50
q-77 -34 -107.5 -72.5t-30.5 -81.5q0 -20 7 -40.5t25.5 -39t48.5 -27.5t58 -9z" />
    <glyph glyph-name="uni01EA" unicode="&#x1ea;" horiz-adv-x="771" 
d="M501 3q-25 -13 -46.5 -30.5t-31 -35.5t-9.5 -32q0 -35 40 -35q20 0 50 10l3 -52q-26 -12 -70 -12q-87 0 -87 71q0 59 63 102l-28 -1q-77 0 -139.5 23.5t-105.5 70t-66 115.5t-23 157t23 157t66 115.5t105.5 70t139.5 23.5t139.5 -23.5t105.5 -70t66 -115.5t23 -157
q0 -141 -56.5 -230.5t-161.5 -120.5zM128 353q0 -141 68 -219t189 -78q122 0 189.5 78t67.5 220t-67.5 220t-189.5 78q-121 0 -189 -78t-68 -221z" />
    <glyph glyph-name="uni01EB" unicode="&#x1eb;" horiz-adv-x="568" 
d="M379 3q-80 -48 -80 -95q0 -35 40 -35q20 0 50 10l3 -52q-26 -12 -70 -12q-87 0 -87 71q0 58 58 98h-9q-109 0 -172.5 63.5t-63.5 186.5q0 125 63 188.5t173 63.5q53 0 96.5 -15.5t75 -47t48 -79.5t16.5 -110q0 -93 -37 -152.5t-104 -82.5zM122 238q0 -91 43 -139t119 -48
t119 48t43 139t-43 140t-119 49t-119 -49t-43 -140z" />
    <glyph glyph-name="AEacute" unicode="&#x1fc;" horiz-adv-x="956" 
d="M678 842l-82 -104l-66 4l70 111zM899 643h-321v-254h295v-65h-295v-257h315v-67h-390v324h-253l-148 -324h-78l332 710h549zM280 389h223v254h-106z" />
    <glyph glyph-name="aeacute" unicode="&#x1fd;" horiz-adv-x="845" 
d="M576 707l-106 -157h-64l92 164zM791 103l14 -65q-23 -19 -72.5 -34.5t-115.5 -15.5q-64 0 -112 22t-76 62q-19 -26 -48 -46.5t-64.5 -29t-66.5 -8.5q-93 0 -147.5 63.5t-54.5 182.5q0 59 16 107t46.5 81t72.5 50.5t92 17.5q30 0 64 -8t62 -24.5t46 -35.5q62 68 176 68
q56 0 99 -18.5t62 -51.5t19 -68q0 -45 -22.5 -80t-90 -59t-228.5 -31q20 -131 161 -131q28 0 61.5 6.5t63 20.5t43.5 25zM621 427q-34 0 -63.5 -10t-51.5 -32.5t-35 -59t-13 -85.5q100 4 157 13.5t86.5 30t29.5 63.5q0 32 -27 56t-83 24zM266 51q85 0 137 74q-17 49 -17 111
q0 37 7.5 73.5t20.5 63.5q-52 54 -134 54q-74 0 -117 -50.5t-43 -142.5t38.5 -137.5t107.5 -45.5z" />
    <glyph glyph-name="Oslashacute" unicode="&#x1fe;" horiz-adv-x="804" 
d="M495 842l-82 -104l-66 4l70 111zM630 627q43 -45 66 -115t23 -158t-23 -157t-66 -115.5t-105.5 -70t-139.5 -23.5q-102 0 -174 39l-39 -56l-67 8l57 81q-53 46 -82 121t-29 173q0 88 23 157t66 115.5t105.5 70t139.5 23.5q121 0 200 -55l58 84l66 -8zM128 353
q0 -75 20 -134t58 -96l336 481q-63 48 -157 48q-121 0 -189 -78t-68 -221zM385 56q122 0 189.5 78t67.5 220q0 132 -58 208l-331 -475q26 -14 61.5 -22.5t70.5 -8.5z" />
    <glyph glyph-name="oslashacute" unicode="&#x1ff;" horiz-adv-x="609" 
d="M416 707l-106 -157h-64l92 164zM452 431q32 -32 50 -81t18 -112q0 -123 -63.5 -186.5t-172.5 -63.5q-52 0 -96 15l-28 -44l-53 7l36 59q-45 29 -70 83.5t-25 129.5q0 125 63 188.5t173 63.5q35 0 69.5 -8t58.5 -22l37 59l53 -7zM122 238q0 -105 58 -154l196 318
q-39 25 -92 25q-76 0 -119 -49t-43 -140zM284 51q76 0 119 48t43 139q0 80 -34 128l-189 -306q27 -9 61 -9z" />
    <glyph glyph-name="Scommaaccent" unicode="&#x218;" horiz-adv-x="574" 
d="M285 -12q-140 0 -234 60l10 72q103 -65 222 -65q87 0 134 32.5t47 92.5q0 28 -10 49.5t-28 36t-45.5 26.5t-121 34.5t-131.5 45t-55.5 48.5t-23.5 52.5t-6 49.5q0 96 61.5 147t176.5 51q209 0 230 -161l-72 -14q-16 112 -159 112q-77 0 -119.5 -33t-42.5 -94
q0 -29 11.5 -54.5t43 -46.5t115.5 -40.5t114 -30t54.5 -24.5t42.5 -34.5t28.5 -50t10.5 -66.5q1 -195 -253 -195zM244 -198l-6 35q44 11 44 48q-51 0 -51 38q0 18 12.5 30t32.5 12q28 0 42 -18.5t14 -47.5q0 -37 -21 -63t-67 -34z" />
    <glyph glyph-name="scommaaccent" unicode="&#x219;" horiz-adv-x="462" 
d="M228 -12q-114 0 -187 47l9 64q80 -50 175 -50q64 0 98 19.5t34 54.5q0 9 -2.5 19t-11.5 20.5t-28.5 21t-103 29t-112.5 38.5t-41.5 43.5t-12.5 57.5q0 22 7 45t26.5 43.5t55 35t91.5 14.5q35 0 69.5 -7t60.5 -23t42.5 -40.5t18.5 -54.5l-70 -11q-12 75 -120 75
q-55 0 -83 -19.5t-28 -53.5q0 -30 19 -47t45.5 -25t86.5 -20t92.5 -26.5t51.5 -40.5t19 -67q0 -40 -20 -73.5t-68 -51t-113 -17.5zM194 -198l-6 35q44 11 44 48q-51 0 -51 38q0 18 12.5 30t32.5 12q28 0 42 -18.5t14 -47.5q0 -37 -21 -63t-67 -34z" />
    <glyph glyph-name="uni021A" unicode="&#x21a;" horiz-adv-x="516" 
d="M526 710v-70h-230v-640h-76v640h-230v70h536zM256 -35q28 0 42 -18.5t14 -47.5q0 -37 -21 -63t-67 -34l-6 35q44 11 44 48q-51 0 -51 38q0 18 12.5 30t32.5 12z" />
    <glyph glyph-name="uni021B" unicode="&#x21b;" horiz-adv-x="323" 
d="M319 419h-152v-300q0 -38 16 -53t46 -15q12 0 28 2.5t45 13.5l6 -63q-45 -16 -97 -16q-67 0 -91.5 32.5t-24.5 97.5v301h-89v61h89v140h72v-140h152v-61zM200 -35q28 0 42 -18.5t14 -47.5q0 -37 -21 -63t-67 -34l-6 35q44 11 44 48q-51 0 -51 38q0 18 12.5 30t32.5 12z
" />
    <glyph glyph-name="uni0237" unicode="&#x237;" horiz-adv-x="243" 
d="M44 -190q-39 0 -66 12l3 63q28 -10 50 -10q27 0 39.5 12.5t12.5 42.5v550h72v-556q0 -62 -28.5 -88t-82.5 -26z" />
    <glyph glyph-name="gravecomb" unicode="&#x300;" 
d="M-110 550h-65l-105 157l78 7z" />
    <glyph glyph-name="acutecomb" unicode="&#x301;" 
d="M-280 550l92 164l78 -7l-106 -157h-64z" />
    <glyph glyph-name="uni0302" unicode="&#x302;" 
d="M-110 564l-62 -2l-87 112l-87 -112l-62 2l118 155h62z" />
    <glyph glyph-name="tildecomb" unicode="&#x303;" 
d="M-388 578l-46 5q4 52 27.5 81.5t61.5 29.5q33 0 71.5 -18.5t52 -21.5t19.5 -3q21 0 32 14t15 48l46 -6q-3 -53 -26.5 -82t-63.5 -29q-30 0 -75 21.5t-68 21.5q-40 0 -46 -61z" />
    <glyph glyph-name="uni0304" unicode="&#x304;" 
d="M-403 599v58h294v-58h-294z" />
    <glyph glyph-name="uni0306" unicode="&#x306;" 
d="M-248 555q-130 0 -137 147l51 4q9 -96 86 -96q28 0 47.5 12t28.5 35.5t11 48.5l51 -4q-6 -147 -138 -147z" />
    <glyph glyph-name="uni0307" unicode="&#x307;" 
d="M-162 584q-21 0 -36 16t-15 38q0 21 15 37t36 16q22 0 37 -15.5t15 -37.5t-15 -38t-37 -16z" />
    <glyph glyph-name="uni0308" unicode="&#x308;" 
d="M-316 585q-20 0 -33.5 14t-13.5 35q0 20 13.5 34t33.5 14t33.5 -14t13.5 -34q0 -21 -13.5 -35t-33.5 -14zM-157 585q-19 0 -32.5 14t-13.5 35q0 20 13.5 34t32.5 14q20 0 33.5 -14t13.5 -34q0 -21 -13.5 -35t-33.5 -14z" />
    <glyph glyph-name="uni030A" unicode="&#x30a;" 
d="M-205 545q-43 0 -69 25t-26 66t26 66t69 25q42 0 68.5 -25t26.5 -66t-26.5 -66t-68.5 -25zM-205 582q25 0 40 15t15 39t-15 39t-40 15t-40 -15t-15 -39t15 -39t40 -15z" />
    <glyph glyph-name="uni030B" unicode="&#x30b;" 
d="M-281 550l92 164l78 -7l-106 -157h-64zM-417 550l92 164l78 -7l-106 -157h-64z" />
    <glyph glyph-name="uni030C" unicode="&#x30c;" 
d="M-172 712l62 -2l-118 -155h-62l-118 155l62 2l87 -112z" />
    <glyph glyph-name="uni0326" unicode="&#x326;" 
d="M-198 -198l-6 35q44 11 44 48q-51 0 -51 38q0 18 12.5 30t32.5 12q28 0 42 -18.5t14 -47.5q0 -37 -21 -63t-67 -34z" />
    <glyph glyph-name="uni0327" unicode="&#x327;" 
d="M-262 -192l6 49q46 0 68.5 10t22.5 33q0 18 -18 25.5t-60 7.5l15 79h45l-8 -46q38 0 59.5 -16t21.5 -48q0 -49 -36 -71.5t-116 -22.5z" />
    <glyph glyph-name="uni0328" unicode="&#x328;" 
d="M-185 -193q-87 0 -87 71q0 26 14.5 52t44 46.5t61.5 31.5l41 -8q-52 -27 -74.5 -54t-22.5 -50q0 -35 40 -35q20 0 50 10l3 -52q-26 -12 -70 -12z" />
    <glyph glyph-name="Wgrave" unicode="&#x1e80;" horiz-adv-x="922" 
d="M495 742l-66 -4l-82 104l78 11zM835 710h83l-216 -710h-81l-160 591l-160 -591h-80l-217 710h84l172 -598l162 598h79l161 -598z" />
    <glyph glyph-name="wgrave" unicode="&#x1e81;" horiz-adv-x="697" 
d="M385 550h-64l-106 157l78 7zM622 480h74l-166 -480h-63l-119 387l-118 -387h-63l-166 480h74l125 -387l114 387h68l115 -392z" />
    <glyph glyph-name="Wacute" unicode="&#x1e82;" horiz-adv-x="922" 
d="M572 842l-82 -104l-66 4l70 111zM835 710h83l-216 -710h-81l-160 591l-160 -591h-80l-217 710h84l172 -598l162 598h79l161 -598z" />
    <glyph glyph-name="wacute" unicode="&#x1e83;" horiz-adv-x="697" 
d="M481 707l-106 -157h-64l92 164zM622 480h74l-166 -480h-63l-119 387l-118 -387h-63l-166 480h74l125 -387l114 387h68l115 -392z" />
    <glyph glyph-name="Wdieresis" unicode="&#x1e84;" horiz-adv-x="922" 
d="M379 745q-19 0 -32 13t-13 32t13 32t32 13t31.5 -13t12.5 -32t-12.5 -32t-31.5 -13zM544 745q-19 0 -32 13t-13 32t13 32t32 13t32 -13t13 -32t-13 -32t-32 -13zM835 710h83l-216 -710h-81l-160 591l-160 -591h-80l-217 710h84l172 -598l162 598h79l161 -598z" />
    <glyph glyph-name="wdieresis" unicode="&#x1e85;" horiz-adv-x="697" 
d="M269 585q-20 0 -33.5 14t-13.5 35q0 20 13.5 34t33.5 14t33.5 -14t13.5 -34q0 -21 -13.5 -35t-33.5 -14zM428 585q-19 0 -32.5 14t-13.5 35q0 20 13.5 34t32.5 14q20 0 33.5 -14t13.5 -34q0 -21 -13.5 -35t-33.5 -14zM622 480h74l-166 -480h-63l-119 387l-118 -387h-63
l-166 480h74l125 -387l114 387h68l115 -392z" />
    <glyph glyph-name="Ygrave" unicode="&#x1ef2;" horiz-adv-x="563" 
d="M315 742l-66 -4l-82 104l78 11zM492 710h82l-255 -420v-290h-75v290l-255 420h83l210 -356z" />
    <glyph glyph-name="ygrave" unicode="&#x1ef3;" horiz-adv-x="557" 
d="M307 550h-64l-106 157l78 7zM411 480h72v-460q0 -109 -56 -159.5t-165 -50.5q-100 0 -162 30l3 67q68 -32 157 -32q45 0 80.5 13t53 45t17.5 78v89q-28 -44 -73.5 -68.5t-102.5 -24.5q-30 0 -58.5 6.5t-51.5 25t-38 56t-15 104.5v281h72v-273q0 -74 26 -104.5t87 -30.5
q44 0 81 23t55 62.5t18 77.5v245z" />
    <glyph glyph-name="uni1EF8" unicode="&#x1ef8;" horiz-adv-x="563" 
d="M230 779q-32 0 -35 -43l-45 5q6 91 73 91q22 0 58.5 -11.5t50.5 -11.5q32 0 35 44l46 -6q-3 -45 -20.5 -67.5t-53.5 -22.5q-22 0 -58 11t-51 11zM492 710h82l-255 -420v-290h-75v290l-255 420h83l210 -356z" />
    <glyph glyph-name="uni1EF9" unicode="&#x1ef9;" horiz-adv-x="557" 
d="M201 639q-40 0 -46 -61l-46 5q4 52 27.5 81.5t61.5 29.5q33 0 71.5 -18.5t52 -21.5t19.5 -3q21 0 32 14t15 48l46 -6q-3 -53 -26.5 -82t-63.5 -29q-30 0 -75 21.5t-68 21.5zM411 480h72v-460q0 -109 -56 -159.5t-165 -50.5q-100 0 -162 30l3 67q68 -32 157 -32
q45 0 80.5 13t53 45t17.5 78v89q-28 -44 -73.5 -68.5t-102.5 -24.5q-30 0 -58.5 6.5t-51.5 25t-38 56t-15 104.5v281h72v-273q0 -74 26 -104.5t87 -30.5q44 0 81 23t55 62.5t18 77.5v245z" />
    <glyph glyph-name="endash" unicode="&#x2013;" horiz-adv-x="593" 
d="M67 255v64h458v-64h-458z" />
    <glyph glyph-name="emdash" unicode="&#x2014;" horiz-adv-x="881" 
d="M67 255v64h747v-64h-747z" />
    <glyph glyph-name="quoteleft" unicode="&#x2018;" horiz-adv-x="244" 
d="M157 730l24 -42q-25 -16 -34.5 -33.5t-9.5 -40.5q0 -21 14 -32.5t36 -11.5q0 -28 -13.5 -45t-38.5 -17q-26 0 -42.5 23t-16.5 63q0 84 81 136z" />
    <glyph glyph-name="quoteright" unicode="&#x2019;" horiz-adv-x="244" 
d="M104 488l-24 42q25 16 34.5 33.5t9.5 40.5q0 21 -14 32.5t-36 11.5q0 28 13.5 45t38.5 17q26 0 42.5 -23t16.5 -63q0 -84 -81 -136z" />
    <glyph glyph-name="quotesinglbase" unicode="&#x201a;" horiz-adv-x="227" 
d="M87 -122l-24 41q26 18 35 34.5t9 39.5q0 21 -14 32.5t-36 11.5q0 28 13.5 45t38.5 17q26 0 42.5 -23t16.5 -63q0 -83 -81 -135z" />
    <glyph glyph-name="quotedblleft" unicode="&#x201c;" horiz-adv-x="409" 
d="M322 730l24 -42q-25 -16 -34.5 -33.5t-9.5 -40.5q0 -21 14 -32.5t36 -11.5q0 -28 -13.5 -45t-38.5 -17q-26 0 -42.5 23t-16.5 63q0 84 81 136zM156 729l24 -41q-26 -18 -35 -34.5t-9 -39.5q0 -21 14 -32.5t36 -11.5q0 -28 -13 -45t-39 -17t-42.5 23t-16.5 63q0 83 81 135
z" />
    <glyph glyph-name="quotedblright" unicode="&#x201d;" horiz-adv-x="409" 
d="M104 488l-24 42q25 16 34.5 33.5t9.5 40.5q0 21 -14 32.5t-36 11.5q0 28 13.5 45t38.5 17q26 0 42.5 -23t16.5 -63q0 -84 -81 -136zM270 489l-24 41q26 18 35 34.5t9 39.5q0 21 -14 32.5t-36 11.5q0 28 13 45t39 17t42.5 -23t16.5 -63q0 -83 -81 -135z" />
    <glyph glyph-name="quotedblbase" unicode="&#x201e;" horiz-adv-x="392" 
d="M87 -122l-24 41q26 18 35 34.5t9 39.5q0 21 -14 32.5t-36 11.5q0 28 13.5 45t38.5 17q26 0 42.5 -23t16.5 -63q0 -83 -81 -135zM253 -122l-24 41q26 18 35 34.5t9 39.5q0 21 -14 32.5t-36 11.5q0 28 13 45t39 17t42.5 -23t16.5 -63q0 -83 -81 -135z" />
    <glyph glyph-name="dagger" unicode="&#x2020;" horiz-adv-x="607" 
d="M510 508l-6 -74l-170 13l5 -447h-72l5 446l-169 -12l-6 74l174 -12l-10 214h83l-10 -214z" />
    <glyph glyph-name="daggerdbl" unicode="&#x2021;" horiz-adv-x="587" 
d="M483 287l7 -74l-166 12l7 -225h-75l5 225l-164 -12l6 74l159 -12v200l-159 -12l-6 74l163 -12l-9 185h83l-9 -185l165 12l-7 -74l-160 12v-200z" />
    <glyph glyph-name="bullet" unicode="&#x2022;" horiz-adv-x="346" 
d="M173 207q-19 0 -40.5 9t-36.5 32.5t-15 53.5q0 19 8.5 41.5t31.5 38t52 15.5t52 -15.5t32 -38t9 -41.5t-9 -41.5t-32 -38t-52 -15.5z" />
    <glyph glyph-name="ellipsis" unicode="&#x2026;" horiz-adv-x="678" 
d="M338 -12q-24 0 -40.5 18t-16.5 44t16.5 44t40.5 18t40.5 -18t16.5 -44t-16.5 -44t-40.5 -18zM565 -12q-24 0 -40.5 18t-16.5 44t16.5 44t40.5 18t40.5 -18t16.5 -44t-16.5 -44t-40.5 -18zM114 -12q-24 0 -40.5 18t-16.5 44t16.5 44t40.5 18q25 0 41.5 -18t16.5 -44
t-16.5 -44t-41.5 -18z" />
    <glyph glyph-name="perthousand" unicode="&#x2030;" horiz-adv-x="1306" 
d="M253 326q-54 0 -93.5 23.5t-56.5 70.5t-17 103t17 103t56.5 70.5t93.5 23.5q85 0 125.5 -52t40.5 -145t-40.5 -145t-125.5 -52zM244 -12l-67 4l510 728l67 -4zM253 377q106 0 106 146q0 145 -106 145q-107 0 -107 -145q0 -71 26.5 -108.5t80.5 -37.5zM678 -12
q-85 0 -125.5 52.5t-40.5 144.5t40.5 144.5t125.5 52.5q54 0 93.5 -23.5t56.5 -70.5t17 -103t-17 -103t-56.5 -70.5t-93.5 -23.5zM1073 -12q-54 0 -93.5 23.5t-56.5 70.5t-17 103t17 103t56.5 70.5t93.5 23.5t93.5 -23.5t56.5 -70.5t17 -103t-17 -103t-56.5 -70.5
t-93.5 -23.5zM678 40q107 0 107 145q0 146 -107 146q-106 0 -106 -146q0 -145 106 -145zM1073 40q106 0 106 145q0 146 -106 146q-107 0 -107 -146q0 -145 107 -145z" />
    <glyph glyph-name="guilsinglleft" unicode="&#x2039;" horiz-adv-x="322" 
d="M245 419l-135 -135l135 -125l-39 -40l-164 158v12l165 170z" />
    <glyph glyph-name="guilsinglright" unicode="&#x203a;" horiz-adv-x="323" 
d="M81 459l165 -170v-12l-164 -158l-40 40l136 125l-136 135z" />
    <glyph glyph-name="fraction" unicode="&#x2044;" horiz-adv-x="391" 
d="M-26 -12l-67 4l510 728l67 -4z" />
    <glyph glyph-name="Euro" unicode="&#x20ac;" horiz-adv-x="706" 
d="M541 431l-9 -54h-483l7 54h83q6 56 25 109t54 93t87 63.5t122 23.5q53 0 105.5 -14t91.5 -45l-14 -68q-86 60 -180 60q-64 0 -108 -27t-70.5 -75.5t-35.5 -119.5h325zM624 115l15 -68q-17 -14 -51.5 -29t-77.5 -22.5t-80 -7.5q-84 0 -143.5 32.5t-96 91t-49.5 145.5h-104
l6 54h483l-8 -54h-299q18 -104 74 -153t141 -49q32 0 69.5 7t69 22t51.5 31z" />
    <glyph glyph-name="trademark" unicode="&#x2122;" horiz-adv-x="649" 
d="M592 426h-45l-6 221l-85 -192h-32l-87 194l-6 -223h-44l6 237h-100v-237h-46v237h-90v37h299l84 -190l83 190h61z" />
    <glyph glyph-name="minus" unicode="&#x2212;" horiz-adv-x="577" 
d="M91 285v64h395v-64h-395z" />
    <glyph glyph-name="approxequal" unicode="&#x2248;" horiz-adv-x="566" 
d="M141 329l-50 8q5 48 29 76t66 28q35 0 100 -15t92 -15q22 0 33 12t15 42l50 -8q-4 -48 -28.5 -76t-66.5 -28q-35 0 -100 15t-91 15q-41 0 -49 -54zM141 169l-50 8q5 48 29 76t66 28q35 0 100 -15t92 -15q22 0 33 12t15 42l50 -8q-4 -48 -28.5 -76t-66.5 -28
q-35 0 -100 15t-91 15q-41 0 -49 -54z" />
    <glyph glyph-name="notequal" unicode="&#x2260;" horiz-adv-x="597" 
d="M508 377h-162l-39 -120h201v-60h-220l-33 -103h-65l34 103h-133v60h152l39 120h-191v60h210l33 102h65l-33 -102h142v-60z" />
    <glyph glyph-name="uniF8FF" unicode="&#xf8ff;" horiz-adv-x="1461" 
d="M757 522q-25 0 -43 18t-18 43q0 26 18 44t43 18q26 0 44 -18t18 -44q0 -25 -18 -43t-44 -18zM105 270q0 134 9 314h100q0 -4 2 -34.5t3 -62t3 -88t2 -129.5h-119zM609 264q-40 0 -61 17t-21 49l4 87h-22v79l119 30l1 -17h178q10 -64 10 -239h-118q0 92 3 147h-61l3 -65
q4 -4 15 -4q13 0 18 5v-74q-14 -15 -68 -15zM333 265q-43 0 -67.5 29t-24.5 85q0 65 33.5 100t100.5 35q64 0 94 -31.5t30 -85.5v-127h-83l-8 61q-6 -32 -23.5 -49t-51.5 -17zM839 270q0 175 10 239h80q6 -44 6 -76q4 37 26 59t54 22q21 0 39.5 -8.5t27.5 -32.5t10 -65
l3 -138h-114l2 93q0 6 -1.5 17.5t-13.5 11.5q-8 0 -13 -5.5t-5 -23.5q0 -7 1.5 -37t1.5 -56h-114zM1233 265q-63 0 -92.5 33.5t-29.5 90.5q0 37 13 65.5t40.5 44t70.5 15.5q121 0 121 -123q0 -61 -30.5 -93.5t-92.5 -32.5zM371 345q11 0 17.5 8.5t6.5 21.5q0 26 -24 26
q-22 0 -22 -26q0 -14 6 -22t16 -8zM1233 345q10 0 16.5 8.5t6.5 21.5q0 26 -23 26q-21 0 -21 -26q0 -14 5.5 -22t15.5 -8zM395 -50q-61 0 -88 17v83q24 -16 70 -16q29 0 41.5 10t12.5 18q-16 -11 -49 -11q-90 0 -90 83v13h-55l3 -65q6 -4 15 -4q13 0 18 5v-73
q-19 -15 -68 -15q-44 0 -62.5 17.5t-18.5 53.5l3 81h-18v80l117 29l-1 -18h177v-119q0 -15 3.5 -21t11.5 -6q16 0 16 27v119h104q3 -18 6.5 -60t3.5 -78q0 -81 -34 -115.5t-118 -34.5zM563 -44q0 142 10 282h78q2 -11 4.5 -38t2.5 -38q8 38 28.5 59.5t51.5 21.5
q37 0 58.5 -29.5t21.5 -83.5q0 -135 -137 -135l1 -39h-119zM975 -5q-70 0 -105.5 31t-35.5 91q0 27 10.5 56.5t39.5 49.5t75 20q54 0 85 -30.5t31 -85.5q0 -21 -3 -35h-124q4 -6 16 -12t34 -6q34 0 55 12v-75q-23 -16 -78 -16zM943 109h40q1 13 -3.5 20t-13.5 7
q-10 0 -16.5 -7.5t-6.5 -19.5zM675 72q15 0 26 11t11 26q0 11 -5.5 17t-14.5 6q-22 0 -22 -31q0 -14 5 -29zM1103 -10q-10 0 -17 6.5t-7 16.5t7 16.5t17 6.5t17 -6.5t7 -16.5t-7 -16.5t-17 -6.5zM1103 -5q8 0 13 5t5 13t-5 13t-13 5t-13 -5t-5 -13t5 -13t13 -5zM1093 2v23
h11q10 0 10 -7q0 -1 -1.5 -4t-5.5 -3l6 -9h-6l-4 9h-5v-9h-5zM1098 15h7q3 0 4 3q-1 3 -4 3h-7v-6z" />
    <glyph glyph-name="i.aalt" horiz-adv-x="209" 
d="M123 584q-21 0 -36 16t-15 38q0 21 15 37t36 16q22 0 37 -15.5t15 -37.5t-15 -38t-37 -16zM87 0v480h72v-480h-72z" />
    <glyph glyph-name="f_t.dlig" horiz-adv-x="629" 
d="M593 419h-151v-300q0 -38 15.5 -53t44.5 -15q13 0 28.5 2.5t47.5 13.5l4 -63q-45 -16 -96 -16q-67 0 -91.5 32.5t-24.5 97.5v301h-189v-419h-72v419h-91v61h91v89q0 75 32 113t90 38q46 0 82 -14l-5 -63q-32 12 -63 12q-64 0 -64 -82v-93h189v140h72v-140h151v-61z" />
    <glyph glyph-name="glyph348" 
d="M-155 710l-67 5l-27 -188l60 -6z" />
    <glyph glyph-name="acutecomb.aalt" 
d="M-251 742l70 111l78 -11l-82 -104z" />
    <glyph glyph-name="uni0306.aalt" 
d="M-223 737q-111 0 -119 114l47 5q4 -38 21.5 -55t50.5 -17t50.5 17t21.5 55l48 -5q-8 -114 -120 -114z" />
    <glyph glyph-name="uni030C.aalt" 
d="M-166 852l63 -9l-99 -103h-66l-99 103l63 9l69 -74z" />
    <glyph glyph-name="uni0302.aalt" 
d="M-103 749l-63 -9l-69 74l-69 -74l-63 9l99 103h66z" />
    <glyph glyph-name="uni0308.aalt" 
d="M-312 745q-19 0 -32 13t-13 32t13 32t32 13t31.5 -13t12.5 -32t-12.5 -32t-31.5 -13zM-147 745q-19 0 -32 13t-13 32t13 32t32 13t32 -13t13 -32t-13 -32t-32 -13z" />
    <glyph glyph-name="uni0307.aalt" 
d="M-153 759q-21 0 -35.5 14.5t-14.5 35.5t14.5 35.5t35.5 14.5t35.5 -14.5t14.5 -35.5t-14.5 -35.5t-35.5 -14.5z" />
    <glyph glyph-name="gravecomb.aalt" 
d="M-103 742l-66 -4l-82 104l78 11z" />
    <glyph glyph-name="uni030B.aalt" 
d="M-252 742l71 111l78 -11l-82 -104zM-376 742l70 111l78 -11l-82 -104z" />
    <glyph glyph-name="uni0304.aalt" 
d="M-380 759v58h277v-58h-277z" />
    <glyph glyph-name="uni030A.aalt" 
d="M-181 729q-37 0 -58 20.5t-21 54.5t21.5 54.5t57.5 20.5t57.5 -21t21.5 -54q0 -34 -21.5 -54.5t-57.5 -20.5zM-181 762q19 0 30.5 11t11.5 31t-11.5 31t-30.5 11t-31 -11t-12 -31t12 -31t31 -11z" />
    <glyph glyph-name="tildecomb.aalt" 
d="M-320 736l-45 5q6 91 73 91q22 0 58.5 -11.5t50.5 -11.5q32 0 35 44l46 -6q-3 -45 -20.5 -67.5t-53.5 -22.5q-22 0 -58 11t-51 11q-32 0 -35 -43z" />
    <glyph glyph-name="glyph360" horiz-adv-x="736" 
d="M276 842l-82 -104l-66 4l70 111zM724 842l-82 -104l-66 4l70 111zM281 710v-67h-79v-576h79v-67h-234v67h79v576h-79v67h234zM576 189v521h77v-525q0 -67 -21 -109.5t-64.5 -65t-115.5 -22.5q-85 0 -146 28l7 67q69 -28 135 -28q68 0 98 30.5t30 103.5z" />
    <glyph glyph-name="glyph361" horiz-adv-x="432" 
d="M86 550l92 164l78 -7l-106 -157h-64zM270 550l92 164l78 -7l-106 -157h-64zM87 0v480h72v-480h-72zM233 -190q-39 0 -66 12l3 63q28 -10 50 -10q27 0 39.5 12.5t12.5 42.5v550h72v-556q0 -62 -28.5 -88t-82.5 -26z" />
    </font>
</defs>
</svg>
