<?xml version="1.0" standalone="no"?>
<!DOCTYPE svg PUBLIC "-//W3C//DTD SVG 1.1//EN" "http://www.w3.org/Graphics/SVG/1.1/DTD/svg11.dtd" >
<svg xmlns="http://www.w3.org/2000/svg" xmlns:xlink="http://www.w3.org/1999/xlink" version="1.1">
<metadata>
Created by FontForge 20200427 at Wed Oct 28 21:54:29 2015
 By www
Latinotype
</metadata>
<defs>
<font id="CorporativeSansW00-Light" horiz-adv-x="0" >
  <font-face 
    font-family="CorporativeSansW00-Light"
    font-weight="300"
    font-stretch="normal"
    units-per-em="1000"
    panose-1="1 0 0 0 0 0 0 0 0 0"
    ascent="800"
    descent="-200"
    x-height="480"
    cap-height="710"
    bbox="-424 -193 1356 874"
    underline-thickness="50"
    underline-position="-125"
    unicode-range="U+0020-FB02"
  />
<missing-glyph horiz-adv-x="514" 
d="M85 710h344v-710h-344v710zM137 675l120 -278l120 278h-240zM239 355l-122 284v-568zM275 355l122 -284v568zM257 313l-120 -278h240z" />
    <glyph glyph-name="uniFB01" unicode="fi" horiz-adv-x="494" 
d="M405 480v-480h-38v448h-210v-448h-38v448h-72v32h72v107q0 68 38.5 100.5t107.5 32.5q72 0 113 -18l-3 -35q-17 7 -45 12.5t-59 5.5q-55 0 -84.5 -25t-29.5 -74v-106h248z" />
    <glyph glyph-name="uniFB02" unicode="fl" horiz-adv-x="504" 
d="M374 710h38v-710h-38v448h-216v-448h-38v448h-97v32h97v108q0 67 29.5 99.5t82.5 32.5q46 0 85 -17l-3 -34q-34 16 -76 16q-38 0 -59 -24t-21 -72v-109h216v230z" />
    <glyph glyph-name=".notdef" horiz-adv-x="514" 
d="M85 710h344v-710h-344v710zM137 675l120 -278l120 278h-240zM239 355l-122 284v-568zM275 355l122 -284v568zM257 313l-120 -278h240z" />
    <glyph glyph-name=".null" 
 />
    <glyph glyph-name="nonmarkingreturn" horiz-adv-x="333" 
 />
    <glyph glyph-name="space" unicode=" " horiz-adv-x="202" 
 />
    <glyph glyph-name="exclam" unicode="!" horiz-adv-x="203" 
d="M84 188l-4 522h44l-6 -522h-34zM101 -12q-16 0 -27 12t-11 28t11 27.5t27 11.5q17 0 28 -11.5t11 -27.5q0 -17 -11 -28.5t-28 -11.5z" />
    <glyph glyph-name="quotedbl" unicode="&#x22;" horiz-adv-x="354" 
d="M211 497l13 222l46 -8l-28 -214h-31zM81 497l13 222l46 -8l-28 -214h-31z" />
    <glyph glyph-name="numbersign" unicode="#" horiz-adv-x="729" 
d="M621 410h-126l-38 -170h126l-6 -30h-127l-34 -150h-35l34 150h-155l-34 -150h-34l34 150h-125l7 30h125l38 170h-126l7 30h126l34 150h34l-34 -150h155l34 150h35l-34 -150h126zM422 240l38 170h-155l-38 -170h155z" />
    <glyph glyph-name="dollar" unicode="$" horiz-adv-x="615" 
d="M542 175q0 -82 -59 -127.5t-165 -49.5l-2 -100h-35l2 100q-53 2 -108 17.5t-97 41.5l5 38q27 -19 80 -38.5t120 -22.5l7 304q-74 23 -108.5 39.5t-59.5 38t-37 51.5t-12 63q0 39 14 72t42.5 57t71 37t97.5 14l3 100h35l-2 -101q84 -5 130 -42t60 -98l-39 -9
q-6 30 -26.5 57.5t-54 41t-71.5 16.5l-7 -311q92 -28 134.5 -53t62 -59.5t19.5 -76.5zM112 528q0 -48 34 -83.5t145 -69.5l7 301q-56 -1 -100.5 -18.5t-65 -52.5t-20.5 -77zM319 34q63 2 103 19.5t60.5 47t20.5 73.5q0 48 -34 83.5t-143 69.5z" />
    <glyph glyph-name="percent" unicode="%" horiz-adv-x="865" 
d="M248 326q-42 0 -73 14t-50.5 40t-29 62.5t-9.5 80.5t9.5 80.5t29 62.5t50.5 40t73 14q82 0 121.5 -52.5t39.5 -145.5q0 -92 -39.5 -144t-121.5 -52zM205 -12l-38 3l513 729l38 -3zM248 354q65 0 96.5 44.5t31.5 123.5q0 80 -31.5 125t-96.5 45q-40 0 -68.5 -18t-44.5 -55
t-16 -96q0 -78 32.5 -123.5t96.5 -45.5zM637 -12q-51 0 -86.5 21.5t-55.5 64.5t-20 111q0 56 17 103t55.5 70.5t89.5 23.5q82 0 122 -52.5t40 -145.5q0 -92 -40 -144t-122 -52zM637 16q64 0 96.5 45t32.5 123q0 59 -16 96t-44.5 55.5t-68.5 18.5q-64 0 -96.5 -45t-32.5 -124
q0 -78 32.5 -123.5t96.5 -45.5z" />
    <glyph glyph-name="ampersand" unicode="&#x26;" horiz-adv-x="789" 
d="M726 413q-18 -100 -58 -187t-101 -145l98 -93l-41 -6l-82 78q-105 -82 -251 -82q-111 0 -167.5 41t-56.5 119q0 55 32 99t147 101q-42 40 -66 71.5t-33.5 66t-9.5 66.5q0 35 11 67.5t33.5 57t58 39t80.5 14.5q35 0 63.5 -7.5t51.5 -23.5t40.5 -48t17.5 -82
q0 -23 -6.5 -50t-22.5 -52.5t-44.5 -51t-119.5 -73.5l240 -225q55 52 92.5 131.5t54.5 178.5zM175 541q0 -54 21.5 -92.5t80.5 -94.5q84 44 115.5 71t47 58t15.5 68q0 66 -36.5 100t-99.5 34q-43 0 -77.5 -18.5t-50.5 -53.5t-16 -72zM296 13q126 0 218 72l-244 231h-1
q-87 -45 -124 -81t-37 -95q0 -127 188 -127z" />
    <glyph glyph-name="quotesingle" unicode="'" horiz-adv-x="221" 
d="M81 497l13 222l46 -8l-28 -214h-31z" />
    <glyph glyph-name="parenleft" unicode="(" horiz-adv-x="450" 
d="M378 -190q-43 21 -88 64.5t-83.5 107.5t-62 149.5t-23.5 183.5t23.5 183.5t62 149.5t83.5 107.5t88 64.5l9 -34q-36 -19 -75 -58.5t-73.5 -98.5t-56 -139.5t-21.5 -174.5q0 -46 9 -113t41 -144t81 -133t95 -81z" />
    <glyph glyph-name="parenright" unicode=")" horiz-adv-x="449" 
d="M71 -190l-9 34q36 20 75 59t73.5 98t56 139.5t21.5 174.5q0 46 -9 113t-41 144t-81 133t-95 81l9 34q43 -21 88 -64.5t83.5 -107.5t62 -149.5t23.5 -183.5t-23.5 -183.5t-62 -149.5t-83.5 -107.5t-88 -64.5z" />
    <glyph glyph-name="asterisk" unicode="*" horiz-adv-x="455" 
d="M212 461l3 109l-98 -64l-16 28l105 58l-105 57l16 28l98 -64l-3 109h32l-4 -109l98 64l16 -28l-105 -57l105 -58l-16 -28l-98 64l4 -109h-32z" />
    <glyph glyph-name="plus" unicode="+" horiz-adv-x="566" 
d="M465 334v-34h-164v-172h-37v172h-163v34h163v172h37v-172h164z" />
    <glyph glyph-name="comma" unicode="," horiz-adv-x="203" 
d="M83 -99l-15 24q20 15 27.5 30t7.5 35q0 16 -11.5 26t-28.5 10q0 15 8.5 26t25.5 11q18 0 30.5 -16.5t12.5 -44.5q0 -61 -57 -101z" />
    <glyph glyph-name="hyphen" unicode="-" horiz-adv-x="411" 
d="M73 270v34h265v-34h-265z" />
    <glyph glyph-name="period" unicode="." horiz-adv-x="203" 
d="M101 -12q-16 0 -27 12t-11 28t11 27.5t27 11.5q17 0 28 -11.5t11 -27.5q0 -17 -11 -28.5t-28 -11.5z" />
    <glyph glyph-name="slash" unicode="/" horiz-adv-x="369" 
d="M6 -180l319 990h38l-320 -990h-37z" />
    <glyph glyph-name="zero" unicode="0" horiz-adv-x="644" 
d="M322 -13q-61 0 -107 26t-75.5 74.5t-44 116t-14.5 150.5t14.5 150.5t44 115.5t75.5 74t107 26q45 0 89 -17.5t77.5 -60.5t53.5 -114t20 -175q0 -126 -29.5 -206t-82 -120t-128.5 -40zM322 23q63 0 107 36t69 108.5t25 185.5t-25 185.5t-69 109t-107 36.5
q-50 0 -88.5 -23.5t-63 -67.5t-37 -105t-12.5 -134t12 -134.5t37 -105t63.5 -67.5t88.5 -24z" />
    <glyph glyph-name="one" unicode="1" horiz-adv-x="379" 
d="M239 34h109v-34h-289v34h139v633q-26 -20 -90 -53t-105 -48l-7 36q51 19 109 49.5t93 58.5h41v-676z" />
    <glyph glyph-name="two" unicode="2" horiz-adv-x="594" 
d="M130 34h383v-34h-423v17q0 33 12 72.5t49 82t116 98.5t110 83.5t48.5 53t26.5 52t9 55.5q0 56 -21.5 94t-59.5 58t-94 20q-70 0 -110 -28.5t-58 -88.5l-37 7q16 68 65.5 106t139.5 38q53 0 94 -15.5t67.5 -43t40 -64.5t13.5 -79q0 -63 -35 -119.5t-136.5 -128t-129 -99
t-42.5 -51t-21 -46t-7 -40.5z" />
    <glyph glyph-name="three" unicode="3" horiz-adv-x="593" 
d="M363 370q28 -7 56 -22.5t48.5 -37.5t32.5 -53.5t12 -69.5q0 -44 -14 -80.5t-42.5 -63t-72 -41t-98.5 -14.5q-75 0 -128.5 30t-75.5 95l35 12q18 -53 61.5 -78t110.5 -25q85 0 134.5 41.5t49.5 122.5q0 76 -53 121t-133 45h-60v34h60q40 0 79 16.5t61.5 52.5t22.5 82
q0 50 -20 82.5t-55.5 49.5t-87.5 17q-70 0 -108 -27.5t-54 -82.5l-38 8q38 136 200 136q101 0 151 -50t50 -133q0 -33 -12 -66.5t-42 -60t-70 -40.5z" />
    <glyph glyph-name="four" unicode="4" horiz-adv-x="531" 
d="M396 263h119v-34h-119v-229h-41v229h-341l-8 30l354 451h36v-447zM52 263h303v389z" />
    <glyph glyph-name="five" unicode="5" horiz-adv-x="580" 
d="M269 412q109 0 169.5 -53t60.5 -157q0 -70 -26 -117t-73.5 -72t-118.5 -25q-72 0 -125 29.5t-75 95.5l34 13q10 -31 32 -54.5t55.5 -36.5t80.5 -13q86 0 131.5 47t45.5 132t-49.5 131.5t-149.5 46.5q-61 0 -138 -22l11 353h335v-35h-298l-9 -276q48 13 107 13z" />
    <glyph glyph-name="six" unicode="6" horiz-adv-x="607" 
d="M316 426q37 0 74.5 -11t67 -37t48.5 -68.5t19 -99.5q0 -102 -55 -162t-156 -60q-53 0 -96.5 20t-73.5 61t-46.5 105.5t-16.5 150.5q0 92 14.5 166t44.5 125t76 77.5t106 26.5q37 0 74.5 -13t66 -45.5t39.5 -71.5l-37 -7q-13 47 -51.5 75t-94.5 28q-95 0 -146.5 -86.5
t-53.5 -256.5q21 23 56 44t72.5 30t68.5 9zM314 22q35 0 66.5 11t55.5 33.5t37.5 59t13.5 84.5q0 83 -47 133t-125 50q-31 0 -68.5 -10t-71 -32t-55.5 -47q6 -282 194 -282z" />
    <glyph glyph-name="seven" unicode="7" horiz-adv-x="404" 
d="M-18 710h426v-37q-101 -156 -179.5 -329t-125.5 -344h-43q24 84 66.5 196.5t106.5 238.5t136 240h-387v35z" />
    <glyph glyph-name="eight" unicode="8" horiz-adv-x="618" 
d="M380 364q83 -30 119.5 -74.5t36.5 -106.5q0 -42 -14.5 -78t-43.5 -62t-72.5 -40.5t-98.5 -14.5q-105 0 -165.5 48.5t-60.5 135.5q0 66 39 116.5t117 87.5q-56 22 -90 61.5t-34 105.5q0 28 8 58t28.5 56t59 44.5t97.5 18.5q36 0 72 -9t63.5 -30.5t44 -55t16.5 -78.5
q0 -44 -16 -78.5t-44 -61t-62 -43.5zM151 544q0 -29 10 -58t42 -53.5t117 -48.5l23 -7q121 58 121 166q0 65 -41 103.5t-117 38.5q-74 0 -114.5 -37t-40.5 -104zM308 24q86 0 138 41.5t52 116.5q0 39 -17.5 71t-57.5 55.5t-123 47.5l-28 8q-76 -37 -114.5 -82.5
t-38.5 -105.5q0 -72 52 -112t137 -40z" />
    <glyph glyph-name="nine" unicode="9" horiz-adv-x="610" 
d="M289 720q78 0 131 -41t81 -118.5t28 -195.5q0 -85 -15.5 -155t-46.5 -119.5t-79 -76t-109 -26.5q-48 0 -85 14.5t-63.5 45t-36.5 80.5l35 8q31 -113 151 -113q99 0 154 88t55 247v12q-23 -23 -59 -43.5t-74.5 -29t-70.5 -8.5q-96 0 -150 54.5t-54 153.5q0 71 27.5 121
t73 76t107.5 26zM285 322q64 0 116.5 24.5t85.5 61.5q-15 277 -198 277q-80 0 -125 -50.5t-45 -138.5q0 -87 44.5 -130.5t121.5 -43.5z" />
    <glyph glyph-name="colon" unicode=":" horiz-adv-x="204" 
d="M101 405q-16 0 -27 12t-11 28q0 17 11 28.5t27 11.5q17 0 28 -11.5t11 -28.5t-11 -28.5t-28 -11.5zM101 -12q-16 0 -27 12t-11 28t11 27.5t27 11.5q17 0 28 -11.5t11 -27.5q0 -17 -11 -28.5t-28 -11.5z" />
    <glyph glyph-name="semicolon" unicode=";" horiz-adv-x="205" 
d="M101 405q-16 0 -27 12t-11 28q0 17 11 28.5t27 11.5q17 0 28 -11.5t11 -28.5t-11 -28.5t-28 -11.5zM83 -99l-15 24q20 15 27.5 30t7.5 35q0 16 -11.5 26t-28.5 10q0 15 8.5 26t25.5 11q18 0 30.5 -16.5t12.5 -44.5q0 -61 -57 -101z" />
    <glyph glyph-name="less" unicode="&#x3c;" horiz-adv-x="568" 
d="M467 502l-330 -185l330 -185l-2 -36l-364 205v32l364 205z" />
    <glyph glyph-name="equal" unicode="=" horiz-adv-x="622" 
d="M101 390v33h419v-33h-419zM101 210v33h419v-33h-419z" />
    <glyph glyph-name="greater" unicode="&#x3e;" horiz-adv-x="566" 
d="M101 538l364 -205v-32l-364 -205l-2 36l331 185l-331 185z" />
    <glyph glyph-name="question" unicode="?" horiz-adv-x="504" 
d="M191 196l-7 109q7 5 36.5 23.5t49 33t34 29.5t28 33.5t23.5 47t10 67.5q0 68 -35.5 107.5t-107.5 39.5q-104 0 -128 -86l-33 9q18 57 57.5 84t103.5 27q90 0 135.5 -47t45.5 -130q0 -53 -18 -94.5t-47 -70.5t-68.5 -55.5t-42.5 -28.5l-6 -98h-30zM205 -12
q-16 0 -26.5 11.5t-10.5 28.5q0 16 10.5 27.5t26.5 11.5q17 0 28 -11t11 -28t-11 -28.5t-28 -11.5z" />
    <glyph glyph-name="at" unicode="@" horiz-adv-x="1094" 
d="M559 713q97 0 177.5 -29t137.5 -85t87.5 -137.5t30.5 -181.5q0 -134 -40 -207t-129 -73q-105 0 -124 102q-16 -33 -46 -58t-66.5 -34.5t-67.5 -9.5q-42 0 -77.5 15.5t-61 45.5t-39 73.5t-13.5 97.5q0 56 15.5 102.5t44 79t68.5 49.5t87 17q91 0 152 -52l5 42h31v-316
q0 -121 95 -121q72 0 102.5 65t30.5 182q0 90 -28 165t-80 127t-127 80t-165 28q-91 0 -168.5 -29t-134 -84.5t-87.5 -136t-31 -178.5q0 -112 30 -192t82 -128.5t118 -70.5t138 -22q60 0 118.5 13.5t98.5 39.5l4 -35q-79 -50 -219 -50q-84 0 -157.5 25t-130 79t-88 139
t-31.5 202q0 68 13.5 127.5t42.5 115t83.5 106.5t138.5 81.5t180 30.5zM525 34q53 0 91 21t57.5 55.5t19.5 82.5v198q-57 55 -145 55q-84 0 -133 -55.5t-49 -158.5q0 -96 43 -147t116 -51z" />
    <glyph glyph-name="A" unicode="A" horiz-adv-x="614" 
d="M572 0l-87 219h-357l-87 -219h-41l283 710h47l284 -710h-42zM141 254h331l-165 420z" />
    <glyph glyph-name="B" unicode="B" horiz-adv-x="635" 
d="M430 375q31 -8 68.5 -28t63.5 -59t26 -94q0 -46 -13.5 -82t-43 -61t-76.5 -38t-112 -13h-237v710h175q268 0 268 -179q0 -61 -31.5 -100t-87.5 -56zM280 675h-134v-289h169q67 0 109 17t63 47.5t21 76.5q0 74 -53 111t-175 37zM342 36q67 0 115.5 17t69 54t20.5 87
q0 46 -22 80t-66.5 55.5t-111.5 21.5h-201v-315h196z" />
    <glyph glyph-name="C" unicode="C" horiz-adv-x="673" 
d="M393 -12q-75 0 -137.5 23t-106.5 69t-68 114.5t-24 155.5q0 89 22.5 159.5t64 117t99.5 70t127 23.5q47 0 94.5 -11t85 -37t60.5 -67t23 -96l-40 -4q-2 62 -30.5 101.5t-75.5 59t-114 19.5q-60 0 -111 -20.5t-87.5 -62t-56.5 -105.5t-20 -146q0 -78 21 -140t60 -103.5
t94 -62.5t122 -21q139 0 224 65l10 -36q-37 -28 -96.5 -46.5t-139.5 -18.5z" />
    <glyph glyph-name="D" unicode="D" horiz-adv-x="726" 
d="M305 710q87 0 156 -26.5t115 -74.5t69.5 -113.5t23.5 -141.5t-23 -141t-69 -113t-115.5 -74t-156.5 -26h-199v710h199zM304 36q81 0 143 24.5t102 67.5t59.5 101t19.5 125t-19.5 125.5t-59.5 102t-102 68t-143 24.5h-158v-638h158z" />
    <glyph glyph-name="E" unicode="E" horiz-adv-x="573" 
d="M533 675h-387v-300h357v-35h-357v-304h387v-36h-427v710h427v-35z" />
    <glyph glyph-name="F" unicode="F" horiz-adv-x="543" 
d="M513 676l-367 -1v-300h337v-35h-337v-340h-40v710h407v-34z" />
    <glyph glyph-name="G" unicode="G" horiz-adv-x="739" 
d="M404 362h273v-362h-30l-4 138q-31 -75 -99 -112.5t-160 -37.5q-74 0 -135 24t-104 70.5t-65.5 116t-22.5 155.5q0 90 24 160t69 115.5t107.5 68t137.5 22.5q110 0 178 -50.5t79 -141.5l-39 -8q-9 76 -67 120.5t-151 44.5q-140 0 -218.5 -86t-78.5 -245q0 -158 76.5 -244
t212.5 -86q53 0 99.5 14.5t80.5 44.5t53.5 78t19.5 112v56h-236v33z" />
    <glyph glyph-name="H" unicode="H" horiz-adv-x="744" 
d="M597 710h41v-710h-41v328h-451v-328h-40v710h40v-345h451v345z" />
    <glyph glyph-name="I" unicode="I" horiz-adv-x="251" 
d="M106 0v710h40v-710h-40z" />
    <glyph glyph-name="J" unicode="J" horiz-adv-x="414" 
d="M147 -12q-26 0 -59.5 4t-84.5 24l4 36q60 -28 138 -28q71 0 104 34t33 111v541h41v-545q0 -92 -44.5 -134.5t-131.5 -42.5z" />
    <glyph glyph-name="K" unicode="K" horiz-adv-x="577" 
d="M295 348l285 -348h-47l-269 328h-118v-328h-40v710h40v-345h118l262 345h47z" />
    <glyph glyph-name="L" unicode="L" horiz-adv-x="514" 
d="M146 37h372v-37h-412v710h40v-673z" />
    <glyph glyph-name="M" unicode="M" horiz-adv-x="878" 
d="M788 0h-40l-19 649l-269 -556h-39l-272 559l-18 -652h-40l19 710h53l278 -574l277 574h51z" />
    <glyph glyph-name="N" unicode="N" horiz-adv-x="746" 
d="M601 710h40v-710h-37l-458 644v-644h-40v710h40l455 -640v640z" />
    <glyph glyph-name="O" unicode="O" horiz-adv-x="774" 
d="M387 -12q-156 0 -243 94.5t-87 271.5t87 271.5t243 94.5t243 -94.5t87 -271.5t-87 -271.5t-243 -94.5zM387 24q67 0 121 21t91 62.5t57 104t20 142.5t-20 142.5t-57 104t-91 62.5t-121 21q-66 0 -120 -21t-91.5 -62.5t-57.5 -104t-20 -142.5t20 -142.5t57.5 -104
t91.5 -62.5t120 -21z" />
    <glyph glyph-name="P" unicode="P" horiz-adv-x="582" 
d="M283 710q126 0 191.5 -55.5t65.5 -160.5q0 -104 -66.5 -159t-194.5 -55h-133v-280h-40v710h177zM281 315q86 0 133 24t66.5 62t19.5 93q0 89 -52 135t-165 46h-137v-360h135z" />
    <glyph glyph-name="Q" unicode="Q" horiz-adv-x="772" 
d="M658 -146q33 0 61 7l-3 -34q-33 -7 -64 -7q-47 0 -81.5 25.5t-72.5 86.5l-38 62q-34 -6 -73 -6q-156 0 -243 94.5t-87 271.5t87 271.5t243 94.5t243 -94.5t87 -271.5q0 -143 -57 -233t-162 -119l22 -36q39 -62 68.5 -87t69.5 -25zM98 354q0 -80 20 -142.5t57.5 -104
t91.5 -62.5t120 -21q67 0 121 21t91 62.5t57 104t20 142.5t-20 142.5t-57 104t-91 62.5t-121 21q-66 0 -120 -21t-91.5 -62.5t-57.5 -104t-20 -142.5z" />
    <glyph glyph-name="R" unicode="R" horiz-adv-x="616" 
d="M566 507q0 -57 -22 -98.5t-66.5 -68t-115.5 -31.5l197 -309h-46l-193 308h-174v-308h-40v710h190q134 0 202 -51.5t68 -151.5zM146 674v-331h182q43 0 79 9t62.5 28.5t41 51.5t14.5 75q0 167 -228 167h-151z" />
    <glyph glyph-name="S" unicode="S" horiz-adv-x="566" 
d="M280 -12q-135 0 -229 60l6 39q38 -25 96 -44t128 -19q95 0 148.5 37.5t53.5 111.5q0 43 -18 72.5t-51.5 49t-126.5 41.5t-121 33t-55 29.5t-45 52.5t-18 83q0 89 58 137.5t168 48.5q198 0 224 -156l-38 -8q-23 130 -185 130q-91 0 -139.5 -39.5t-48.5 -109.5
q0 -44 18.5 -74.5t56.5 -50t123 -38.5t114.5 -30.5t47 -22t34.5 -26.5t30 -45t13 -73q0 -90 -60.5 -139.5t-183.5 -49.5z" />
    <glyph glyph-name="T" unicode="T" horiz-adv-x="509" 
d="M519 710v-37h-245v-673h-41v673h-243v37h529z" />
    <glyph glyph-name="U" unicode="U" horiz-adv-x="720" 
d="M356 -12q-135 0 -198 68t-63 211v443h40v-443q0 -126 54 -185t168 -59t170.5 59.5t56.5 182.5v445h42v-445q0 -140 -67.5 -208.5t-202.5 -68.5z" />
    <glyph glyph-name="V" unicode="V" horiz-adv-x="590" 
d="M554 710h42l-277 -710h-47l-279 710h44l258 -665z" />
    <glyph glyph-name="W" unicode="W" horiz-adv-x="895" 
d="M850 710h43l-222 -710h-45l-179 651l-178 -651h-45l-222 710h43l201 -654l179 654h45l179 -654z" />
    <glyph glyph-name="X" unicode="X" horiz-adv-x="598" 
d="M561 710l-236 -349l236 -361h-45l-217 335l-217 -335h-45l237 361l-237 349h45l217 -324l217 324h45z" />
    <glyph glyph-name="Y" unicode="Y" horiz-adv-x="530" 
d="M498 710h45l-259 -414v-296h-40v296l-258 414h45l234 -380z" />
    <glyph glyph-name="Z" unicode="Z" horiz-adv-x="565" 
d="M544 710v-30l-470 -644h465v-36h-517v29l470 646h-456v35h508z" />
    <glyph glyph-name="bracketleft" unicode="[" horiz-adv-x="368" 
d="M305 776h-147v-922h147v-34h-184v990h184v-34z" />
    <glyph glyph-name="backslash" unicode="\" horiz-adv-x="370" 
d="M364 -180h-38l-319 990h37z" />
    <glyph glyph-name="bracketright" unicode="]" horiz-adv-x="368" 
d="M247 810v-990h-184v34h147v922h-147v34h184z" />
    <glyph glyph-name="underscore" unicode="_" horiz-adv-x="471" 
d="M63 -34v34h345v-34h-345z" />
    <glyph glyph-name="a" unicode="a" horiz-adv-x="523" 
d="M258 490q186 0 186 -176v-314h-30l-6 99q-18 -35 -52.5 -62t-74 -38t-72.5 -11q-72 0 -112 37.5t-40 101.5q0 69 50 109t151 40q72 0 149 -18v54q0 73 -37 109t-113 36q-130 0 -148 -114l-38 7q18 76 65 108t122 32zM214 21q31 0 63.5 9.5t60.5 29.5t47.5 48t21.5 55v64
q-29 7 -69.5 12.5t-76.5 5.5q-167 0 -167 -117q0 -51 31.5 -79t88.5 -28z" />
    <glyph glyph-name="b" unicode="b" horiz-adv-x="565" 
d="M291 490q102 0 157 -65.5t55 -186.5q0 -115 -62 -182.5t-182 -67.5q-57 0 -101.5 15.5t-68.5 36.5v670h38v-313q21 42 63.5 67.5t100.5 25.5zM262 22q97 0 149.5 56t52.5 161q0 76 -22.5 123.5t-60.5 70.5t-93 23q-48 0 -86.5 -21.5t-56.5 -58.5t-18 -71v-244
q49 -39 135 -39z" />
    <glyph glyph-name="c" unicode="c" horiz-adv-x="523" 
d="M288 -12q-105 0 -165 62.5t-60 186.5q0 119 56 186t163 67q43 0 83.5 -14.5t65 -51.5t29.5 -89l-37 -5q-6 62 -41 94t-100 32q-89 0 -135 -56.5t-46 -159.5q0 -108 50 -163t139 -55q94 0 167 66l10 -35q-71 -65 -179 -65z" />
    <glyph glyph-name="d" unicode="d" horiz-adv-x="554" 
d="M430 710h38v-710h-33l-4 87q-2 -4 -8.5 -14.5t-25.5 -31t-55.5 -37t-82.5 -16.5q-43 0 -79 15t-62 45.5t-40.5 76.5t-14.5 106q0 122 59.5 190.5t164.5 68.5q35 0 73.5 -9.5t69.5 -32.5v262zM262 22q27 0 55.5 8.5t53.5 28t42 49t17 64.5v238q-31 25 -68 35.5t-72 10.5
q-90 0 -139.5 -61t-49.5 -167q0 -67 19.5 -112.5t55.5 -69.5t86 -24z" />
    <glyph glyph-name="e" unicode="e" horiz-adv-x="523" 
d="M101 231q1 -105 50 -157t139 -52q28 0 60.5 7t58.5 20.5t37 23.5l10 -33q-21 -19 -66.5 -35.5t-103.5 -16.5q-108 0 -165.5 64.5t-57.5 188.5q0 119 56 184t153 65q34 0 68.5 -12t62 -40t44.5 -72t17 -104v-31h-363zM272 456q-73 0 -119 -47.5t-52 -146.5h327
q-1 57 -20.5 103.5t-56.5 68.5t-79 22z" />
    <glyph glyph-name="f" unicode="f" horiz-adv-x="306" 
d="M232 685q-87 0 -87 -98v-107h165v-32h-165v-448h-38v448h-97v32h97v108q0 132 120 132q55 0 92 -17l-3 -34q-32 16 -84 16z" />
    <glyph glyph-name="g" unicode="g" horiz-adv-x="491" 
d="M353 75q67 -1 99 -34.5t32 -80.5q0 -66 -57 -108t-165 -42q-115 0 -166.5 33t-51.5 101t74 111q-48 22 -48 71q0 61 70 100q-28 18 -43 48.5t-15 67.5q0 66 45.5 107t128.5 41q62 0 106 -25q14 42 44 63.5t79 24.5l6 -35q-83 -4 -107 -69q21 -19 33 -46.5t12 -59.5
q0 -67 -45 -107t-128 -40q-54 0 -93 17q-24 -15 -41.5 -33.5t-17.5 -45.5q0 -31 21.5 -44.5t69.5 -13.5zM117 342q0 -58 37 -87.5t102 -29.5q64 0 100.5 29.5t36.5 87.5q0 43 -20.5 71t-53.5 38t-63 10t-63.5 -10t-54.5 -38t-21 -71zM264 -157q89 0 136 32t47 79
q0 41 -27 65t-76 24h-164q-20 0 -29 2q-31 -15 -50.5 -40.5t-19.5 -58.5q0 -57 47 -80t136 -23z" />
    <glyph glyph-name="h" unicode="h" horiz-adv-x="573" 
d="M317 490q56 0 94.5 -20t60.5 -59.5t22 -100.5v-310h-38v308q0 66 -36 106.5t-109 40.5q-31 0 -63 -9.5t-62 -33.5t-44.5 -57.5t-14.5 -63.5v-291h-38v710h38v-329q17 35 48.5 61.5t70 37t71.5 10.5z" />
    <glyph glyph-name="i" unicode="i" horiz-adv-x="224" 
d="M112 606q-13 0 -22.5 10t-9.5 23t9.5 22.5t22.5 9.5t22.5 -9.5t9.5 -22.5t-9.5 -23t-22.5 -10zM93 0v480h38v-480h-38z" />
    <glyph glyph-name="j" unicode="j" horiz-adv-x="220" 
d="M107 606q-13 0 -22.5 10t-9.5 23t9.5 22.5t22.5 9.5t22.5 -9.5t9.5 -22.5t-9.5 -23t-22.5 -10zM37 -190q-36 0 -55 11l2 33q23 -10 49 -10q28 0 41.5 13t13.5 40v583h38v-582q0 -88 -89 -88z" />
    <glyph glyph-name="k" unicode="k" horiz-adv-x="448" 
d="M409 0l-185 251l-97 -98v-153h-38v710h38v-510l278 280h48l-204 -205l205 -275h-45z" />
    <glyph glyph-name="l" unicode="l" horiz-adv-x="213" 
d="M89 0v710h38v-710h-38z" />
    <glyph glyph-name="m" unicode="m" horiz-adv-x="854" 
d="M618 490q76 0 116.5 -47t40.5 -139v-304h-38v304q0 73 -31 112t-93 39q-47 0 -86 -22.5t-58 -59t-19 -68.5v-305h-37v305q0 72 -31.5 111t-93.5 39q-55 0 -94.5 -29.5t-52.5 -66t-13 -61.5v-298h-38v480h31l5 -95q15 33 43 59t62 36t63 10q43 0 76.5 -17t50 -44t22.5 -52
q19 49 64 81t111 32z" />
    <glyph glyph-name="n" unicode="n" horiz-adv-x="574" 
d="M315 490q180 0 180 -187v-303h-38v301q0 76 -35.5 115t-116.5 39q-28 0 -58 -9.5t-59.5 -34t-44.5 -58t-15 -63.5v-290h-38v480h32l6 -62v-39q17 35 48.5 62.5t69 38t69.5 10.5z" />
    <glyph glyph-name="o" unicode="o" horiz-adv-x="577" 
d="M288 -12q-105 0 -165 63.5t-60 187.5t60 187.5t165 63.5t165.5 -64t60.5 -188t-60.5 -187t-165.5 -63zM288 22q88 0 137.5 55t49.5 161q0 107 -49.5 162.5t-137.5 55.5t-137.5 -55.5t-49.5 -162.5q0 -106 49.5 -161t137.5 -55z" />
    <glyph glyph-name="p" unicode="p" horiz-adv-x="566" 
d="M294 490q101 0 155 -64t54 -184t-60.5 -187t-176.5 -67q-80 0 -138 30v-198h-38v660h32l5 -86q21 43 64 69.5t103 26.5zM267 22q94 0 146 55.5t52 163.5q0 104 -44 159.5t-130 55.5q-47 0 -82.5 -19.5t-58 -54.5t-22.5 -77v-248q59 -35 139 -35z" />
    <glyph glyph-name="q" unicode="q" horiz-adv-x="557" 
d="M296 490q56 0 102.5 -12.5t76.5 -34.5v-623h-38v261q-24 -41 -69.5 -67t-107.5 -26q-43 0 -79 15.5t-62.5 46t-41 76.5t-14.5 105q0 43 11 88t42.5 87.5t80 63t99.5 20.5zM268 22q48 0 85.5 19.5t60.5 52t23 67.5v264q-58 31 -140 31q-88 0 -142 -60t-54 -164t46 -157
t121 -53z" />
    <glyph glyph-name="r" unicode="r" horiz-adv-x="300" 
d="M257 490q19 0 36 -5l-3 -38q-12 4 -34 4q-33 0 -62 -24.5t-47.5 -71t-18.5 -88.5v-267h-38v480h33l4 -109q14 39 37.5 68t48 40t44.5 11z" />
    <glyph glyph-name="s" unicode="s" horiz-adv-x="454" 
d="M221 -12q-107 0 -177 44l5 35q76 -45 169 -45q78 0 116 23t38 70q0 14 -5.5 31.5t-23 32t-43 23t-84.5 21t-85 24t-41.5 24.5t-27.5 35t-12 58q0 31 18 61.5t59 47.5t95 17q48 0 83 -11.5t56 -30t30.5 -40t10.5 -38.5l-37 -7q-3 28 -18.5 47t-33.5 28t-40 13.5t-49 4.5
q-37 0 -70 -9.5t-49.5 -33t-16.5 -52.5q0 -35 24 -60.5t100 -41.5t106 -25.5t52 -26.5t31 -40t9 -48q0 -36 -16 -64t-57 -47.5t-116 -19.5z" />
    <glyph glyph-name="t" unicode="t" horiz-adv-x="303" 
d="M301 448h-163v-348q0 -33 13.5 -55.5t54.5 -22.5q13 0 31 2t46 14l3 -34q-40 -16 -85 -16q-57 0 -79 27.5t-22 85.5v347h-90v32h90v140h38v-140h163v-32z" />
    <glyph glyph-name="u" unicode="u" horiz-adv-x="555" 
d="M428 480h38v-480h-33l-4 107q-25 -57 -72 -88t-113 -31q-89 0 -126 42.5t-37 144.5v305h38v-299q0 -65 14.5 -97.5t43 -46.5t76.5 -14q54 0 92.5 25t60.5 67.5t22 92.5v272z" />
    <glyph glyph-name="v" unicode="v" horiz-adv-x="440" 
d="M398 480h40l-199 -480h-38l-199 480h41l177 -438z" />
    <glyph glyph-name="w" unicode="w" horiz-adv-x="679" 
d="M633 480h40l-166 -480h-34l-134 429l-134 -429h-33l-166 480h40l143 -431l131 431h39l131 -436z" />
    <glyph glyph-name="x" unicode="x" horiz-adv-x="417" 
d="M412 0h-44l-160 221l-160 -221h-43l177 241l-176 239h44l158 -220l159 220h43l-175 -239z" />
    <glyph glyph-name="y" unicode="y" horiz-adv-x="448" 
d="M405 480h41l-238 -585q-18 -43 -47 -64t-77 -21q-8 0 -17.5 1t-43.5 10l-2 36q19 -6 32 -9.5t32 -3.5q35 0 56.5 13.5t35.5 47.5l37 94l-212 481h41l190 -434z" />
    <glyph glyph-name="z" unicode="z" horiz-adv-x="455" 
d="M430 446l-348 -413h348v-33h-388l-5 34l348 413h-329v33h369z" />
    <glyph glyph-name="braceleft" unicode="{" horiz-adv-x="427" 
d="M275 778q-77 0 -77 -77q0 -42 28 -124.5t33 -110.5t5 -44q0 -40 -17 -65.5t-53 -41.5q36 -16 53 -41.5t17 -65.5q0 -43 -28 -125.5t-33 -110.5t-5 -43q0 -77 77 -77h89v-32h-93q-111 0 -111 106q0 47 29 129t34 110t5 44q0 40 -23 64.5t-62 24.5h-22v34h22q39 0 62 24.5
t23 64.5q0 44 -29 126t-34 111t-5 46q0 106 111 106h93v-32h-89z" />
    <glyph glyph-name="bar" unicode="|" horiz-adv-x="280" 
d="M121 -180v990h38v-990h-38z" />
    <glyph glyph-name="braceright" unicode="}" horiz-adv-x="426" 
d="M283 332h22v-34h-22q-39 0 -62 -24.5t-23 -64.5q0 -44 29 -126t34 -111t5 -46q0 -106 -111 -106h-92v32h88q77 0 77 77q0 42 -28 124.5t-33 110.5t-5 44q0 40 17 65.5t53 41.5q-36 16 -53 41.5t-17 65.5q0 43 28 125.5t33 110.5t5 43q0 77 -77 77h-88v32h92
q111 0 111 -106q0 -47 -29 -129t-34 -110t-5 -44q0 -40 23 -64.5t62 -24.5z" />
    <glyph glyph-name="asciitilde" unicode="~" horiz-adv-x="566" 
d="M130 255l-29 5q10 90 86 90q32 0 98 -17t96 -17q25 0 38 14.5t16 48.5l30 -4q-10 -91 -85 -91q-32 0 -98 17t-95 17q-49 0 -57 -63z" />
    <glyph glyph-name="exclamdown" unicode="&#xa1;" horiz-adv-x="203" 
d="M101 424q-16 0 -27 11.5t-11 27.5q0 17 11 28.5t27 11.5q17 0 28 -11.5t11 -28.5q0 -16 -11 -27.5t-28 -11.5zM80 -180l4 490h34l6 -490h-44z" />
    <glyph glyph-name="cent" unicode="&#xa2;" horiz-adv-x="551" 
d="M478 169q-70 -63 -177 -65l-3 -104h-33l2 105q-43 4 -79 21.5t-61.5 49t-39.5 78t-14 105.5q0 26 4.5 58.5t16.5 65t35.5 62.5t62 50t87.5 23l3 102h33l-2 -103q28 -2 55.5 -10.5t52 -30t36.5 -53t14 -60.5l-37 -5q-5 55 -36 87.5t-86 37.5l-10 -445q40 1 80 13.5
t87 52.5zM112 361q0 -100 41.5 -156t114.5 -65l10 443q-49 -3 -85 -27.5t-58.5 -73t-22.5 -121.5z" />
    <glyph glyph-name="sterling" unicode="&#xa3;" horiz-adv-x="577" 
d="M191 291v-255h310v-36h-428v36h77v255h-77v36h77v190q0 44 12 81t37 64.5t63 42.5t87 15q41 0 78.5 -10t76.5 -35l-11 -36q-70 45 -144 45t-116 -43.5t-42 -129.5v-184h227v-36h-227z" />
    <glyph glyph-name="currency" unicode="&#xa4;" horiz-adv-x="691" 
d="M573 358q0 -50 -16.5 -92.5t-45.5 -72.5l107 -115l-22 -21l-108 116q-29 -23 -66 -35.5t-77 -12.5t-77 12.5t-66 35.5l-108 -116l-21 21l106 115q-29 30 -45 72.5t-16 92.5q0 51 16.5 94t45.5 73l-107 115l21 21l108 -116q29 23 66 35.5t77 12.5q81 0 143 -48l108 116
l22 -21l-108 -115q30 -31 46.5 -74t16.5 -93zM155 358q0 -33 10 -68t36.5 -67t65.5 -47.5t78 -15.5q29 0 61 9t64 35t48.5 67.5t16.5 86.5q0 57 -24.5 105t-70 71.5t-95.5 23.5q-29 0 -61 -9t-64 -35t-48.5 -68t-16.5 -88z" />
    <glyph glyph-name="yen" unicode="&#xa5;" horiz-adv-x="690" 
d="M589 710l-223 -377h184v-31h-184v-99h184v-31h-184v-172h-41v172h-185v31h185v99h-185v31h185l-224 377h41l203 -345l203 345h41z" />
    <glyph glyph-name="brokenbar" unicode="&#xa6;" horiz-adv-x="280" 
d="M121 410v400h38v-400h-38zM121 -180v400h38v-400h-38z" />
    <glyph glyph-name="section" unicode="&#xa7;" horiz-adv-x="624" 
d="M376 125q77 -23 110 -57.5t33 -87.5q0 -74 -50.5 -113t-151.5 -39q-118 0 -203 62l3 39q87 -66 200 -66q165 0 165 118q0 23 -12 47.5t-48 43.5t-129 43.5t-126 45.5t-48.5 47t-15.5 62q0 57 41 93.5t105 52.5q-75 25 -108.5 63.5t-33.5 97.5q0 43 22.5 82t72 60
t112.5 21q86 0 136 -36t64 -112l-37 -8q-7 39 -26 67.5t-54.5 41.5t-82.5 13q-78 0 -123.5 -33t-45.5 -95q0 -17 5 -36.5t19 -36.5t41.5 -34.5t107 -41t112.5 -39t51.5 -34t27.5 -40.5t9 -49q0 -36 -17 -63t-48.5 -47t-76.5 -32zM141 271q0 -38 22.5 -62t58.5 -38t106 -32
q82 20 117.5 50t35.5 76q0 32 -15 55t-45 39.5t-123 42.5q-157 -30 -157 -131z" />
    <glyph glyph-name="copyright" unicode="&#xa9;" horiz-adv-x="1060" 
d="M530 -140q-97 0 -181 31.5t-146 92t-96 149t-34 195.5q0 109 34 197.5t95.5 148.5t146 91t181.5 31t181 -31.5t146 -92t96 -149t34 -195.5t-34 -195.5t-96 -149t-146.5 -92t-180.5 -31.5zM530 -107q89 0 166.5 29t134.5 85t88.5 138t31.5 183t-31.5 183t-88.5 138
t-134.5 85t-166.5 29t-167 -29t-134.5 -85t-88 -138t-31.5 -183t31.5 -183t88 -138t134.5 -85t167 -29zM541 77q-105 0 -165 62.5t-60 186.5q0 119 56 186t163 67q43 0 83.5 -14.5t65 -51.5t29.5 -89l-37 -5q-6 62 -41 94t-100 32q-88 0 -134.5 -56.5t-46.5 -159.5
q0 -108 50 -163t139 -55q95 0 168 66l9 -35q-71 -65 -179 -65z" />
    <glyph glyph-name="ordfeminine" unicode="&#xaa;" horiz-adv-x="421" 
d="M204 720q64 0 97.5 -33.5t33.5 -95.5v-218h-26l-3 78q-20 -38 -56 -60t-82 -22q-48 0 -77 27t-29 71q0 47 34 75.5t104 28.5q50 0 105 -13v33q0 47 -26 74.5t-75 27.5q-88 0 -102 -77l-30 6q21 98 132 98zM176 395q26 0 55.5 13t51.5 44t22 64v18q-49 14 -100 14
q-57 0 -84 -21.5t-27 -59.5q0 -35 21.5 -53.5t60.5 -18.5z" />
    <glyph glyph-name="guillemotleft" unicode="&#xab;" horiz-adv-x="452" 
d="M237 430l-153 -146l153 -131l-22 -23l-170 149v8l171 167zM369 430l-153 -146l153 -131l-22 -23l-170 149v8l171 167z" />
    <glyph glyph-name="registered" unicode="&#xae;" horiz-adv-x="565" 
d="M283 728q91 0 148.5 -55t57.5 -149t-57.5 -149t-148.5 -55q-56 0 -105.5 24t-75.5 73t-26 107t26 107t75.5 73t105.5 24zM283 340q58 0 99.5 24t63 64t21.5 96t-21.5 96t-63 64t-99.5 24q-59 0 -100 -24t-62.5 -64t-21.5 -96t21.5 -96t62.5 -64t100 -24zM371 572
q0 -27 -15.5 -45t-43.5 -23l55 -93h-27l-53 91h-51v-91h-26v231h78q40 0 61.5 -18.5t21.5 -51.5zM286 522q59 0 59 50t-59 50h-50v-100h50z" />
    <glyph glyph-name="degree" unicode="&#xb0;" horiz-adv-x="402" 
d="M201 482q-25 0 -52.5 11t-46.5 39.5t-19 65.5q0 23 11 50.5t40 46.5t67 19q25 0 52.5 -11t46.5 -39.5t19 -65.5q0 -23 -11 -50.5t-40 -46.5t-67 -19zM201 511q40 0 63.5 24t23.5 63t-23.5 63.5t-63.5 24.5q-39 0 -63 -24.5t-24 -63.5t24 -63t63 -24z" />
    <glyph glyph-name="plusminus" unicode="&#xb1;" horiz-adv-x="587" 
d="M264 122v173h-163v33h163v173h37v-173h164v-33h-164v-173h-37zM101 35h386v-35h-386v35z" />
    <glyph glyph-name="paragraph" unicode="&#xb6;" horiz-adv-x="533" 
d="M299 335q-98 0 -152 48.5t-54 139.5q0 90 54 138.5t152 48.5h37v-375h-37zM389 -100v810h41v-810h-41z" />
    <glyph glyph-name="periodcentered" unicode="&#xb7;" horiz-adv-x="203" 
d="M101 259q-16 0 -27 12t-11 28t11 27.5t27 11.5q17 0 28 -11.5t11 -27.5q0 -17 -11 -28.5t-28 -11.5z" />
    <glyph glyph-name="ordmasculine" unicode="&#xba;" horiz-adv-x="441" 
d="M222 369q-73 0 -116 44.5t-43 130.5q0 87 43 131.5t116 44.5q25 0 52 -7t50.5 -26.5t39.5 -54t16 -88.5t-17.5 -92t-52.5 -60.5t-88 -22.5zM222 398q59 0 92 36.5t33 109.5t-33.5 110t-91.5 37q-59 0 -92 -37t-33 -110t33 -109.5t92 -36.5z" />
    <glyph glyph-name="guillemotright" unicode="&#xbb;" horiz-adv-x="452" 
d="M236 287v-8l-170 -149l-22 23l153 131l-153 146l21 24zM198 454l170 -167v-8l-169 -149l-23 23l153 131l-153 146z" />
    <glyph glyph-name="onequarter" unicode="&#xbc;" horiz-adv-x="834" 
d="M679 720l37 -3l-512 -729l-38 3zM128 361h93v322q-11 -8 -49 -23.5t-81 -28.5l-5 28q91 29 135 57h32v-355h74v-27h-199v27zM699 146h69v-27h-69v-119h-31v119h-193l-7 24l202 239h29v-236zM502 146h166v194z" />
    <glyph glyph-name="onehalf" unicode="&#xbd;" horiz-adv-x="863" 
d="M679 720l37 -3l-512 -729l-38 3zM128 361h93v322q-11 -8 -49 -23.5t-81 -28.5l-5 28q91 29 135 57h32v-355h74v-27h-199v27zM570 27h227v-27h-261v17q0 35 21.5 65t81 63.5t74.5 45.5t24.5 23.5t15 25.5t5.5 29q0 90 -103 90q-73 0 -91 -58l-32 6q27 81 126 81
q66 0 99.5 -32t33.5 -86q0 -34 -21 -64t-86 -67.5t-80 -51.5t-23.5 -28t-10.5 -32z" />
    <glyph glyph-name="threequarters" unicode="&#xbe;" horiz-adv-x="817" 
d="M340 435q0 -34 -19.5 -60.5t-50 -37.5t-62.5 -11q-98 0 -122 70l27 9q19 -52 96 -52q45 0 73.5 22t28.5 61q0 18 -10 38t-35.5 32.5t-57.5 12.5h-35v25h34q26 0 48.5 11t32 29t9.5 35q0 33 -22.5 53.5t-66.5 20.5q-39 0 -62 -15t-29 -40l-27 6q9 37 40 56.5t78 19.5
q58 0 87.5 -27t29.5 -72q0 -33 -18.5 -55.5t-50.5 -32.5q37 -11 60.5 -35t23.5 -63zM675 720l38 -3l-513 -729l-38 3zM681 146h70v-27h-70v-119h-30v119h-194l-6 24l201 239h29v-236zM485 146h166v193z" />
    <glyph glyph-name="questiondown" unicode="&#xbf;" horiz-adv-x="503" 
d="M281 424q-16 0 -27 11.5t-11 27.5q0 17 11 28.5t27 11.5q17 0 28 -11.5t11 -28.5q0 -16 -11 -27.5t-28 -11.5zM276 -190q-80 0 -127.5 45t-47.5 127q0 23 7 55t28.5 63.5t49 54.5t76.5 54l4 107h32l6 -118q-89 -53 -127 -101.5t-38 -113.5q0 -64 36.5 -101.5t101.5 -37.5
q51 0 83.5 19t51.5 69l30 -11q-20 -55 -58 -83t-108 -28z" />
    <glyph glyph-name="Agrave" unicode="&#xc0;" horiz-adv-x="614" 
d="M323 742l-35 -3l-82 102l44 7zM572 0l-87 219h-357l-87 -219h-41l283 710h47l284 -710h-42zM141 254h331l-165 420z" />
    <glyph glyph-name="Aacute" unicode="&#xc1;" horiz-adv-x="614" 
d="M403 841l-82 -102l-35 3l73 106zM572 0l-87 219h-357l-87 -219h-41l283 710h47l284 -710h-42zM141 254h331l-165 420z" />
    <glyph glyph-name="Acircumflex" unicode="&#xc2;" horiz-adv-x="614" 
d="M307 828l-86 -87l-35 6l104 104h34l104 -104l-35 -6zM572 0l-87 219h-357l-87 -219h-41l283 710h47l284 -710h-42zM141 254h331l-165 420z" />
    <glyph glyph-name="Atilde" unicode="&#xc3;" horiz-adv-x="614" 
d="M251 791q-17 0 -26 -11t-12 -38l-26 4q6 75 62 75q21 0 60 -11.5t55 -11.5q18 0 27 11t11 38l26 -3q-3 -39 -17.5 -57.5t-44.5 -18.5q-21 0 -59.5 11.5t-55.5 11.5zM572 0l-87 219h-357l-87 -219h-41l283 710h47l284 -710h-42zM141 254h331l-165 420z" />
    <glyph glyph-name="Adieresis" unicode="&#xc4;" horiz-adv-x="614" 
d="M240 763q-11 0 -19 7.5t-8 19.5t8 19.5t19 7.5q12 0 20 -7.5t8 -19.5t-8 -19.5t-20 -7.5zM373 763q-11 0 -19 7.5t-8 19.5t8 19.5t19 7.5q12 0 20 -7.5t8 -19.5t-8 -19.5t-20 -7.5zM572 0l-87 219h-357l-87 -219h-41l283 710h47l284 -710h-42zM141 254h331l-165 420z" />
    <glyph glyph-name="Aring" unicode="&#xc5;" horiz-adv-x="614" 
d="M307 731q-33 0 -53.5 20t-20.5 52t20.5 51.5t53.5 19.5q34 0 54.5 -19.5t20.5 -51.5q0 -33 -20.5 -52.5t-54.5 -19.5zM307 854q-23 0 -37 -14t-14 -37q0 -24 14 -38t37 -14t37.5 14.5t14.5 37.5t-14.5 37t-37.5 14zM572 0l-87 219h-357l-87 -219h-41l283 710h47l284 -710
h-42zM141 254h331l-165 420z" />
    <glyph glyph-name="AE" unicode="&#xc6;" horiz-adv-x="937" 
d="M877 675h-342v-300h316v-35h-316v-304h321v-36h-362v340h-261l16 35h245v300h-111l-316 -675h-42l336 710h520z" />
    <glyph glyph-name="Ccedilla" unicode="&#xc7;" horiz-adv-x="673" 
d="M393 -12h-14l-5 -27q39 0 62 -15.5t23 -47.5q0 -89 -133 -89l4 29q98 0 98 58q0 24 -19 34t-65 10l11 50q-67 6 -122.5 31.5t-94.5 71t-60 111t-21 146.5q0 89 22.5 159.5t64 117t99.5 70t127 23.5q47 0 94.5 -11t85 -37t60.5 -67t23 -96l-40 -4q-2 62 -30.5 101.5
t-75.5 59t-114 19.5q-60 0 -111 -20.5t-87.5 -62t-56.5 -105.5t-20 -146q0 -78 21 -140t60 -103.5t94 -62.5t122 -21q139 0 224 65l10 -36q-37 -28 -96.5 -46.5t-139.5 -18.5z" />
    <glyph glyph-name="Egrave" unicode="&#xc8;" horiz-adv-x="573" 
d="M336 742l-35 -3l-82 102l44 7zM533 675h-387v-300h357v-35h-357v-304h387v-36h-427v710h427v-35z" />
    <glyph glyph-name="Eacute" unicode="&#xc9;" horiz-adv-x="573" 
d="M416 841l-82 -102l-35 3l73 106zM533 675h-387v-300h357v-35h-357v-304h387v-36h-427v710h427v-35z" />
    <glyph glyph-name="Ecircumflex" unicode="&#xca;" horiz-adv-x="573" 
d="M320 828l-86 -87l-35 6l104 104h34l104 -104l-35 -6zM533 675h-387v-300h357v-35h-357v-304h387v-36h-427v710h427v-35z" />
    <glyph glyph-name="Edieresis" unicode="&#xcb;" horiz-adv-x="573" 
d="M253 763q-11 0 -19 7.5t-8 19.5t8 19.5t19 7.5q12 0 20 -7.5t8 -19.5t-8 -19.5t-20 -7.5zM386 763q-11 0 -19 7.5t-8 19.5t8 19.5t19 7.5q12 0 20 -7.5t8 -19.5t-8 -19.5t-20 -7.5zM533 675h-387v-300h357v-35h-357v-304h387v-36h-427v710h427v-35z" />
    <glyph glyph-name="Igrave" unicode="&#xcc;" horiz-adv-x="251" 
d="M142 742l-35 -3l-82 102l44 7zM106 0v710h40v-710h-40z" />
    <glyph glyph-name="Iacute" unicode="&#xcd;" horiz-adv-x="251" 
d="M105 742l73 106l44 -7l-82 -102zM106 0v710h40v-710h-40z" />
    <glyph glyph-name="Icircumflex" unicode="&#xce;" horiz-adv-x="251" 
d="M143 851l104 -104l-35 -6l-86 87l-86 -87l-35 6l104 104h34zM106 0v710h40v-710h-40z" />
    <glyph glyph-name="Idieresis" unicode="&#xcf;" horiz-adv-x="251" 
d="M59 763q-11 0 -19 7.5t-8 19.5t8 19.5t19 7.5q12 0 20 -7.5t8 -19.5t-8 -19.5t-20 -7.5zM192 763q-11 0 -19 7.5t-8 19.5t8 19.5t19 7.5q12 0 20 -7.5t8 -19.5t-8 -19.5t-20 -7.5zM106 0v710h40v-710h-40z" />
    <glyph glyph-name="Eth" unicode="&#xd0;" horiz-adv-x="738" 
d="M305 710q87 0 156 -26.5t115 -74.5t69.5 -113.5t23.5 -141.5t-23 -141t-69 -113t-115.5 -74t-156.5 -26h-199v333h-87v34h87v343h199zM304 36q81 0 143 24.5t102 67.5t59.5 101t19.5 125t-19.5 125.5t-59.5 102t-102 68t-143 24.5h-158v-307h142v-34h-142v-297h158z" />
    <glyph glyph-name="Ntilde" unicode="&#xd1;" horiz-adv-x="746" 
d="M326 791q-17 0 -26 -11t-12 -38l-26 4q6 75 62 75q21 0 60 -11.5t55 -11.5q18 0 27 11t11 38l26 -3q-3 -39 -17.5 -57.5t-44.5 -18.5q-21 0 -59.5 11.5t-55.5 11.5zM601 710h40v-710h-37l-458 644v-644h-40v710h40l455 -640v640z" />
    <glyph glyph-name="Ograve" unicode="&#xd2;" horiz-adv-x="774" 
d="M403 742l-35 -3l-82 102l44 7zM387 -12q-156 0 -243 94.5t-87 271.5t87 271.5t243 94.5t243 -94.5t87 -271.5t-87 -271.5t-243 -94.5zM387 24q67 0 121 21t91 62.5t57 104t20 142.5t-20 142.5t-57 104t-91 62.5t-121 21q-66 0 -120 -21t-91.5 -62.5t-57.5 -104
t-20 -142.5t20 -142.5t57.5 -104t91.5 -62.5t120 -21z" />
    <glyph glyph-name="Oacute" unicode="&#xd3;" horiz-adv-x="774" 
d="M366 742l73 106l44 -7l-82 -102zM387 -12q-156 0 -243 94.5t-87 271.5t87 271.5t243 94.5t243 -94.5t87 -271.5t-87 -271.5t-243 -94.5zM387 24q67 0 121 21t91 62.5t57 104t20 142.5t-20 142.5t-57 104t-91 62.5t-121 21q-66 0 -120 -21t-91.5 -62.5t-57.5 -104
t-20 -142.5t20 -142.5t57.5 -104t91.5 -62.5t120 -21z" />
    <glyph glyph-name="Ocircumflex" unicode="&#xd4;" horiz-adv-x="774" 
d="M387 828l-86 -87l-35 6l104 104h34l104 -104l-35 -6zM387 720q156 0 243 -94.5t87 -271.5t-87 -271.5t-243 -94.5t-243 94.5t-87 271.5t87 271.5t243 94.5zM387 24q67 0 121 21t91 62.5t57 104t20 142.5t-20 142.5t-57 104t-91 62.5t-121 21q-66 0 -120 -21t-91.5 -62.5
t-57.5 -104t-20 -142.5t20 -142.5t57.5 -104t91.5 -62.5t120 -21z" />
    <glyph glyph-name="Otilde" unicode="&#xd5;" horiz-adv-x="774" 
d="M292 742l-26 4q6 75 62 75q21 0 60 -11.5t55 -11.5q18 0 27 11t11 38l26 -3q-3 -39 -17.5 -57.5t-44.5 -18.5q-21 0 -59.5 11.5t-55.5 11.5t-26 -11t-12 -38zM387 -12q-156 0 -243 94.5t-87 271.5t87 271.5t243 94.5t243 -94.5t87 -271.5t-87 -271.5t-243 -94.5zM387 24
q67 0 121 21t91 62.5t57 104t20 142.5t-20 142.5t-57 104t-91 62.5t-121 21q-66 0 -120 -21t-91.5 -62.5t-57.5 -104t-20 -142.5t20 -142.5t57.5 -104t91.5 -62.5t120 -21z" />
    <glyph glyph-name="Odieresis" unicode="&#xd6;" horiz-adv-x="774" 
d="M320 763q-11 0 -19 7.5t-8 19.5t8 19.5t19 7.5q12 0 20 -7.5t8 -19.5t-8 -19.5t-20 -7.5zM453 763q-11 0 -19 7.5t-8 19.5t8 19.5t19 7.5q12 0 20 -7.5t8 -19.5t-8 -19.5t-20 -7.5zM387 -12q-156 0 -243 94.5t-87 271.5t87 271.5t243 94.5t243 -94.5t87 -271.5
t-87 -271.5t-243 -94.5zM387 24q67 0 121 21t91 62.5t57 104t20 142.5t-20 142.5t-57 104t-91 62.5t-121 21q-66 0 -120 -21t-91.5 -62.5t-57.5 -104t-20 -142.5t20 -142.5t57.5 -104t91.5 -62.5t120 -21z" />
    <glyph glyph-name="multiply" unicode="&#xd7;" horiz-adv-x="537" 
d="M436 462l-144 -145l144 -145l-23 -23l-144 145l-144 -145l-24 23l145 145l-145 145l24 23l144 -145l144 145z" />
    <glyph glyph-name="Oslash" unicode="&#xd8;" horiz-adv-x="807" 
d="M620 637q47 -46 72 -118.5t25 -164.5q0 -177 -87 -271.5t-243 -94.5q-113 0 -189 49l-49 -69l-37 5l59 83q-55 45 -84.5 121t-29.5 177q0 177 87 271.5t243 94.5q127 0 209 -62l66 94l36 -5zM98 354q0 -89 25 -157t71 -108l379 537q-73 58 -186 58q-66 0 -120 -21
t-91.5 -62.5t-57.5 -104t-20 -142.5zM387 24q67 0 121 21t91 62.5t57 104t20 142.5q0 81 -20.5 144.5t-58.5 104.5l-377 -534q68 -45 167 -45z" />
    <glyph glyph-name="Ugrave" unicode="&#xd9;" horiz-adv-x="720" 
d="M372 742l-35 -3l-82 102l44 7zM356 -12q-135 0 -198 68t-63 211v443h40v-443q0 -126 54 -185t168 -59t170.5 59.5t56.5 182.5v445h42v-445q0 -140 -67.5 -208.5t-202.5 -68.5z" />
    <glyph glyph-name="Uacute" unicode="&#xda;" horiz-adv-x="720" 
d="M336 742l73 106l44 -7l-82 -102zM356 -12q-135 0 -198 68t-63 211v443h40v-443q0 -126 54 -185t168 -59t170.5 59.5t56.5 182.5v445h42v-445q0 -140 -67.5 -208.5t-202.5 -68.5z" />
    <glyph glyph-name="Ucircumflex" unicode="&#xdb;" horiz-adv-x="720" 
d="M357 828l-86 -87l-35 6l104 104h34l104 -104l-35 -6zM584 710h42v-445q0 -140 -67.5 -208.5t-202.5 -68.5t-198 68t-63 211v443h40v-443q0 -126 54 -185t168 -59t170.5 59.5t56.5 182.5v445z" />
    <glyph glyph-name="Udieresis" unicode="&#xdc;" horiz-adv-x="720" 
d="M290 763q-11 0 -19 7.5t-8 19.5t8 19.5t19 7.5q12 0 20 -7.5t8 -19.5t-8 -19.5t-20 -7.5zM423 763q-11 0 -19 7.5t-8 19.5t8 19.5t19 7.5q12 0 20 -7.5t8 -19.5t-8 -19.5t-20 -7.5zM356 -12q-135 0 -198 68t-63 211v443h40v-443q0 -126 54 -185t168 -59t170.5 59.5
t56.5 182.5v445h42v-445q0 -140 -67.5 -208.5t-202.5 -68.5z" />
    <glyph glyph-name="Yacute" unicode="&#xdd;" horiz-adv-x="530" 
d="M360 841l-82 -102l-35 3l73 106zM498 710h45l-259 -414v-296h-40v296l-258 414h45l234 -380z" />
    <glyph glyph-name="Thorn" unicode="&#xde;" horiz-adv-x="585" 
d="M264 575q54 0 99.5 -13t79 -39t51.5 -66t18 -92q0 -65 -28 -110.5t-82.5 -71.5t-137.5 -26h-121v-157h-40v710h40v-135h121zM264 192q59 0 108 17t74 58t25 98t-25 98.5t-74 59t-108 17.5h-121v-348h121z" />
    <glyph glyph-name="germandbls" unicode="&#xdf;" horiz-adv-x="576" 
d="M371 -12q-48 0 -83 11t-55 25l3 36q22 -16 56.5 -28t76.5 -12q117 0 117 97q0 37 -24 65t-79 56t-70.5 38t-25 23.5t-9.5 27.5q0 8 2.5 19.5t9.5 26.5t30.5 58t32.5 68.5t12 42t3 29.5q0 51 -27.5 83t-88.5 32q-58 0 -89.5 -34t-31.5 -106v-546h-38v548q0 85 41.5 128.5
t117.5 43.5q31 0 60 -8t52.5 -28.5t32.5 -49.5t9 -54q0 -19 -5 -43.5t-16 -51t-37 -70t-31 -58.5t-5 -25q0 -11 10.5 -22.5t50 -32t56 -29.5t33 -21.5t29.5 -27.5t21.5 -36.5t8.5 -46.5q0 -128 -150 -128z" />
    <glyph glyph-name="agrave" unicode="&#xe0;" horiz-adv-x="523" 
d="M277 550h-34l-110 159l44 4zM258 490q186 0 186 -176v-314h-30l-6 99q-18 -35 -52.5 -62t-74 -38t-72.5 -11q-72 0 -112 37.5t-40 101.5q0 69 50 109t151 40q72 0 149 -18v54q0 73 -37 109t-113 36q-130 0 -148 -114l-38 7q18 76 65 108t122 32zM214 21q31 0 63.5 9.5
t60.5 29.5t47.5 48t21.5 55v64q-29 7 -69.5 12.5t-76.5 5.5q-167 0 -167 -117q0 -51 31.5 -79t88.5 -28z" />
    <glyph glyph-name="aacute" unicode="&#xe1;" horiz-adv-x="523" 
d="M377 709l-110 -159h-34l100 163zM258 490q186 0 186 -176v-314h-30l-6 99q-18 -35 -52.5 -62t-74 -38t-72.5 -11q-72 0 -112 37.5t-40 101.5q0 69 50 109t151 40q72 0 149 -18v54q0 73 -37 109t-113 36q-130 0 -148 -114l-38 7q18 76 65 108t122 32zM214 21
q31 0 63.5 9.5t60.5 29.5t47.5 48t21.5 55v64q-29 7 -69.5 12.5t-76.5 5.5q-167 0 -167 -117q0 -51 31.5 -79t88.5 -28z" />
    <glyph glyph-name="acircumflex" unicode="&#xe2;" horiz-adv-x="523" 
d="M259 693l-104 -131l-35 2l122 153h34l121 -153l-34 -2zM258 490q186 0 186 -176v-314h-30l-6 99q-18 -35 -52.5 -62t-74 -38t-72.5 -11q-72 0 -112 37.5t-40 101.5q0 69 50 109t151 40q72 0 149 -18v54q0 73 -37 109t-113 36q-130 0 -148 -114l-38 7q18 76 65 108t122 32
zM214 21q31 0 63.5 9.5t60.5 29.5t47.5 48t21.5 55v64q-29 7 -69.5 12.5t-76.5 5.5q-167 0 -167 -117q0 -51 31.5 -79t88.5 -28z" />
    <glyph glyph-name="atilde" unicode="&#xe3;" horiz-adv-x="549" 
d="M185 654q-46 0 -52 -70l-27 4q3 47 24 71t56 24q30 0 68.5 -20t53.5 -23t22 -3q23 0 36 16t17 54l26 -3q-3 -49 -23.5 -73t-54.5 -24q-29 0 -75 23.5t-71 23.5zM258 490q186 0 186 -176v-314h-30l-6 99q-18 -35 -52.5 -62t-74 -38t-72.5 -11q-72 0 -112 37.5t-40 101.5
q0 69 50 109t151 40q72 0 149 -18v54q0 73 -37 109t-113 36q-130 0 -148 -114l-38 7q18 76 65 108t122 32zM214 21q31 0 63.5 9.5t60.5 29.5t47.5 48t21.5 55v64q-29 7 -69.5 12.5t-76.5 5.5q-167 0 -167 -117q0 -51 31.5 -79t88.5 -28z" />
    <glyph glyph-name="adieresis" unicode="&#xe4;" horiz-adv-x="523" 
d="M190 608q-12 0 -20.5 9t-8.5 21t8.5 21t20.5 9q13 0 21.5 -9t8.5 -21t-8.5 -21t-21.5 -9zM324 608q-12 0 -20.5 9t-8.5 21t8.5 21t20.5 9t20.5 -9t8.5 -21t-8.5 -21t-20.5 -9zM258 490q186 0 186 -176v-314h-30l-6 99q-18 -35 -52.5 -62t-74 -38t-72.5 -11
q-72 0 -112 37.5t-40 101.5q0 69 50 109t151 40q72 0 149 -18v54q0 73 -37 109t-113 36q-130 0 -148 -114l-38 7q18 76 65 108t122 32zM214 21q31 0 63.5 9.5t60.5 29.5t47.5 48t21.5 55v64q-29 7 -69.5 12.5t-76.5 5.5q-167 0 -167 -117q0 -51 31.5 -79t88.5 -28z" />
    <glyph glyph-name="aring" unicode="&#xe5;" horiz-adv-x="523" 
d="M258 548q-42 0 -67 25t-25 63t25 63t67 25q32 0 54.5 -14.5t30.5 -35t8 -38.5q0 -39 -25 -63.5t-68 -24.5zM258 701q-31 0 -48.5 -18.5t-17.5 -46.5t17.5 -46.5t48.5 -18.5q32 0 49.5 18.5t17.5 46.5q0 29 -17 47t-50 18zM258 490q186 0 186 -176v-314h-30l-6 99
q-18 -35 -52.5 -62t-74 -38t-72.5 -11q-72 0 -112 37.5t-40 101.5q0 69 50 109t151 40q72 0 149 -18v54q0 73 -37 109t-113 36q-130 0 -148 -114l-38 7q18 76 65 108t122 32zM214 21q31 0 63.5 9.5t60.5 29.5t47.5 48t21.5 55v64q-29 7 -69.5 12.5t-76.5 5.5
q-167 0 -167 -117q0 -51 31.5 -79t88.5 -28z" />
    <glyph glyph-name="ae" unicode="&#xe6;" horiz-adv-x="892" 
d="M469 231q1 -39 9.5 -77t30 -67t58 -47t92.5 -18q28 0 60.5 7t58.5 20.5t37 23.5l10 -33q-21 -19 -66.5 -35.5t-104.5 -16.5q-80 0 -133 36t-75 107q-12 -33 -39 -66t-75 -55t-98 -22q-70 0 -111.5 38t-41.5 102q0 68 50 108t147 40q77 0 152 -18v47q0 72 -37.5 112
t-111.5 40q-129 0 -149 -114l-37 7q17 75 64 107.5t122 32.5q33 0 70 -9.5t65.5 -36t40.5 -65.5q25 53 72.5 82t110.5 29q35 0 69.5 -12t61.5 -40t44 -72t17 -104v-31h-363zM641 456q-26 0 -54 -7.5t-52.5 -27.5t-43 -58.5t-21.5 -100.5h326q-1 92 -44 143t-111 51zM239 21
q40 0 75.5 14.5t61.5 40t40 58.5t14 67v26q-70 18 -149 18q-163 0 -163 -118q0 -37 18.5 -62.5t47.5 -34.5t55 -9z" />
    <glyph glyph-name="ccedilla" unicode="&#xe7;" horiz-adv-x="523" 
d="M282 -39q39 0 62 -15.5t23 -47.5q0 -89 -133 -89l4 29q98 0 98 58q0 24 -19 34t-65 10l10 49q-94 7 -146.5 69.5t-52.5 178.5q0 119 56 186t163 67q43 0 83.5 -14.5t65 -51.5t29.5 -89l-37 -5q-6 62 -41 94t-100 32q-89 0 -135 -56.5t-46 -159.5q0 -108 50 -163t139 -55
q94 0 167 66l10 -35q-71 -65 -179 -65h-1z" />
    <glyph glyph-name="egrave" unicode="&#xe8;" horiz-adv-x="523" 
d="M289 550h-34l-110 159l44 4zM101 231q1 -105 50 -157t139 -52q28 0 60.5 7t58.5 20.5t37 23.5l10 -33q-21 -19 -66.5 -35.5t-103.5 -16.5q-108 0 -165.5 64.5t-57.5 188.5q0 119 56 184t153 65q34 0 68.5 -12t62 -40t44.5 -72t17 -104v-31h-363zM272 456
q-73 0 -119 -47.5t-52 -146.5h327q-1 57 -20.5 103.5t-56.5 68.5t-79 22z" />
    <glyph glyph-name="eacute" unicode="&#xe9;" horiz-adv-x="523" 
d="M389 709l-110 -159h-34l100 163zM101 231q1 -105 50 -157t139 -52q28 0 60.5 7t58.5 20.5t37 23.5l10 -33q-21 -19 -66.5 -35.5t-103.5 -16.5q-108 0 -165.5 64.5t-57.5 188.5q0 119 56 184t153 65q34 0 68.5 -12t62 -40t44.5 -72t17 -104v-31h-363zM272 456
q-73 0 -119 -47.5t-52 -146.5h327q-1 57 -20.5 103.5t-56.5 68.5t-79 22z" />
    <glyph glyph-name="ecircumflex" unicode="&#xea;" horiz-adv-x="523" 
d="M271 693l-104 -131l-35 2l122 153h34l121 -153l-34 -2zM101 231q1 -105 50 -157t139 -52q28 0 60.5 7t58.5 20.5t37 23.5l10 -33q-21 -19 -66.5 -35.5t-103.5 -16.5q-108 0 -165.5 64.5t-57.5 188.5q0 119 56 184t153 65q34 0 68.5 -12t62 -40t44.5 -72t17 -104v-31h-363
zM272 456q-73 0 -119 -47.5t-52 -146.5h327q-1 57 -20.5 103.5t-56.5 68.5t-79 22z" />
    <glyph glyph-name="edieresis" unicode="&#xeb;" horiz-adv-x="523" 
d="M202 608q-12 0 -20.5 9t-8.5 21t8.5 21t20.5 9q13 0 21.5 -9t8.5 -21t-8.5 -21t-21.5 -9zM336 608q-12 0 -20.5 9t-8.5 21t8.5 21t20.5 9t20.5 -9t8.5 -21t-8.5 -21t-20.5 -9zM101 231q1 -105 50 -157t139 -52q28 0 60.5 7t58.5 20.5t37 23.5l10 -33q-21 -19 -66.5 -35.5
t-103.5 -16.5q-108 0 -165.5 64.5t-57.5 188.5q0 119 56 184t153 65q34 0 68.5 -12t62 -40t44.5 -72t17 -104v-31h-363zM272 456q-73 0 -119 -47.5t-52 -146.5h327q-1 57 -20.5 103.5t-56.5 68.5t-79 22z" />
    <glyph glyph-name="igrave" unicode="&#xec;" horiz-adv-x="224" 
d="M131 550h-34l-110 159l44 4zM93 0v480h38v-480h-38z" />
    <glyph glyph-name="iacute" unicode="&#xed;" horiz-adv-x="224" 
d="M87 550l100 163l44 -4l-110 -159h-34zM93 0v480h38v-480h-38z" />
    <glyph glyph-name="icircumflex" unicode="&#xee;" horiz-adv-x="224" 
d="M130 717l121 -153l-34 -2l-104 131l-104 -131l-35 2l122 153h34zM93 0v480h38v-480h-38z" />
    <glyph glyph-name="idieresis" unicode="&#xef;" horiz-adv-x="224" 
d="M44 608q-12 0 -20.5 9t-8.5 21t8.5 21t20.5 9q13 0 21.5 -9t8.5 -21t-8.5 -21t-21.5 -9zM178 608q-12 0 -20.5 9t-8.5 21t8.5 21t20.5 9t20.5 -9t8.5 -21t-8.5 -21t-20.5 -9zM93 0v480h38v-480h-38z" />
    <glyph glyph-name="eth" unicode="&#xf0;" horiz-adv-x="613" 
d="M405 626q63 -62 95 -162.5t32 -230.5q0 -43 -11 -87t-41.5 -83t-77.5 -57t-96 -18t-90.5 16t-71.5 47t-46.5 76t-16.5 101q0 113 62 177.5t162 64.5q55 0 101 -23t76 -62q-30 148 -114 225l-187 -84l-7 31l168 74q-79 57 -195 57l6 32q138 0 227 -72l124 55l5 -31z
M306 22q42 0 77 14t59.5 40.5t38 65t13.5 86.5q0 97 -51.5 152.5t-136.5 55.5t-136 -55.5t-51 -152.5t51 -151.5t136 -54.5z" />
    <glyph glyph-name="ntilde" unicode="&#xf1;" horiz-adv-x="574" 
d="M225 654q-46 0 -52 -70l-27 4q3 47 24 71t56 24q30 0 68.5 -20t53.5 -23t22 -3q23 0 36 16t17 54l26 -3q-3 -49 -23.5 -73t-54.5 -24q-29 0 -75 23.5t-71 23.5zM315 490q180 0 180 -187v-303h-38v301q0 76 -35.5 115t-116.5 39q-28 0 -58 -9.5t-59.5 -34t-44.5 -58
t-15 -63.5v-290h-38v480h32l6 -62v-39q17 35 48.5 62.5t69 38t69.5 10.5z" />
    <glyph glyph-name="ograve" unicode="&#xf2;" horiz-adv-x="577" 
d="M307 550h-34l-110 159l44 4zM288 -12q-105 0 -165 63.5t-60 187.5t60 187.5t165 63.5t165.5 -64t60.5 -188t-60.5 -187t-165.5 -63zM288 22q88 0 137.5 55t49.5 161q0 107 -49.5 162.5t-137.5 55.5t-137.5 -55.5t-49.5 -162.5q0 -106 49.5 -161t137.5 -55z" />
    <glyph glyph-name="oacute" unicode="&#xf3;" horiz-adv-x="577" 
d="M263 550l100 163l44 -4l-110 -159h-34zM288 -12q-105 0 -165 63.5t-60 187.5t60 187.5t165 63.5t165.5 -64t60.5 -188t-60.5 -187t-165.5 -63zM288 22q88 0 137.5 55t49.5 161q0 107 -49.5 162.5t-137.5 55.5t-137.5 -55.5t-49.5 -162.5q0 -106 49.5 -161t137.5 -55z" />
    <glyph glyph-name="ocircumflex" unicode="&#xf4;" horiz-adv-x="577" 
d="M289 693l-104 -131l-35 2l122 153h34l121 -153l-34 -2zM288 490q105 0 165.5 -64t60.5 -188t-60.5 -187t-165.5 -63t-165 63.5t-60 187.5t60 187.5t165 63.5zM288 22q88 0 137.5 55t49.5 161q0 107 -49.5 162.5t-137.5 55.5t-137.5 -55.5t-49.5 -162.5q0 -106 49.5 -161
t137.5 -55z" />
    <glyph glyph-name="otilde" unicode="&#xf5;" horiz-adv-x="577" 
d="M163 584l-27 4q3 47 24 71t56 24q30 0 68.5 -20t53.5 -23t22 -3q23 0 36 16t17 54l26 -3q-3 -49 -23.5 -73t-54.5 -24q-29 0 -75 23.5t-71 23.5q-46 0 -52 -70zM288 -12q-105 0 -165 63.5t-60 187.5t60 187.5t165 63.5t165.5 -64t60.5 -188t-60.5 -187t-165.5 -63z
M288 22q88 0 137.5 55t49.5 161q0 107 -49.5 162.5t-137.5 55.5t-137.5 -55.5t-49.5 -162.5q0 -106 49.5 -161t137.5 -55z" />
    <glyph glyph-name="odieresis" unicode="&#xf6;" horiz-adv-x="577" 
d="M220 608q-12 0 -20.5 9t-8.5 21t8.5 21t20.5 9q13 0 21.5 -9t8.5 -21t-8.5 -21t-21.5 -9zM354 608q-12 0 -20.5 9t-8.5 21t8.5 21t20.5 9t20.5 -9t8.5 -21t-8.5 -21t-20.5 -9zM288 -12q-105 0 -165 63.5t-60 187.5t60 187.5t165 63.5t165.5 -64t60.5 -188t-60.5 -187
t-165.5 -63zM288 22q88 0 137.5 55t49.5 161q0 107 -49.5 162.5t-137.5 55.5t-137.5 -55.5t-49.5 -162.5q0 -106 49.5 -161t137.5 -55z" />
    <glyph glyph-name="divide" unicode="&#xf7;" horiz-adv-x="597" 
d="M299 437q-15 0 -25 10.5t-10 25.5t10 25.5t25 10.5t24.5 -11.5t9.5 -24.5t-9.5 -24.5t-24.5 -11.5zM101 300v34h395v-34h-395zM299 125q-15 0 -25 10.5t-10 25.5t10 25.5t25 10.5t24.5 -11.5t9.5 -24.5t-9.5 -24.5t-24.5 -11.5z" />
    <glyph glyph-name="oslash" unicode="&#xf8;" horiz-adv-x="610" 
d="M444 436q70 -65 70 -198q0 -124 -60.5 -187t-165.5 -63q-63 0 -108 22l-30 -49l-31 6l35 57q-44 30 -67.5 84t-23.5 131q0 124 60 187.5t165 63.5q80 0 134 -36l39 62l30 -5zM101 238q0 -64 19 -111t54 -72l228 367q-22 16 -51.5 25t-62.5 9q-88 0 -137.5 -55.5
t-49.5 -162.5zM288 22q88 0 137.5 55t49.5 161q0 108 -51 165l-225 -363q38 -18 89 -18z" />
    <glyph glyph-name="ugrave" unicode="&#xf9;" horiz-adv-x="555" 
d="M293 550h-34l-110 159l44 4zM428 480h38v-480h-33l-4 107q-25 -57 -72 -88t-113 -31q-89 0 -126 42.5t-37 144.5v305h38v-299q0 -65 14.5 -97.5t43 -46.5t76.5 -14q54 0 92.5 25t60.5 67.5t22 92.5v272z" />
    <glyph glyph-name="uacute" unicode="&#xfa;" horiz-adv-x="555" 
d="M393 709l-110 -159h-34l100 163zM428 480h38v-480h-33l-4 107q-25 -57 -72 -88t-113 -31q-89 0 -126 42.5t-37 144.5v305h38v-299q0 -65 14.5 -97.5t43 -46.5t76.5 -14q54 0 92.5 25t60.5 67.5t22 92.5v272z" />
    <glyph glyph-name="ucircumflex" unicode="&#xfb;" horiz-adv-x="555" 
d="M275 693l-104 -131l-35 2l122 153h34l121 -153l-34 -2zM428 480h38v-480h-33l-4 107q-25 -57 -72 -88t-113 -31q-89 0 -126 42.5t-37 144.5v305h38v-299q0 -65 14.5 -97.5t43 -46.5t76.5 -14q54 0 92.5 25t60.5 67.5t22 92.5v272z" />
    <glyph glyph-name="udieresis" unicode="&#xfc;" horiz-adv-x="555" 
d="M206 608q-12 0 -20.5 9t-8.5 21t8.5 21t20.5 9q13 0 21.5 -9t8.5 -21t-8.5 -21t-21.5 -9zM340 608q-12 0 -20.5 9t-8.5 21t8.5 21t20.5 9t20.5 -9t8.5 -21t-8.5 -21t-20.5 -9zM428 480h38v-480h-33l-4 107q-25 -57 -72 -88t-113 -31q-89 0 -126 42.5t-37 144.5v305h38
v-299q0 -65 14.5 -97.5t43 -46.5t76.5 -14q54 0 92.5 25t60.5 67.5t22 92.5v272z" />
    <glyph glyph-name="yacute" unicode="&#xfd;" horiz-adv-x="448" 
d="M336 709l-110 -159h-34l100 163zM405 480h41l-238 -585q-18 -43 -47 -64t-77 -21q-8 0 -17.5 1t-43.5 10l-2 36q19 -6 32 -9.5t32 -3.5q35 0 56.5 13.5t35.5 47.5l37 94l-212 481h41l190 -434z" />
    <glyph glyph-name="thorn" unicode="&#xfe;" horiz-adv-x="587" 
d="M297 490q99 0 153.5 -65t54.5 -183q0 -120 -60.5 -187t-176.5 -67q-79 0 -137 30v-198h-38v890h38v-313q21 42 63.5 67.5t102.5 25.5zM270 22q93 0 145 55.5t52 163.5q0 104 -44.5 159.5t-130.5 55.5q-46 0 -81 -18.5t-57.5 -52.5t-22.5 -78v-250q58 -35 139 -35z" />
    <glyph glyph-name="ydieresis" unicode="&#xff;" horiz-adv-x="448" 
d="M149 608q-12 0 -20.5 9t-8.5 21t8.5 21t20.5 9q13 0 21.5 -9t8.5 -21t-8.5 -21t-21.5 -9zM283 608q-12 0 -20.5 9t-8.5 21t8.5 21t20.5 9t20.5 -9t8.5 -21t-8.5 -21t-20.5 -9zM405 480h41l-238 -585q-18 -43 -47 -64t-77 -21q-8 0 -17.5 1t-43.5 10l-2 36q19 -6 32 -9.5
t32 -3.5q35 0 56.5 13.5t35.5 47.5l37 94l-212 481h41l190 -434z" />
    <glyph glyph-name="Amacron" unicode="&#x100;" horiz-adv-x="614" 
d="M440 804v-32h-266v32h266zM572 0l-87 219h-357l-87 -219h-41l283 710h47l284 -710h-42zM141 254h331l-165 420z" />
    <glyph glyph-name="amacron" unicode="&#x101;" horiz-adv-x="523" 
d="M400 644v-32h-285v32h285zM258 490q186 0 186 -176v-314h-30l-6 99q-18 -35 -52.5 -62t-74 -38t-72.5 -11q-72 0 -112 37.5t-40 101.5q0 69 50 109t151 40q72 0 149 -18v54q0 73 -37 109t-113 36q-130 0 -148 -114l-38 7q18 76 65 108t122 32zM214 21q31 0 63.5 9.5
t60.5 29.5t47.5 48t21.5 55v64q-29 7 -69.5 12.5t-76.5 5.5q-167 0 -167 -117q0 -51 31.5 -79t88.5 -28z" />
    <glyph glyph-name="Abreve" unicode="&#x102;" horiz-adv-x="614" 
d="M307 739q-101 0 -109 109l28 3q4 -44 24.5 -63.5t56.5 -19.5q37 0 57.5 19.5t24.5 63.5l28 -3q-8 -109 -110 -109zM572 0l-87 219h-357l-87 -219h-41l283 710h47l284 -710h-42zM141 254h331l-165 420z" />
    <glyph glyph-name="abreve" unicode="&#x103;" horiz-adv-x="523" 
d="M258 561q-62 0 -95 34.5t-38 106.5l30 2q4 -56 28 -84t75 -28q52 0 75.5 28t27.5 84l29 -2q-4 -72 -37 -106.5t-95 -34.5zM258 490q186 0 186 -176v-314h-30l-6 99q-18 -35 -52.5 -62t-74 -38t-72.5 -11q-72 0 -112 37.5t-40 101.5q0 69 50 109t151 40q72 0 149 -18v54
q0 73 -37 109t-113 36q-130 0 -148 -114l-38 7q18 76 65 108t122 32zM214 21q31 0 63.5 9.5t60.5 29.5t47.5 48t21.5 55v64q-29 7 -69.5 12.5t-76.5 5.5q-167 0 -167 -117q0 -51 31.5 -79t88.5 -28z" />
    <glyph glyph-name="Aogonek" unicode="&#x104;" horiz-adv-x="614" 
d="M613 -149l2 -30q-22 -12 -61 -12t-59 18t-20 52q0 32 23 64t77 57h-3l-87 219h-357l-87 -219h-41l283 710h47l283 -710h1q-103 -53 -103 -113q0 -24 13 -36t34 -12q27 0 55 12zM141 254h331l-165 420z" />
    <glyph glyph-name="aogonek" unicode="&#x105;" horiz-adv-x="523" 
d="M443 -149l2 -30q-22 -12 -61 -12t-59 18t-20 52q0 25 13 49t39 43.5t56 32.5l-5 95q-18 -35 -52.5 -62t-74 -38t-72.5 -11q-72 0 -112 37.5t-40 101.5q0 69 50 109t151 40q72 0 149 -18v54q0 73 -37 109t-113 36q-130 0 -148 -114l-38 7q18 76 65 108t122 32
q186 0 186 -176v-314q-103 -53 -103 -113q0 -24 13 -36t34 -12q27 0 55 12zM214 21q31 0 63.5 9.5t60.5 29.5t47.5 48t21.5 55v64q-29 7 -69.5 12.5t-76.5 5.5q-167 0 -167 -117q0 -51 31.5 -79t88.5 -28z" />
    <glyph glyph-name="Cacute" unicode="&#x106;" horiz-adv-x="673" 
d="M349 742l73 106l44 -7l-82 -102zM393 -12q-75 0 -137.5 23t-106.5 69t-68 114.5t-24 155.5q0 89 22.5 159.5t64 117t99.5 70t127 23.5q47 0 94.5 -11t85 -37t60.5 -67t23 -96l-40 -4q-2 62 -30.5 101.5t-75.5 59t-114 19.5q-60 0 -111 -20.5t-87.5 -62t-56.5 -105.5
t-20 -146q0 -78 21 -140t60 -103.5t94 -62.5t122 -21q139 0 224 65l10 -36q-37 -28 -96.5 -46.5t-139.5 -18.5z" />
    <glyph glyph-name="cacute" unicode="&#x107;" horiz-adv-x="523" 
d="M257 550l100 163l44 -4l-110 -159h-34zM288 -12q-105 0 -165 62.5t-60 186.5q0 119 56 186t163 67q43 0 83.5 -14.5t65 -51.5t29.5 -89l-37 -5q-6 62 -41 94t-100 32q-89 0 -135 -56.5t-46 -159.5q0 -108 50 -163t139 -55q94 0 167 66l10 -35q-71 -65 -179 -65z" />
    <glyph glyph-name="Cdotaccent" unicode="&#x10a;" horiz-adv-x="673" 
d="M370 766q-13 0 -22 9t-9 22q0 12 9 21t22 9t21.5 -9t8.5 -21q0 -13 -8.5 -22t-21.5 -9zM393 -12q-75 0 -137.5 23t-106.5 69t-68 114.5t-24 155.5q0 89 22.5 159.5t64 117t99.5 70t127 23.5q47 0 94.5 -11t85 -37t60.5 -67t23 -96l-40 -4q-2 62 -30.5 101.5t-75.5 59
t-114 19.5q-60 0 -111 -20.5t-87.5 -62t-56.5 -105.5t-20 -146q0 -78 21 -140t60 -103.5t94 -62.5t122 -21q139 0 224 65l10 -36q-37 -28 -96.5 -46.5t-139.5 -18.5z" />
    <glyph glyph-name="cdotaccent" unicode="&#x10b;" horiz-adv-x="523" 
d="M283 606q-13 0 -22.5 10t-9.5 23t9.5 22.5t22.5 9.5t22.5 -9.5t9.5 -22.5t-9.5 -23t-22.5 -10zM288 -12q-105 0 -165 62.5t-60 186.5q0 119 56 186t163 67q43 0 83.5 -14.5t65 -51.5t29.5 -89l-37 -5q-6 62 -41 94t-100 32q-89 0 -135 -56.5t-46 -159.5q0 -108 50 -163
t139 -55q94 0 167 66l10 -35q-71 -65 -179 -65z" />
    <glyph glyph-name="Ccaron" unicode="&#x10c;" horiz-adv-x="673" 
d="M387 741h-34l-104 104l35 6l86 -87l86 87l35 -6zM395 24q139 0 224 65l10 -36q-37 -28 -96.5 -46.5t-139.5 -18.5q-75 0 -137.5 23t-106.5 69t-68 114.5t-24 155.5q0 89 22.5 159.5t64 117t99.5 70t127 23.5q47 0 94.5 -11t85 -37t60.5 -67t23 -96l-40 -4
q-2 62 -30.5 101.5t-75.5 59t-114 19.5q-60 0 -111 -20.5t-87.5 -62t-56.5 -105.5t-20 -146q0 -78 21 -140t60 -103.5t94 -62.5t122 -21z" />
    <glyph glyph-name="ccaron" unicode="&#x10d;" horiz-adv-x="523" 
d="M300 557h-34l-122 153l35 2l104 -131l104 131l34 -2zM457 88l10 -35q-71 -65 -179 -65q-105 0 -165 62.5t-60 186.5q0 119 56 186t163 67q43 0 83.5 -14.5t65 -51.5t29.5 -89l-37 -5q-6 62 -41 94t-100 32q-89 0 -135 -56.5t-46 -159.5q0 -108 50 -163t139 -55
q94 0 167 66z" />
    <glyph glyph-name="Dcaron" unicode="&#x10e;" horiz-adv-x="726" 
d="M317 741h-34l-104 104l35 6l86 -87l86 87l35 -6zM305 710q87 0 156 -26.5t115 -74.5t69.5 -113.5t23.5 -141.5t-23 -141t-69 -113t-115.5 -74t-156.5 -26h-199v710h199zM304 36q81 0 143 24.5t102 67.5t59.5 101t19.5 125t-19.5 125.5t-59.5 102t-102 68t-143 24.5h-158
v-638h158z" />
    <glyph glyph-name="dcaron" unicode="&#x10f;" horiz-adv-x="558" 
d="M562 713l36 -3l-32 -183l-32 3zM430 448v262h38v-710h-33l-4 87q-2 -4 -8.5 -14.5t-25.5 -31t-55.5 -37t-82.5 -16.5q-43 0 -79 15t-62 45.5t-40.5 76.5t-14.5 106q0 122 59.5 190.5t164.5 68.5q35 0 73.5 -9.5t69.5 -32.5zM262 22q27 0 55.5 8.5t53.5 28t42 49t17 64.5
v238q-31 25 -68 35.5t-72 10.5q-90 0 -139.5 -61t-49.5 -167q0 -67 19.5 -112.5t55.5 -69.5t86 -24z" />
    <glyph glyph-name="Dcroat" unicode="&#x110;" horiz-adv-x="738" 
d="M305 710q87 0 156 -26.5t115 -74.5t69.5 -113.5t23.5 -141.5t-23 -141t-69 -113t-115.5 -74t-156.5 -26h-199v333h-87v34h87v343h199zM304 36q81 0 143 24.5t102 67.5t59.5 101t19.5 125t-19.5 125.5t-59.5 102t-102 68t-143 24.5h-158v-307h142v-34h-142v-297h158z" />
    <glyph glyph-name="dcroat" unicode="&#x111;" horiz-adv-x="575" 
d="M558 603v-31h-93v-572h-33l-4 86q-24 -43 -67.5 -70.5t-104.5 -27.5q-43 0 -79 15t-62 45.5t-40.5 76.5t-14.5 106q0 122 59.5 190.5t164.5 68.5q87 0 143 -42v124h-176v31h176v107h38v-107h93zM259 22q27 0 55.5 8.5t53.5 28t42 49t17 64.5v238q-22 18 -58 32t-82 14
q-90 0 -139.5 -61t-49.5 -167q0 -67 19.5 -112.5t55.5 -69.5t86 -24z" />
    <glyph glyph-name="Emacron" unicode="&#x112;" horiz-adv-x="573" 
d="M453 804v-32h-266v32h266zM533 675h-387v-300h357v-35h-357v-304h387v-36h-427v710h427v-35z" />
    <glyph glyph-name="emacron" unicode="&#x113;" horiz-adv-x="523" 
d="M412 644v-32h-285v32h285zM101 231q1 -105 50 -157t139 -52q28 0 60.5 7t58.5 20.5t37 23.5l10 -33q-21 -19 -66.5 -35.5t-103.5 -16.5q-108 0 -165.5 64.5t-57.5 188.5q0 119 56 184t153 65q34 0 68.5 -12t62 -40t44.5 -72t17 -104v-31h-363zM272 456q-73 0 -119 -47.5
t-52 -146.5h327q-1 57 -20.5 103.5t-56.5 68.5t-79 22z" />
    <glyph glyph-name="Edotaccent" unicode="&#x116;" horiz-adv-x="573" 
d="M321 766q-13 0 -22 9t-9 22q0 12 9 21t22 9t21.5 -9t8.5 -21q0 -13 -8.5 -22t-21.5 -9zM533 675h-387v-300h357v-35h-357v-304h387v-36h-427v710h427v-35z" />
    <glyph glyph-name="edotaccent" unicode="&#x117;" horiz-adv-x="523" 
d="M271 606q-13 0 -22.5 10t-9.5 23t9.5 22.5t22.5 9.5t22.5 -9.5t9.5 -22.5t-9.5 -23t-22.5 -10zM101 231q1 -105 50 -157t139 -52q28 0 60.5 7t58.5 20.5t37 23.5l10 -33q-21 -19 -66.5 -35.5t-103.5 -16.5q-108 0 -165.5 64.5t-57.5 188.5q0 119 56 184t153 65
q34 0 68.5 -12t62 -40t44.5 -72t17 -104v-31h-363zM272 456q-73 0 -119 -47.5t-52 -146.5h327q-1 57 -20.5 103.5t-56.5 68.5t-79 22z" />
    <glyph glyph-name="Eogonek" unicode="&#x118;" horiz-adv-x="573" 
d="M532 -149l2 -30q-22 -12 -61 -12t-59 18t-20 52q0 32 23 64t77 57h-388v710h427v-35h-387v-300h357v-35h-357v-304h387v-36q-103 -53 -103 -113q0 -24 13 -36t34 -12q27 0 55 12z" />
    <glyph glyph-name="eogonek" unicode="&#x119;" horiz-adv-x="523" 
d="M101 231q1 -105 50 -157t139 -52q28 0 60.5 7t58.5 20.5t37 23.5l10 -33q-14 -14 -45 -28q-103 -53 -103 -113q0 -24 13 -36t34 -12q27 0 55 12l2 -30q-22 -12 -61 -12t-59 18t-20 52q0 58 63 100q-22 -3 -49 -3q-108 0 -165.5 64.5t-57.5 188.5q0 119 56 184t153 65
q34 0 68.5 -12t62 -40t44.5 -72t17 -104v-31h-363zM272 456q-73 0 -119 -47.5t-52 -146.5h327q-1 57 -20.5 103.5t-56.5 68.5t-79 22z" />
    <glyph glyph-name="Ecaron" unicode="&#x11a;" horiz-adv-x="573" 
d="M337 741h-34l-104 104l35 6l86 -87l86 87l35 -6zM533 675h-387v-300h357v-35h-357v-304h387v-36h-427v710h427v-35z" />
    <glyph glyph-name="ecaron" unicode="&#x11b;" horiz-adv-x="523" 
d="M287 557h-34l-122 153l35 2l104 -131l104 131l34 -2zM101 231q1 -105 50 -157t139 -52q28 0 60.5 7t58.5 20.5t37 23.5l10 -33q-21 -19 -66.5 -35.5t-103.5 -16.5q-108 0 -165.5 64.5t-57.5 188.5q0 119 56 184t153 65q34 0 68.5 -12t62 -40t44.5 -72t17 -104v-31h-363z
M272 456q-73 0 -119 -47.5t-52 -146.5h327q-1 57 -20.5 103.5t-56.5 68.5t-79 22z" />
    <glyph glyph-name="Gbreve" unicode="&#x11e;" horiz-adv-x="739" 
d="M379 739q-101 0 -109 109l28 3q4 -44 24.5 -63.5t56.5 -19.5q37 0 57.5 19.5t24.5 63.5l28 -3q-8 -109 -110 -109zM404 362h273v-362h-30l-4 138q-31 -75 -99 -112.5t-160 -37.5q-74 0 -135 24t-104 70.5t-65.5 116t-22.5 155.5q0 90 24 160t69 115.5t107.5 68
t137.5 22.5q110 0 178 -50.5t79 -141.5l-39 -8q-9 76 -67 120.5t-151 44.5q-140 0 -218.5 -86t-78.5 -245q0 -158 76.5 -244t212.5 -86q53 0 99.5 14.5t80.5 44.5t53.5 78t19.5 112v56h-236v33z" />
    <glyph glyph-name="gbreve" unicode="&#x11f;" horiz-adv-x="491" 
d="M257 561q-62 0 -95 34.5t-38 106.5l30 2q4 -56 28 -84t75 -28q52 0 75.5 28t27.5 84l29 -2q-4 -72 -37 -106.5t-95 -34.5zM353 75q67 -1 99 -34.5t32 -80.5q0 -66 -57 -108t-165 -42q-115 0 -166.5 33t-51.5 101t74 111q-48 22 -48 71q0 61 70 100q-28 18 -43 48.5
t-15 67.5q0 66 45.5 107t128.5 41q62 0 106 -25q14 42 44 63.5t79 24.5l6 -35q-83 -4 -107 -69q21 -19 33 -46.5t12 -59.5q0 -67 -45 -107t-128 -40q-54 0 -93 17q-24 -15 -41.5 -33.5t-17.5 -45.5q0 -31 21.5 -44.5t69.5 -13.5zM117 342q0 -58 37 -87.5t102 -29.5
q64 0 100.5 29.5t36.5 87.5q0 43 -20.5 71t-53.5 38t-63 10t-63.5 -10t-54.5 -38t-21 -71zM264 -157q89 0 136 32t47 79q0 41 -27 65t-76 24h-164q-20 0 -29 2q-31 -15 -50.5 -40.5t-19.5 -58.5q0 -57 47 -80t136 -23z" />
    <glyph glyph-name="Gdotaccent" unicode="&#x120;" horiz-adv-x="739" 
d="M380 766q-13 0 -22 9t-9 22q0 12 9 21t22 9t21.5 -9t8.5 -21q0 -13 -8.5 -22t-21.5 -9zM404 362h273v-362h-30l-4 138q-31 -75 -99 -112.5t-160 -37.5q-74 0 -135 24t-104 70.5t-65.5 116t-22.5 155.5q0 90 24 160t69 115.5t107.5 68t137.5 22.5q110 0 178 -50.5
t79 -141.5l-39 -8q-9 76 -67 120.5t-151 44.5q-140 0 -218.5 -86t-78.5 -245q0 -158 76.5 -244t212.5 -86q53 0 99.5 14.5t80.5 44.5t53.5 78t19.5 112v56h-236v33z" />
    <glyph glyph-name="gdotaccent" unicode="&#x121;" horiz-adv-x="491" 
d="M257 606q-13 0 -22.5 10t-9.5 23t9.5 22.5t22.5 9.5t22.5 -9.5t9.5 -22.5t-9.5 -23t-22.5 -10zM353 75q67 -1 99 -34.5t32 -80.5q0 -66 -57 -108t-165 -42q-115 0 -166.5 33t-51.5 101t74 111q-48 22 -48 71q0 61 70 100q-28 18 -43 48.5t-15 67.5q0 66 45.5 107
t128.5 41q62 0 106 -25q14 42 44 63.5t79 24.5l6 -35q-83 -4 -107 -69q21 -19 33 -46.5t12 -59.5q0 -67 -45 -107t-128 -40q-54 0 -93 17q-24 -15 -41.5 -33.5t-17.5 -45.5q0 -31 21.5 -44.5t69.5 -13.5zM117 342q0 -58 37 -87.5t102 -29.5q64 0 100.5 29.5t36.5 87.5
q0 43 -20.5 71t-53.5 38t-63 10t-63.5 -10t-54.5 -38t-21 -71zM264 -157q89 0 136 32t47 79q0 41 -27 65t-76 24h-164q-20 0 -29 2q-31 -15 -50.5 -40.5t-19.5 -58.5q0 -57 47 -80t136 -23z" />
    <glyph glyph-name="Gcommaaccent" unicode="&#x122;" horiz-adv-x="739" 
d="M404 362h273v-362h-30l-4 138q-31 -75 -99 -112.5t-160 -37.5q-74 0 -135 24t-104 70.5t-65.5 116t-22.5 155.5q0 90 24 160t69 115.5t107.5 68t137.5 22.5q110 0 178 -50.5t79 -141.5l-39 -8q-9 76 -67 120.5t-151 44.5q-140 0 -218.5 -86t-78.5 -245q0 -158 76.5 -244
t212.5 -86q53 0 99.5 14.5t80.5 44.5t53.5 78t19.5 112v56h-236v33zM379 -49q40 0 40 -49q0 -65 -66 -83l-4 21q20 8 29 19.5t9 31.5q-41 0 -41 30q0 15 9.5 22.5t23.5 7.5z" />
    <glyph glyph-name="gcommaaccent" unicode="&#x123;" horiz-adv-x="553" 
d="M265 592q-40 0 -40 49q0 65 65 83l4 -21q-38 -15 -38 -51q42 0 42 -30q0 -14 -10 -22t-23 -8zM353 75q67 -1 99 -34.5t32 -80.5q0 -66 -57 -108t-165 -42q-115 0 -166.5 33t-51.5 101t74 111q-48 22 -48 71q0 61 70 100q-28 18 -43 48.5t-15 67.5q0 66 45.5 107t128.5 41
q62 0 106 -25q14 42 44 63.5t79 24.5l6 -35q-83 -4 -107 -69q21 -19 33 -46.5t12 -59.5q0 -67 -45 -107t-128 -40q-54 0 -93 17q-24 -15 -41.5 -33.5t-17.5 -45.5q0 -31 21.5 -44.5t69.5 -13.5zM117 342q0 -58 37 -87.5t102 -29.5q64 0 100.5 29.5t36.5 87.5q0 43 -20.5 71
t-53.5 38t-63 10t-63.5 -10t-54.5 -38t-21 -71zM264 -157q89 0 136 32t47 79q0 41 -27 65t-76 24h-164q-20 0 -29 2q-31 -15 -50.5 -40.5t-19.5 -58.5q0 -57 47 -80t136 -23z" />
    <glyph glyph-name="Hbar" unicode="&#x126;" horiz-adv-x="757" 
d="M716 603v-31h-78v-572h-41v328h-451v-328h-40v572h-83v31h83v107h40v-107h451v107h41v-107h78zM597 365v207h-451v-207h451z" />
    <glyph glyph-name="hbar" unicode="&#x127;" horiz-adv-x="586" 
d="M317 490q56 0 94.5 -20t60.5 -59.5t22 -100.5v-310h-38v308q0 66 -36 106.5t-109 40.5q-31 0 -63 -9.5t-62 -33.5t-44.5 -57.5t-14.5 -63.5v-291h-38v572h-83v31h83v107h38v-107h182v-31h-182v-191q17 35 48.5 61.5t70 37t71.5 10.5z" />
    <glyph glyph-name="Itilde" unicode="&#x128;" horiz-adv-x="251" 
d="M31 742l-26 4q6 75 62 75q21 0 60 -11.5t55 -11.5q18 0 27 11t11 38l26 -3q-3 -39 -17.5 -57.5t-44.5 -18.5q-21 0 -59.5 11.5t-55.5 11.5t-26 -11t-12 -38zM106 0v710h40v-710h-40z" />
    <glyph glyph-name="itilde" unicode="&#x129;" horiz-adv-x="224" 
d="M-14 584l-26 4q3 47 24 71t56 24q30 0 68.5 -20t53.5 -23t22 -3q23 0 36 16t17 54l26 -3q-3 -49 -23.5 -73t-54.5 -24q-29 0 -75 23.5t-71 23.5q-47 0 -53 -70zM93 0v480h38v-480h-38z" />
    <glyph glyph-name="Imacron" unicode="&#x12a;" horiz-adv-x="251" 
d="M-7 772v32h266v-32h-266zM106 0v710h40v-710h-40z" />
    <glyph glyph-name="imacron" unicode="&#x12b;" horiz-adv-x="224" 
d="M7 612v32h208v-32h-208zM93 0v480h38v-480h-38z" />
    <glyph glyph-name="Iogonek" unicode="&#x12e;" horiz-adv-x="251" 
d="M145 -149l2 -30q-22 -12 -61 -12t-59 18t-20 52q0 32 23 64t77 57h-1v710h40v-710q-103 -53 -103 -113q0 -24 13 -36t34 -12q27 0 55 12z" />
    <glyph glyph-name="iogonek" unicode="&#x12f;" horiz-adv-x="224" 
d="M112 671q13 0 22.5 -9.5t9.5 -22.5t-9.5 -23t-22.5 -10t-22.5 10t-9.5 23t9.5 22.5t22.5 9.5zM75 -161q27 0 55 12l2 -30q-22 -12 -61 -12t-59 18t-20 52q0 32 23.5 64t77.5 57v480h38v-480q-103 -53 -103 -113q0 -24 13 -36t34 -12z" />
    <glyph glyph-name="Idotaccent" unicode="&#x130;" horiz-adv-x="251" 
d="M126 766q-13 0 -22 9t-9 22q0 12 9 21t22 9t21.5 -9t8.5 -21q0 -13 -8.5 -22t-21.5 -9zM106 0v710h40v-710h-40z" />
    <glyph glyph-name="dotlessi" unicode="&#x131;" horiz-adv-x="224" 
d="M93 0v480h38v-480h-38z" />
    <glyph glyph-name="IJ" unicode="&#x132;" horiz-adv-x="518" 
d="M106 0v710h40v-710h-40zM343 -12q-26 0 -59.5 4t-84.5 24l4 36q60 -28 138 -28q71 0 104 34t33 111v541h41v-545q0 -92 -44.5 -134.5t-131.5 -42.5z" />
    <glyph glyph-name="ij" unicode="&#x133;" horiz-adv-x="417" 
d="M112 606q-13 0 -22.5 10t-9.5 23t9.5 22.5t22.5 9.5t22.5 -9.5t9.5 -22.5t-9.5 -23t-22.5 -10zM304 606q-13 0 -22.5 10t-9.5 23t9.5 22.5t22.5 9.5t22.5 -9.5t9.5 -22.5t-9.5 -23t-22.5 -10zM93 0v480h38v-480h-38zM235 -190q-37 0 -56 11l3 33q23 -10 48 -10
q28 0 41.5 13t13.5 40v583h38v-582q0 -44 -21.5 -66t-66.5 -22z" />
    <glyph glyph-name="Kcommaaccent" unicode="&#x136;" horiz-adv-x="577" 
d="M295 348l285 -348h-47l-269 328h-118v-328h-40v710h40v-345h118l262 345h47zM291 -49q40 0 40 -49q0 -65 -66 -83l-4 21q20 8 29 19.5t9 31.5q-41 0 -41 30q0 15 9.5 22.5t23.5 7.5z" />
    <glyph glyph-name="kcommaaccent" unicode="&#x137;" horiz-adv-x="448" 
d="M249 275l205 -275h-45l-185 251l-97 -98v-153h-38v710h38v-510l278 280h48zM240 -49q40 0 40 -49q0 -65 -66 -83l-4 21q20 8 29 19.5t9 31.5q-41 0 -41 30q0 15 9.5 22.5t23.5 7.5z" />
    <glyph glyph-name="kgreenlandic" unicode="&#x138;" horiz-adv-x="500" 
d="M450 480l-197 -202l183 -278h-43l-166 251l-96 -98v-153h-38v481h38v-280l271 279h48z" />
    <glyph glyph-name="Lacute" unicode="&#x139;" horiz-adv-x="514" 
d="M231 841l-82 -102l-35 3l73 106zM146 37h372v-37h-412v710h40v-673z" />
    <glyph glyph-name="lacute" unicode="&#x13a;" horiz-adv-x="213" 
d="M87 742l73 106l44 -7l-82 -102zM89 0v710h38v-710h-38z" />
    <glyph glyph-name="Lcommaaccent" unicode="&#x13b;" horiz-adv-x="514" 
d="M146 37h372v-37h-412v710h40v-673zM304 -49q40 0 40 -49q0 -65 -66 -83l-4 21q20 8 29 19.5t9 31.5q-41 0 -41 30q0 15 9.5 22.5t23.5 7.5z" />
    <glyph glyph-name="lcommaaccent" unicode="&#x13c;" horiz-adv-x="213" 
d="M89 0v710h38v-710h-38zM78 -181l-4 21q20 8 29 19.5t9 31.5q-41 0 -41 30q0 15 9.5 22.5t23.5 7.5q40 0 40 -49q0 -65 -66 -83z" />
    <glyph glyph-name="Lcaron" unicode="&#x13d;" horiz-adv-x="423" 
d="M377 710l-32 -183l-32 3l28 183zM146 37h372v-37h-412v710h40v-673z" />
    <glyph glyph-name="lcaron" unicode="&#x13e;" horiz-adv-x="222" 
d="M257 710l-36 3l-28 -183l32 -3zM89 0v710h38v-710h-38z" />
    <glyph glyph-name="Ldot" unicode="&#x13f;" horiz-adv-x="514" 
d="M146 37h372v-37h-412v710h40v-673zM337 315q-16 0 -27 12t-11 28t11 27.5t27 11.5q17 0 28 -11.5t11 -27.5q0 -17 -11 -28.5t-28 -11.5z" />
    <glyph glyph-name="ldot" unicode="&#x140;" horiz-adv-x="235" 
d="M89 0v710h38v-710h-38zM212 248q-16 0 -27 12t-11 28t11 27.5t27 11.5q17 0 28 -11.5t11 -27.5q0 -17 -11 -28.5t-28 -11.5z" />
    <glyph glyph-name="Lslash" unicode="&#x141;" horiz-adv-x="430" 
d="M116 37h296v-37h-336v326l-59 -21v34l59 21v350h40v-336l137 48v-33l-137 -49v-303z" />
    <glyph glyph-name="lslash" unicode="&#x142;" horiz-adv-x="219" 
d="M206 442v-34l-77 -36v-372h-38v355l-78 -37v34l78 36v322h38v-304z" />
    <glyph glyph-name="Nacute" unicode="&#x143;" horiz-adv-x="746" 
d="M479 841l-82 -102l-35 3l73 106zM601 710h40v-710h-37l-458 644v-644h-40v710h40l455 -640v640z" />
    <glyph glyph-name="nacute" unicode="&#x144;" horiz-adv-x="574" 
d="M417 709l-110 -159h-34l100 163zM315 490q180 0 180 -187v-303h-38v301q0 76 -35.5 115t-116.5 39q-28 0 -58 -9.5t-59.5 -34t-44.5 -58t-15 -63.5v-290h-38v480h32l6 -62v-39q17 35 48.5 62.5t69 38t69.5 10.5z" />
    <glyph glyph-name="Ncommaaccent" unicode="&#x145;" horiz-adv-x="746" 
d="M601 710h40v-710h-37l-458 644v-644h-40v710h40l455 -640v640zM370 -49q40 0 40 -49q0 -65 -66 -83l-4 21q20 8 29 19.5t9 31.5q-41 0 -41 30q0 15 9.5 22.5t23.5 7.5z" />
    <glyph glyph-name="ncommaaccent" unicode="&#x146;" horiz-adv-x="574" 
d="M315 490q180 0 180 -187v-303h-38v301q0 76 -35.5 115t-116.5 39q-28 0 -58 -9.5t-59.5 -34t-44.5 -58t-15 -63.5v-290h-38v480h32l6 -62v-39q17 35 48.5 62.5t69 38t69.5 10.5zM291 -49q40 0 40 -49q0 -65 -66 -83l-4 21q20 8 29 19.5t9 31.5q-41 0 -41 30
q0 15 9.5 22.5t23.5 7.5z" />
    <glyph glyph-name="Ncaron" unicode="&#x147;" horiz-adv-x="746" 
d="M400 741h-34l-104 104l35 6l86 -87l86 87l35 -6zM601 710h40v-710h-37l-458 644v-644h-40v710h40l455 -640v640z" />
    <glyph glyph-name="ncaron" unicode="&#x148;" horiz-adv-x="574" 
d="M315 557h-34l-122 153l35 2l104 -131l104 131l34 -2zM315 490q180 0 180 -187v-303h-38v301q0 76 -35.5 115t-116.5 39q-28 0 -58 -9.5t-59.5 -34t-44.5 -58t-15 -63.5v-290h-38v480h32l6 -62v-39q17 35 48.5 62.5t69 38t69.5 10.5z" />
    <glyph glyph-name="Eng" unicode="&#x14a;" horiz-adv-x="742" 
d="M601 710h40v-802q0 -51 -21.5 -74.5t-67.5 -23.5q-36 0 -55 11l2 32q23 -10 49 -10q29 0 42 14t13 49v95l-457 643v-644h-40v710h40l455 -640v640z" />
    <glyph glyph-name="eng" unicode="&#x14b;" horiz-adv-x="591" 
d="M315 490q180 0 180 -187v-389q0 -53 -19 -78.5t-59 -25.5q-28 0 -45 11l2 32q18 -10 39 -10q23 0 33.5 14.5t10.5 51.5v392q0 76 -35.5 115t-116.5 39q-28 0 -58 -9.5t-59.5 -34t-44.5 -58t-15 -63.5v-290h-38v480h32l6 -62v-39q17 35 48.5 62.5t69 38t69.5 10.5z" />
    <glyph glyph-name="Omacron" unicode="&#x14c;" horiz-adv-x="774" 
d="M254 772v32h266v-32h-266zM387 -12q-156 0 -243 94.5t-87 271.5t87 271.5t243 94.5t243 -94.5t87 -271.5t-87 -271.5t-243 -94.5zM387 24q67 0 121 21t91 62.5t57 104t20 142.5t-20 142.5t-57 104t-91 62.5t-121 21q-66 0 -120 -21t-91.5 -62.5t-57.5 -104t-20 -142.5
t20 -142.5t57.5 -104t91.5 -62.5t120 -21z" />
    <glyph glyph-name="omacron" unicode="&#x14d;" horiz-adv-x="577" 
d="M145 612v32h285v-32h-285zM288 -12q-105 0 -165 63.5t-60 187.5t60 187.5t165 63.5t165.5 -64t60.5 -188t-60.5 -187t-165.5 -63zM288 22q88 0 137.5 55t49.5 161q0 107 -49.5 162.5t-137.5 55.5t-137.5 -55.5t-49.5 -162.5q0 -106 49.5 -161t137.5 -55z" />
    <glyph glyph-name="Ohungarumlaut" unicode="&#x150;" horiz-adv-x="774" 
d="M305 742l73 106l44 -7l-82 -102zM407 742l73 106l44 -7l-82 -102zM387 -12q-156 0 -243 94.5t-87 271.5t87 271.5t243 94.5t243 -94.5t87 -271.5t-87 -271.5t-243 -94.5zM387 24q67 0 121 21t91 62.5t57 104t20 142.5t-20 142.5t-57 104t-91 62.5t-121 21q-66 0 -120 -21
t-91.5 -62.5t-57.5 -104t-20 -142.5t20 -142.5t57.5 -104t91.5 -62.5t120 -21z" />
    <glyph glyph-name="ohungarumlaut" unicode="&#x151;" horiz-adv-x="577" 
d="M179 550l100 163l44 -4l-110 -159h-34zM298 550l100 163l44 -4l-110 -159h-34zM288 -12q-105 0 -165 63.5t-60 187.5t60 187.5t165 63.5t165.5 -64t60.5 -188t-60.5 -187t-165.5 -63zM288 22q88 0 137.5 55t49.5 161q0 107 -49.5 162.5t-137.5 55.5t-137.5 -55.5
t-49.5 -162.5q0 -106 49.5 -161t137.5 -55z" />
    <glyph glyph-name="OE" unicode="&#x152;" horiz-adv-x="1145" 
d="M1105 675h-387v-300h357v-35h-357v-304h387v-36h-427v153q-39 -81 -113 -123t-178 -42q-156 0 -243 94.5t-87 271.5t87 271.5t243 94.5q104 0 178 -42t113 -123v155h427v-35zM387 24q67 0 121 21t91 62.5t57 104t20 142.5t-20 142.5t-57 104t-91 62.5t-121 21
q-66 0 -120 -21t-91.5 -62.5t-57.5 -104t-20 -142.5t20 -142.5t57.5 -104t91.5 -62.5t120 -21z" />
    <glyph glyph-name="oe" unicode="&#x153;" horiz-adv-x="937" 
d="M514 231q1 -105 50 -157t139 -52q28 0 60.5 7t58.5 20.5t37 23.5l10 -33q-21 -19 -66.5 -35.5t-103.5 -16.5q-76 0 -128.5 33t-76.5 96q-24 -63 -78 -96t-128 -33q-105 0 -165 63.5t-60 187.5t60 187.5t165 63.5q74 0 127.5 -33t78.5 -97q23 62 73 96t118 34
q34 0 68.5 -12t62 -40t44.5 -72t17 -104v-31h-363zM685 456q-54 0 -90.5 -23.5t-56.5 -66t-23 -104.5h326q-1 92 -44 143t-112 51zM288 22q86 0 135 51.5t52 152.5v15v12q-4 99 -53 151t-134 52q-88 0 -137.5 -55.5t-49.5 -162.5q0 -106 49.5 -161t137.5 -55z" />
    <glyph glyph-name="Racute" unicode="&#x154;" horiz-adv-x="616" 
d="M387 841l-82 -102l-35 3l73 106zM566 507q0 -57 -22 -98.5t-66.5 -68t-115.5 -31.5l197 -309h-46l-193 308h-174v-308h-40v710h190q134 0 202 -51.5t68 -151.5zM146 674v-331h182q43 0 79 9t62.5 28.5t41 51.5t14.5 75q0 167 -228 167h-151z" />
    <glyph glyph-name="racute" unicode="&#x155;" horiz-adv-x="300" 
d="M281 709l-110 -159h-34l100 163zM257 490q19 0 36 -5l-3 -38q-12 4 -34 4q-33 0 -62 -24.5t-47.5 -71t-18.5 -88.5v-267h-38v480h33l4 -109q14 39 37.5 68t48 40t44.5 11z" />
    <glyph glyph-name="Rcommaaccent" unicode="&#x156;" horiz-adv-x="616" 
d="M566 507q0 -57 -22 -98.5t-66.5 -68t-115.5 -31.5l197 -309h-46l-193 308h-174v-308h-40v710h190q134 0 202 -51.5t68 -151.5zM146 674v-331h182q43 0 79 9t62.5 28.5t41 51.5t14.5 75q0 167 -228 167h-151zM311 -49q40 0 40 -49q0 -65 -66 -83l-4 21q20 8 29 19.5
t9 31.5q-41 0 -41 30q0 15 9.5 22.5t23.5 7.5z" />
    <glyph glyph-name="rcommaaccent" unicode="&#x157;" horiz-adv-x="300" 
d="M257 490q19 0 36 -5l-3 -38q-12 4 -34 4q-33 0 -62 -24.5t-47.5 -71t-18.5 -88.5v-267h-38v480h33l4 -109q14 39 37.5 68t48 40t44.5 11zM107 -49q40 0 40 -49q0 -65 -66 -83l-4 21q20 8 29 19.5t9 31.5q-41 0 -41 30q0 15 9.5 22.5t23.5 7.5z" />
    <glyph glyph-name="Rcaron" unicode="&#x158;" horiz-adv-x="616" 
d="M308 741h-34l-104 104l35 6l86 -87l86 87l35 -6zM566 507q0 -57 -22 -98.5t-66.5 -68t-115.5 -31.5l197 -309h-46l-193 308h-174v-308h-40v710h190q134 0 202 -51.5t68 -151.5zM146 674v-331h182q43 0 79 9t62.5 28.5t41 51.5t14.5 75q0 167 -228 167h-151z" />
    <glyph glyph-name="rcaron" unicode="&#x159;" horiz-adv-x="300" 
d="M179 557h-34l-122 153l35 2l104 -131l104 131l34 -2zM127 371q14 39 37.5 68t48 40t44.5 11q19 0 36 -5l-3 -38q-12 4 -34 4q-33 0 -62 -24.5t-47.5 -71t-18.5 -88.5v-267h-38v480h33z" />
    <glyph glyph-name="Sacute" unicode="&#x15a;" horiz-adv-x="566" 
d="M256 742l73 106l44 -7l-82 -102zM280 -12q-135 0 -229 60l6 39q38 -25 96 -44t128 -19q95 0 148.5 37.5t53.5 111.5q0 43 -18 72.5t-51.5 49t-126.5 41.5t-121 33t-55 29.5t-45 52.5t-18 83q0 89 58 137.5t168 48.5q198 0 224 -156l-38 -8q-23 130 -185 130
q-91 0 -139.5 -39.5t-48.5 -109.5q0 -44 18.5 -74.5t56.5 -50t123 -38.5t114.5 -30.5t47 -22t34.5 -26.5t30 -45t13 -73q0 -90 -60.5 -139.5t-183.5 -49.5z" />
    <glyph glyph-name="sacute" unicode="&#x15b;" horiz-adv-x="454" 
d="M201 550l100 163l44 -4l-110 -159h-34zM221 -12q-107 0 -177 44l5 35q76 -45 169 -45q78 0 116 23t38 70q0 14 -5.5 31.5t-23 32t-43 23t-84.5 21t-85 24t-41.5 24.5t-27.5 35t-12 58q0 31 18 61.5t59 47.5t95 17q48 0 83 -11.5t56 -30t30.5 -40t10.5 -38.5l-37 -7
q-3 28 -18.5 47t-33.5 28t-40 13.5t-49 4.5q-37 0 -70 -9.5t-49.5 -33t-16.5 -52.5q0 -35 24 -60.5t100 -41.5t106 -25.5t52 -26.5t31 -40t9 -48q0 -36 -16 -64t-57 -47.5t-116 -19.5z" />
    <glyph glyph-name="Scedilla" unicode="&#x15e;" horiz-adv-x="566" 
d="M280 -12h-3l-5 -27q39 0 62 -15.5t23 -47.5q0 -89 -133 -89l4 29q98 0 98 58q0 24 -19 34t-65 10l10 49q-116 5 -201 59l6 39q38 -25 96 -44t128 -19q95 0 148.5 37.5t53.5 111.5q0 43 -18 72.5t-51.5 49t-126.5 41.5t-121 33t-55 29.5t-45 52.5t-18 83q0 89 58 137.5
t168 48.5q198 0 224 -156l-38 -8q-23 130 -185 130q-91 0 -139.5 -39.5t-48.5 -109.5q0 -44 18.5 -74.5t56.5 -50t123 -38.5t114.5 -30.5t47 -22t34.5 -26.5t30 -45t13 -73q0 -90 -60.5 -139.5t-183.5 -49.5z" />
    <glyph glyph-name="scedilla" unicode="&#x15f;" horiz-adv-x="454" 
d="M410 119q0 -66 -47.5 -97.5t-129.5 -33.5l-5 -27q39 0 62 -15.5t23 -47.5q0 -89 -133 -89l4 29q98 0 98 58q0 24 -19 34t-65 10l10 48q-96 3 -164 44l5 35q76 -45 169 -45q78 0 116 23t38 70q0 14 -5.5 31.5t-23 32t-43 23t-84.5 21t-85 24t-41.5 24.5t-27.5 35t-12 58
q0 31 18 61.5t59 47.5t95 17q48 0 83 -11.5t56 -30t30.5 -40t10.5 -38.5l-37 -7q-3 28 -18.5 47t-33.5 28t-40 13.5t-49 4.5q-37 0 -70 -9.5t-49.5 -33t-16.5 -52.5q0 -35 24 -60.5t100 -41.5t106 -25.5t52 -26.5t31 -40t9 -48z" />
    <glyph glyph-name="Scaron" unicode="&#x160;" horiz-adv-x="566" 
d="M294 741h-34l-104 104l35 6l86 -87l86 87l35 -6zM524 177q0 -90 -60.5 -139.5t-183.5 -49.5q-135 0 -229 60l6 39q38 -25 96 -44t128 -19q95 0 148.5 37.5t53.5 111.5q0 43 -18 72.5t-51.5 49t-126.5 41.5t-121 33t-55 29.5t-45 52.5t-18 83q0 89 58 137.5t168 48.5
q198 0 224 -156l-38 -8q-23 130 -185 130q-91 0 -139.5 -39.5t-48.5 -109.5q0 -44 18.5 -74.5t56.5 -50t123 -38.5t114.5 -30.5t47 -22t34.5 -26.5t30 -45t13 -73z" />
    <glyph glyph-name="scaron" unicode="&#x161;" horiz-adv-x="454" 
d="M243 557h-34l-122 153l35 2l104 -131l104 131l34 -2zM88 361q0 -35 24 -60.5t100 -41.5t106 -25.5t52 -26.5t31 -40t9 -48q0 -36 -16 -64t-57 -47.5t-116 -19.5q-107 0 -177 44l5 35q76 -45 169 -45q78 0 116 23t38 70q0 14 -5.5 31.5t-23 32t-43 23t-84.5 21t-85 24
t-41.5 24.5t-27.5 35t-12 58q0 31 18 61.5t59 47.5t95 17q48 0 83 -11.5t56 -30t30.5 -40t10.5 -38.5l-37 -7q-3 28 -18.5 47t-33.5 28t-40 13.5t-49 4.5q-37 0 -70 -9.5t-49.5 -33t-16.5 -52.5z" />
    <glyph glyph-name="Tcommaaccent" unicode="&#x162;" horiz-adv-x="509" 
d="M274 0h-8l-8 -39q39 0 62 -15.5t23 -47.5q0 -89 -133 -89l4 29q98 0 98 58q0 24 -19 34t-65 10l13 60h-8v673h-243v37h529v-37h-245v-673z" />
    <glyph glyph-name="tcommaaccent" unicode="&#x163;" horiz-adv-x="303" 
d="M301 448h-163v-348q0 -33 13.5 -55.5t54.5 -22.5q13 0 31 2t46 14l3 -34q-40 -16 -85 -16h-3l-5 -27q39 0 62 -15.5t23 -47.5q0 -89 -133 -89l4 29q98 0 98 58q0 24 -19 34t-65 10l11 50q-36 5 -55 30t-19 81v347h-90v32h90v140h38v-140h163v-32z" />
    <glyph glyph-name="Tcaron" unicode="&#x164;" horiz-adv-x="509" 
d="M271 741h-34l-104 104l35 6l86 -87l86 87l35 -6zM519 710v-37h-245v-673h-41v673h-243v37h529z" />
    <glyph glyph-name="tcaron" unicode="&#x165;" horiz-adv-x="287" 
d="M322 710l-32 -183l-32 3l28 183zM138 620v-140h163v-32h-163v-348q0 -33 13.5 -55.5t54.5 -22.5q13 0 31 2t46 14l3 -34q-40 -16 -85 -16q-57 0 -79 27.5t-22 85.5v347h-90v32h90v140h38z" />
    <glyph glyph-name="Tbar" unicode="&#x166;" horiz-adv-x="449" 
d="M519 673h-245v-306h127v-34h-127v-333h-41v333h-128v34h128v306h-243v37h529v-37z" />
    <glyph glyph-name="tbar" unicode="&#x167;" horiz-adv-x="290" 
d="M301 448h-163v-155h109v-32h-109v-161q0 -33 13.5 -55.5t54.5 -22.5q13 0 31 2t46 14l3 -34q-40 -16 -85 -16q-57 0 -79 27.5t-22 85.5v160h-83v32h83v155h-90v32h90v140h38v-140h163v-32z" />
    <glyph glyph-name="Utilde" unicode="&#x168;" horiz-adv-x="720" 
d="M262 742l-26 4q6 75 62 75q21 0 60 -11.5t55 -11.5q18 0 27 11t11 38l26 -3q-3 -39 -17.5 -57.5t-44.5 -18.5q-21 0 -59.5 11.5t-55.5 11.5t-26 -11t-12 -38zM356 -12q-135 0 -198 68t-63 211v443h40v-443q0 -126 54 -185t168 -59t170.5 59.5t56.5 182.5v445h42v-445
q0 -140 -67.5 -208.5t-202.5 -68.5z" />
    <glyph glyph-name="utilde" unicode="&#x169;" horiz-adv-x="555" 
d="M202 654q-46 0 -52 -70l-27 4q3 47 24 71t56 24q30 0 68.5 -20t53.5 -23t22 -3q23 0 36 16t17 54l26 -3q-3 -49 -23.5 -73t-54.5 -24q-29 0 -75 23.5t-71 23.5zM428 480h38v-480h-33l-4 107q-25 -57 -72 -88t-113 -31q-89 0 -126 42.5t-37 144.5v305h38v-299
q0 -65 14.5 -97.5t43 -46.5t76.5 -14q54 0 92.5 25t60.5 67.5t22 92.5v272z" />
    <glyph glyph-name="Umacron" unicode="&#x16a;" horiz-adv-x="720" 
d="M224 772v32h266v-32h-266zM356 -12q-135 0 -198 68t-63 211v443h40v-443q0 -126 54 -185t168 -59t170.5 59.5t56.5 182.5v445h42v-445q0 -140 -67.5 -208.5t-202.5 -68.5z" />
    <glyph glyph-name="umacron" unicode="&#x16b;" horiz-adv-x="555" 
d="M416 644v-32h-285v32h285zM428 480h38v-480h-33l-4 107q-25 -57 -72 -88t-113 -31q-89 0 -126 42.5t-37 144.5v305h38v-299q0 -65 14.5 -97.5t43 -46.5t76.5 -14q54 0 92.5 25t60.5 67.5t22 92.5v272z" />
    <glyph glyph-name="Uring" unicode="&#x16e;" horiz-adv-x="720" 
d="M356 731q-33 0 -53.5 20t-20.5 52t20.5 51.5t53.5 19.5q34 0 54.5 -19.5t20.5 -51.5q0 -33 -20.5 -52.5t-54.5 -19.5zM356 751q23 0 37.5 14.5t14.5 37.5t-14.5 37t-37.5 14t-37 -14t-14 -37q0 -24 14 -38t37 -14zM356 -12q-135 0 -198 68t-63 211v443h40v-443
q0 -126 54 -185t168 -59t170.5 59.5t56.5 182.5v445h42v-445q0 -140 -67.5 -208.5t-202.5 -68.5z" />
    <glyph glyph-name="uring" unicode="&#x16f;" horiz-adv-x="555" 
d="M275 548q-42 0 -67 25t-25 63t25 63t67 25q32 0 54.5 -14.5t30.5 -35t8 -38.5q0 -39 -25 -63.5t-68 -24.5zM275 701q-31 0 -48.5 -18.5t-17.5 -46.5t17.5 -46.5t48.5 -18.5q32 0 49.5 18.5t17.5 46.5q0 29 -17 47t-50 18zM428 480h38v-480h-33l-4 107q-25 -57 -72 -88
t-113 -31q-89 0 -126 42.5t-37 144.5v305h38v-299q0 -65 14.5 -97.5t43 -46.5t76.5 -14q54 0 92.5 25t60.5 67.5t22 92.5v272z" />
    <glyph glyph-name="Uhungarumlaut" unicode="&#x170;" horiz-adv-x="720" 
d="M274 742l73 106l44 -7l-82 -102zM376 742l73 106l44 -7l-82 -102zM356 -12q-135 0 -198 68t-63 211v443h40v-443q0 -126 54 -185t168 -59t170.5 59.5t56.5 182.5v445h42v-445q0 -140 -67.5 -208.5t-202.5 -68.5z" />
    <glyph glyph-name="uhungarumlaut" unicode="&#x171;" horiz-adv-x="555" 
d="M309 709l-110 -159h-34l100 163zM318 550h-34l100 163l44 -4zM428 480h38v-480h-33l-4 107q-25 -57 -72 -88t-113 -31q-89 0 -126 42.5t-37 144.5v305h38v-299q0 -65 14.5 -97.5t43 -46.5t76.5 -14q54 0 92.5 25t60.5 67.5t22 92.5v272z" />
    <glyph glyph-name="Uogonek" unicode="&#x172;" horiz-adv-x="720" 
d="M584 710h42v-445q0 -207 -150 -260q-96 -51 -96 -109q0 -24 13 -36t34 -12q27 0 55 12l2 -30q-22 -12 -61 -12t-59 18t-20 52q0 60 67 103q-25 -3 -55 -3q-135 0 -198 68t-63 211v443h40v-443q0 -126 54 -185t168 -59t170.5 59.5t56.5 182.5v445z" />
    <glyph glyph-name="uogonek" unicode="&#x173;" horiz-adv-x="555" 
d="M465 -149l2 -30q-22 -12 -61 -12t-59 18t-20 52q0 75 106 124l-4 104q-25 -57 -72 -88t-113 -31q-89 0 -126 42.5t-37 144.5v305h38v-299q0 -65 14.5 -97.5t43 -46.5t76.5 -14q54 0 92.5 25t60.5 67.5t22 92.5v272h38v-480q-103 -53 -103 -113q0 -24 13 -36t34 -12
q27 0 55 12z" />
    <glyph glyph-name="Wcircumflex" unicode="&#x174;" horiz-adv-x="895" 
d="M448 828l-86 -87l-35 6l104 104h34l104 -104l-35 -6zM850 710h43l-222 -710h-45l-179 651l-178 -651h-45l-222 710h43l201 -654l179 654h45l179 -654z" />
    <glyph glyph-name="wcircumflex" unicode="&#x175;" horiz-adv-x="679" 
d="M340 693l-104 -131l-35 2l122 153h34l121 -153l-34 -2zM633 480h40l-166 -480h-34l-134 429l-134 -429h-33l-166 480h40l143 -431l131 431h39l131 -436z" />
    <glyph glyph-name="Ycircumflex" unicode="&#x176;" horiz-adv-x="530" 
d="M264 828l-86 -87l-35 6l104 104h34l104 -104l-35 -6zM498 710h45l-259 -414v-296h-40v296l-258 414h45l234 -380z" />
    <glyph glyph-name="ycircumflex" unicode="&#x177;" horiz-adv-x="448" 
d="M218 693l-104 -131l-35 2l122 153h34l121 -153l-34 -2zM405 480h41l-238 -585q-18 -43 -47 -64t-77 -21q-8 0 -17.5 1t-43.5 10l-2 36q19 -6 32 -9.5t32 -3.5q35 0 56.5 13.5t35.5 47.5l37 94l-212 481h41l190 -434z" />
    <glyph glyph-name="Ydieresis" unicode="&#x178;" horiz-adv-x="530" 
d="M197 763q-11 0 -19 7.5t-8 19.5t8 19.5t19 7.5q12 0 20 -7.5t8 -19.5t-8 -19.5t-20 -7.5zM330 763q-11 0 -19 7.5t-8 19.5t8 19.5t19 7.5q12 0 20 -7.5t8 -19.5t-8 -19.5t-20 -7.5zM498 710h45l-259 -414v-296h-40v296l-258 414h45l234 -380z" />
    <glyph glyph-name="Zacute" unicode="&#x179;" horiz-adv-x="565" 
d="M388 841l-82 -102l-35 3l73 106zM544 710v-30l-470 -644h465v-36h-517v29l470 646h-456v35h508z" />
    <glyph glyph-name="zacute" unicode="&#x17a;" horiz-adv-x="455" 
d="M358 709l-110 -159h-34l100 163zM430 446l-348 -413h348v-33h-388l-5 34l348 413h-329v33h369z" />
    <glyph glyph-name="Zdotaccent" unicode="&#x17b;" horiz-adv-x="565" 
d="M293 766q-13 0 -22 9t-9 22q0 12 9 21t22 9t21.5 -9t8.5 -21q0 -13 -8.5 -22t-21.5 -9zM544 710v-30l-470 -644h465v-36h-517v29l470 646h-456v35h508z" />
    <glyph glyph-name="zdotaccent" unicode="&#x17c;" horiz-adv-x="455" 
d="M240 606q-13 0 -22.5 10t-9.5 23t9.5 22.5t22.5 9.5t22.5 -9.5t9.5 -22.5t-9.5 -23t-22.5 -10zM430 446l-348 -413h348v-33h-388l-5 34l348 413h-329v33h369z" />
    <glyph glyph-name="Zcaron" unicode="&#x17d;" horiz-adv-x="565" 
d="M309 741h-34l-104 104l35 6l86 -87l86 87l35 -6zM544 710v-30l-470 -644h465v-36h-517v29l470 646h-456v35h508z" />
    <glyph glyph-name="zcaron" unicode="&#x17e;" horiz-adv-x="455" 
d="M256 557h-34l-122 153l35 2l104 -131l104 131l34 -2zM430 446l-348 -413h348v-33h-388l-5 34l348 413h-329v33h369z" />
    <glyph glyph-name="uni01EA" unicode="&#x1ea;" horiz-adv-x="774" 
d="M503 4q-91 -52 -91 -107q0 -24 13 -36t34 -12q27 0 55 12l2 -30q-22 -12 -61 -12t-59 18t-20 52q0 59 66 102q-27 -3 -55 -3q-156 0 -243 94.5t-87 271.5t87 271.5t243 94.5t243 -94.5t87 -271.5q0 -141 -55.5 -230.5t-158.5 -119.5zM98 354q0 -80 20 -142.5t57.5 -104
t91.5 -62.5t120 -21q67 0 121 21t91 62.5t57 104t20 142.5t-20 142.5t-57 104t-91 62.5t-121 21q-66 0 -120 -21t-91.5 -62.5t-57.5 -104t-20 -142.5z" />
    <glyph glyph-name="uni01EB" unicode="&#x1eb;" horiz-adv-x="577" 
d="M375 1q-83 -47 -83 -102q0 -24 13 -36t34 -12q27 0 55 12l2 -30q-22 -12 -61 -12t-59 18t-20 52q0 57 60 98l-28 -1q-105 0 -165 63.5t-60 187.5t60 187.5t165 63.5t165.5 -64t60.5 -188q0 -95 -36.5 -155t-102.5 -82zM101 238q0 -106 49.5 -161t137.5 -55t137.5 55
t49.5 161q0 107 -49.5 162.5t-137.5 55.5t-137.5 -55.5t-49.5 -162.5z" />
    <glyph glyph-name="AEacute" unicode="&#x1fc;" horiz-adv-x="937" 
d="M628 841l-82 -102l-35 3l73 106zM877 675h-342v-300h316v-35h-316v-304h321v-36h-362v340h-261l16 35h245v300h-111l-316 -675h-42l336 710h520z" />
    <glyph glyph-name="aeacute" unicode="&#x1fd;" horiz-adv-x="892" 
d="M582 709l-110 -159h-34l100 163zM469 231q1 -39 9.5 -77t30 -67t58 -47t92.5 -18q28 0 60.5 7t58.5 20.5t37 23.5l10 -33q-21 -19 -66.5 -35.5t-104.5 -16.5q-80 0 -133 36t-75 107q-12 -33 -39 -66t-75 -55t-98 -22q-70 0 -111.5 38t-41.5 102q0 68 50 108t147 40
q77 0 152 -18v47q0 72 -37.5 112t-111.5 40q-129 0 -149 -114l-37 7q17 75 64 107.5t122 32.5q33 0 70 -9.5t65.5 -36t40.5 -65.5q25 53 72.5 82t110.5 29q35 0 69.5 -12t61.5 -40t44 -72t17 -104v-31h-363zM641 456q-26 0 -54 -7.5t-52.5 -27.5t-43 -58.5t-21.5 -100.5h326
q-1 92 -44 143t-111 51zM239 21q40 0 75.5 14.5t61.5 40t40 58.5t14 67v26q-70 18 -149 18q-163 0 -163 -118q0 -37 18.5 -62.5t47.5 -34.5t55 -9z" />
    <glyph glyph-name="Oslashacute" unicode="&#x1fe;" horiz-adv-x="807" 
d="M483 841l-82 -102l-35 3l73 106zM620 637q47 -46 72 -118.5t25 -164.5q0 -177 -87 -271.5t-243 -94.5q-113 0 -189 49l-49 -69l-37 5l59 83q-55 45 -84.5 121t-29.5 177q0 177 87 271.5t243 94.5q127 0 209 -62l66 94l36 -5zM98 354q0 -89 25 -157t71 -108l379 537
q-73 58 -186 58q-66 0 -120 -21t-91.5 -62.5t-57.5 -104t-20 -142.5zM387 24q67 0 121 21t91 62.5t57 104t20 142.5q0 81 -20.5 144.5t-58.5 104.5l-377 -534q68 -45 167 -45z" />
    <glyph glyph-name="oslashacute" unicode="&#x1ff;" horiz-adv-x="610" 
d="M407 709l-110 -159h-34l100 163zM444 436q70 -65 70 -198q0 -124 -60.5 -187t-165.5 -63q-63 0 -108 22l-30 -49l-31 6l35 57q-44 30 -67.5 84t-23.5 131q0 124 60 187.5t165 63.5q80 0 134 -36l39 62l30 -5zM101 238q0 -64 19 -111t54 -72l228 367q-22 16 -51.5 25
t-62.5 9q-88 0 -137.5 -55.5t-49.5 -162.5zM288 22q88 0 137.5 55t49.5 161q0 108 -51 165l-225 -363q38 -18 89 -18z" />
    <glyph glyph-name="Scommaaccent" unicode="&#x218;" horiz-adv-x="566" 
d="M280 -12q-135 0 -229 60l6 39q38 -25 96 -44t128 -19q95 0 148.5 37.5t53.5 111.5q0 43 -18 72.5t-51.5 49t-126.5 41.5t-121 33t-55 29.5t-45 52.5t-18 83q0 89 58 137.5t168 48.5q198 0 224 -156l-38 -8q-23 130 -185 130q-91 0 -139.5 -39.5t-48.5 -109.5
q0 -44 18.5 -74.5t56.5 -50t123 -38.5t114.5 -30.5t47 -22t34.5 -26.5t30 -45t13 -73q0 -90 -60.5 -139.5t-183.5 -49.5zM237 -181l-4 21q20 8 29 19.5t9 31.5q-41 0 -41 30q0 15 9.5 22.5t23.5 7.5q40 0 40 -49q0 -65 -66 -83z" />
    <glyph glyph-name="scommaaccent" unicode="&#x219;" horiz-adv-x="454" 
d="M221 -12q-107 0 -177 44l5 35q76 -45 169 -45q78 0 116 23t38 70q0 14 -5.5 31.5t-23 32t-43 23t-84.5 21t-85 24t-41.5 24.5t-27.5 35t-12 58q0 31 18 61.5t59 47.5t95 17q48 0 83 -11.5t56 -30t30.5 -40t10.5 -38.5l-37 -7q-3 28 -18.5 47t-33.5 28t-40 13.5t-49 4.5
q-37 0 -70 -9.5t-49.5 -33t-16.5 -52.5q0 -35 24 -60.5t100 -41.5t106 -25.5t52 -26.5t31 -40t9 -48q0 -36 -16 -64t-57 -47.5t-116 -19.5zM193 -181l-4 21q20 8 29 19.5t9 31.5q-41 0 -41 30q0 15 9.5 22.5t23.5 7.5q40 0 40 -49q0 -65 -66 -83z" />
    <glyph glyph-name="uni021A" unicode="&#x21a;" horiz-adv-x="509" 
d="M519 710v-37h-245v-673h-41v673h-243v37h529zM249 -49q40 0 40 -49q0 -65 -66 -83l-4 21q20 8 29 19.5t9 31.5q-41 0 -41 30q0 15 9.5 22.5t23.5 7.5z" />
    <glyph glyph-name="uni021B" unicode="&#x21b;" horiz-adv-x="303" 
d="M301 448h-163v-348q0 -33 13.5 -55.5t54.5 -22.5q13 0 31 2t46 14l3 -34q-40 -16 -85 -16q-57 0 -79 27.5t-22 85.5v347h-90v32h90v140h38v-140h163v-32zM184 -49q40 0 40 -49q0 -65 -66 -83l-4 21q20 8 29 19.5t9 31.5q-41 0 -41 30q0 15 9.5 22.5t23.5 7.5z" />
    <glyph glyph-name="uni0237" unicode="&#x237;" horiz-adv-x="220" 
d="M39 -190q-37 0 -56 11l3 33q23 -10 48 -10q28 0 41.5 13t13.5 40v583h38v-582q0 -44 -21.5 -66t-66.5 -22z" />
    <glyph glyph-name="gravecomb" unicode="&#x300;" 
d="M-121 550h-34l-110 159l44 4z" />
    <glyph glyph-name="acutecomb" unicode="&#x301;" 
d="M-265 550l100 163l44 -4l-110 -159h-34z" />
    <glyph glyph-name="uni0302" unicode="&#x302;" 
d="M-120 564l-34 -2l-104 131l-104 -131l-35 2l122 153h34z" />
    <glyph glyph-name="tildecomb" unicode="&#x303;" 
d="M-397 584l-27 4q3 47 24 71t56 24q30 0 68.5 -20t53.5 -23t22 -3q23 0 36 16t17 54l26 -3q-3 -49 -23.5 -73t-54.5 -24q-29 0 -75 23.5t-71 23.5q-46 0 -52 -70z" />
    <glyph glyph-name="uni0304" unicode="&#x304;" 
d="M-405 612v32h285v-32h-285z" />
    <glyph glyph-name="uni0306" unicode="&#x306;" 
d="M-253 561q-62 0 -95 34.5t-38 106.5l30 2q4 -56 28 -84t75 -28q52 0 75.5 28t27.5 84l29 -2q-4 -72 -37 -106.5t-95 -34.5z" />
    <glyph glyph-name="uni0307" unicode="&#x307;" 
d="M-153 606q-13 0 -22.5 10t-9.5 23t9.5 22.5t22.5 9.5t22.5 -9.5t9.5 -22.5t-9.5 -23t-22.5 -10z" />
    <glyph glyph-name="uni0308" unicode="&#x308;" 
d="M-284 608q-12 0 -20.5 9t-8.5 21t8.5 21t20.5 9q13 0 21.5 -9t8.5 -21t-8.5 -21t-21.5 -9zM-150 608q-12 0 -20.5 9t-8.5 21t8.5 21t20.5 9t20.5 -9t8.5 -21t-8.5 -21t-20.5 -9z" />
    <glyph glyph-name="uni030A" unicode="&#x30a;" 
d="M-212 548q-42 0 -67 25t-25 63t25 63t67 25q32 0 54.5 -14.5t30.5 -35t8 -38.5q0 -39 -25 -63.5t-68 -24.5zM-212 571q32 0 49.5 18.5t17.5 46.5q0 29 -17 47t-50 18q-31 0 -48.5 -18.5t-17.5 -46.5t17.5 -46.5t48.5 -18.5z" />
    <glyph glyph-name="uni030B" unicode="&#x30b;" 
d="M-263 550l100 163l44 -4l-110 -159h-34zM-382 550l100 163l44 -4l-110 -159h-34z" />
    <glyph glyph-name="uni030C" unicode="&#x30c;" 
d="M-155 712l34 -2l-121 -153h-34l-122 153l35 2l104 -130z" />
    <glyph glyph-name="uni0326" unicode="&#x326;" 
d="M-187 -181l-4 21q20 8 29 19.5t9 31.5q-41 0 -41 30q0 15 9.5 22.5t23.5 7.5q40 0 40 -49q0 -65 -66 -83z" />
    <glyph glyph-name="uni0327" unicode="&#x327;" 
d="M-254 -191l4 29q98 0 98 58q0 24 -19 34t-65 10l14 66h25l-9 -45q39 0 62 -15.5t23 -47.5q0 -89 -133 -89z" />
    <glyph glyph-name="uni0328" unicode="&#x328;" 
d="M-183 -191q-39 0 -59 18t-20 52q0 79 116 128l23 -7q-103 -53 -103 -113q0 -24 13 -36t34 -12q27 0 55 12l2 -30q-22 -12 -61 -12z" />
    <glyph glyph-name="Wgrave" unicode="&#x1e80;" horiz-adv-x="895" 
d="M464 742l-35 -3l-82 102l44 7zM850 710h43l-222 -710h-45l-179 651l-178 -651h-45l-222 710h43l201 -654l179 654h45l179 -654z" />
    <glyph glyph-name="wgrave" unicode="&#x1e81;" horiz-adv-x="679" 
d="M358 550h-34l-110 159l44 4zM633 480h40l-166 -480h-34l-134 429l-134 -429h-33l-166 480h40l143 -431l131 431h39l131 -436z" />
    <glyph glyph-name="Wacute" unicode="&#x1e82;" horiz-adv-x="895" 
d="M544 841l-82 -102l-35 3l73 106zM850 710h43l-222 -710h-45l-179 651l-178 -651h-45l-222 710h43l201 -654l179 654h45l179 -654z" />
    <glyph glyph-name="wacute" unicode="&#x1e83;" horiz-adv-x="679" 
d="M458 709l-110 -159h-34l100 163zM633 480h40l-166 -480h-34l-134 429l-134 -429h-33l-166 480h40l143 -431l131 431h39l131 -436z" />
    <glyph glyph-name="Wdieresis" unicode="&#x1e84;" horiz-adv-x="895" 
d="M381 763q-11 0 -19 7.5t-8 19.5t8 19.5t19 7.5q12 0 20 -7.5t8 -19.5t-8 -19.5t-20 -7.5zM514 763q-11 0 -19 7.5t-8 19.5t8 19.5t19 7.5q12 0 20 -7.5t8 -19.5t-8 -19.5t-20 -7.5zM850 710h43l-222 -710h-45l-179 651l-178 -651h-45l-222 710h43l201 -654l179 654h45
l179 -654z" />
    <glyph glyph-name="wdieresis" unicode="&#x1e85;" horiz-adv-x="679" 
d="M271 608q-12 0 -20.5 9t-8.5 21t8.5 21t20.5 9q13 0 21.5 -9t8.5 -21t-8.5 -21t-21.5 -9zM405 608q-12 0 -20.5 9t-8.5 21t8.5 21t20.5 9t20.5 -9t8.5 -21t-8.5 -21t-20.5 -9zM633 480h40l-166 -480h-34l-134 429l-134 -429h-33l-166 480h40l143 -431l131 431h39
l131 -436z" />
    <glyph glyph-name="Ygrave" unicode="&#x1ef2;" horiz-adv-x="530" 
d="M280 742l-35 -3l-82 102l44 7zM498 710h45l-259 -414v-296h-40v296l-258 414h45l234 -380z" />
    <glyph glyph-name="ygrave" unicode="&#x1ef3;" horiz-adv-x="448" 
d="M236 550h-34l-110 159l44 4zM405 480h41l-238 -585q-18 -43 -47 -64t-77 -21q-8 0 -17.5 1t-43.5 10l-2 36q19 -6 32 -9.5t32 -3.5q35 0 56.5 13.5t35.5 47.5l37 94l-212 481h41l190 -434z" />
    <glyph glyph-name="uni1EF8" unicode="&#x1ef8;" horiz-adv-x="530" 
d="M207 791q-17 0 -26 -11t-12 -38l-26 4q6 75 62 75q21 0 60 -11.5t55 -11.5q18 0 27 11t11 38l26 -3q-3 -39 -17.5 -57.5t-44.5 -18.5q-21 0 -59.5 11.5t-55.5 11.5zM498 710h45l-259 -414v-296h-40v296l-258 414h45l234 -380z" />
    <glyph glyph-name="uni1EF9" unicode="&#x1ef9;" horiz-adv-x="448" 
d="M144 654q-46 0 -52 -70l-27 4q3 47 24 71t56 24q30 0 68.5 -20t53.5 -23t22 -3q23 0 36 16t17 54l26 -3q-3 -49 -23.5 -73t-54.5 -24q-29 0 -75 23.5t-71 23.5zM405 480h41l-238 -585q-18 -43 -47 -64t-77 -21q-8 0 -17.5 1t-43.5 10l-2 36q19 -6 32 -9.5t32 -3.5
q35 0 56.5 13.5t35.5 47.5l37 94l-212 481h41l190 -434z" />
    <glyph glyph-name="endash" unicode="&#x2013;" horiz-adv-x="596" 
d="M73 270v34h450v-34h-450z" />
    <glyph glyph-name="emdash" unicode="&#x2014;" horiz-adv-x="886" 
d="M73 270v34h740v-34h-740z" />
    <glyph glyph-name="quoteleft" unicode="&#x2018;" horiz-adv-x="224" 
d="M141 712l15 -24q-20 -15 -27.5 -30t-7.5 -35q0 -16 11.5 -26t28.5 -10q0 -15 -8.5 -26t-25.5 -11q-18 0 -30.5 16.5t-12.5 44.5q0 61 57 101z" />
    <glyph glyph-name="quoteright" unicode="&#x2019;" horiz-adv-x="224" 
d="M103 540l-15 24q20 15 27.5 30t7.5 35q0 16 -11.5 26t-28.5 10q0 15 9 26t26 11q18 0 30 -16.5t12 -44.5q0 -62 -57 -101z" />
    <glyph glyph-name="quotesinglbase" unicode="&#x201a;" horiz-adv-x="204" 
d="M83 -99l-15 24q20 15 27.5 30t7.5 35q0 16 -11.5 26t-28.5 10q0 15 8.5 26t25.5 11q18 0 30.5 -16.5t12.5 -44.5q0 -61 -57 -101z" />
    <glyph glyph-name="quotedblleft" unicode="&#x201c;" horiz-adv-x="346" 
d="M141 712l15 -24q-20 -15 -27.5 -30t-7.5 -35q0 -16 11.5 -26t28.5 -10q0 -15 -8.5 -26t-25.5 -11q-18 0 -30.5 16.5t-12.5 44.5q0 61 57 101zM263 712l15 -24q-20 -15 -27.5 -30t-7.5 -35q0 -16 11.5 -26t28.5 -10q0 -15 -9 -26t-26 -11q-18 0 -30 16.5t-12 44.5
q0 62 57 101z" />
    <glyph glyph-name="quotedblright" unicode="&#x201d;" horiz-adv-x="346" 
d="M103 540l-15 24q20 15 27.5 30t7.5 35q0 16 -11.5 26t-28.5 10q0 15 9 26t26 11q18 0 30 -16.5t12 -44.5q0 -62 -57 -101zM225 540l-15 24q20 15 27.5 30t7.5 35q0 16 -11.5 26t-28.5 10q0 15 8.5 26t25.5 11q18 0 30.5 -16.5t12.5 -44.5q0 -61 -57 -101z" />
    <glyph glyph-name="quotedblbase" unicode="&#x201e;" horiz-adv-x="325" 
d="M83 -99l-15 24q20 15 27.5 30t7.5 35q0 16 -11.5 26t-28.5 10q0 15 8.5 26t25.5 11q18 0 30.5 -16.5t12.5 -44.5q0 -61 -57 -101zM205 -99l-15 24q20 15 27.5 30t7.5 35q0 16 -11.5 26t-28.5 10q0 15 8.5 26t25.5 11q18 0 30.5 -16.5t12.5 -44.5q0 -61 -57 -101z" />
    <glyph glyph-name="dagger" unicode="&#x2020;" horiz-adv-x="598" 
d="M495 498l-5 -42l-176 8l4 -464h-39l4 464l-175 -8l-5 42l179 -8l-6 220h45l-7 -220z" />
    <glyph glyph-name="daggerdbl" unicode="&#x2021;" horiz-adv-x="578" 
d="M469 270l6 -40l-171 8l5 -238h-41l4 238l-169 -8l5 40l164 -8v226l-164 -8l-5 40l169 -8l-6 198h45l-7 -198l171 8l-6 -40l-165 8v-226z" />
    <glyph glyph-name="bullet" unicode="&#x2022;" horiz-adv-x="330" 
d="M166 227q-32 0 -53.5 21.5t-21.5 53.5t21.5 53.5t53.5 21.5t52.5 -21t20.5 -54t-20.5 -54t-52.5 -21z" />
    <glyph glyph-name="ellipsis" unicode="&#x2026;" horiz-adv-x="630" 
d="M101 -12q-16 0 -27 12t-11 28t11 27.5t27 11.5q17 0 28 -11.5t11 -27.5q0 -17 -11 -28.5t-28 -11.5zM314 -12q-16 0 -27 12t-11 28t11 27.5t27 11.5q17 0 28 -11t11 -28t-11 -28.5t-28 -11.5zM529 -12q-16 0 -27 12t-11 28t11 27.5t27 11.5q17 0 28 -11.5t11 -27.5
q0 -17 -11 -28.5t-28 -11.5z" />
    <glyph glyph-name="perthousand" unicode="&#x2030;" horiz-adv-x="1254" 
d="M248 326q-42 0 -73 14t-50.5 40t-29 62.5t-9.5 80.5t9.5 80.5t29 62.5t50.5 40t73 14q82 0 121.5 -52.5t39.5 -145.5q0 -92 -39.5 -144t-121.5 -52zM205 -12l-38 3l513 729l38 -3zM248 354q65 0 96.5 44.5t31.5 123.5q0 80 -31.5 125t-96.5 45q-40 0 -68.5 -18t-44.5 -55
t-16 -96q0 -78 32.5 -123.5t96.5 -45.5zM637 -12q-51 0 -86.5 21.5t-55.5 64.5t-20 111q0 56 17 103t55.5 70.5t89.5 23.5q82 0 122 -52.5t40 -145.5q0 -92 -40 -144t-122 -52zM1027 -12q-42 0 -73 14t-50.5 40t-29 62.5t-9.5 80.5t9.5 80.5t29 62.5t50.5 40t73 14
q82 0 121.5 -52.5t39.5 -145.5q0 -92 -39.5 -144t-121.5 -52zM637 16q64 0 96.5 45t32.5 123q0 59 -16 96t-44.5 55.5t-68.5 18.5q-64 0 -96.5 -45t-32.5 -124q0 -78 32.5 -123.5t96.5 -45.5zM1027 16q65 0 96.5 44.5t31.5 123.5q0 80 -31.5 125t-96.5 45t-97.5 -45
t-32.5 -124q0 -78 33 -123.5t97 -45.5z" />
    <glyph glyph-name="guilsinglleft" unicode="&#x2039;" horiz-adv-x="320" 
d="M237 430l-153 -146l153 -131l-22 -23l-170 149v8l171 167z" />
    <glyph glyph-name="guilsinglright" unicode="&#x203a;" horiz-adv-x="320" 
d="M66 454l170 -167v-8l-169 -149l-23 23l153 131l-153 146z" />
    <glyph glyph-name="fraction" unicode="&#x2044;" horiz-adv-x="363" 
d="M-56 -12l-38 3l513 729l38 -3z" />
    <glyph glyph-name="Euro" unicode="&#x20ac;" horiz-adv-x="711" 
d="M540 420l-7 -31h-480l4 31h89q7 77 31.5 135t62.5 94.5t86 53.5t103 17q112 0 195 -63l-9 -37q-85 65 -185 65q-74 0 -125 -33t-80.5 -90.5t-37.5 -141.5h353zM630 87l8 -37q-19 -14 -52 -29.5t-75 -24t-79 -8.5q-54 0 -101.5 16t-85.5 50t-63 88t-34 126h-108l4 31h481
l-6 -31h-329q17 -124 81.5 -184t163.5 -60q32 0 70.5 7.5t72.5 24t52 31.5z" />
    <glyph glyph-name="trademark" unicode="&#x2122;" horiz-adv-x="620" 
d="M557 426h-25l-8 244l-92 -209h-20l-95 210l-7 -245h-24l7 252h-111v-252h-25v252h-94v22h265l94 -210l92 210h35z" />
    <glyph glyph-name="minus" unicode="&#x2212;" horiz-adv-x="588" 
d="M101 300v35h386v-35h-386z" />
    <glyph glyph-name="approxequal" unicode="&#x2248;" horiz-adv-x="565" 
d="M130 335l-29 5q10 90 86 90q32 0 98 -17t96 -17q25 0 38 14.5t16 48.5l30 -4q-10 -91 -85 -91q-32 0 -98 17t-95 17q-49 0 -57 -63zM130 175l-29 5q10 90 86 90q32 0 98 -17t96 -17q25 0 38 14.5t16 48.5l30 -4q-10 -91 -85 -91q-32 0 -98 17t-95 17q-49 0 -57 -63z" />
    <glyph glyph-name="notequal" unicode="&#x2260;" horiz-adv-x="619" 
d="M520 390h-182l-48 -147h230v-33h-241l-37 -114h-37l37 114h-141v33h152l48 147h-200v33h211l37 114h37l-37 -114h171v-33z" />
    <glyph glyph-name="uniF8FF" unicode="&#xf8ff;" horiz-adv-x="1461" 
d="M757 522q-25 0 -43 18t-18 43q0 26 18 44t43 18q26 0 44 -18t18 -44q0 -25 -18 -43t-44 -18zM105 270q0 134 9 314h100q0 -4 2 -34.5t3 -62t3 -88t2 -129.5h-119zM609 264q-40 0 -61 17t-21 49l4 87h-22v79l119 30l1 -17h178q10 -64 10 -239h-118q0 92 3 147h-61l3 -65
q4 -4 15 -4q13 0 18 5v-74q-14 -15 -68 -15zM333 265q-43 0 -67.5 29t-24.5 85q0 65 33.5 100t100.5 35q64 0 94 -31.5t30 -85.5v-127h-83l-8 61q-6 -32 -23.5 -49t-51.5 -17zM839 270q0 175 10 239h80q6 -44 6 -76q4 37 26 59t54 22q21 0 39.5 -8.5t27.5 -32.5t10 -65
l3 -138h-114l2 93q0 6 -1.5 17.5t-13.5 11.5q-8 0 -13 -5.5t-5 -23.5q0 -7 1.5 -37t1.5 -56h-114zM1233 265q-63 0 -92.5 33.5t-29.5 90.5q0 37 13 65.5t40.5 44t70.5 15.5q121 0 121 -123q0 -61 -30.5 -93.5t-92.5 -32.5zM371 345q11 0 17.5 8.5t6.5 21.5q0 26 -24 26
q-22 0 -22 -26q0 -14 6 -22t16 -8zM1233 345q10 0 16.5 8.5t6.5 21.5q0 26 -23 26q-21 0 -21 -26q0 -14 5.5 -22t15.5 -8zM395 -50q-61 0 -88 17v83q24 -16 70 -16q29 0 41.5 10t12.5 18q-16 -11 -49 -11q-90 0 -90 83v13h-55l3 -65q6 -4 15 -4q13 0 18 5v-73
q-19 -15 -68 -15q-44 0 -62.5 17.5t-18.5 53.5l3 81h-18v80l117 29l-1 -18h177v-119q0 -15 3.5 -21t11.5 -6q16 0 16 27v119h104q3 -18 6.5 -60t3.5 -78q0 -81 -34 -115.5t-118 -34.5zM563 -44q0 142 10 282h78q2 -11 4.5 -38t2.5 -38q8 38 28.5 59.5t51.5 21.5
q37 0 58.5 -29.5t21.5 -83.5q0 -135 -137 -135l1 -39h-119zM975 -5q-70 0 -105.5 31t-35.5 91q0 27 10.5 56.5t39.5 49.5t75 20q54 0 85 -30.5t31 -85.5q0 -21 -3 -35h-124q4 -6 16 -12t34 -6q34 0 55 12v-75q-23 -16 -78 -16zM943 109h40q1 13 -3.5 20t-13.5 7
q-10 0 -16.5 -7.5t-6.5 -19.5zM675 72q15 0 26 11t11 26q0 11 -5.5 17t-14.5 6q-22 0 -22 -31q0 -14 5 -29zM1103 -10q-10 0 -17 6.5t-7 16.5t7 16.5t17 6.5t17 -6.5t7 -16.5t-7 -16.5t-17 -6.5zM1103 -5q8 0 13 5t5 13t-5 13t-13 5t-13 -5t-5 -13t5 -13t13 -5zM1093 2v23
h11q10 0 10 -7q0 -1 -1.5 -4t-5.5 -3l6 -9h-6l-4 9h-5v-9h-5zM1098 15h7q3 0 4 3q-1 3 -4 3h-7v-6z" />
    <glyph glyph-name="i.aalt" horiz-adv-x="224" 
d="M112 606q-13 0 -22.5 10t-9.5 23t9.5 22.5t22.5 9.5t22.5 -9.5t9.5 -22.5t-9.5 -23t-22.5 -10zM93 0v480h38v-480h-38z" />
    <glyph glyph-name="f_t.dlig" horiz-adv-x="602" 
d="M566 448h-163v-348q0 -33 13 -55.5t54 -22.5t77 16l3 -34q-43 -16 -85 -16q-48 0 -74 23t-26 90v347h-207v-448h-38v448h-97v32h97v108q0 65 27.5 98.5t76.5 33.5q42 0 77 -14l-3 -34q-36 14 -69 14q-71 0 -71 -98v-108h207v140h38v-140h163v-32z" />
    <glyph glyph-name="glyph348" 
d="M-160 710l-36 3l-28 -183l32 -3z" />
    <glyph glyph-name="acutecomb.aalt" 
d="M-231 742l73 106l44 -7l-82 -102z" />
    <glyph glyph-name="uni0306.aalt" 
d="M-224 739q-101 0 -109 109l28 3q4 -44 24.5 -63.5t56.5 -19.5q37 0 57.5 19.5t24.5 63.5l28 -3q-8 -109 -110 -109z" />
    <glyph glyph-name="uni030C.aalt" 
d="M-149 851l35 -6l-104 -104h-34l-104 104l35 6l86 -87z" />
    <glyph glyph-name="uni0302.aalt" 
d="M-114 747l-35 -6l-86 87l-86 -87l-35 6l104 104h34z" />
    <glyph glyph-name="uni0308.aalt" 
d="M-275 763q-11 0 -19 7.5t-8 19.5t8 19.5t19 7.5q12 0 20 -7.5t8 -19.5t-8 -19.5t-20 -7.5zM-142 763q-11 0 -19 7.5t-8 19.5t8 19.5t19 7.5q12 0 20 -7.5t8 -19.5t-8 -19.5t-20 -7.5z" />
    <glyph glyph-name="uni0307.aalt" 
d="M-144 766q-13 0 -22 9t-9 22q0 12 9 21t22 9t21.5 -9t8.5 -21q0 -13 -8.5 -22t-21.5 -9z" />
    <glyph glyph-name="gravecomb.aalt" 
d="M-114 742l-35 -3l-82 102l44 7z" />
    <glyph glyph-name="uni030B.aalt" 
d="M-333 742l73 106l44 -7l-82 -102zM-231 742l73 106l44 -7l-82 -102z" />
    <glyph glyph-name="uni0304.aalt" 
d="M-380 772v32h266v-32h-266z" />
    <glyph glyph-name="uni030A.aalt" 
d="M-189 731q-33 0 -53.5 20t-20.5 52t20.5 51.5t53.5 19.5q34 0 54.5 -19.5t20.5 -51.5q0 -33 -20.5 -52.5t-54.5 -19.5zM-189 751q23 0 37.5 14.5t14.5 37.5t-14.5 37t-37.5 14t-37 -14t-14 -37q0 -24 14 -38t37 -14z" />
    <glyph glyph-name="tildecomb.aalt" 
d="M-329 742l-26 4q6 75 62 75q21 0 60 -11.5t55 -11.5q18 0 27 11t11 38l26 -3q-3 -39 -17.5 -57.5t-44.5 -18.5q-21 0 -59.5 11.5t-55.5 11.5t-26 -11t-12 -38z" />
    <glyph glyph-name="glyph360" horiz-adv-x="609" 
d="M105 742l73 106l44 -7l-82 -102zM459 742l73 106l44 -7l-82 -102zM106 0v710h40v-710h-40zM325 -12q-26 0 -59.5 4t-84.5 24l4 36q60 -28 138 -28q71 0 104 34t33 111v541h41v-545q0 -92 -44.5 -134.5t-131.5 -42.5z" />
    <glyph glyph-name="glyph361" horiz-adv-x="417" 
d="M87 550l100 163l44 -4l-110 -159h-34zM269 550l100 163l44 -4l-110 -159h-34zM93 0v480h38v-480h-38zM236 -190q-37 0 -56 11l3 33q23 -10 48 -10q28 0 41.5 13t13.5 40v583h38v-582q0 -44 -21.5 -66t-66.5 -22z" />
    </font>
</defs>
</svg>
